<svg width="255" height="101" viewBox="0 0 255 101" fill="none" xmlns="http://www.w3.org/2000/svg">
<rect x="1.91309" y="35" width="49.9761" height="64" rx="3" stroke="white" stroke-width="2"/>
<rect x="12.0715" y="41.9478" width="28.5418" height="24.1207" rx="1.06137" stroke="white" stroke-width="2"/>
<rect x="18.7529" y="70.0781" width="16.1342" height="13.0697" stroke="white" stroke-width="2"/>
<path d="M40.6182 81.2094L38.7715 69.5459" stroke="white" stroke-width="2"/>
<path d="M12.917 81.2094L14.7638 69.5459" stroke="white" stroke-width="2"/>
<path d="M21.5708 92.1851V84.1479" stroke="white" stroke-width="2"/>
<path d="M23.0742 92.2437H17.5339" stroke="white" stroke-width="2"/>
<path d="M36.0015 92.2437H30.4612" stroke="white" stroke-width="2"/>
<path d="M32.0696 92.1851V84.1479" stroke="white" stroke-width="2"/>
<path d="M10.8233 87.1448C10.0878 86.6697 9.52595 85.9545 9.22639 85.112C8.92683 84.2695 8.90663 83.3477 9.16897 82.492C9.43131 81.6363 9.96127 80.8954 10.6752 80.3863C11.3892 79.8771 12.2465 79.6287 13.1118 79.6802C13.9772 79.7317 14.8014 80.0801 15.4544 80.6706C16.1073 81.2611 16.5519 82.0599 16.7179 82.9411C16.884 83.8223 16.762 84.7357 16.3713 85.5371C15.9806 86.3385 15.3433 86.9824 14.5601 87.3671L13.7758 85.654C14.1916 85.4498 14.5299 85.1079 14.7373 84.6825C14.9447 84.257 15.0095 83.7721 14.9213 83.3043C14.8332 82.8364 14.5972 82.4123 14.2505 82.0989C13.9039 81.7854 13.4663 81.6004 13.0069 81.5731C12.5474 81.5457 12.0923 81.6776 11.7133 81.9479C11.3342 82.2182 11.0529 82.6115 10.9136 83.0658C10.7743 83.5201 10.7851 84.0095 10.9441 84.4568C11.1031 84.9041 11.4014 85.2838 11.7919 85.536L10.8233 87.1448Z" fill="white"/>
<path d="M38.8475 87.2869C38.112 86.8118 37.5501 86.0966 37.2506 85.2541C36.951 84.4116 36.9308 83.4898 37.1931 82.6341C37.4555 81.7784 37.9854 81.0375 38.6994 80.5284C39.4133 80.0192 40.2706 79.7708 41.136 79.8223C42.0014 79.8738 42.8256 80.2222 43.4785 80.8127C44.1315 81.4032 44.5761 82.202 44.7421 83.0832C44.9081 83.9644 44.7862 84.8777 44.3955 85.6792C44.0047 86.4806 43.3675 87.1245 42.5843 87.5092L41.7999 85.7961C42.2157 85.5918 42.554 85.25 42.7615 84.8245C42.9689 84.3991 43.0337 83.9142 42.9455 83.4463C42.8574 82.9785 42.6214 82.5544 42.2747 82.2409C41.928 81.9275 41.4905 81.7425 41.031 81.7151C40.5716 81.6878 40.1165 81.8197 39.7374 82.09C39.3584 82.3603 39.0771 82.7536 38.9378 83.2079C38.7985 83.6622 38.8092 84.1516 38.9683 84.5989C39.1273 85.0462 39.4256 85.4259 39.8161 85.6781L38.8475 87.2869Z" fill="white"/>
<path d="M78.0353 35.368C77.9443 35.55 77.8923 35.758 77.8403 36.018C77.5543 37.383 76.9303 39.476 75.8903 40.815C74.7073 42.336 73.1603 43.545 70.7813 44.286L69.8973 43.311C72.4193 42.687 73.8753 41.582 74.9673 40.191C75.8903 39.008 76.4883 37.201 76.6703 35.953C75.9163 35.953 70.7683 35.953 70.0143 35.953C69.4943 35.953 69.0523 35.979 68.7273 35.992V34.835C69.0783 34.887 69.5983 34.926 70.0273 34.926C70.7683 34.926 75.9553 34.926 76.5403 34.926C76.7353 34.926 76.9953 34.913 77.2423 34.861L78.0353 35.368ZM81.9313 40.659C83.6473 40.243 85.5583 39.333 86.6243 38.683C87.8463 37.942 89.0423 36.863 89.7183 36.044L90.5243 36.824C89.7703 37.63 88.4183 38.761 87.0663 39.58C85.9743 40.23 84.1673 41.088 82.4383 41.621L81.9313 40.659ZM86.5073 39.281L87.5863 39.008V43.883C87.5863 44.273 87.5993 44.819 87.6513 45.014H86.4423C86.4683 44.819 86.5073 44.273 86.5073 43.883V39.281ZM103.891 33.444C104.216 33.912 104.684 34.705 104.944 35.225L104.242 35.537C103.982 35.017 103.553 34.237 103.202 33.743L103.891 33.444ZM105.308 32.924C105.659 33.405 106.153 34.211 106.4 34.692L105.698 35.004C105.425 34.445 104.996 33.704 104.632 33.223L105.308 32.924ZM98.9771 35.043C98.9121 34.705 98.8211 34.419 98.7301 34.146L99.9001 33.951C99.9131 34.198 99.9781 34.562 100.017 34.848C100.108 35.433 101.538 42.557 101.72 43.415C101.811 43.792 101.915 44.234 102.032 44.598L100.849 44.819C100.784 44.377 100.745 43.987 100.654 43.597C100.511 42.791 99.1201 35.719 98.9771 35.043ZM95.3111 36.915C95.6361 36.902 95.9741 36.876 96.3901 36.824C97.5601 36.694 102.058 35.979 103.293 35.745C103.67 35.667 103.995 35.589 104.216 35.524L104.437 36.616C104.242 36.642 103.839 36.694 103.501 36.746C102.149 36.967 97.7161 37.669 96.5851 37.864C96.2211 37.929 95.9221 37.994 95.5321 38.072L95.3111 36.915ZM95.2721 40.672C95.5711 40.659 96.0781 40.607 96.4161 40.555C97.7941 40.373 102.643 39.567 104.19 39.281C104.697 39.19 105.061 39.112 105.347 39.021L105.555 40.113C105.282 40.139 104.866 40.217 104.385 40.295C102.656 40.568 97.9761 41.322 96.6501 41.569C96.1431 41.647 95.7921 41.725 95.5061 41.803L95.2721 40.672ZM117.466 37.825C117.427 37.942 117.388 38.111 117.388 38.228C117.271 39.203 116.803 42.323 116.647 43.233H115.555C115.698 42.531 116.179 39.346 116.218 38.514C115.412 38.514 112.448 38.514 112.097 38.514C111.72 38.514 111.369 38.527 111.044 38.553V37.461C111.356 37.5 111.759 37.526 112.084 37.526C112.578 37.526 115.308 37.526 116.036 37.526C116.244 37.526 116.569 37.5 116.673 37.435L117.466 37.825ZM109.822 42.817C110.134 42.856 110.511 42.882 110.901 42.882C111.603 42.882 117.31 42.882 117.999 42.882C118.285 42.882 118.753 42.856 119.026 42.83V43.883C118.779 43.87 118.311 43.87 118.025 43.87C117.297 43.87 111.551 43.87 110.901 43.87C110.511 43.87 110.212 43.883 109.822 43.896V42.817ZM133.517 35.225C133.413 35.342 133.257 35.537 133.166 35.68C132.646 36.564 131.411 38.241 129.929 39.268L129.058 38.579C130.267 37.89 131.489 36.486 131.905 35.68C130.995 35.68 125.119 35.68 124.495 35.68C124.014 35.68 123.533 35.706 123.026 35.745V34.575C123.481 34.64 124.014 34.692 124.495 34.692C125.119 34.692 131.19 34.692 131.97 34.692C132.217 34.692 132.685 34.653 132.867 34.601L133.517 35.225ZM128.317 36.928C128.317 40.451 128.005 42.83 124.69 44.494L123.741 43.714C124.092 43.597 124.547 43.376 124.911 43.129C126.913 41.894 127.199 40.048 127.199 37.877C127.199 37.565 127.199 37.279 127.147 36.928H128.317ZM142.386 35.758C141.892 35.251 141.034 34.458 140.488 34.042L141.229 33.509C141.658 33.847 142.646 34.666 143.127 35.173L142.386 35.758ZM138.252 34.627C138.356 34.848 138.577 35.264 138.707 35.511C139.214 36.421 139.838 37.734 140.371 38.917C141.073 40.542 141.905 42.947 142.347 44.39L141.229 44.689C140.826 43.142 140.202 41.062 139.461 39.359C138.85 37.994 138.265 36.733 137.823 35.992C137.667 35.732 137.407 35.316 137.199 35.056L138.252 34.627ZM135.951 38.423C136.328 38.332 136.783 38.176 137.017 38.072C138.824 37.383 141.983 35.615 144.141 35.615C145.948 35.615 147.04 36.629 147.04 38.046C147.04 39.554 146.091 40.685 144.063 40.685C143.335 40.685 142.594 40.503 142.113 40.321L142.139 39.294C142.646 39.528 143.296 39.723 143.985 39.723C145.415 39.723 146 38.93 146 38.007C146 37.24 145.389 36.525 144.115 36.525C141.944 36.525 138.096 38.774 136.458 39.489L135.951 38.423ZM152.685 34.913C153.69 34.913 154.552 35.095 155.272 35.459C155.991 35.823 156.541 36.3473 156.923 37.032C157.304 37.7167 157.495 38.5313 157.495 39.476C157.495 40.412 157.304 41.2223 156.923 41.907C156.541 42.583 155.991 43.103 155.272 43.467C154.552 43.8223 153.69 44 152.685 44H149.994V34.913H152.685ZM152.685 43.246C153.95 43.246 154.912 42.9167 155.571 42.258C156.238 41.5907 156.572 40.6633 156.572 39.476C156.572 38.28 156.238 37.3483 155.571 36.681C154.912 36.005 153.95 35.667 152.685 35.667H150.904V43.246H152.685ZM165.464 34.913L162.019 44H160.979L157.534 34.913H158.522L161.499 43.012L164.502 34.913H165.464ZM168.613 34.913C169.618 34.913 170.48 35.095 171.2 35.459C171.919 35.823 172.469 36.3473 172.851 37.032C173.232 37.7167 173.423 38.5313 173.423 39.476C173.423 40.412 173.232 41.2223 172.851 41.907C172.469 42.583 171.919 43.103 171.2 43.467C170.48 43.8223 169.618 44 168.613 44H165.922V34.913H168.613ZM168.613 43.246C169.878 43.246 170.84 42.9167 171.499 42.258C172.166 41.5907 172.5 40.6633 172.5 39.476C172.5 38.28 172.166 37.3483 171.499 36.681C170.84 36.005 169.878 35.667 168.613 35.667H166.832V43.246H168.613ZM174.399 35.81C174.88 35.862 175.439 35.888 175.998 35.888C177.402 35.888 179.04 35.719 180.535 35.225L180.561 36.187C179.287 36.538 177.584 36.824 175.998 36.811C175.517 36.811 174.958 36.798 174.477 36.785L174.399 35.81ZM179.014 33.691C178.845 34.328 178.572 35.55 178.26 36.473C177.636 38.345 176.44 40.711 175.361 42.167L174.36 41.647C175.517 40.295 176.726 37.981 177.259 36.447C177.545 35.628 177.831 34.484 177.87 33.574L179.014 33.691ZM182.082 37.708C182.043 38.241 182.043 38.631 182.056 39.099C182.082 39.944 182.199 41.92 182.199 42.778C182.199 43.818 181.536 44.663 179.924 44.663C178.494 44.663 177.337 44.091 177.337 42.791C177.337 41.595 178.468 40.841 179.924 40.841C182.108 40.841 183.785 41.933 184.851 42.856L184.305 43.74C183.304 42.83 181.809 41.673 179.898 41.673C178.936 41.673 178.286 42.115 178.286 42.713C178.286 43.311 178.793 43.727 179.807 43.727C180.886 43.727 181.25 43.155 181.25 42.453C181.25 41.465 181.107 39.138 181.055 37.708H182.082ZM184.682 38.046C183.98 37.448 182.563 36.655 181.705 36.252L182.225 35.472C183.174 35.875 184.643 36.72 185.267 37.188L184.682 38.046ZM196.8 36.59C196.501 36.772 196.176 36.941 195.799 37.136C194.915 37.591 193.472 38.267 192.198 39.112C190.989 39.905 190.261 40.763 190.261 41.738C190.261 42.817 191.288 43.493 193.342 43.493C194.759 43.493 196.501 43.311 197.515 43.051L197.502 44.221C196.527 44.39 195.019 44.533 193.394 44.533C190.95 44.533 189.182 43.805 189.182 41.855C189.182 40.451 190.131 39.346 191.652 38.332C192.978 37.448 194.499 36.733 195.344 36.265C195.721 36.044 196.007 35.875 196.28 35.641L196.8 36.59ZM190.573 34.055C191.171 35.719 191.964 37.344 192.575 38.384L191.678 38.93C191.028 37.864 190.248 36.109 189.546 34.497L190.573 34.055ZM197.021 33.925C197.346 34.406 197.814 35.186 198.074 35.719L197.372 36.044C197.112 35.511 196.683 34.718 196.319 34.224L197.021 33.925ZM198.451 33.405C198.789 33.886 199.296 34.705 199.543 35.186L198.841 35.498C198.555 34.939 198.139 34.185 197.762 33.704L198.451 33.405ZM201.574 34.315H212.819V35.212H201.574V34.315ZM206.644 33.093H207.645V34.835H206.644V33.093ZM202.133 36.59H211.948V37.461H203.056V45.027H202.133V36.59ZM211.428 36.59H212.364V43.844C212.364 44.416 212.234 44.728 211.818 44.884C211.389 45.027 210.674 45.053 209.595 45.053C209.556 44.793 209.4 44.351 209.27 44.091C210.115 44.13 210.895 44.117 211.129 44.104C211.363 44.104 211.428 44.039 211.428 43.844V36.59ZM205.409 37.227H206.293C206.163 38.93 205.617 39.814 203.615 40.295C203.524 40.087 203.303 39.749 203.134 39.593C204.889 39.242 205.305 38.592 205.409 37.227ZM207.827 37.227H208.685V38.748C208.685 38.995 208.737 39.021 209.062 39.021C209.231 39.021 209.998 39.021 210.206 39.021C210.479 39.021 210.531 38.943 210.57 38.163C210.739 38.293 211.09 38.41 211.324 38.462C211.246 39.515 211.012 39.775 210.323 39.775C210.128 39.775 209.153 39.775 208.971 39.775C208.035 39.775 207.827 39.567 207.827 38.761V37.227ZM204.772 40.451H205.643V44.442H204.772V40.451ZM205.292 40.451H209.712V43.649H205.292V42.882H208.828V41.218H205.292V40.451ZM204.07 35.212L205.019 35.017C205.318 35.511 205.617 36.174 205.747 36.603L204.759 36.837C204.642 36.395 204.356 35.719 204.07 35.212ZM209.309 34.978L210.375 35.173C210.063 35.797 209.738 36.408 209.465 36.837L208.516 36.642C208.789 36.187 209.127 35.459 209.309 34.978ZM218.373 34.575V37.045H223.573V34.575H218.373ZM217.424 33.639H224.561V37.981H217.424V33.639ZM215.539 39.359H220.167V44.936H219.192V40.295H216.462V45.04H215.539V39.359ZM221.584 39.359H226.472V44.962H225.497V40.295H222.52V45.04H221.584V39.359ZM215.955 43.402H219.582V44.338H215.955V43.402ZM222.065 43.402H225.926V44.338H222.065V43.402ZM238.396 34.939C238.396 35.42 238.786 35.797 239.254 35.797C239.722 35.797 240.112 35.42 240.112 34.939C240.112 34.471 239.722 34.081 239.254 34.081C238.786 34.081 238.396 34.471 238.396 34.939ZM237.798 34.939C237.798 34.133 238.448 33.483 239.254 33.483C240.06 33.483 240.71 34.133 240.71 34.939C240.71 35.745 240.06 36.395 239.254 36.395C238.448 36.395 237.798 35.745 237.798 34.939ZM231.051 40.1C231.623 38.748 232.156 36.772 232.338 35.277L233.495 35.511C233.404 35.797 233.313 36.187 233.248 36.46C233.079 37.266 232.624 39.19 232.078 40.529C231.597 41.712 230.882 43.051 230.154 44.104L229.049 43.636C229.868 42.544 230.609 41.179 231.051 40.1ZM237.46 39.606C236.94 38.267 236.134 36.46 235.575 35.485L236.628 35.134C237.135 36.083 237.967 37.877 238.526 39.242C239.046 40.529 239.735 42.518 240.086 43.701L238.929 44.065C238.604 42.752 237.993 40.984 237.46 39.606ZM248.279 36.525C248.5 37.045 249.137 38.761 249.293 39.32L248.331 39.671C248.188 39.073 247.59 37.422 247.317 36.85L248.279 36.525ZM252.985 37.253C252.894 37.513 252.829 37.721 252.777 37.89C252.439 39.32 251.867 40.724 250.944 41.894C249.735 43.415 248.149 44.429 246.706 44.975L245.848 44.104C247.343 43.662 249.007 42.674 250.073 41.348C250.996 40.217 251.659 38.553 251.867 36.889L252.985 37.253ZM245.25 37.175C245.51 37.721 246.199 39.424 246.433 40.113L245.458 40.477C245.25 39.801 244.548 37.994 244.288 37.539L245.25 37.175ZM72.1983 51.951C72.0813 52.25 71.9643 52.601 71.8603 52.874C71.6653 53.459 71.3663 54.252 71.0023 54.967C70.4953 55.981 69.5333 57.294 68.7273 57.983L67.7003 57.359C68.6363 56.696 69.5593 55.357 70.0143 54.564C70.3653 53.914 70.5993 53.251 70.7423 52.744C70.8463 52.419 70.9113 52.055 70.9373 51.717L72.1983 51.951ZM70.5603 54.187C71.3793 54.187 76.8653 54.187 77.5153 54.187C77.8273 54.187 78.3473 54.174 78.7243 54.109V55.227C78.3213 55.201 77.8143 55.201 77.5153 55.201C76.8523 55.201 71.3793 55.201 70.4303 55.201L70.5603 54.187ZM75.3313 54.733C75.2143 58.737 73.7323 61.038 71.4053 62.507L70.3003 61.766C70.6773 61.623 71.0673 61.389 71.3533 61.155C72.6923 60.154 74.1613 58.334 74.2393 54.733H75.3313ZM80.7772 56.371C81.1802 56.41 81.8562 56.449 82.5972 56.449C83.5462 56.449 88.7592 56.449 89.7212 56.449C90.3712 56.449 90.8262 56.397 91.1252 56.371V57.645C90.8522 57.632 90.3062 57.593 89.7342 57.593C88.7462 57.593 83.5592 57.593 82.5972 57.593C81.8822 57.593 81.1932 57.619 80.7772 57.645V56.371ZM101.14 52.302C101.465 52.783 102.05 53.706 102.349 54.33L101.608 54.668C101.283 53.979 100.841 53.199 100.412 52.614L101.14 52.302ZM102.83 51.678C103.181 52.133 103.766 53.069 104.078 53.667L103.337 54.005C102.999 53.329 102.544 52.575 102.115 52.003L102.83 51.678ZM95.5762 52.107C96.3432 52.536 97.8382 53.537 98.4102 53.953L97.7862 54.837C97.1752 54.369 95.7582 53.42 94.9912 52.991L95.5762 52.107ZM93.6262 61.402C95.0562 61.155 96.6682 60.648 97.9942 59.894C100.152 58.659 101.855 56.969 102.908 55.136L103.545 56.202C102.414 57.944 100.62 59.634 98.5402 60.843C97.2272 61.61 95.4332 62.221 94.2372 62.468L93.6262 61.402ZM93.6262 55.032C94.3932 55.448 95.9142 56.384 96.4732 56.787L95.8752 57.697C95.2382 57.242 93.8342 56.332 93.0412 55.929L93.6262 55.032ZM111.773 53.134C111.604 54.486 111.344 56.007 110.941 57.398C110.148 60.063 109.108 61.441 107.912 61.441C106.742 61.441 105.585 60.115 105.585 57.957C105.585 55.136 108.094 52.679 111.279 52.679C114.321 52.679 116.258 54.824 116.258 57.463C116.258 60.18 114.464 62 111.37 62.403L110.772 61.441C111.188 61.402 111.578 61.35 111.89 61.285C113.554 60.908 115.192 59.66 115.192 57.411C115.192 55.331 113.749 53.615 111.253 53.615C108.393 53.615 106.612 55.968 106.612 57.879C106.612 59.517 107.353 60.245 107.938 60.245C108.549 60.245 109.251 59.361 109.914 57.164C110.291 55.929 110.564 54.46 110.694 53.108L111.773 53.134ZM119.299 53.095C119.741 53.134 120.3 53.173 120.729 53.173H127.125C127.45 53.173 127.827 53.16 128.087 53.147C128.074 53.433 128.061 53.849 128.061 54.148V60.869C128.061 61.337 128.1 61.922 128.113 62.117H126.943C126.943 61.922 126.969 61.441 126.969 60.973V54.2H120.729C120.248 54.2 119.611 54.226 119.299 54.252V53.095ZM119.143 60.271C119.468 60.297 120.04 60.336 120.573 60.336H127.554V61.402H120.612C120.079 61.402 119.494 61.415 119.143 61.454V60.271ZM132.649 52.484C133.559 53.095 135.236 54.447 135.951 55.162L135.145 55.994C134.482 55.318 132.87 53.914 131.895 53.277L132.649 52.484ZM131.531 61.194C133.793 60.856 135.483 60.063 136.718 59.296C138.733 58.035 140.306 56.111 141.06 54.499L141.684 55.617C140.8 57.229 139.292 58.997 137.329 60.232C136.016 61.051 134.378 61.857 132.207 62.26L131.531 61.194ZM145.102 52.393C145.479 52.432 145.856 52.458 146.285 52.458C147.039 52.458 150.822 52.458 151.55 52.458C151.914 52.458 152.382 52.432 152.759 52.393V53.472C152.369 53.446 151.914 53.42 151.55 53.42C150.822 53.42 147.039 53.42 146.298 53.42C145.869 53.42 145.44 53.446 145.102 53.472V52.393ZM143.555 55.656C143.906 55.695 144.283 55.708 144.686 55.708C145.44 55.708 152.499 55.708 153.188 55.708C153.461 55.708 153.89 55.695 154.215 55.656V56.722C153.916 56.709 153.513 56.696 153.188 56.696C152.499 56.696 145.44 56.696 144.686 56.696C144.296 56.696 143.906 56.709 143.555 56.735V55.656ZM149.678 56.176C149.678 57.814 149.47 59.166 148.885 60.258C148.417 61.129 147.429 62.052 146.337 62.624L145.375 61.922C146.376 61.493 147.312 60.752 147.819 59.92C148.469 58.893 148.573 57.619 148.586 56.189L149.678 56.176ZM157.893 52.484C158.803 53.095 160.48 54.447 161.195 55.162L160.389 55.994C159.726 55.318 158.114 53.914 157.139 53.277L157.893 52.484ZM156.775 61.194C159.037 60.856 160.727 60.063 161.962 59.296C163.977 58.035 165.55 56.111 166.304 54.499L166.928 55.617C166.044 57.229 164.536 58.997 162.573 60.232C161.26 61.051 159.622 61.857 157.451 62.26L156.775 61.194ZM173.478 52.237C173.764 52.848 174.558 54.915 174.778 55.643L173.764 55.994C173.543 55.253 172.815 53.251 172.49 52.562L173.478 52.237ZM179.263 53.069C179.173 53.277 179.081 53.602 179.029 53.797C178.626 55.422 177.937 57.268 176.858 58.672C175.52 60.44 173.608 61.779 171.762 62.429L170.878 61.532C172.724 60.986 174.661 59.738 175.974 58.074C177.001 56.761 177.808 54.681 178.054 52.718L179.263 53.069ZM169.851 53.017C170.202 53.745 171.008 55.721 171.32 56.579L170.28 56.956C170.033 56.15 169.136 53.953 168.837 53.381L169.851 53.017ZM181.199 53.446C181.693 53.433 182.109 53.407 182.369 53.381C183.201 53.29 185.658 53.056 188.05 52.848C189.48 52.731 190.689 52.653 191.56 52.627L191.573 53.667C190.819 53.654 189.688 53.68 189.025 53.862C187.166 54.46 186.035 56.449 186.035 57.983C186.035 60.518 188.414 61.337 190.52 61.415L190.143 62.481C187.738 62.39 185.008 61.116 185.008 58.204C185.008 56.189 186.243 54.525 187.426 53.823C186.035 53.966 182.72 54.291 181.316 54.59L181.199 53.446ZM189.688 55.253C189.987 55.682 190.481 56.488 190.767 57.073L190.091 57.372C189.792 56.748 189.428 56.085 189.038 55.539L189.688 55.253ZM191.105 54.707C191.43 55.136 191.937 55.929 192.236 56.501L191.573 56.826C191.261 56.202 190.871 55.552 190.468 55.006L191.105 54.707ZM200.958 51.704C200.932 51.86 200.893 52.367 200.893 52.523C200.854 53.368 200.88 55.877 200.893 56.917L199.905 56.41C199.905 55.838 199.892 53.251 199.853 52.536C199.827 52.185 199.788 51.821 199.762 51.704H200.958ZM194.042 53.524C195.81 53.498 199.06 53.381 201.062 53.381C202.648 53.381 204.26 53.381 204.871 53.394L204.858 54.356C204.13 54.317 202.96 54.291 201.049 54.291C198.813 54.291 196.031 54.382 194.068 54.525L194.042 53.524ZM200.867 57.294C200.867 59.036 200.061 59.907 198.878 59.907C197.786 59.907 196.733 59.14 196.733 57.723C196.733 56.436 197.799 55.474 199.034 55.474C200.542 55.474 201.309 56.592 201.309 58.087C201.309 59.855 200.451 61.805 197.435 62.702L196.564 61.857C198.93 61.298 200.308 60.141 200.308 57.996C200.308 56.826 199.736 56.332 199.034 56.332C198.345 56.332 197.708 56.865 197.708 57.71C197.708 58.529 198.319 58.997 199.034 58.997C199.84 58.997 200.36 58.321 200.152 56.93L200.867 57.294ZM206.656 58.841C207.748 58.841 208.632 59.725 208.632 60.817C208.632 61.909 207.748 62.793 206.656 62.793C205.564 62.793 204.667 61.909 204.667 60.817C204.667 59.725 205.564 58.841 206.656 58.841ZM206.656 62.13C207.384 62.13 207.969 61.545 207.969 60.817C207.969 60.089 207.384 59.504 206.656 59.504C205.928 59.504 205.33 60.089 205.33 60.817C205.33 61.545 205.928 62.13 206.656 62.13ZM225.323 51.834C225.271 52.185 225.245 52.562 225.258 52.913C225.271 54.356 225.362 58.893 225.375 61.324C225.388 62.013 224.972 62.377 224.192 62.377C223.529 62.377 222.762 62.338 222.112 62.299L222.021 61.22C222.645 61.324 223.373 61.376 223.867 61.376C224.231 61.376 224.348 61.207 224.348 60.856C224.348 58.997 224.296 54.356 224.231 52.913C224.205 52.419 224.179 52.107 224.127 51.834H225.323ZM218.342 54.109C218.719 54.148 219.148 54.174 219.538 54.174C220.227 54.174 226.662 54.174 227.325 54.174C227.663 54.174 228.17 54.135 228.43 54.096V55.201C228.118 55.188 227.676 55.162 227.351 55.162C226.779 55.162 220.149 55.162 219.564 55.162C219.122 55.162 218.758 55.188 218.342 55.214V54.109ZM217.874 60.18C220.617 58.828 223.022 56.553 223.984 54.967H224.504L224.517 55.838C223.529 57.385 221.111 59.699 218.615 61.025L217.874 60.18ZM239.453 52.146C239.427 52.458 239.414 52.835 239.414 53.277C239.414 53.784 239.414 54.889 239.414 55.37C239.414 58.503 238.998 59.53 238.049 60.635C237.217 61.649 235.917 62.221 234.968 62.546L234.11 61.649C235.306 61.337 236.411 60.83 237.217 59.907C238.14 58.841 238.309 57.775 238.309 55.331C238.309 54.824 238.309 53.732 238.309 53.277C238.309 52.835 238.27 52.458 238.231 52.146H239.453ZM233.421 52.25C233.395 52.497 233.382 52.874 233.382 53.173C233.382 53.563 233.382 56.969 233.382 57.515C233.382 57.853 233.395 58.282 233.421 58.516H232.238C232.264 58.308 232.29 57.892 232.29 57.515C232.29 56.956 232.29 53.563 232.29 53.173C232.29 52.952 232.277 52.497 232.238 52.25H233.421ZM251.308 52.302C251.633 52.783 252.218 53.706 252.517 54.33L251.776 54.668C251.451 53.979 251.009 53.199 250.58 52.614L251.308 52.302ZM252.998 51.678C253.349 52.133 253.934 53.069 254.246 53.667L253.505 54.005C253.167 53.329 252.712 52.575 252.283 52.003L252.998 51.678ZM245.744 52.107C246.511 52.536 248.006 53.537 248.578 53.953L247.954 54.837C247.343 54.369 245.926 53.42 245.159 52.991L245.744 52.107ZM243.794 61.402C245.224 61.155 246.836 60.648 248.162 59.894C250.32 58.659 252.023 56.969 253.076 55.136L253.713 56.202C252.582 57.944 250.788 59.634 248.708 60.843C247.395 61.61 245.601 62.221 244.405 62.468L243.794 61.402ZM243.794 55.032C244.561 55.448 246.082 56.384 246.641 56.787L246.043 57.697C245.406 57.242 244.002 56.332 243.209 55.929L243.794 55.032ZM73.1473 71.238C73.1473 70.835 73.0953 70.211 73.0173 69.938H74.3173C74.2783 70.211 74.2263 70.861 74.2263 71.238C74.2263 71.979 74.2263 73.188 74.2263 73.981C74.2263 76.854 73.2773 78.973 70.6253 80.494L69.6113 79.753C72.0813 78.583 73.1473 76.659 73.1473 73.981C73.1473 73.201 73.1473 71.979 73.1473 71.238ZM68.1033 72.915C68.3633 72.954 68.8443 72.98 69.3123 72.98C69.9493 72.98 77.0603 72.98 77.6843 72.98C78.1263 72.98 78.6203 72.954 78.8153 72.928V74.033C78.6203 74.02 78.0743 74.007 77.6713 74.007C77.0603 74.007 69.9493 74.007 69.3383 74.007C68.8443 74.007 68.3763 74.02 68.1033 74.046V72.915ZM86.1707 79.727C86.2227 79.532 86.2617 79.259 86.2617 78.999C86.2617 78.401 86.2617 72.031 86.2617 71.212C86.2617 70.718 86.1967 70.354 86.1967 70.25H87.3927C87.3797 70.354 87.3277 70.731 87.3277 71.225C87.3277 72.031 87.3277 78.323 87.3277 78.713C88.5367 78.167 90.1357 76.984 91.1237 75.515L91.7477 76.412C90.6167 77.933 88.8227 79.259 87.3147 80.013C87.0937 80.117 86.9637 80.234 86.8597 80.299L86.1707 79.727ZM80.2167 79.675C81.3217 78.895 82.0887 77.738 82.4787 76.477C82.8687 75.281 82.8687 72.694 82.8687 71.238C82.8687 70.861 82.8427 70.575 82.7777 70.302H83.9737C83.9607 70.445 83.9087 70.848 83.9087 71.225C83.9087 72.668 83.8697 75.463 83.5187 76.763C83.1287 78.154 82.2967 79.415 81.2047 80.325L80.2167 79.675ZM102.067 70.939C102.067 71.42 102.457 71.797 102.925 71.797C103.393 71.797 103.783 71.42 103.783 70.939C103.783 70.471 103.393 70.081 102.925 70.081C102.457 70.081 102.067 70.471 102.067 70.939ZM101.469 70.939C101.469 70.133 102.119 69.483 102.925 69.483C103.731 69.483 104.381 70.133 104.381 70.939C104.381 71.745 103.731 72.395 102.925 72.395C102.119 72.395 101.469 71.745 101.469 70.939ZM94.7221 76.1C95.2941 74.748 95.8271 72.772 96.0091 71.277L97.1661 71.511C97.0751 71.797 96.9841 72.187 96.9191 72.46C96.7501 73.266 96.2951 75.19 95.7491 76.529C95.2681 77.712 94.5531 79.051 93.8251 80.104L92.7201 79.636C93.5391 78.544 94.2801 77.179 94.7221 76.1ZM101.131 75.606C100.611 74.267 99.8051 72.46 99.2461 71.485L100.299 71.134C100.806 72.083 101.638 73.877 102.197 75.242C102.717 76.529 103.406 78.518 103.757 79.701L102.6 80.065C102.275 78.752 101.664 76.984 101.131 75.606ZM110.709 72.525C110.93 73.045 111.567 74.761 111.723 75.32L110.761 75.671C110.618 75.073 110.02 73.422 109.747 72.85L110.709 72.525ZM115.415 73.253C115.324 73.513 115.259 73.721 115.207 73.89C114.869 75.32 114.297 76.724 113.374 77.894C112.165 79.415 110.579 80.429 109.136 80.975L108.278 80.104C109.773 79.662 111.437 78.674 112.503 77.348C113.426 76.217 114.089 74.553 114.297 72.889L115.415 73.253ZM107.68 73.175C107.94 73.721 108.629 75.424 108.863 76.113L107.888 76.477C107.68 75.801 106.978 73.994 106.718 73.539L107.68 73.175ZM122.316 69.951C122.199 70.25 122.082 70.601 121.978 70.874C121.783 71.459 121.484 72.252 121.12 72.967C120.613 73.981 119.651 75.294 118.845 75.983L117.818 75.359C118.754 74.696 119.677 73.357 120.132 72.564C120.483 71.914 120.717 71.251 120.86 70.744C120.964 70.419 121.029 70.055 121.055 69.717L122.316 69.951ZM120.678 72.187C121.497 72.187 126.983 72.187 127.633 72.187C127.945 72.187 128.465 72.174 128.842 72.109V73.227C128.439 73.201 127.932 73.201 127.633 73.201C126.97 73.201 121.497 73.201 120.548 73.201L120.678 72.187ZM125.449 72.733C125.332 76.737 123.85 79.038 121.523 80.507L120.418 79.766C120.795 79.623 121.185 79.389 121.471 79.155C122.81 78.154 124.279 76.334 124.357 72.733H125.449ZM130.802 74.371C131.205 74.41 131.881 74.449 132.622 74.449C133.571 74.449 138.784 74.449 139.746 74.449C140.396 74.449 140.851 74.397 141.15 74.371V75.645C140.877 75.632 140.331 75.593 139.759 75.593C138.771 75.593 133.584 75.593 132.622 75.593C131.907 75.593 131.218 75.619 130.802 75.645V74.371ZM151.073 70.302C151.398 70.783 151.983 71.706 152.282 72.33L151.541 72.668C151.216 71.979 150.774 71.199 150.345 70.614L151.073 70.302ZM152.763 69.678C153.114 70.133 153.699 71.069 154.011 71.667L153.27 72.005C152.932 71.329 152.477 70.575 152.048 70.003L152.763 69.678ZM145.509 70.107C146.276 70.536 147.771 71.537 148.343 71.953L147.719 72.837C147.108 72.369 145.691 71.42 144.924 70.991L145.509 70.107ZM143.559 79.402C144.989 79.155 146.601 78.648 147.927 77.894C150.085 76.659 151.788 74.969 152.841 73.136L153.478 74.202C152.347 75.944 150.553 77.634 148.473 78.843C147.16 79.61 145.366 80.221 144.17 80.468L143.559 79.402ZM143.559 73.032C144.326 73.448 145.847 74.384 146.406 74.787L145.808 75.697C145.171 75.242 143.767 74.332 142.974 73.929L143.559 73.032ZM155.308 71.446C155.802 71.433 156.218 71.407 156.478 71.381C157.31 71.29 159.767 71.056 162.159 70.848C163.589 70.731 164.798 70.653 165.669 70.627L165.682 71.667C164.928 71.654 163.797 71.68 163.134 71.862C161.275 72.46 160.144 74.449 160.144 75.983C160.144 78.518 162.523 79.337 164.629 79.415L164.252 80.481C161.847 80.39 159.117 79.116 159.117 76.204C159.117 74.189 160.352 72.525 161.535 71.823C160.144 71.966 156.829 72.291 155.425 72.59L155.308 71.446ZM163.797 73.253C164.096 73.682 164.59 74.488 164.876 75.073L164.2 75.372C163.901 74.748 163.537 74.085 163.147 73.539L163.797 73.253ZM165.214 72.707C165.539 73.136 166.046 73.929 166.345 74.501L165.682 74.826C165.37 74.202 164.98 73.552 164.577 73.006L165.214 72.707ZM167.708 70.315H178.953V71.212H167.708V70.315ZM172.778 69.093H173.779V70.835H172.778V69.093ZM168.267 72.59H178.082V73.461H169.19V81.027H168.267V72.59ZM177.562 72.59H178.498V79.844C178.498 80.416 178.368 80.728 177.952 80.884C177.523 81.027 176.808 81.053 175.729 81.053C175.69 80.793 175.534 80.351 175.404 80.091C176.249 80.13 177.029 80.117 177.263 80.104C177.497 80.104 177.562 80.039 177.562 79.844V72.59ZM171.543 73.227H172.427C172.297 74.93 171.751 75.814 169.749 76.295C169.658 76.087 169.437 75.749 169.268 75.593C171.023 75.242 171.439 74.592 171.543 73.227ZM173.961 73.227H174.819V74.748C174.819 74.995 174.871 75.021 175.196 75.021C175.365 75.021 176.132 75.021 176.34 75.021C176.613 75.021 176.665 74.943 176.704 74.163C176.873 74.293 177.224 74.41 177.458 74.462C177.38 75.515 177.146 75.775 176.457 75.775C176.262 75.775 175.287 75.775 175.105 75.775C174.169 75.775 173.961 75.567 173.961 74.761V73.227ZM170.906 76.451H171.777V80.442H170.906V76.451ZM171.426 76.451H175.846V79.649H171.426V78.882H174.962V77.218H171.426V76.451ZM170.204 71.212L171.153 71.017C171.452 71.511 171.751 72.174 171.881 72.603L170.893 72.837C170.776 72.395 170.49 71.719 170.204 71.212ZM175.443 70.978L176.509 71.173C176.197 71.797 175.872 72.408 175.599 72.837L174.65 72.642C174.923 72.187 175.261 71.459 175.443 70.978ZM183.266 70.575V73.045H188.466V70.575H183.266ZM182.317 69.639H189.454V73.981H182.317V69.639ZM180.432 75.359H185.06V80.936H184.085V76.295H181.355V81.04H180.432V75.359ZM186.477 75.359H191.365V80.962H190.39V76.295H187.413V81.04H186.477V75.359ZM180.848 79.402H184.475V80.338H180.848V79.402ZM186.958 79.402H190.819V80.338H186.958V79.402ZM199.201 71.134C199.032 72.486 198.772 74.007 198.369 75.398C197.576 78.063 196.536 79.441 195.34 79.441C194.17 79.441 193.013 78.115 193.013 75.957C193.013 73.136 195.522 70.679 198.707 70.679C201.749 70.679 203.686 72.824 203.686 75.463C203.686 78.18 201.892 80 198.798 80.403L198.2 79.441C198.616 79.402 199.006 79.35 199.318 79.285C200.982 78.908 202.62 77.66 202.62 75.411C202.62 73.331 201.177 71.615 198.681 71.615C195.821 71.615 194.04 73.968 194.04 75.879C194.04 77.517 194.781 78.245 195.366 78.245C195.977 78.245 196.679 77.361 197.342 75.164C197.719 73.929 197.992 72.46 198.122 71.108L199.201 71.134ZM213.447 69.236H214.331V79.116H213.447V69.236ZM211.471 70.978H216.372V71.81H211.471V70.978ZM211.094 73.422H216.684V74.28H211.094V73.422ZM213.161 73.89L213.785 74.137C213.343 75.541 212.524 77.231 211.64 78.089C211.562 77.829 211.367 77.439 211.224 77.218C211.965 76.503 212.784 75.073 213.161 73.89ZM214.656 73.89C215.163 75.203 216.125 76.659 217.009 77.374C216.801 77.53 216.502 77.842 216.346 78.076C215.488 77.205 214.552 75.567 214.058 74.111L214.656 73.89ZM207.974 75.138H208.832V79.389C208.832 79.935 209.04 80.078 210.353 80.078C210.951 80.078 214.227 80.078 215.033 80.078C215.943 80.078 216.086 79.896 216.177 78.947C216.398 79.09 216.762 79.207 217.009 79.259C216.853 80.533 216.528 80.871 215.072 80.871C214.63 80.871 210.808 80.871 210.405 80.871C208.481 80.871 207.974 80.598 207.974 79.389V75.138ZM206.063 73.357V74.748H209.638V73.357H206.063ZM206.063 71.277V72.642H209.638V71.277H206.063ZM205.27 70.471H210.47V75.554H205.27V70.471ZM207.441 70.861H208.208V75.125H207.441V70.861ZM210.288 77.062L210.821 76.893C211.133 77.504 211.445 78.297 211.536 78.804L210.99 79.025C210.886 78.505 210.6 77.673 210.288 77.062ZM207.571 69.041L208.533 69.184C208.312 69.795 208.091 70.419 207.896 70.848L207.064 70.692C207.233 70.237 207.467 69.522 207.571 69.041ZM209.521 75.775L210.249 75.931C210.028 76.776 209.794 77.803 209.586 78.453L209.053 78.31C209.235 77.621 209.443 76.516 209.521 75.775ZM208.767 78.141C209.391 78.076 210.158 77.959 211.042 77.842L211.068 78.401C210.314 78.557 209.638 78.7 208.988 78.843L208.767 78.141ZM206.336 75.307H207.142V75.931C207.142 77.322 206.895 79.506 205.335 81.079C205.192 80.871 204.932 80.585 204.737 80.442C206.154 78.999 206.336 77.14 206.336 75.918V75.307ZM218.007 71.927H228.095V72.915H218.007V71.927ZM227.718 71.927H228.732C228.732 71.927 228.719 72.291 228.706 72.447C228.407 77.829 228.134 79.766 227.562 80.416C227.25 80.793 226.938 80.897 226.444 80.936C225.989 80.988 225.157 80.962 224.351 80.91C224.338 80.624 224.208 80.195 224.026 79.909C224.91 79.987 225.742 80 226.067 80C226.353 80 226.509 79.961 226.678 79.805C227.172 79.324 227.458 77.296 227.718 72.135V71.927ZM222.258 69.106H223.285V71.368C223.285 74.332 222.921 78.349 218.371 81.092C218.228 80.858 217.864 80.494 217.63 80.325C221.946 77.751 222.258 74.059 222.258 71.368V69.106ZM236.673 71.758C236.179 71.251 235.321 70.458 234.775 70.042L235.516 69.509C235.945 69.847 236.933 70.666 237.414 71.173L236.673 71.758ZM232.539 70.627C232.643 70.848 232.864 71.264 232.994 71.511C233.501 72.421 234.125 73.734 234.658 74.917C235.36 76.542 236.192 78.947 236.634 80.39L235.516 80.689C235.113 79.142 234.489 77.062 233.748 75.359C233.137 73.994 232.552 72.733 232.11 71.992C231.954 71.732 231.694 71.316 231.486 71.056L232.539 70.627ZM230.238 74.423C230.615 74.332 231.07 74.176 231.304 74.072C233.111 73.383 236.27 71.615 238.428 71.615C240.235 71.615 241.327 72.629 241.327 74.046C241.327 75.554 240.378 76.685 238.35 76.685C237.622 76.685 236.881 76.503 236.4 76.321L236.426 75.294C236.933 75.528 237.583 75.723 238.272 75.723C239.702 75.723 240.287 74.93 240.287 74.007C240.287 73.24 239.676 72.525 238.402 72.525C236.231 72.525 232.383 74.774 230.745 75.489L230.238 74.423ZM242.611 72.343H254.415V73.292H242.611V72.343ZM245.068 79.142H253.973V80.078H245.068V79.142ZM248.409 76.009H251.841V76.932H248.409V76.009ZM244.561 69.431H245.562V81.053H244.561V69.431ZM247.98 69.158H248.968V77.569H247.98V69.158ZM251.412 69.301H252.387V77.504H251.412V69.301ZM69.8453 91.499V92.916H76.8133V91.499H69.8453ZM69.8453 89.328V90.719H76.8133V89.328H69.8453ZM68.8703 88.509H77.8143V93.722H68.8703V88.509ZM74.7723 93.189C75.6823 94.45 77.5153 95.503 79.3353 95.984C79.1143 96.179 78.8283 96.556 78.6853 96.816C76.8263 96.218 74.9673 94.983 73.9403 93.501L74.7723 93.189ZM71.9643 93.189L72.8093 93.54C71.7693 94.983 69.8583 96.231 68.0773 96.868C67.9213 96.621 67.6353 96.257 67.4143 96.062C69.1693 95.555 71.0283 94.437 71.9643 93.189ZM70.8853 95.477H71.8733V96.283C71.8733 97.531 71.5613 99.104 69.0393 100.118C68.8963 99.871 68.5843 99.533 68.3633 99.338C70.6513 98.48 70.8853 97.219 70.8853 96.257V95.477ZM72.8223 88.938H73.8103V93.358H72.8223V88.938ZM75.0193 95.477H76.0203V100.014H75.0193V95.477ZM80.9603 95.035H85.0943V95.711H80.9603V95.035ZM80.9603 96.66H85.1073V97.349H80.9603V96.66ZM79.5433 91.317H85.4583V92.11H79.5433V91.317ZM80.9213 98.389H85.3543V99.13H80.9213V98.389ZM82.7283 93.722H83.5733V98.675H82.7283V93.722ZM81.3893 93.384H85.2763V94.086H81.3893V99.741H80.5183V94.047L81.1423 93.384H81.3893ZM83.1703 92.331L84.0673 92.526C83.8203 93.007 83.5603 93.501 83.3523 93.826L82.6503 93.644C82.8453 93.267 83.0663 92.708 83.1703 92.331ZM80.9473 88.093L81.8313 88.301C81.4933 89.419 80.8953 90.511 80.2583 91.239C80.1023 91.096 79.7253 90.836 79.5043 90.706C80.1413 90.056 80.6483 89.081 80.9473 88.093ZM82.1173 89.679L82.9753 89.887C82.3383 92.071 81.2593 94.047 79.9203 95.321C79.8033 95.139 79.4913 94.762 79.3093 94.58C80.5703 93.449 81.5713 91.655 82.1173 89.679ZM80.9863 89.276H85.2373V90.069H80.6223L80.9863 89.276ZM86.6673 91.642V92.994H89.9043V91.642H86.6673ZM86.6673 93.8V95.165H89.9043V93.8H86.6673ZM86.6673 89.497V90.836H89.9043V89.497H86.6673ZM85.7963 88.626H90.8273V96.036H85.7963V88.626ZM88.5783 95.386H89.4493V98.701C89.4493 98.987 89.4753 99.039 89.7093 99.039C89.8003 99.039 90.2683 99.039 90.3983 99.039C90.6453 99.039 90.6973 98.844 90.7233 97.323C90.9183 97.492 91.2823 97.622 91.5293 97.687C91.4383 99.442 91.2173 99.871 90.5023 99.871C90.3333 99.871 89.7353 99.871 89.5793 99.871C88.7603 99.871 88.5783 99.611 88.5783 98.714V95.386ZM86.7843 95.62H87.6293C87.4343 97.674 86.9013 99.208 84.9383 100.066C84.8343 99.858 84.5873 99.52 84.3923 99.364C86.1733 98.662 86.6153 97.349 86.7843 95.62ZM97.0023 88.73C96.8853 89.237 96.7423 89.952 96.4043 90.823C96.0793 91.616 95.5983 92.487 95.0783 93.163C95.5853 92.864 96.3263 92.682 96.8983 92.682C97.8993 92.682 98.6793 93.28 98.6793 94.333C98.6793 95.009 98.7053 96.504 98.7183 97.31H97.7173C97.7693 96.621 97.7823 95.282 97.7693 94.606C97.7563 93.852 97.2363 93.501 96.5603 93.501C95.7283 93.501 94.9093 93.917 94.3113 94.45C93.9343 94.814 93.5703 95.282 93.1413 95.815L92.2443 95.152C94.1163 93.358 94.9873 91.85 95.4293 90.745C95.7153 90.03 95.8973 89.25 95.9363 88.639L97.0023 88.73ZM92.5433 90.134C93.2453 90.225 94.1423 90.264 94.7403 90.264C96.4953 90.264 98.7443 90.16 100.577 89.835V90.797C98.7573 91.07 96.3393 91.187 94.6883 91.187C94.1293 91.187 93.2713 91.161 92.5433 91.109V90.134ZM102.475 93.267C102.15 93.371 101.682 93.553 101.331 93.683C100.408 94.047 99.1733 94.541 97.9123 95.191C96.6253 95.867 95.7153 96.569 95.7153 97.466C95.7153 98.48 96.7163 98.636 98.0553 98.636C99.0693 98.636 100.473 98.519 101.617 98.311L101.578 99.364C100.59 99.481 99.1473 99.585 98.0163 99.585C96.1703 99.585 94.6753 99.182 94.6753 97.609C94.6753 96.023 96.2873 95.048 97.8343 94.255C99.0693 93.618 100.122 93.215 100.98 92.812C101.37 92.63 101.695 92.487 102.059 92.305L102.475 93.267ZM115.215 90.225C115.111 90.342 114.955 90.537 114.864 90.68C114.344 91.564 113.109 93.241 111.627 94.268L110.756 93.579C111.965 92.89 113.187 91.486 113.603 90.68C112.693 90.68 106.817 90.68 106.193 90.68C105.712 90.68 105.231 90.706 104.724 90.745V89.575C105.179 89.64 105.712 89.692 106.193 89.692C106.817 89.692 112.888 89.692 113.668 89.692C113.915 89.692 114.383 89.653 114.565 89.601L115.215 90.225ZM110.015 91.928C110.015 95.451 109.703 97.83 106.388 99.494L105.439 98.714C105.79 98.597 106.245 98.376 106.609 98.129C108.611 96.894 108.897 95.048 108.897 92.877C108.897 92.565 108.897 92.279 108.845 91.928H110.015ZM121.481 91.525C121.702 92.045 122.339 93.761 122.495 94.32L121.533 94.671C121.39 94.073 120.792 92.422 120.519 91.85L121.481 91.525ZM126.187 92.253C126.096 92.513 126.031 92.721 125.979 92.89C125.641 94.32 125.069 95.724 124.146 96.894C122.937 98.415 121.351 99.429 119.908 99.975L119.05 99.104C120.545 98.662 122.209 97.674 123.275 96.348C124.198 95.217 124.861 93.553 125.069 91.889L126.187 92.253ZM118.452 92.175C118.712 92.721 119.401 94.424 119.635 95.113L118.66 95.477C118.452 94.801 117.75 92.994 117.49 92.539L118.452 92.175ZM137.757 89.666C137.757 90.147 138.134 90.524 138.615 90.524C139.083 90.524 139.473 90.147 139.473 89.666C139.473 89.198 139.083 88.808 138.615 88.808C138.134 88.808 137.757 89.198 137.757 89.666ZM137.159 89.666C137.159 88.86 137.809 88.21 138.615 88.21C139.421 88.21 140.071 88.86 140.071 89.666C140.071 90.472 139.421 91.122 138.615 91.122C137.809 91.122 137.159 90.472 137.159 89.666ZM138.29 90.537C138.199 90.719 138.147 90.94 138.095 91.187C137.809 92.552 137.185 94.658 136.145 95.984C134.962 97.518 133.415 98.714 131.036 99.468L130.152 98.493C132.674 97.856 134.13 96.751 135.222 95.36C136.145 94.19 136.743 92.37 136.925 91.122C136.171 91.122 131.023 91.122 130.269 91.122C129.749 91.122 129.307 91.148 128.982 91.174V90.017C129.333 90.056 129.853 90.108 130.282 90.108C131.023 90.108 136.21 90.108 136.795 90.108C137.003 90.108 137.25 90.095 137.497 90.03L138.29 90.537ZM143.802 88.873C143.737 89.302 143.698 89.757 143.672 90.186C143.62 91.655 143.516 94.736 143.516 96.673C143.516 98.103 144.413 98.597 145.648 98.597C148.027 98.597 149.379 97.271 150.315 95.919L151.043 96.803C150.159 98.038 148.469 99.663 145.622 99.663C143.75 99.663 142.463 98.896 142.463 96.764C142.463 94.84 142.593 91.551 142.593 90.186C142.593 89.705 142.554 89.25 142.476 88.873H143.802ZM158.908 88.691C158.882 88.912 158.856 89.172 158.843 89.562C158.817 90.082 158.817 91.824 158.817 92.916C158.817 94.632 159.012 96.907 159.012 97.778C159.012 98.688 158.414 99.611 156.724 99.611C154.852 99.611 153.825 98.948 153.825 97.687C153.825 96.504 154.956 95.711 156.828 95.711C159.571 95.711 161.716 97.193 162.717 98.012L162.119 98.935C160.949 97.856 159.025 96.556 156.711 96.556C155.463 96.556 154.8 97.037 154.8 97.635C154.8 98.246 155.307 98.688 156.594 98.688C157.348 98.688 157.985 98.467 157.985 97.557C157.985 96.556 157.855 94.06 157.855 92.916C157.855 91.746 157.855 90.381 157.855 89.471C157.855 89.25 157.842 88.86 157.803 88.691H158.908ZM153.942 90.095C154.774 90.251 156.399 90.381 157.257 90.381C158.908 90.381 160.65 90.264 162.34 89.991V90.94C160.871 91.109 159.012 91.278 157.27 91.278C156.373 91.278 154.774 91.161 153.955 91.057L153.942 90.095ZM153.877 92.864C154.8 93.007 156.282 93.098 157.14 93.098C159.025 93.098 160.754 92.968 162.444 92.721V93.696C160.676 93.917 159.09 94.008 157.14 94.008C156.243 94.008 154.813 93.943 153.89 93.839L153.877 92.864ZM167.982 88.873C167.917 89.302 167.878 89.757 167.852 90.186C167.8 91.655 167.696 94.736 167.696 96.673C167.696 98.103 168.593 98.597 169.828 98.597C172.207 98.597 173.559 97.271 174.495 95.919L175.223 96.803C174.339 98.038 172.649 99.663 169.802 99.663C167.93 99.663 166.643 98.896 166.643 96.764C166.643 94.84 166.773 91.551 166.773 90.186C166.773 89.705 166.734 89.25 166.656 88.873H167.982ZM182.633 90.94C182.581 91.135 182.542 91.642 182.542 91.993C182.542 92.422 182.542 93.449 182.542 94.151C182.542 95.256 182.698 97.349 182.698 98.233C182.698 99.078 182.165 99.832 180.748 99.832C179.214 99.832 178.135 99.247 178.135 98.09C178.135 97.011 179.11 96.309 180.904 96.309C183.075 96.309 184.908 97.466 185.948 98.402L185.389 99.312C184.349 98.246 182.646 97.128 180.8 97.128C179.76 97.128 179.045 97.453 179.045 98.051C179.045 98.558 179.63 98.948 180.631 98.948C181.346 98.948 181.71 98.545 181.71 97.921C181.71 97.05 181.593 95.204 181.593 94.086C181.593 93.54 181.593 92.448 181.593 92.006C181.593 91.629 181.554 91.122 181.502 90.94H182.633ZM182.074 92.929C182.776 92.929 184.661 92.851 185.779 92.721L185.805 93.631C184.7 93.735 182.802 93.813 182.087 93.813L182.074 92.929ZM197.089 94.684C197.089 93.579 196.205 92.812 194.866 92.812C193.371 92.812 192.084 93.241 191.33 93.462C190.927 93.579 190.537 93.722 190.225 93.852L189.9 92.656C190.264 92.63 190.693 92.539 191.096 92.461C192.006 92.253 193.475 91.837 194.983 91.837C196.829 91.837 198.194 92.864 198.194 94.723C198.194 97.544 195.672 99.117 192.305 99.637L191.707 98.649C194.866 98.246 197.089 97.011 197.089 94.684ZM191.629 88.821C193.072 89.146 195.893 89.419 197.154 89.432L196.998 90.433C195.555 90.329 192.942 90.069 191.473 89.809L191.629 88.821ZM201.58 95.841C202.672 95.841 203.556 96.725 203.556 97.817C203.556 98.909 202.672 99.793 201.58 99.793C200.488 99.793 199.591 98.909 199.591 97.817C199.591 96.725 200.488 95.841 201.58 95.841ZM201.58 99.13C202.308 99.13 202.893 98.545 202.893 97.817C202.893 97.089 202.308 96.504 201.58 96.504C200.852 96.504 200.254 97.089 200.254 97.817C200.254 98.545 200.852 99.13 201.58 99.13Z" fill="white"/>
<path d="M4.922 8.593H12.926V11.054H4.922V8.593ZM5.152 15.493H14.237V18H2.162L2.162 1.9L13.915 1.9V4.407L5.152 4.407L5.152 15.493ZM24.2632 5.58C25.2445 5.58 26.1185 5.77167 26.8852 6.155C27.6672 6.53833 28.2805 7.12867 28.7252 7.926C29.1699 8.708 29.3922 9.72 29.3922 10.962V18H26.5172V11.33C26.5172 10.2413 26.2565 9.42867 25.7352 8.892C25.2292 8.35533 24.5162 8.087 23.5962 8.087C22.9215 8.087 22.3235 8.225 21.8022 8.501C21.2809 8.777 20.8745 9.191 20.5832 9.743C20.3072 10.2797 20.1692 10.962 20.1692 11.79V18H17.2942V5.718H20.0312V9.03L19.5482 8.018C19.9775 7.236 20.5985 6.638 21.4112 6.224C22.2392 5.79467 23.1899 5.58 24.2632 5.58ZM37.6623 18.161C36.313 18.161 35.2703 17.816 34.5343 17.126C33.7983 16.4207 33.4303 15.3857 33.4303 14.021V3.004H36.3053V13.952C36.3053 14.5347 36.451 14.987 36.7423 15.309C37.049 15.631 37.4707 15.792 38.0073 15.792C38.6513 15.792 39.188 15.6233 39.6173 15.286L40.4223 17.333C40.085 17.609 39.671 17.816 39.1803 17.954C38.6897 18.092 38.1837 18.161 37.6623 18.161ZM31.4063 8.11V5.81L39.5943 5.81V8.11H31.4063ZM48.1561 18.161C46.7914 18.161 45.5954 17.8927 44.5681 17.356C43.5561 16.804 42.7664 16.0527 42.1991 15.102C41.6471 14.1513 41.3711 13.0703 41.3711 11.859C41.3711 10.6323 41.6394 9.55133 42.1761 8.616C42.7281 7.66533 43.4794 6.92167 44.4301 6.385C45.3961 5.84833 46.4924 5.58 47.7191 5.58C48.9151 5.58 49.9807 5.84067 50.9161 6.362C51.8514 6.88333 52.5874 7.61933 53.1241 8.57C53.6607 9.52067 53.9291 10.64 53.9291 11.928C53.9291 12.0507 53.9214 12.1887 53.9061 12.342C53.9061 12.4953 53.8984 12.641 53.8831 12.779H43.6481V10.87H52.3651L51.2381 11.468C51.2534 10.7627 51.1077 10.1417 50.8011 9.605C50.4944 9.06833 50.0727 8.64667 49.5361 8.34C49.0147 8.03333 48.4091 7.88 47.7191 7.88C47.0137 7.88 46.3927 8.03333 45.8561 8.34C45.3347 8.64667 44.9207 9.076 44.6141 9.628C44.3227 10.1647 44.1771 10.801 44.1771 11.537V11.997C44.1771 12.733 44.3457 13.3847 44.6831 13.952C45.0204 14.5193 45.4957 14.9563 46.1091 15.263C46.7224 15.5697 47.4277 15.723 48.2251 15.723C48.9151 15.723 49.5361 15.6157 50.0881 15.401C50.6401 15.1863 51.1307 14.849 51.5601 14.389L53.1011 16.16C52.5491 16.804 51.8514 17.3023 51.0081 17.655C50.1801 17.9923 49.2294 18.161 48.1561 18.161ZM56.6907 18V5.718H59.4277V9.099L59.1057 8.11C59.4737 7.282 60.0487 6.65333 60.8307 6.224C61.628 5.79467 62.617 5.58 63.7977 5.58V8.317C63.675 8.28633 63.56 8.271 63.4527 8.271C63.3454 8.25567 63.238 8.248 63.1307 8.248C62.042 8.248 61.1757 8.57 60.5317 9.214C59.8877 9.84267 59.5657 10.7857 59.5657 12.043V18H56.6907ZM71.3088 18.161C69.9595 18.161 68.9168 17.816 68.1808 17.126C67.4448 16.4207 67.0768 15.3857 67.0768 14.021V3.004H69.9518V13.952C69.9518 14.5347 70.0975 14.987 70.3888 15.309C70.6955 15.631 71.1171 15.792 71.6538 15.792C72.2978 15.792 72.8345 15.6233 73.2638 15.286L74.0688 17.333C73.7315 17.609 73.3175 17.816 72.8268 17.954C72.3361 18.092 71.8301 18.161 71.3088 18.161ZM65.0528 8.11V5.81H73.2408V8.11H65.0528ZM84.0009 18V15.516L83.8399 14.987V10.64C83.8399 9.79667 83.5869 9.145 83.0809 8.685C82.5749 8.20967 81.8082 7.972 80.7809 7.972C80.0909 7.972 79.4085 8.07933 78.7339 8.294C78.0745 8.50867 77.5149 8.80767 77.0549 9.191L75.9279 7.098C76.5872 6.592 77.3692 6.21633 78.2739 5.971C79.1939 5.71033 80.1445 5.58 81.1259 5.58C82.9045 5.58 84.2769 6.00933 85.2429 6.868C86.2242 7.71133 86.7149 9.02233 86.7149 10.801V18H84.0009ZM80.1369 18.161C79.2169 18.161 78.4119 18.0077 77.7219 17.701C77.0319 17.379 76.4952 16.942 76.1119 16.39C75.7439 15.8227 75.5599 15.1863 75.5599 14.481C75.5599 13.791 75.7209 13.17 76.0429 12.618C76.3802 12.066 76.9245 11.629 77.6759 11.307C78.4272 10.985 79.4239 10.824 80.6659 10.824H84.2309V12.733H80.8729C79.8915 12.733 79.2322 12.894 78.8949 13.216C78.5575 13.5227 78.3889 13.906 78.3889 14.366C78.3889 14.8873 78.5959 15.3013 79.0099 15.608C79.4239 15.9147 79.9989 16.068 80.7349 16.068C81.4402 16.068 82.0689 15.907 82.6209 15.585C83.1882 15.263 83.5945 14.7877 83.8399 14.159L84.3229 15.884C84.0469 16.6047 83.5485 17.1643 82.8279 17.563C82.1225 17.9617 81.2255 18.161 80.1369 18.161ZM90.4046 18V5.718H93.2796V18H90.4046ZM91.8536 3.694C91.3169 3.694 90.8722 3.52533 90.5196 3.188C90.1822 2.85067 90.0136 2.44433 90.0136 1.969C90.0136 1.47833 90.1822 1.072 90.5196 0.749999C90.8722 0.412666 91.3169 0.244 91.8536 0.244C92.3902 0.244 92.8272 0.404999 93.1646 0.726999C93.5172 1.03367 93.6936 1.42467 93.6936 1.9C93.6936 2.406 93.5249 2.83533 93.1876 3.188C92.8502 3.52533 92.4056 3.694 91.8536 3.694ZM104.022 5.58C105.003 5.58 105.877 5.77167 106.644 6.155C107.426 6.53833 108.039 7.12867 108.484 7.926C108.929 8.708 109.151 9.72 109.151 10.962V18H106.276V11.33C106.276 10.2413 106.015 9.42867 105.494 8.892C104.988 8.35533 104.275 8.087 103.355 8.087C102.68 8.087 102.082 8.225 101.561 8.501C101.04 8.777 100.633 9.191 100.342 9.743C100.066 10.2797 99.928 10.962 99.928 11.79V18H97.053V5.718L99.79 5.718V9.03L99.307 8.018C99.7363 7.236 100.357 6.638 101.17 6.224C101.998 5.79467 102.949 5.58 104.022 5.58ZM128.3 5.58C129.281 5.58 130.148 5.77167 130.899 6.155C131.666 6.53833 132.264 7.12867 132.693 7.926C133.122 8.708 133.337 9.72 133.337 10.962V18H130.462V11.33C130.462 10.2413 130.224 9.42867 129.749 8.892C129.274 8.35533 128.591 8.087 127.702 8.087C127.073 8.087 126.514 8.225 126.023 8.501C125.548 8.777 125.172 9.18333 124.896 9.72C124.635 10.2567 124.505 10.939 124.505 11.767V18H121.63V11.33C121.63 10.2413 121.392 9.42867 120.917 8.892C120.442 8.35533 119.759 8.087 118.87 8.087C118.241 8.087 117.682 8.225 117.191 8.501C116.716 8.777 116.34 9.18333 116.064 9.72C115.803 10.2567 115.673 10.939 115.673 11.767V18H112.798V5.718H115.535V8.984L115.052 8.018C115.466 7.22067 116.064 6.615 116.846 6.201C117.643 5.787 118.548 5.58 119.56 5.58C120.71 5.58 121.707 5.86367 122.55 6.431C123.409 6.99833 123.976 7.857 124.252 9.007L123.125 8.616C123.524 7.696 124.183 6.96 125.103 6.408C126.023 5.856 127.089 5.58 128.3 5.58ZM142.806 18.161C141.442 18.161 140.246 17.8927 139.218 17.356C138.206 16.804 137.417 16.0527 136.849 15.102C136.297 14.1513 136.021 13.0703 136.021 11.859C136.021 10.6323 136.29 9.55133 136.826 8.616C137.378 7.66533 138.13 6.92167 139.08 6.385C140.046 5.84833 141.143 5.58 142.369 5.58C143.565 5.58 144.631 5.84067 145.566 6.362C146.502 6.88333 147.238 7.61933 147.774 8.57C148.311 9.52067 148.579 10.64 148.579 11.928C148.579 12.0507 148.572 12.1887 148.556 12.342C148.556 12.4953 148.549 12.641 148.533 12.779H138.298V10.87H147.015L145.888 11.468C145.904 10.7627 145.758 10.1417 145.451 9.605C145.145 9.06833 144.723 8.64667 144.186 8.34C143.665 8.03333 143.059 7.88 142.369 7.88C141.664 7.88 141.043 8.03333 140.506 8.34C139.985 8.64667 139.571 9.076 139.264 9.628C138.973 10.1647 138.827 10.801 138.827 11.537V11.997C138.827 12.733 138.996 13.3847 139.333 13.952C139.671 14.5193 140.146 14.9563 140.759 15.263C141.373 15.5697 142.078 15.723 142.875 15.723C143.565 15.723 144.186 15.6157 144.738 15.401C145.29 15.1863 145.781 14.849 146.21 14.389L147.751 16.16C147.199 16.804 146.502 17.3023 145.658 17.655C144.83 17.9923 143.88 18.161 142.806 18.161ZM158.31 5.58C159.291 5.58 160.165 5.77167 160.932 6.155C161.714 6.53833 162.327 7.12867 162.772 7.926C163.217 8.708 163.439 9.72 163.439 10.962V18H160.564V11.33C160.564 10.2413 160.303 9.42867 159.782 8.892C159.276 8.35533 158.563 8.087 157.643 8.087C156.968 8.087 156.37 8.225 155.849 8.501C155.328 8.777 154.921 9.191 154.63 9.743C154.354 10.2797 154.216 10.962 154.216 11.79V18H151.341V5.718H154.078V9.03L153.595 8.018C154.024 7.236 154.645 6.638 155.458 6.224C156.286 5.79467 157.237 5.58 158.31 5.58ZM171.709 18.161C170.36 18.161 169.317 17.816 168.581 17.126C167.845 16.4207 167.477 15.3857 167.477 14.021V3.004L170.352 3.004V13.952C170.352 14.5347 170.498 14.987 170.789 15.309C171.096 15.631 171.518 15.792 172.054 15.792C172.698 15.792 173.235 15.6233 173.664 15.286L174.469 17.333C174.132 17.609 173.718 17.816 173.227 17.954C172.737 18.092 172.231 18.161 171.709 18.161ZM165.453 8.11V5.81H173.641V8.11H165.453Z" fill="white"/>
</svg>
