<svg width="255" height="101" viewBox="0 0 255 101" fill="none" xmlns="http://www.w3.org/2000/svg">
<path d="M42.5052 35.0248C52.5 35.0248 52.5 33.3698 52.5 57.0852C52.5 74.1636 52.5 88.3815 52.5 95.0018C52.5 97.211 50.7091 99 48.5 99H32.1935C29.9844 99 28.1935 97.2091 28.1935 95V90.1758M9.89063 99H6C3.79086 99 2 97.2091 2 95V74.7335V39.0248C2 36.8157 3.79086 35.0248 6 35.0248H24.3021C26.5112 35.0248 28.3021 36.8157 28.3021 39.0248V43.849" stroke="white" stroke-width="2" stroke-linecap="round" stroke-linejoin="round"/>
<path d="M40.9271 43.8489H14.625V62.6003H21.2005V55.9034H34.3516V62.6003H40.9271V43.8489Z" stroke="white" stroke-width="2"/>
<path d="M40.9271 90.1757H14.625V78.0527H21.2005V71.4244H34.3516V78.0527H40.9271V90.1757Z" stroke="white" stroke-width="2"/>
<path d="M76.2023 38.033C76.2023 41.491 75.4483 43.272 72.4843 44.611L71.6133 43.779C73.9793 42.882 75.1493 41.764 75.1493 38.111V34.952C75.1493 34.445 75.1103 34.016 75.0843 33.899H76.2673C76.2543 34.029 76.2023 34.445 76.2023 34.952V38.033ZM71.5093 33.977C71.4963 34.094 71.4573 34.471 71.4573 34.913V39.684C71.4573 40.165 71.4963 40.737 71.5093 40.854H70.3523C70.3653 40.737 70.4173 40.178 70.4173 39.684V34.913C70.4173 34.64 70.3913 34.276 70.3523 33.977H71.5093ZM67.7133 36.499C67.8303 36.512 68.4673 36.59 69.0133 36.59H77.6193C78.2043 36.59 78.6333 36.538 78.8153 36.512V37.617C78.6723 37.604 78.2043 37.578 77.6323 37.578H69.0133C68.4413 37.578 67.8563 37.617 67.7133 37.617V36.499ZM80.564 39.307C82.813 38.709 84.789 37.786 86.232 36.889C87.597 36.031 88.897 34.913 89.794 33.821L90.665 34.64C89.547 35.797 88.182 36.889 86.661 37.838C85.231 38.722 83.164 39.671 81.071 40.321L80.564 39.307ZM86.024 37.422L87.142 37.084V43.025C87.142 43.506 87.168 44.156 87.233 44.403H85.946C85.985 44.156 86.024 43.506 86.024 43.025V37.422ZM96.4178 42.856C96.4178 42.128 96.4178 36.382 96.4178 35.303C96.4178 34.926 96.3918 34.354 96.3268 33.938H97.6008C97.5488 34.341 97.5098 34.9 97.5098 35.303C97.5098 37.318 97.5228 42.245 97.5228 42.856C97.5228 43.272 97.5488 43.974 97.6008 44.403H96.3398C96.4048 43.987 96.4178 43.337 96.4178 42.856ZM97.2758 37.357C98.9918 37.851 101.618 38.852 103.061 39.554L102.606 40.659C101.124 39.866 98.6928 38.943 97.2758 38.501V37.357ZM114.729 34.146C114.703 34.458 114.69 34.835 114.69 35.277C114.69 35.784 114.69 36.889 114.69 37.37C114.69 40.503 114.274 41.53 113.325 42.635C112.493 43.649 111.193 44.221 110.244 44.546L109.386 43.649C110.582 43.337 111.687 42.83 112.493 41.907C113.416 40.841 113.585 39.775 113.585 37.331C113.585 36.824 113.585 35.732 113.585 35.277C113.585 34.835 113.546 34.458 113.507 34.146H114.729ZM108.697 34.25C108.671 34.497 108.658 34.874 108.658 35.173C108.658 35.563 108.658 38.969 108.658 39.515C108.658 39.853 108.671 40.282 108.697 40.516H107.514C107.54 40.308 107.566 39.892 107.566 39.515C107.566 38.956 107.566 35.563 107.566 35.173C107.566 34.952 107.553 34.497 107.514 34.25H108.697ZM120.208 34.484C121.118 35.095 122.795 36.447 123.51 37.162L122.704 37.994C122.041 37.318 120.429 35.914 119.454 35.277L120.208 34.484ZM119.09 43.194C121.352 42.856 123.042 42.063 124.277 41.296C126.292 40.035 127.865 38.111 128.619 36.499L129.243 37.617C128.359 39.229 126.851 40.997 124.888 42.232C123.575 43.051 121.937 43.857 119.766 44.26L119.09 43.194ZM141.184 35.875C141.08 36.057 140.95 36.356 140.885 36.564C140.534 37.877 139.741 39.632 138.584 41.049C137.401 42.492 135.841 43.675 133.41 44.585L132.461 43.727C134.853 43.025 136.465 41.855 137.661 40.464C138.662 39.281 139.468 37.591 139.728 36.408H134.918L135.334 35.472C135.854 35.472 139.065 35.472 139.468 35.472C139.819 35.472 140.118 35.433 140.326 35.355L141.184 35.875ZM136.829 33.912C136.621 34.25 136.387 34.692 136.257 34.926C135.49 36.369 134.138 38.228 132.045 39.606L131.135 38.943C133.384 37.604 134.658 35.706 135.23 34.549C135.36 34.315 135.555 33.847 135.633 33.509L136.829 33.912ZM149.784 35.134C149.615 36.486 149.355 38.007 148.952 39.398C148.159 42.063 147.119 43.441 145.923 43.441C144.753 43.441 143.596 42.115 143.596 39.957C143.596 37.136 146.105 34.679 149.29 34.679C152.332 34.679 154.269 36.824 154.269 39.463C154.269 42.18 152.475 44 149.381 44.403L148.783 43.441C149.199 43.402 149.589 43.35 149.901 43.285C151.565 42.908 153.203 41.66 153.203 39.411C153.203 37.331 151.76 35.615 149.264 35.615C146.404 35.615 144.623 37.968 144.623 39.879C144.623 41.517 145.364 42.245 145.949 42.245C146.56 42.245 147.262 41.361 147.925 39.164C148.302 37.929 148.575 36.46 148.705 35.108L149.784 35.134ZM157.292 35.095C157.734 35.134 158.293 35.173 158.722 35.173H165.118C165.443 35.173 165.82 35.16 166.08 35.147C166.067 35.433 166.054 35.849 166.054 36.148V42.869C166.054 43.337 166.093 43.922 166.106 44.117H164.936C164.936 43.922 164.962 43.441 164.962 42.973V36.2H158.722C158.241 36.2 157.604 36.226 157.292 36.252V35.095ZM157.136 42.271C157.461 42.297 158.033 42.336 158.566 42.336H165.547V43.402H158.605C158.072 43.402 157.487 43.415 157.136 43.454V42.271ZM170.623 34.484C171.533 35.095 173.21 36.447 173.925 37.162L173.119 37.994C172.456 37.318 170.844 35.914 169.869 35.277L170.623 34.484ZM169.505 43.194C171.767 42.856 173.457 42.063 174.692 41.296C176.707 40.035 178.28 38.111 179.034 36.499L179.658 37.617C178.774 39.229 177.266 40.997 175.303 42.232C173.99 43.051 172.352 43.857 170.181 44.26L169.505 43.194ZM183.058 34.393C183.435 34.432 183.812 34.458 184.241 34.458C184.995 34.458 188.778 34.458 189.506 34.458C189.87 34.458 190.338 34.432 190.715 34.393V35.472C190.325 35.446 189.87 35.42 189.506 35.42C188.778 35.42 184.995 35.42 184.254 35.42C183.825 35.42 183.396 35.446 183.058 35.472V34.393ZM181.511 37.656C181.862 37.695 182.239 37.708 182.642 37.708C183.396 37.708 190.455 37.708 191.144 37.708C191.417 37.708 191.846 37.695 192.171 37.656V38.722C191.872 38.709 191.469 38.696 191.144 38.696C190.455 38.696 183.396 38.696 182.642 38.696C182.252 38.696 181.862 38.709 181.511 38.735V37.656ZM187.634 38.176C187.634 39.814 187.426 41.166 186.841 42.258C186.373 43.129 185.385 44.052 184.293 44.624L183.331 43.922C184.332 43.493 185.268 42.752 185.775 41.92C186.425 40.893 186.529 39.619 186.542 38.189L187.634 38.176ZM195.831 34.484C196.741 35.095 198.418 36.447 199.133 37.162L198.327 37.994C197.664 37.318 196.052 35.914 195.077 35.277L195.831 34.484ZM194.713 43.194C196.975 42.856 198.665 42.063 199.9 41.296C201.915 40.035 203.488 38.111 204.242 36.499L204.866 37.617C203.982 39.229 202.474 40.997 200.511 42.232C199.198 43.051 197.56 43.857 195.389 44.26L194.713 43.194ZM211.399 34.237C211.685 34.848 212.478 36.915 212.699 37.643L211.685 37.994C211.464 37.253 210.736 35.251 210.411 34.562L211.399 34.237ZM217.184 35.069C217.093 35.277 217.002 35.602 216.95 35.797C216.547 37.422 215.858 39.268 214.779 40.672C213.44 42.44 211.529 43.779 209.683 44.429L208.799 43.532C210.645 42.986 212.582 41.738 213.895 40.074C214.922 38.761 215.728 36.681 215.975 34.718L217.184 35.069ZM207.772 35.017C208.123 35.745 208.929 37.721 209.241 38.579L208.201 38.956C207.954 38.15 207.057 35.953 206.758 35.381L207.772 35.017ZM219.101 35.446C219.595 35.433 220.011 35.407 220.271 35.381C221.103 35.29 223.56 35.056 225.952 34.848C227.382 34.731 228.591 34.653 229.462 34.627L229.475 35.667C228.721 35.654 227.59 35.68 226.927 35.862C225.068 36.46 223.937 38.449 223.937 39.983C223.937 42.518 226.316 43.337 228.422 43.415L228.045 44.481C225.64 44.39 222.91 43.116 222.91 40.204C222.91 38.189 224.145 36.525 225.328 35.823C223.937 35.966 220.622 36.291 219.218 36.59L219.101 35.446ZM227.59 37.253C227.889 37.682 228.383 38.488 228.669 39.073L227.993 39.372C227.694 38.748 227.33 38.085 226.94 37.539L227.59 37.253ZM229.007 36.707C229.332 37.136 229.839 37.929 230.138 38.501L229.475 38.826C229.163 38.202 228.773 37.552 228.37 37.006L229.007 36.707ZM238.842 33.704C238.816 33.86 238.777 34.367 238.777 34.523C238.738 35.368 238.764 37.877 238.777 38.917L237.789 38.41C237.789 37.838 237.776 35.251 237.737 34.536C237.711 34.185 237.672 33.821 237.646 33.704H238.842ZM231.926 35.524C233.694 35.498 236.944 35.381 238.946 35.381C240.532 35.381 242.144 35.381 242.755 35.394L242.742 36.356C242.014 36.317 240.844 36.291 238.933 36.291C236.697 36.291 233.915 36.382 231.952 36.525L231.926 35.524ZM238.751 39.294C238.751 41.036 237.945 41.907 236.762 41.907C235.67 41.907 234.617 41.14 234.617 39.723C234.617 38.436 235.683 37.474 236.918 37.474C238.426 37.474 239.193 38.592 239.193 40.087C239.193 41.855 238.335 43.805 235.319 44.702L234.448 43.857C236.814 43.298 238.192 42.141 238.192 39.996C238.192 38.826 237.62 38.332 236.918 38.332C236.229 38.332 235.592 38.865 235.592 39.71C235.592 40.529 236.203 40.997 236.918 40.997C237.724 40.997 238.244 40.321 238.036 38.93L238.751 39.294ZM244.522 40.841C245.614 40.841 246.498 41.725 246.498 42.817C246.498 43.909 245.614 44.793 244.522 44.793C243.43 44.793 242.533 43.909 242.533 42.817C242.533 41.725 243.43 40.841 244.522 40.841ZM244.522 44.13C245.25 44.13 245.835 43.545 245.835 42.817C245.835 42.089 245.25 41.504 244.522 41.504C243.794 41.504 243.196 42.089 243.196 42.817C243.196 43.545 243.794 44.13 244.522 44.13ZM71.9253 51.613H78.1133V52.458H71.9253V51.613ZM75.5003 53.68H78.5943V54.486H75.5003V53.68ZM73.0693 54.005H75.3183V54.772H73.0693V54.005ZM73.0693 56.384H75.3183V57.177H73.0693V56.384ZM74.9413 51.951H75.7473V61.506H74.9413V51.951ZM72.6533 51.899H73.4463V59.491L72.6533 59.647V51.899ZM71.6523 59.608C72.5623 59.426 73.9013 59.14 75.2403 58.828L75.3313 59.582C74.0963 59.881 72.8223 60.193 71.8343 60.427L71.6523 59.608ZM78.3603 53.68H78.5293L78.6853 53.667L79.1923 53.81C78.8673 57.45 77.9443 59.933 76.5403 61.233C76.4233 61.038 76.1503 60.687 75.9683 60.557C77.2683 59.361 78.1003 57.086 78.3603 53.875V53.68ZM76.7353 54.863C77.1513 57.372 78.0483 59.66 79.4913 60.687C79.2963 60.843 79.0363 61.129 78.9063 61.337C77.3983 60.141 76.5143 57.736 76.0463 55.019L76.7353 54.863ZM67.8173 52.627H72.0943V53.485H67.8173V52.627ZM67.4923 55.019H72.3413V55.903H67.4923V55.019ZM70.1963 57.541H72.2503V58.425H70.1963V57.541ZM69.6763 51.08H70.5733V55.565H69.6763V51.08ZM69.8713 55.617H70.7423V61.545H69.8713V55.617ZM68.8183 58.49C69.5593 61.22 71.0933 61.766 74.1223 61.766C74.7203 61.766 78.5943 61.779 79.3743 61.74C79.2183 61.974 79.0363 62.416 78.9713 62.702H74.1223C70.6123 62.702 69.0003 62.013 68.1033 58.737L68.8183 58.49ZM68.0643 56.904L68.8833 56.943C68.9093 58.893 68.8053 61.272 67.7913 63.014C67.6483 62.819 67.3363 62.546 67.1413 62.455C68.0253 60.869 68.1163 58.659 68.0643 56.904ZM84.1895 56.371H91.7165V57.307H84.1895V56.371ZM84.6965 53.225H91.1705V54.161H84.6965V53.225ZM87.3485 51.158H88.3235V63.027H87.3485V51.158ZM87.1405 56.878L87.9205 57.125C87.1015 59.257 85.6195 61.246 84.0205 62.286C83.8645 62.052 83.5785 61.714 83.3445 61.519C84.9175 60.635 86.3865 58.776 87.1405 56.878ZM88.5445 56.865C89.2335 58.672 90.5465 60.544 91.8725 61.467C91.6385 61.649 91.3135 62.013 91.1445 62.273C89.8185 61.168 88.5185 59.114 87.7905 57.125L88.5445 56.865ZM80.7835 52.276H83.7215V59.842H80.7835V58.906H82.8245V53.212H80.7835V52.276ZM80.3025 52.276H81.1995V60.869H80.3025V52.276ZM94.0878 51.08H95.0758V63.027H94.0878V51.08ZM92.8918 53.55L93.6328 53.667C93.5678 54.72 93.3338 56.228 92.9828 57.164L92.2158 56.904C92.5668 56.033 92.8008 54.603 92.8918 53.55ZM95.1668 53.472L95.8428 53.173C96.2458 53.875 96.6488 54.798 96.7918 55.357L96.0638 55.721C95.9208 55.149 95.5308 54.2 95.1668 53.472ZM97.8188 51.691L98.7678 51.847C98.4298 53.745 97.8578 55.591 97.1298 56.813C96.9348 56.67 96.4928 56.462 96.2458 56.358C97.0128 55.214 97.5328 53.446 97.8188 51.691ZM97.8318 53.836H103.877V54.772H97.5328L97.8318 53.836ZM99.9378 51.132H100.913V62.182H99.9378V51.132ZM97.1688 57.476H103.591V58.399H97.1688V57.476ZM96.1938 61.649H104.189V62.585H96.1938V61.649ZM111.695 53.134C111.526 54.486 111.266 56.007 110.863 57.398C110.07 60.063 109.03 61.441 107.834 61.441C106.664 61.441 105.507 60.115 105.507 57.957C105.507 55.136 108.016 52.679 111.201 52.679C114.243 52.679 116.18 54.824 116.18 57.463C116.18 60.18 114.386 62 111.292 62.403L110.694 61.441C111.11 61.402 111.5 61.35 111.812 61.285C113.476 60.908 115.114 59.66 115.114 57.411C115.114 55.331 113.671 53.615 111.175 53.615C108.315 53.615 106.534 55.968 106.534 57.879C106.534 59.517 107.275 60.245 107.86 60.245C108.471 60.245 109.173 59.361 109.836 57.164C110.213 55.929 110.486 54.46 110.616 53.108L111.695 53.134ZM117.732 52.328H129.029V53.173H117.732V52.328ZM122.815 51.08H123.816V52.731H122.815V51.08ZM118.304 57.411H127.963V58.243H119.253V63.053H118.304V57.411ZM127.56 57.411H128.535V61.883C128.535 62.416 128.418 62.702 128.002 62.871C127.586 63.014 126.884 63.027 125.805 63.027C125.766 62.754 125.623 62.364 125.48 62.104C126.338 62.13 127.066 62.13 127.287 62.104C127.508 62.104 127.56 62.039 127.56 61.857V57.411ZM120.904 59.088H121.775V62.494H120.904V59.088ZM121.372 59.088H125.87V61.831H121.372V61.129H124.986V59.79H121.372V59.088ZM120.826 54.616V55.877H125.909V54.616H120.826ZM119.89 53.901H126.897V56.592H119.89V53.901ZM132.298 52.939C132.233 53.238 132.194 53.862 132.181 54.2C132.168 55.006 132.181 56.202 132.272 57.268C132.493 59.439 133.117 60.882 134.053 60.882C134.716 60.882 135.327 59.543 135.665 58.243L136.484 59.166C135.691 61.363 134.911 62.117 134.027 62.117C132.792 62.117 131.622 60.895 131.258 57.528C131.141 56.41 131.115 54.824 131.115 54.07C131.115 53.771 131.115 53.212 131.037 52.913L132.298 52.939ZM139.058 53.29C140.228 54.798 141.164 57.567 141.359 59.764L140.306 60.18C140.085 57.84 139.292 55.162 138.057 53.641L139.058 53.29ZM151.27 56.033C151.27 59.491 150.516 61.272 147.552 62.611L146.681 61.779C149.047 60.882 150.217 59.764 150.217 56.111V52.952C150.217 52.445 150.178 52.016 150.152 51.899H151.335C151.322 52.029 151.27 52.445 151.27 52.952V56.033ZM146.577 51.977C146.564 52.094 146.525 52.471 146.525 52.913V57.684C146.525 58.165 146.564 58.737 146.577 58.854H145.42C145.433 58.737 145.485 58.178 145.485 57.684V52.913C145.485 52.64 145.459 52.276 145.42 51.977H146.577ZM142.781 54.499C142.898 54.512 143.535 54.59 144.081 54.59H152.687C153.272 54.59 153.701 54.538 153.883 54.512V55.617C153.74 55.604 153.272 55.578 152.7 55.578H144.081C143.509 55.578 142.924 55.617 142.781 55.617V54.499ZM155.539 57.307C157.788 56.709 159.764 55.786 161.207 54.889C162.572 54.031 163.872 52.913 164.769 51.821L165.64 52.64C164.522 53.797 163.157 54.889 161.636 55.838C160.206 56.722 158.139 57.671 156.046 58.321L155.539 57.307ZM160.999 55.422L162.117 55.084V61.025C162.117 61.506 162.143 62.156 162.208 62.403H160.921C160.96 62.156 160.999 61.506 160.999 61.025V55.422ZM171.3 60.856C171.3 60.128 171.3 54.382 171.3 53.303C171.3 52.926 171.274 52.354 171.209 51.938H172.483C172.431 52.341 172.392 52.9 172.392 53.303C172.392 55.318 172.405 60.245 172.405 60.856C172.405 61.272 172.431 61.974 172.483 62.403H171.222C171.287 61.987 171.3 61.337 171.3 60.856ZM172.158 55.357C173.874 55.851 176.5 56.852 177.943 57.554L177.488 58.659C176.006 57.866 173.575 56.943 172.158 56.501V55.357ZM185.19 51.782C185.112 52.133 185.073 52.406 185.021 52.692C184.852 54.148 184.267 58.152 184.267 59.556C184.267 60.817 184.982 61.584 186.464 61.584C188.44 61.584 189.701 60.726 189.701 59.374C189.701 58.503 189.233 57.541 188.271 56.735L189.415 56.488C190.312 57.476 190.754 58.386 190.754 59.491C190.754 61.428 189.025 62.611 186.451 62.611C184.696 62.611 183.266 61.831 183.266 59.712C183.266 58.321 183.877 54.434 184.02 52.64C184.059 52.185 184.059 51.951 184.033 51.717L185.19 51.782ZM181.03 53.511C182.122 53.862 183.682 54.031 184.839 54.031C185.827 54.031 186.724 53.979 187.491 53.862L187.465 54.85C186.633 54.928 185.866 54.967 184.813 54.967C183.669 54.967 182.109 54.772 180.965 54.46L181.03 53.511ZM180.705 56.748C181.966 57.19 183.487 57.307 184.683 57.307C185.58 57.307 186.477 57.281 187.387 57.151L187.374 58.139C186.503 58.23 185.697 58.256 184.826 58.256C183.409 58.256 181.836 58.1 180.653 57.736L180.705 56.748ZM198.078 51.717C198.026 51.873 197.974 52.107 197.935 52.289C197.714 53.381 197.493 55.435 197.493 57.216C197.493 58.906 197.857 60.466 198.26 61.688L197.311 61.974C196.934 60.817 196.583 58.971 196.583 57.32C196.583 55.539 196.843 53.433 196.96 52.315C196.986 52.081 196.999 51.847 196.999 51.678L198.078 51.717ZM195.985 53.316C198.273 53.316 200.535 53.134 202.329 52.731L202.342 53.693C200.47 54.018 197.909 54.213 195.972 54.213C195.413 54.213 194.399 54.161 193.866 54.135L193.84 53.16C194.295 53.238 195.426 53.316 195.985 53.316ZM201.406 54.85C201.328 55.019 201.211 55.37 201.133 55.578C200.366 57.983 199.066 59.79 197.701 60.843C196.869 61.48 195.829 61.961 194.906 61.961C194.048 61.961 193.372 61.441 193.372 60.336C193.372 58.555 195.023 56.722 196.947 55.981C197.818 55.643 198.871 55.448 199.716 55.448C202.173 55.448 203.72 56.878 203.72 58.698C203.72 60.557 202.485 62.182 199.469 62.663L198.91 61.792C201.25 61.532 202.706 60.323 202.706 58.646C202.706 57.385 201.64 56.28 199.703 56.28C198.611 56.28 197.649 56.592 196.986 56.891C195.517 57.541 194.347 58.971 194.347 60.167C194.347 60.7 194.607 60.96 195.088 60.96C195.738 60.96 196.583 60.596 197.415 59.868C198.572 58.854 199.638 57.45 200.236 55.344C200.288 55.149 200.353 54.798 200.366 54.59L201.406 54.85ZM208.86 51.743C208.587 52.705 208.34 54.46 208.262 55.37C208.795 54.031 210.147 52.406 211.798 52.406C213.514 52.406 214.762 54.148 214.762 56.878C214.762 60.479 212.487 62.078 209.276 62.663L208.652 61.727C211.486 61.298 213.683 60.154 213.683 56.891C213.683 54.837 212.994 53.355 211.629 53.355C210.004 53.355 208.496 55.721 208.34 57.424C208.275 57.918 208.275 58.373 208.366 59.023L207.352 59.101C207.287 58.607 207.222 57.879 207.222 57.034C207.222 55.799 207.469 53.888 207.625 52.822C207.677 52.432 207.703 52.068 207.729 51.704L208.86 51.743ZM224.413 51.691C224.387 51.912 224.361 52.172 224.348 52.562C224.322 53.082 224.322 54.824 224.322 55.916C224.322 57.632 224.517 59.907 224.517 60.778C224.517 61.688 223.919 62.611 222.229 62.611C220.357 62.611 219.33 61.948 219.33 60.687C219.33 59.504 220.461 58.711 222.333 58.711C225.076 58.711 227.221 60.193 228.222 61.012L227.624 61.935C226.454 60.856 224.53 59.556 222.216 59.556C220.968 59.556 220.305 60.037 220.305 60.635C220.305 61.246 220.812 61.688 222.099 61.688C222.853 61.688 223.49 61.467 223.49 60.557C223.49 59.556 223.36 57.06 223.36 55.916C223.36 54.746 223.36 53.381 223.36 52.471C223.36 52.25 223.347 51.86 223.308 51.691H224.413ZM219.447 53.095C220.279 53.251 221.904 53.381 222.762 53.381C224.413 53.381 226.155 53.264 227.845 52.991V53.94C226.376 54.109 224.517 54.278 222.775 54.278C221.878 54.278 220.279 54.161 219.46 54.057L219.447 53.095ZM219.382 55.864C220.305 56.007 221.787 56.098 222.645 56.098C224.53 56.098 226.259 55.968 227.949 55.721V56.696C226.181 56.917 224.595 57.008 222.645 57.008C221.748 57.008 220.318 56.943 219.395 56.839L219.382 55.864ZM237.64 51.704C237.614 51.86 237.575 52.367 237.575 52.523C237.536 53.368 237.562 55.877 237.575 56.917L236.587 56.41C236.587 55.838 236.574 53.251 236.535 52.536C236.509 52.185 236.47 51.821 236.444 51.704H237.64ZM230.724 53.524C232.492 53.498 235.742 53.381 237.744 53.381C239.33 53.381 240.942 53.381 241.553 53.394L241.54 54.356C240.812 54.317 239.642 54.291 237.731 54.291C235.495 54.291 232.713 54.382 230.75 54.525L230.724 53.524ZM237.549 57.294C237.549 59.036 236.743 59.907 235.56 59.907C234.468 59.907 233.415 59.14 233.415 57.723C233.415 56.436 234.481 55.474 235.716 55.474C237.224 55.474 237.991 56.592 237.991 58.087C237.991 59.855 237.133 61.805 234.117 62.702L233.246 61.857C235.612 61.298 236.99 60.141 236.99 57.996C236.99 56.826 236.418 56.332 235.716 56.332C235.027 56.332 234.39 56.865 234.39 57.71C234.39 58.529 235.001 58.997 235.716 58.997C236.522 58.997 237.042 58.321 236.834 56.93L237.549 57.294ZM249.319 53.134C249.15 54.486 248.89 56.007 248.487 57.398C247.694 60.063 246.654 61.441 245.458 61.441C244.288 61.441 243.131 60.115 243.131 57.957C243.131 55.136 245.64 52.679 248.825 52.679C251.867 52.679 253.804 54.824 253.804 57.463C253.804 60.18 252.01 62 248.916 62.403L248.318 61.441C248.734 61.402 249.124 61.35 249.436 61.285C251.1 60.908 252.738 59.66 252.738 57.411C252.738 55.331 251.295 53.615 248.799 53.615C245.939 53.615 244.158 55.968 244.158 57.879C244.158 59.517 244.899 60.245 245.484 60.245C246.095 60.245 246.797 59.361 247.46 57.164C247.837 55.929 248.11 54.46 248.24 53.108L249.319 53.134ZM67.8563 71.446C68.3503 71.433 68.7663 71.407 69.0263 71.381C69.8583 71.29 72.3153 71.056 74.7073 70.848C76.1373 70.731 77.3463 70.653 78.2173 70.627L78.2303 71.667C77.4763 71.654 76.3453 71.68 75.6823 71.862C73.8233 72.46 72.6923 74.449 72.6923 75.983C72.6923 78.518 75.0713 79.337 77.1773 79.415L76.8003 80.481C74.3953 80.39 71.6653 79.116 71.6653 76.204C71.6653 74.189 72.9003 72.525 74.0833 71.823C72.6923 71.966 69.3773 72.291 67.9733 72.59L67.8563 71.446ZM76.3453 73.253C76.6443 73.682 77.1383 74.488 77.4243 75.073L76.7483 75.372C76.4493 74.748 76.0853 74.085 75.6953 73.539L76.3453 73.253ZM77.7623 72.707C78.0873 73.136 78.5943 73.929 78.8933 74.501L78.2303 74.826C77.9183 74.202 77.5283 73.552 77.1253 73.006L77.7623 72.707ZM82.1615 71.017C83.0975 71.134 84.3065 71.186 85.6065 71.186C86.8545 71.186 88.1675 71.095 89.1165 71.004V72.07C88.2325 72.135 86.8025 72.226 85.6065 72.226C84.3065 72.226 83.1885 72.161 82.1615 72.083V71.017ZM82.6945 76.256C82.5255 76.776 82.4215 77.257 82.4215 77.738C82.4215 78.739 83.4225 79.415 85.5155 79.415C87.3095 79.415 88.9735 79.22 89.9615 78.908L89.9745 80.013C89.0385 80.273 87.3875 80.468 85.5415 80.468C82.8895 80.468 81.3685 79.597 81.3685 77.972C81.3685 77.296 81.5115 76.685 81.6285 76.165L82.6945 76.256ZM89.4805 69.574C89.8055 70.042 90.2735 70.835 90.5465 71.368L89.8315 71.68C89.5715 71.147 89.1295 70.354 88.7785 69.873L89.4805 69.574ZM90.9105 69.054C91.2485 69.535 91.7555 70.341 92.0025 70.822L91.3005 71.147C91.0145 70.575 90.5855 69.834 90.2215 69.353L90.9105 69.054ZM97.8708 73.513H98.8848V79.792C98.8848 80.442 98.7158 80.741 98.2088 80.884C97.7018 81.04 96.8308 81.053 95.5178 81.053C95.4528 80.767 95.2708 80.351 95.1148 80.065C96.1938 80.104 97.1948 80.104 97.4938 80.091C97.7798 80.078 97.8708 80 97.8708 79.766V73.513ZM93.1388 70.107H102.525V71.056H93.1388V70.107ZM102.174 70.107H102.434L102.668 70.042L103.422 70.588C102.265 71.966 100.432 73.5 98.8198 74.41C98.6768 74.202 98.3648 73.877 98.1568 73.734C99.6388 72.915 101.355 71.42 102.174 70.341V70.107ZM110.317 71.992H111.292V79.87C111.292 80.481 111.136 80.754 110.694 80.91C110.252 81.066 109.498 81.079 108.367 81.079C108.315 80.806 108.146 80.416 108.003 80.143C108.913 80.182 109.745 80.169 109.992 80.156C110.239 80.143 110.317 80.078 110.317 79.857V71.992ZM106.742 69.821H114.178V70.705H106.742V69.821ZM113.866 69.821H114.113L114.321 69.769L114.997 70.25C114.009 71.251 112.475 72.252 111.058 72.85C110.928 72.655 110.668 72.382 110.499 72.226C111.76 71.706 113.177 70.757 113.866 70.003V69.821ZM108.692 73.526H113.086V74.332H108.692V73.526ZM105.13 72.616H108.042V73.513H105.13V72.616ZM108.432 75.593H113.294V76.399H108.432V75.593ZM107.691 77.725H114.048V78.544H107.691V77.725ZM116.011 72.512L116.778 73.149C116.063 73.981 115.114 74.969 114.399 75.606L113.775 75.06C114.477 74.423 115.452 73.318 116.011 72.512ZM113.944 72.213C114.386 75.177 115.322 77.855 117.012 79.129C116.778 79.324 116.44 79.688 116.271 79.961C114.49 78.453 113.554 75.645 113.047 72.356L113.944 72.213ZM107.691 72.616H107.886L108.068 72.577L108.679 72.811C108.172 76.087 106.963 78.596 105.468 79.948C105.312 79.74 104.948 79.376 104.727 79.233C106.183 77.998 107.275 75.697 107.691 72.837V72.616ZM126.039 70.419C125.753 70.627 125.35 70.978 125.142 71.16C124.245 71.94 122.373 73.409 121.411 74.215C120.631 74.891 120.618 75.086 121.463 75.788C122.646 76.763 124.947 78.609 126.325 80L125.402 80.845C125.129 80.533 124.817 80.221 124.505 79.896C123.582 78.96 121.619 77.27 120.397 76.269C119.175 75.242 119.318 74.683 120.488 73.695C121.476 72.876 123.452 71.316 124.323 70.432C124.583 70.172 124.921 69.795 125.064 69.561L126.039 70.419ZM134.755 69.964C134.677 70.25 134.573 70.744 134.521 70.991C134.339 71.927 134.066 73.409 133.702 74.696C133.234 76.542 132.363 79.233 131.674 80.65L130.53 80.273C131.323 78.934 132.233 76.282 132.714 74.449C133.039 73.253 133.377 71.628 133.468 70.939C133.52 70.575 133.546 70.133 133.52 69.86L134.755 69.964ZM131.882 72.135C133.312 72.135 135.223 71.914 136.835 71.498V72.525C135.223 72.889 133.26 73.097 131.856 73.097C131.284 73.097 130.829 73.084 130.348 73.045L130.322 72.044C130.933 72.122 131.401 72.135 131.882 72.135ZM135.99 73.929C136.666 73.864 137.524 73.812 138.369 73.812C139.123 73.812 139.916 73.838 140.618 73.916L140.592 74.904C139.916 74.826 139.162 74.761 138.395 74.761C137.576 74.761 136.783 74.8 135.99 74.891V73.929ZM136.25 77.088C136.146 77.504 136.068 77.92 136.068 78.258C136.068 78.869 136.419 79.467 138.265 79.467C139.11 79.467 140.007 79.363 140.813 79.207L140.774 80.26C140.072 80.351 139.201 80.442 138.252 80.442C136.211 80.442 135.093 79.805 135.093 78.518C135.093 78.024 135.171 77.543 135.288 76.984L136.25 77.088ZM139.201 70.367C139.539 70.822 140.007 71.628 140.28 72.148L139.578 72.46C139.318 71.94 138.863 71.147 138.512 70.653L139.201 70.367ZM140.644 69.834C140.995 70.315 141.489 71.121 141.736 71.615L141.034 71.927C140.761 71.355 140.319 70.627 139.955 70.133L140.644 69.834ZM148.709 70.796C148.631 70.51 148.514 70.12 148.384 69.769L149.502 69.639C149.619 70.393 149.957 71.511 150.256 72.356C150.659 73.474 151.322 74.683 151.881 75.437C152.05 75.697 152.245 75.918 152.44 76.126L151.92 76.867C151.296 76.711 149.71 76.568 148.774 76.503L148.852 75.645C149.58 75.71 150.542 75.788 151.01 75.84C150.464 75.008 149.749 73.721 149.32 72.538C149.034 71.797 148.852 71.199 148.709 70.796ZM143.951 71.81C146.122 72.057 148.176 72.07 149.658 71.914C150.685 71.797 151.972 71.563 152.986 71.212L153.103 72.239C152.18 72.499 150.945 72.707 149.996 72.824C148.345 73.019 146.278 73.032 143.977 72.837L143.951 71.81ZM145.966 75.944C145.576 76.581 145.342 77.14 145.342 77.751C145.342 78.999 146.473 79.532 148.41 79.558C149.723 79.558 150.854 79.428 151.751 79.233L151.712 80.273C150.893 80.416 149.801 80.559 148.345 80.546C145.875 80.533 144.315 79.649 144.315 77.881C144.315 77.153 144.575 76.477 144.952 75.71L145.966 75.944ZM157.32 70.939C157.255 71.238 157.216 71.862 157.203 72.2C157.19 73.006 157.203 74.202 157.294 75.268C157.515 77.439 158.139 78.882 159.075 78.882C159.738 78.882 160.349 77.543 160.687 76.243L161.506 77.166C160.713 79.363 159.933 80.117 159.049 80.117C157.814 80.117 156.644 78.895 156.28 75.528C156.163 74.41 156.137 72.824 156.137 72.07C156.137 71.771 156.137 71.212 156.059 70.913L157.32 70.939ZM164.08 71.29C165.25 72.798 166.186 75.567 166.381 77.764L165.328 78.18C165.107 75.84 164.314 73.162 163.079 71.641L164.08 71.29ZM169.454 76.841C170.546 76.841 171.43 77.725 171.43 78.817C171.43 79.909 170.546 80.793 169.454 80.793C168.362 80.793 167.465 79.909 167.465 78.817C167.465 77.725 168.362 76.841 169.454 76.841ZM169.454 80.13C170.182 80.13 170.767 79.545 170.767 78.817C170.767 78.089 170.182 77.504 169.454 77.504C168.726 77.504 168.128 78.089 168.128 78.817C168.128 79.545 168.726 80.13 169.454 80.13ZM180.25 70.068H191.638V71.017H180.25V70.068ZM184.306 73.682H189.779V74.631H184.306V73.682ZM189.441 73.682H190.455C190.455 73.682 190.442 74.02 190.429 74.163C190.208 78.362 189.987 79.935 189.48 80.481C189.181 80.819 188.856 80.91 188.349 80.949C187.868 80.988 186.945 80.962 186.061 80.91C186.035 80.624 185.905 80.221 185.71 79.948C186.685 80.052 187.634 80.052 187.985 80.052C188.284 80.052 188.453 80.026 188.596 79.883C189.025 79.506 189.246 77.881 189.441 73.851V73.682ZM183.773 70.835H184.774C184.67 74.527 184.436 78.934 180.588 81.066C180.432 80.819 180.133 80.507 179.873 80.312C183.565 78.362 183.682 74.215 183.773 70.835ZM197.467 69.912C197.415 70.146 197.363 70.432 197.311 70.679C197.22 71.147 197.051 72.213 196.869 73.019C196.427 74.852 195.504 78.089 194.035 80.455L192.969 80.039C194.451 78.05 195.491 74.579 195.842 72.993C196.089 71.953 196.258 70.783 196.258 69.782L197.467 69.912ZM201.939 71.407C202.745 72.46 203.876 74.826 204.318 76.022L203.304 76.503C202.927 75.177 201.9 72.915 200.99 71.836L201.939 71.407ZM192.787 72.759C193.19 72.785 193.528 72.772 193.944 72.759C194.919 72.733 197.558 72.447 198.442 72.447C199.599 72.447 200.548 72.889 200.548 74.644C200.548 76.191 200.34 78.258 199.794 79.337C199.391 80.208 198.741 80.429 197.896 80.429C197.402 80.429 196.778 80.338 196.375 80.234L196.193 79.155C196.739 79.324 197.428 79.415 197.792 79.415C198.273 79.415 198.663 79.311 198.923 78.752C199.339 77.868 199.547 76.178 199.547 74.774C199.547 73.578 199.001 73.357 198.169 73.357C197.298 73.357 194.854 73.656 194.061 73.734C193.762 73.773 193.229 73.838 192.891 73.89L192.787 72.759ZM202.082 69.522C202.407 69.99 202.875 70.783 203.148 71.316L202.446 71.628C202.186 71.095 201.744 70.315 201.38 69.821L202.082 69.522ZM203.512 69.002C203.863 69.483 204.357 70.302 204.617 70.783L203.902 71.095C203.629 70.523 203.2 69.782 202.823 69.301L203.512 69.002ZM205.038 74.397H216.933V75.463H205.038V74.397ZM227.052 70.146C227.026 70.458 227.013 70.835 227.013 71.277C227.013 71.784 227.013 72.889 227.013 73.37C227.013 76.503 226.597 77.53 225.648 78.635C224.816 79.649 223.516 80.221 222.567 80.546L221.709 79.649C222.905 79.337 224.01 78.83 224.816 77.907C225.739 76.841 225.908 75.775 225.908 73.331C225.908 72.824 225.908 71.732 225.908 71.277C225.908 70.835 225.869 70.458 225.83 70.146H227.052ZM221.02 70.25C220.994 70.497 220.981 70.874 220.981 71.173C220.981 71.563 220.981 74.969 220.981 75.515C220.981 75.853 220.994 76.282 221.02 76.516H219.837C219.863 76.308 219.889 75.892 219.889 75.515C219.889 74.956 219.889 71.563 219.889 71.173C219.889 70.952 219.876 70.497 219.837 70.25H221.02ZM232.44 70.484C233.35 71.095 235.027 72.447 235.742 73.162L234.936 73.994C234.273 73.318 232.661 71.914 231.686 71.277L232.44 70.484ZM231.322 79.194C233.584 78.856 235.274 78.063 236.509 77.296C238.524 76.035 240.097 74.111 240.851 72.499L241.475 73.617C240.591 75.229 239.083 76.997 237.12 78.232C235.807 79.051 234.169 79.857 231.998 80.26L231.322 79.194ZM253.323 71.875C253.219 72.057 253.089 72.356 253.024 72.564C252.673 73.877 251.88 75.632 250.723 77.049C249.54 78.492 247.98 79.675 245.549 80.585L244.6 79.727C246.992 79.025 248.604 77.855 249.8 76.464C250.801 75.281 251.607 73.591 251.867 72.408H247.057L247.473 71.472C247.993 71.472 251.204 71.472 251.607 71.472C251.958 71.472 252.257 71.433 252.465 71.355L253.323 71.875ZM248.968 69.912C248.76 70.25 248.526 70.692 248.396 70.926C247.629 72.369 246.277 74.228 244.184 75.606L243.274 74.943C245.523 73.604 246.797 71.706 247.369 70.549C247.499 70.315 247.694 69.847 247.772 69.509L248.968 69.912ZM72.0423 89.224H78.4773V90.16H72.0423V89.224ZM78.0613 89.224H79.0623C79.0623 89.224 79.0493 89.64 79.0493 89.783C78.8933 96.452 78.7373 98.662 78.2433 99.325C77.9443 99.728 77.6583 99.845 77.2163 99.91C76.7873 99.962 76.0723 99.949 75.3833 99.897C75.3573 99.611 75.2403 99.182 75.0713 98.896C75.8253 98.961 76.5143 98.961 76.8003 98.961C77.0473 98.974 77.1773 98.922 77.3203 98.74C77.7363 98.246 77.9183 95.906 78.0613 89.484V89.224ZM67.2063 92.266L72.7053 91.109L72.8743 91.98L67.3883 93.163L67.2063 92.266ZM68.7923 88.457H69.7543V96.101C69.7543 96.569 69.8063 96.634 70.1573 96.634C70.3133 96.634 71.1063 96.634 71.3273 96.634C71.6523 96.634 71.7043 96.309 71.7563 94.775C71.9643 94.957 72.3543 95.126 72.6273 95.204C72.5233 97.011 72.2893 97.57 71.4053 97.57C71.1843 97.57 70.2093 97.57 70.0143 97.57C69.0393 97.57 68.7923 97.245 68.7923 96.088V88.457ZM74.3563 89.64H75.3183C75.2403 93.917 75.0843 97.999 71.5483 100.092C71.4053 99.845 71.0933 99.507 70.8463 99.325C74.2133 97.453 74.2783 93.605 74.3563 89.64ZM91.5943 98.012C90.8923 98.714 90.0863 99.104 89.2023 99.104C88.3313 99.104 87.7593 98.532 87.7593 97.466C87.7593 96.01 88.2403 93.878 88.2403 92.617C88.2403 91.863 87.8633 91.538 87.2003 91.538C85.9783 91.538 84.0933 93.15 82.8713 94.632L82.8843 93.345C83.6903 92.461 85.8483 90.589 87.4473 90.589C88.6693 90.589 89.2673 91.278 89.2673 92.331C89.2673 93.631 88.7733 95.867 88.7733 97.18C88.7733 97.622 88.9943 97.973 89.4623 97.973C90.0733 97.973 90.7623 97.596 91.4253 96.907L91.5943 98.012ZM82.8583 91.798C82.4293 91.863 81.0253 92.032 80.0633 92.188L79.9463 91.109C80.2323 91.122 80.4793 91.122 80.8043 91.096C81.4933 91.057 83.1183 90.862 83.7163 90.667L84.0933 91.109C83.8723 91.447 83.5213 92.006 83.3003 92.37L82.9103 94.151C82.3123 95.074 81.1033 96.829 80.2843 97.96L79.6343 97.076C80.4403 96.062 82.1953 93.683 82.7023 92.825L82.7543 92.149L82.8583 91.798ZM82.7283 89.653C82.7283 89.354 82.7413 89.016 82.6763 88.691L83.8983 88.73C83.7163 89.575 83.3263 93.293 83.3263 95.581C83.3263 96.764 83.3263 97.557 83.3783 98.714C83.3913 98.935 83.4303 99.26 83.4433 99.507H82.3253C82.3513 99.26 82.3643 98.948 82.3643 98.74C82.3643 97.479 82.3773 96.829 82.3903 95.399C82.4163 94.255 82.7283 90.134 82.7283 89.653ZM98.3413 90.134C98.1723 91.486 97.9123 93.007 97.5093 94.398C96.7163 97.063 95.6763 98.441 94.4803 98.441C93.3103 98.441 92.1533 97.115 92.1533 94.957C92.1533 92.136 94.6623 89.679 97.8473 89.679C100.889 89.679 102.826 91.824 102.826 94.463C102.826 97.18 101.032 99 97.9383 99.403L97.3403 98.441C97.7563 98.402 98.1463 98.35 98.4583 98.285C100.122 97.908 101.76 96.66 101.76 94.411C101.76 92.331 100.317 90.615 97.8213 90.615C94.9613 90.615 93.1803 92.968 93.1803 94.879C93.1803 96.517 93.9213 97.245 94.5063 97.245C95.1173 97.245 95.8193 96.361 96.4823 94.164C96.8593 92.929 97.1323 91.46 97.2623 90.108L98.3413 90.134ZM107.402 93.423H115.592V94.281H107.402V93.423ZM108.871 95.191H114.539V95.984H108.871V95.191ZM109.508 93.748L110.353 93.969C109.69 95.412 108.507 96.686 107.298 97.492C107.168 97.323 106.83 97.024 106.635 96.881C107.831 96.166 108.91 95.035 109.508 93.748ZM114.357 95.191H115.28C115.28 95.191 115.267 95.438 115.241 95.581C115.046 98.272 114.838 99.299 114.487 99.676C114.279 99.897 114.045 99.975 113.733 100.001C113.447 100.014 112.953 100.027 112.433 100.001C112.433 99.754 112.342 99.403 112.212 99.195C112.706 99.234 113.135 99.247 113.317 99.247C113.512 99.247 113.616 99.234 113.72 99.104C113.967 98.857 114.175 97.882 114.357 95.334V95.191ZM109.573 90.927V91.967H113.759V90.927H109.573ZM109.573 89.198V90.225H113.759V89.198H109.573ZM108.689 88.47H114.669V92.695H108.689V88.47ZM103.788 90.901H107.649V91.837H103.788V90.901ZM105.309 88.184H106.232V96.179H105.309V88.184ZM103.541 96.699C104.542 96.283 106.076 95.594 107.558 94.905L107.766 95.763C106.44 96.439 105.023 97.141 103.918 97.674L103.541 96.699ZM112.693 95.334L113.382 95.698C112.888 97.349 111.809 99.195 110.626 100.092C110.457 99.897 110.158 99.676 109.911 99.533C111.133 98.714 112.225 96.946 112.693 95.334ZM110.665 95.373L111.328 95.763C110.665 97.18 109.3 98.727 108.039 99.533C107.883 99.325 107.61 99.078 107.376 98.935C108.663 98.233 110.028 96.738 110.665 95.373ZM118.426 92.331H124.991V93.202H118.426V92.331ZM118.192 98.649H125.16V99.52H118.192V98.649ZM117.75 94.84H125.706V100.053H124.718V95.724H118.699V100.053H117.75V94.84ZM121.663 89.081C120.597 90.667 118.465 92.513 116.242 93.722C116.112 93.501 115.852 93.15 115.631 92.942C117.919 91.785 120.09 89.796 121.117 88.119H122.105C123.509 90.056 125.784 91.863 127.864 92.786C127.617 93.02 127.383 93.358 127.214 93.644C125.173 92.578 122.885 90.745 121.663 89.081ZM132.466 91.317C133.207 91.395 133.909 91.434 134.676 91.434C136.236 91.434 137.835 91.317 139.148 91.044V92.045C137.77 92.279 136.184 92.383 134.663 92.383C133.909 92.383 133.233 92.357 132.479 92.305L132.466 91.317ZM137.016 88.99C136.977 89.25 136.951 89.523 136.938 89.77C136.912 90.251 136.899 91.174 136.899 91.941C136.899 93.943 137.094 95.971 137.094 97.31C137.094 98.376 136.6 99.416 134.845 99.416C133.103 99.416 132.154 98.714 132.154 97.544C132.154 96.452 133.116 95.594 134.832 95.594C137.016 95.594 138.537 96.699 139.629 97.687L139.07 98.545C137.705 97.271 136.392 96.387 134.741 96.387C133.766 96.387 133.09 96.816 133.09 97.44C133.09 98.116 133.727 98.467 134.676 98.467C135.768 98.467 136.08 97.921 136.08 97.05C136.08 96.114 135.911 93.683 135.911 91.967C135.911 91.07 135.898 90.251 135.898 89.796C135.898 89.562 135.885 89.224 135.846 88.99H137.016ZM130.607 89.081C130.529 89.289 130.425 89.718 130.373 89.952C130.113 91.161 129.723 93.735 129.723 95.191C129.723 95.828 129.762 96.374 129.853 97.011C130.061 96.413 130.386 95.62 130.607 95.087L131.14 95.503C130.815 96.413 130.334 97.739 130.204 98.376C130.165 98.558 130.139 98.818 130.152 98.961C130.165 99.091 130.178 99.286 130.191 99.416L129.268 99.494C129.021 98.558 128.774 97.128 128.774 95.373C128.774 93.462 129.216 90.979 129.372 89.913C129.424 89.601 129.45 89.263 129.463 88.977L130.607 89.081ZM142.19 90.017C143.126 90.134 144.335 90.186 145.635 90.186C146.883 90.186 148.196 90.095 149.145 90.004V91.07C148.261 91.135 146.831 91.226 145.635 91.226C144.335 91.226 143.217 91.161 142.19 91.083V90.017ZM142.723 95.256C142.554 95.776 142.45 96.257 142.45 96.738C142.45 97.739 143.451 98.415 145.544 98.415C147.338 98.415 149.002 98.22 149.99 97.908L150.003 99.013C149.067 99.273 147.416 99.468 145.57 99.468C142.918 99.468 141.397 98.597 141.397 96.972C141.397 96.296 141.54 95.685 141.657 95.165L142.723 95.256ZM149.509 88.574C149.834 89.042 150.302 89.835 150.575 90.368L149.86 90.68C149.6 90.147 149.158 89.354 148.807 88.873L149.509 88.574ZM150.939 88.054C151.277 88.535 151.784 89.341 152.031 89.822L151.329 90.147C151.043 89.575 150.614 88.834 150.25 88.353L150.939 88.054ZM154.657 93.215V97.817H153.721V94.125H152.07V93.215H154.657ZM154.657 97.427C155.268 98.389 156.412 98.831 157.959 98.883C159.402 98.948 162.405 98.909 163.978 98.805C163.861 99.026 163.705 99.481 163.666 99.767C162.197 99.832 159.415 99.858 157.959 99.793C156.243 99.728 155.06 99.273 154.254 98.246C153.682 98.805 153.084 99.364 152.434 99.936L151.927 98.987C152.499 98.571 153.201 97.986 153.812 97.427H154.657ZM152.187 88.951L152.928 88.418C153.734 89.003 154.644 89.9 155.047 90.537L154.241 91.148C153.877 90.498 152.98 89.588 152.187 88.951ZM155.398 89.25H163.575V90.069H155.398V89.25ZM155.203 96.114H163.77V96.933H155.203V96.114ZM158.921 88.093H159.883V98.415H158.921V88.093ZM156.919 93.41V94.45H161.95V93.41H156.919ZM156.919 91.694V92.721H161.95V91.694H156.919ZM156.022 90.966H162.899V95.191H156.022V90.966ZM169.698 95.256H175.223V100.04H174.274V96.114H170.621V100.066H169.698V95.256ZM170.257 98.558H174.599V99.429H170.257V98.558ZM171.258 88.093L172.22 88.249C171.557 89.692 170.53 91.317 168.996 92.591C168.84 92.396 168.528 92.084 168.333 91.967C169.763 90.836 170.751 89.315 171.258 88.093ZM171.024 89.354H174.599V90.212H170.595L171.024 89.354ZM174.3 89.354H174.508L174.677 89.315L175.262 89.653C174.157 92.591 171.739 94.593 169.23 95.633C169.113 95.399 168.814 95.022 168.619 94.853C171.076 93.93 173.39 92.071 174.3 89.536V89.354ZM170.868 90.264C171.947 92.149 174.118 93.865 176.328 94.619C176.107 94.814 175.834 95.178 175.691 95.412C173.442 94.528 171.284 92.695 170.062 90.589L170.868 90.264ZM166.097 88.093L166.955 88.431C166.461 89.38 165.85 90.537 165.343 91.252L164.667 90.94C165.161 90.199 165.759 88.951 166.097 88.093ZM167.553 89.575L168.372 89.939C167.488 91.434 166.24 93.319 165.278 94.463L164.68 94.125C165.642 92.955 166.864 90.979 167.553 89.575ZM164.043 90.823L164.537 90.186C165.265 90.797 166.084 91.642 166.435 92.227L165.915 92.968C165.564 92.357 164.745 91.447 164.043 90.823ZM167.098 92.591L167.774 92.318C168.307 93.15 168.814 94.255 168.996 94.957L168.255 95.282C168.099 94.567 167.605 93.449 167.098 92.591ZM164.004 93.917C165.135 93.878 166.76 93.813 168.411 93.722L168.398 94.528C166.838 94.632 165.265 94.723 164.082 94.801L164.004 93.917ZM167.436 95.659L168.138 95.438C168.502 96.166 168.853 97.154 168.983 97.804L168.229 98.064C168.112 97.414 167.761 96.413 167.436 95.659ZM164.732 95.516L165.577 95.672C165.395 96.894 165.07 98.155 164.654 98.987C164.485 98.883 164.095 98.701 163.887 98.61C164.316 97.817 164.576 96.66 164.732 95.516ZM166.136 94.281H167.007V100.079H166.136V94.281ZM184.804 89.419C184.518 89.627 184.115 89.978 183.907 90.16C183.01 90.94 181.138 92.409 180.176 93.215C179.396 93.891 179.383 94.086 180.228 94.788C181.411 95.763 183.712 97.609 185.09 99L184.167 99.845C183.894 99.533 183.582 99.221 183.27 98.896C182.347 97.96 180.384 96.27 179.162 95.269C177.94 94.242 178.083 93.683 179.253 92.695C180.241 91.876 182.217 90.316 183.088 89.432C183.348 89.172 183.686 88.795 183.829 88.561L184.804 89.419ZM193.098 88.964C193.02 89.25 192.916 89.744 192.864 89.991C192.682 90.927 192.409 92.409 192.045 93.696C191.577 95.542 190.706 98.233 190.017 99.65L188.873 99.273C189.666 97.934 190.576 95.282 191.057 93.449C191.382 92.253 191.72 90.628 191.811 89.939C191.863 89.575 191.889 89.133 191.863 88.86L193.098 88.964ZM190.225 91.135C191.655 91.135 193.566 90.914 195.178 90.498V91.525C193.566 91.889 191.603 92.097 190.199 92.097C189.627 92.097 189.172 92.084 188.691 92.045L188.665 91.044C189.276 91.122 189.744 91.135 190.225 91.135ZM194.333 92.929C195.009 92.864 195.867 92.812 196.712 92.812C197.466 92.812 198.259 92.838 198.961 92.916L198.935 93.904C198.259 93.826 197.505 93.761 196.738 93.761C195.919 93.761 195.126 93.8 194.333 93.891V92.929ZM194.593 96.088C194.489 96.504 194.411 96.92 194.411 97.258C194.411 97.869 194.762 98.467 196.608 98.467C197.453 98.467 198.35 98.363 199.156 98.207L199.117 99.26C198.415 99.351 197.544 99.442 196.595 99.442C194.554 99.442 193.436 98.805 193.436 97.518C193.436 97.024 193.514 96.543 193.631 95.984L194.593 96.088ZM197.544 89.367C197.882 89.822 198.35 90.628 198.623 91.148L197.921 91.46C197.661 90.94 197.206 90.147 196.855 89.653L197.544 89.367ZM198.987 88.834C199.338 89.315 199.832 90.121 200.079 90.615L199.377 90.927C199.104 90.355 198.662 89.627 198.298 89.133L198.987 88.834ZM206.631 89.796C206.553 89.51 206.436 89.12 206.306 88.769L207.424 88.639C207.541 89.393 207.879 90.511 208.178 91.356C208.581 92.474 209.244 93.683 209.803 94.437C209.972 94.697 210.167 94.918 210.362 95.126L209.842 95.867C209.218 95.711 207.632 95.568 206.696 95.503L206.774 94.645C207.502 94.71 208.464 94.788 208.932 94.84C208.386 94.008 207.671 92.721 207.242 91.538C206.956 90.797 206.774 90.199 206.631 89.796ZM201.873 90.81C204.044 91.057 206.098 91.07 207.58 90.914C208.607 90.797 209.894 90.563 210.908 90.212L211.025 91.239C210.102 91.499 208.867 91.707 207.918 91.824C206.267 92.019 204.2 92.032 201.899 91.837L201.873 90.81ZM203.888 94.944C203.498 95.581 203.264 96.14 203.264 96.751C203.264 97.999 204.395 98.532 206.332 98.558C207.645 98.558 208.776 98.428 209.673 98.233L209.634 99.273C208.815 99.416 207.723 99.559 206.267 99.546C203.797 99.533 202.237 98.649 202.237 96.881C202.237 96.153 202.497 95.477 202.874 94.71L203.888 94.944ZM214.821 89.939C214.756 90.238 214.717 90.862 214.704 91.2C214.691 92.006 214.704 93.202 214.795 94.268C215.016 96.439 215.64 97.882 216.576 97.882C217.239 97.882 217.85 96.543 218.188 95.243L219.007 96.166C218.214 98.363 217.434 99.117 216.55 99.117C215.315 99.117 214.145 97.895 213.781 94.528C213.664 93.41 213.638 91.824 213.638 91.07C213.638 90.771 213.638 90.212 213.56 89.913L214.821 89.939ZM221.581 90.29C222.751 91.798 223.687 94.567 223.882 96.764L222.829 97.18C222.608 94.84 221.815 92.162 220.58 90.641L221.581 90.29ZM226.534 95.841C227.626 95.841 228.51 96.725 228.51 97.817C228.51 98.909 227.626 99.793 226.534 99.793C225.442 99.793 224.545 98.909 224.545 97.817C224.545 96.725 225.442 95.841 226.534 95.841ZM226.534 99.13C227.262 99.13 227.847 98.545 227.847 97.817C227.847 97.089 227.262 96.504 226.534 96.504C225.806 96.504 225.208 97.089 225.208 97.817C225.208 98.545 225.806 99.13 226.534 99.13Z" fill="white"/>
<path d="M2.162 18L2.162 1.9L5.152 1.9L5.152 15.47H13.57V18H2.162ZM15.6546 18L15.6546 5.718H18.5296V18H15.6546ZM17.1036 3.694C16.5669 3.694 16.1222 3.52533 15.7696 3.188C15.4322 2.85067 15.2636 2.44433 15.2636 1.969C15.2636 1.47833 15.4322 1.072 15.7696 0.749999C16.1222 0.412666 16.5669 0.244 17.1036 0.244C17.6402 0.244 18.0772 0.404999 18.4146 0.726999C18.7672 1.03367 18.9436 1.42467 18.9436 1.9C18.9436 2.406 18.7749 2.83533 18.4376 3.188C18.1002 3.52533 17.6556 3.694 17.1036 3.694ZM29.272 5.58C30.2533 5.58 31.1273 5.77167 31.894 6.155C32.676 6.53833 33.2893 7.12867 33.734 7.926C34.1787 8.708 34.401 9.72 34.401 10.962V18H31.526V11.33C31.526 10.2413 31.2653 9.42867 30.744 8.892C30.238 8.35533 29.525 8.087 28.605 8.087C27.9303 8.087 27.3323 8.225 26.811 8.501C26.2897 8.777 25.8833 9.191 25.592 9.743C25.316 10.2797 25.178 10.962 25.178 11.79V18H22.303V5.718H25.04V9.03L24.557 8.018C24.9863 7.236 25.6073 6.638 26.42 6.224C27.248 5.79467 28.1987 5.58 29.272 5.58ZM40.3941 15.263L40.4631 11.652L46.8801 5.718H50.3301L44.8791 11.192L43.3611 12.457L40.3941 15.263ZM38.0481 18V0.933999H40.9231V18H38.0481ZM47.3171 18L42.8321 12.457L44.6491 10.157L50.8131 18H47.3171Z" fill="white"/>
</svg>
