<svg width="255" height="101" viewBox="0 0 255 101" fill="none" xmlns="http://www.w3.org/2000/svg">
<path d="M14.4147 48.2998H5.95093C3.74179 48.2998 1.95093 50.0907 1.95093 52.2998V94.8998C1.95093 97.109 3.74179 98.8998 5.95093 98.8998H36.381C38.5902 98.8998 40.381 97.1089 40.381 94.8998V85.1498" stroke="white" stroke-width="2"/>
<rect x="13.3373" y="35" width="38.5074" height="50.8" rx="3" stroke="white" stroke-width="2"/>
<path d="M72.083 34.809C72.018 34.484 71.94 34.198 71.849 33.925L73.006 33.73C73.032 33.964 73.084 34.341 73.136 34.627C73.214 35.199 74.644 42.336 74.826 43.194C74.917 43.558 75.021 44 75.151 44.377L73.955 44.598C73.89 44.156 73.851 43.753 73.76 43.376C73.63 42.557 72.239 35.485 72.083 34.809ZM68.417 36.694C68.742 36.668 69.093 36.642 69.509 36.603C70.679 36.473 75.164 35.758 76.399 35.511C76.776 35.446 77.114 35.368 77.335 35.303L77.543 36.395C77.348 36.408 76.958 36.473 76.607 36.525C75.268 36.733 70.835 37.435 69.691 37.63C69.34 37.695 69.028 37.76 68.651 37.851L68.417 36.694ZM68.378 40.438C68.69 40.425 69.184 40.373 69.522 40.321C70.913 40.139 75.749 39.346 77.309 39.06C77.803 38.969 78.18 38.878 78.453 38.8L78.674 39.892C78.401 39.918 77.985 39.996 77.504 40.074C75.775 40.334 71.082 41.101 69.769 41.335C69.262 41.426 68.898 41.504 68.612 41.582L68.378 40.438ZM85.5066 36.044C85.5326 36.278 85.6106 36.551 85.6886 36.889C85.9876 37.968 87.4046 43.116 87.6776 44C87.7556 44.247 87.8726 44.65 87.9636 44.884L86.8456 45.183C86.8196 44.884 86.7546 44.546 86.6636 44.234C86.3906 43.298 84.9996 38.059 84.7006 37.097C84.6096 36.785 84.5056 36.525 84.3886 36.317L85.5066 36.044ZM91.7466 37.838C91.2006 38.93 89.8616 40.763 88.9646 41.634L88.0546 41.166C88.8606 40.477 89.8486 39.268 90.2906 38.501C89.7186 38.605 83.6346 39.827 82.7116 40.022L82.4516 39.034C82.8156 38.995 83.1406 38.956 83.5306 38.878C84.1806 38.774 89.8486 37.708 90.5896 37.539C90.7586 37.5 90.9536 37.435 91.0836 37.37L91.7466 37.838ZM97.0062 34.328C97.3442 34.367 97.7472 34.393 98.1632 34.393C98.8652 34.393 102.518 34.393 103.285 34.393C103.688 34.393 104.143 34.367 104.455 34.328V35.407C104.156 35.381 103.701 35.368 103.259 35.368C102.531 35.368 98.8782 35.368 98.1632 35.368C97.7732 35.368 97.3572 35.381 97.0062 35.407V34.328ZM105.417 37.747C105.352 37.877 105.261 38.033 105.235 38.137C104.897 39.411 104.312 40.763 103.337 41.829C101.985 43.324 100.347 44.078 98.6962 44.546L97.8902 43.623C99.7232 43.246 101.348 42.401 102.466 41.231C103.246 40.412 103.766 39.307 104 38.358C103.363 38.358 97.8902 38.358 97.1102 38.358C96.7982 38.358 96.3042 38.371 95.8362 38.41V37.318C96.3042 37.357 96.7462 37.396 97.1102 37.396C97.7472 37.396 103.285 37.396 103.948 37.396C104.247 37.396 104.533 37.357 104.676 37.292L105.417 37.747ZM118.828 35.875C118.724 36.057 118.594 36.356 118.529 36.564C118.178 37.877 117.385 39.632 116.228 41.049C115.045 42.492 113.485 43.675 111.054 44.585L110.105 43.727C112.497 43.025 114.109 41.855 115.305 40.464C116.306 39.281 117.112 37.591 117.372 36.408H112.562L112.978 35.472C113.498 35.472 116.709 35.472 117.112 35.472C117.463 35.472 117.762 35.433 117.97 35.355L118.828 35.875ZM114.473 33.912C114.265 34.25 114.031 34.692 113.901 34.926C113.134 36.369 111.782 38.228 109.689 39.606L108.779 38.943C111.028 37.604 112.302 35.706 112.874 34.549C113.004 34.315 113.199 33.847 113.277 33.509L114.473 33.912ZM125.881 38.046C127.545 39.021 129.677 40.516 130.964 41.556L130.197 42.466C129.001 41.374 126.778 39.775 125.166 38.774L125.881 38.046ZM131.822 35.68C131.718 35.862 131.588 36.161 131.523 36.369C131.133 37.695 130.314 39.424 129.17 40.828C127.987 42.284 126.297 43.675 123.827 44.585L122.904 43.766C125.322 43.038 127.09 41.66 128.26 40.269C129.261 39.073 130.08 37.422 130.379 36.213H125.569L125.985 35.277H130.119C130.47 35.277 130.756 35.238 130.964 35.16L131.822 35.68ZM127.441 33.795C127.22 34.133 126.986 34.575 126.856 34.822C126.089 36.252 124.62 38.215 122.54 39.645L121.682 38.982C123.905 37.591 125.244 35.641 125.842 34.445C125.972 34.224 126.18 33.756 126.258 33.418L127.441 33.795ZM135.3 38.371C135.703 38.41 136.379 38.449 137.12 38.449C138.069 38.449 143.282 38.449 144.244 38.449C144.894 38.449 145.349 38.397 145.648 38.371V39.645C145.375 39.632 144.829 39.593 144.257 39.593C143.269 39.593 138.082 39.593 137.12 39.593C136.405 39.593 135.716 39.619 135.3 39.645V38.371ZM150.128 34.51C150.492 34.549 150.882 34.575 151.298 34.575C152.052 34.575 155.081 34.575 155.809 34.575C156.173 34.575 156.641 34.549 157.018 34.51V35.589C156.628 35.563 156.173 35.537 155.809 35.537C155.081 35.537 152.052 35.537 151.324 35.537C150.882 35.537 150.466 35.563 150.128 35.589V34.51ZM148.581 37.773C148.932 37.812 149.309 37.838 149.712 37.838C150.466 37.838 157.525 37.838 158.214 37.838C158.487 37.838 158.916 37.812 159.241 37.773V38.852C158.955 38.826 158.539 38.813 158.214 38.813C157.525 38.813 150.466 38.813 149.712 38.813C149.322 38.813 148.932 38.826 148.581 38.852V37.773ZM154.704 38.293C154.704 39.931 154.496 41.283 153.924 42.375C153.443 43.246 152.468 44.182 151.363 44.741L150.401 44.039C151.402 43.61 152.338 42.869 152.858 42.037C153.508 41.01 153.599 39.736 153.612 38.306L154.704 38.293ZM157.694 33.444C158.019 33.912 158.487 34.705 158.747 35.225L158.045 35.537C157.798 35.017 157.356 34.237 157.005 33.743L157.694 33.444ZM159.111 32.924C159.462 33.405 159.956 34.211 160.203 34.692L159.514 35.004C159.228 34.445 158.799 33.704 158.435 33.223L159.111 32.924ZM171.339 34.094C171.586 34.562 171.924 35.368 172.106 35.888L171.456 36.109C171.274 35.563 170.975 34.783 170.715 34.289L171.339 34.094ZM172.639 33.691C172.886 34.172 173.224 34.965 173.419 35.485L172.769 35.706C172.561 35.121 172.275 34.38 172.002 33.886L172.639 33.691ZM170.104 38.267C170.104 41.725 169.363 43.506 166.399 44.832L165.515 44.013C167.881 43.103 169.064 41.985 169.064 38.345V35.186C169.064 34.679 169.025 34.25 168.999 34.12H170.169C170.156 34.25 170.104 34.679 170.104 35.186V38.267ZM165.424 34.211C165.411 34.328 165.359 34.692 165.359 35.147V39.918C165.359 40.386 165.398 40.958 165.411 41.088H164.267C164.28 40.958 164.319 40.412 164.319 39.918V35.147C164.319 34.874 164.306 34.497 164.267 34.211H165.424ZM161.615 36.733C161.732 36.746 162.369 36.811 162.928 36.811H171.534C172.106 36.811 172.548 36.772 172.73 36.746V37.851C172.587 37.825 172.106 37.812 171.534 37.812H162.928C162.356 37.812 161.771 37.838 161.615 37.851V36.733ZM175.61 39.307C177.859 38.709 179.835 37.786 181.278 36.889C182.643 36.031 183.943 34.913 184.84 33.821L185.711 34.64C184.593 35.797 183.228 36.889 181.707 37.838C180.277 38.722 178.21 39.671 176.117 40.321L175.61 39.307ZM181.07 37.422L182.188 37.084V43.025C182.188 43.506 182.214 44.156 182.279 44.403H180.992C181.031 44.156 181.07 43.506 181.07 43.025V37.422ZM190.945 34.484C191.855 35.095 193.532 36.447 194.247 37.162L193.441 37.994C192.778 37.318 191.166 35.914 190.191 35.277L190.945 34.484ZM189.827 43.194C192.089 42.856 193.779 42.063 195.014 41.296C197.029 40.035 198.602 38.111 199.356 36.499L199.98 37.617C199.096 39.229 197.588 40.997 195.625 42.232C194.312 43.051 192.674 43.857 190.503 44.26L189.827 43.194ZM208.697 35.758C208.203 35.251 207.345 34.458 206.799 34.042L207.54 33.509C207.969 33.847 208.957 34.666 209.438 35.173L208.697 35.758ZM204.563 34.627C204.667 34.848 204.888 35.264 205.018 35.511C205.525 36.421 206.149 37.734 206.682 38.917C207.384 40.542 208.216 42.947 208.658 44.39L207.54 44.689C207.137 43.142 206.513 41.062 205.772 39.359C205.161 37.994 204.576 36.733 204.134 35.992C203.978 35.732 203.718 35.316 203.51 35.056L204.563 34.627ZM202.262 38.423C202.639 38.332 203.094 38.176 203.328 38.072C205.135 37.383 208.294 35.615 210.452 35.615C212.259 35.615 213.351 36.629 213.351 38.046C213.351 39.554 212.402 40.685 210.374 40.685C209.646 40.685 208.905 40.503 208.424 40.321L208.45 39.294C208.957 39.528 209.607 39.723 210.296 39.723C211.726 39.723 212.311 38.93 212.311 38.007C212.311 37.24 211.7 36.525 210.426 36.525C208.255 36.525 204.407 38.774 202.769 39.489L202.262 38.423ZM216.011 33.795H227.009V36.642H225.995V34.705H216.973V36.642H216.011V33.795ZM219.027 36.343H225.098V37.201H219.027V36.343ZM218.585 38.774H224.214V39.645H218.585V38.774ZM215.699 41.179H227.321V42.089H215.699V41.179ZM223.967 38.774H224.942C224.942 38.774 224.916 39.073 224.903 39.216C224.591 42.726 224.279 44.104 223.759 44.624C223.447 44.923 223.148 45.014 222.654 45.04C222.225 45.066 221.38 45.053 220.535 45.001C220.509 44.728 220.379 44.338 220.21 44.078C221.107 44.169 222.004 44.169 222.329 44.169C222.628 44.169 222.784 44.156 222.94 44.026C223.382 43.649 223.681 42.258 223.954 38.93L223.967 38.774ZM218.884 34.796L219.859 34.9C219.547 36.577 219.066 38.774 218.715 40.074L217.727 39.983C218.104 38.657 218.598 36.434 218.884 34.796ZM236.194 43.467L236.831 42.843C238.287 43.337 239.873 43.961 240.848 44.416L240.029 45.066C239.132 44.611 237.663 43.987 236.194 43.467ZM229.226 41.777H240.77V42.609H229.226V41.777ZM229.603 34.172H240.445V35.017H229.603V34.172ZM234.452 33.08H235.479V36.265H234.452V33.08ZM232.125 38.007V38.878H238.066V38.007H232.125ZM232.125 39.489V40.373H238.066V39.489H232.125ZM232.125 36.525V37.37H238.066V36.525H232.125ZM231.189 35.875H239.054V41.023H231.189V35.875ZM232.983 42.856L233.854 43.415C232.814 44.065 231.189 44.715 229.889 45.066C229.746 44.871 229.434 44.572 229.226 44.39C230.539 44.039 232.164 43.415 232.983 42.856ZM249.865 42.947H253.401V43.896H249.865V42.947ZM242.689 35.55H247.681V36.499H242.689V35.55ZM249.423 34.705H253.869V44.754H252.881V35.641H250.372V44.845H249.423V34.705ZM247.421 35.55H248.37C248.37 35.55 248.37 35.914 248.37 36.044C248.266 41.829 248.175 43.727 247.759 44.299C247.525 44.637 247.291 44.754 246.901 44.793C246.537 44.845 245.939 44.845 245.354 44.806C245.341 44.52 245.237 44.091 245.068 43.818C245.679 43.87 246.238 43.87 246.485 43.87C246.68 43.883 246.797 43.844 246.914 43.675C247.213 43.272 247.33 41.348 247.421 35.784V35.55ZM244.535 33.262H245.484C245.471 38.059 245.406 42.57 243.118 45.053C242.949 44.832 242.611 44.533 242.364 44.39C244.535 42.102 244.522 37.812 244.535 33.262ZM68.352 52.549H78.7V53.563H68.352V52.549ZM67.663 61.077H79.35V62.052H67.663V61.077ZM72.915 53.056H74.007V61.48H72.915V53.056ZM87.8801 53.134C87.7111 54.486 87.4511 56.007 87.0481 57.398C86.2551 60.063 85.2151 61.441 84.0191 61.441C82.8491 61.441 81.6921 60.115 81.6921 57.957C81.6921 55.136 84.2011 52.679 87.3861 52.679C90.4281 52.679 92.3651 54.824 92.3651 57.463C92.3651 60.18 90.5711 62 87.4771 62.403L86.8791 61.441C87.2951 61.402 87.6851 61.35 87.9971 61.285C89.6611 60.908 91.2991 59.66 91.2991 57.411C91.2991 55.331 89.8561 53.615 87.3601 53.615C84.5001 53.615 82.7191 55.968 82.7191 57.879C82.7191 59.517 83.4601 60.245 84.0451 60.245C84.6561 60.245 85.3581 59.361 86.0211 57.164C86.3981 55.929 86.6711 54.46 86.8011 53.108L87.8801 53.134ZM96.3453 53.095C96.7873 53.134 97.3463 53.173 97.7753 53.173H104.171C104.496 53.173 104.873 53.16 105.133 53.147C105.12 53.433 105.107 53.849 105.107 54.148V60.869C105.107 61.337 105.146 61.922 105.159 62.117H103.989C103.989 61.922 104.015 61.441 104.015 60.973V54.2H97.7753C97.2943 54.2 96.6573 54.226 96.3453 54.252V53.095ZM96.1893 60.271C96.5143 60.297 97.0863 60.336 97.6193 60.336H104.6V61.402H97.6583C97.1253 61.402 96.5403 61.415 96.1893 61.454V60.271ZM110.634 52.484C111.544 53.095 113.221 54.447 113.936 55.162L113.13 55.994C112.467 55.318 110.855 53.914 109.88 53.277L110.634 52.484ZM109.516 61.194C111.778 60.856 113.468 60.063 114.703 59.296C116.718 58.035 118.291 56.111 119.045 54.499L119.669 55.617C118.785 57.229 117.277 58.997 115.314 60.232C114.001 61.051 112.363 61.857 110.192 62.26L109.516 61.194ZM124.027 52.393C124.404 52.432 124.781 52.458 125.21 52.458C125.964 52.458 129.747 52.458 130.475 52.458C130.839 52.458 131.307 52.432 131.684 52.393V53.472C131.294 53.446 130.839 53.42 130.475 53.42C129.747 53.42 125.964 53.42 125.223 53.42C124.794 53.42 124.365 53.446 124.027 53.472V52.393ZM122.48 55.656C122.831 55.695 123.208 55.708 123.611 55.708C124.365 55.708 131.424 55.708 132.113 55.708C132.386 55.708 132.815 55.695 133.14 55.656V56.722C132.841 56.709 132.438 56.696 132.113 56.696C131.424 56.696 124.365 56.696 123.611 56.696C123.221 56.696 122.831 56.709 122.48 56.735V55.656ZM128.603 56.176C128.603 57.814 128.395 59.166 127.81 60.258C127.342 61.129 126.354 62.052 125.262 62.624L124.3 61.922C125.301 61.493 126.237 60.752 126.744 59.92C127.394 58.893 127.498 57.619 127.511 56.189L128.603 56.176ZM137.757 52.484C138.667 53.095 140.344 54.447 141.059 55.162L140.253 55.994C139.59 55.318 137.978 53.914 137.003 53.277L137.757 52.484ZM136.639 61.194C138.901 60.856 140.591 60.063 141.826 59.296C143.841 58.035 145.414 56.111 146.168 54.499L146.792 55.617C145.908 57.229 144.4 58.997 142.437 60.232C141.124 61.051 139.486 61.857 137.315 62.26L136.639 61.194ZM154.282 52.237C154.568 52.848 155.361 54.915 155.582 55.643L154.568 55.994C154.347 55.253 153.619 53.251 153.294 52.562L154.282 52.237ZM160.067 53.069C159.976 53.277 159.885 53.602 159.833 53.797C159.43 55.422 158.741 57.268 157.662 58.672C156.323 60.44 154.412 61.779 152.566 62.429L151.682 61.532C153.528 60.986 155.465 59.738 156.778 58.074C157.805 56.761 158.611 54.681 158.858 52.718L160.067 53.069ZM150.655 53.017C151.006 53.745 151.812 55.721 152.124 56.579L151.084 56.956C150.837 56.15 149.94 53.953 149.641 53.381L150.655 53.017ZM162.942 53.446C163.436 53.433 163.852 53.407 164.112 53.381C164.944 53.29 167.401 53.056 169.793 52.848C171.223 52.731 172.432 52.653 173.303 52.627L173.316 53.667C172.562 53.654 171.431 53.68 170.768 53.862C168.909 54.46 167.778 56.449 167.778 57.983C167.778 60.518 170.157 61.337 172.263 61.415L171.886 62.481C169.481 62.39 166.751 61.116 166.751 58.204C166.751 56.189 167.986 54.525 169.169 53.823C167.778 53.966 164.463 54.291 163.059 54.59L162.942 53.446ZM171.431 55.253C171.73 55.682 172.224 56.488 172.51 57.073L171.834 57.372C171.535 56.748 171.171 56.085 170.781 55.539L171.431 55.253ZM172.848 54.707C173.173 55.136 173.68 55.929 173.979 56.501L173.316 56.826C173.004 56.202 172.614 55.552 172.211 55.006L172.848 54.707ZM183.64 51.704C183.614 51.86 183.575 52.367 183.575 52.523C183.536 53.368 183.562 55.877 183.575 56.917L182.587 56.41C182.587 55.838 182.574 53.251 182.535 52.536C182.509 52.185 182.47 51.821 182.444 51.704H183.64ZM176.724 53.524C178.492 53.498 181.742 53.381 183.744 53.381C185.33 53.381 186.942 53.381 187.553 53.394L187.54 54.356C186.812 54.317 185.642 54.291 183.731 54.291C181.495 54.291 178.713 54.382 176.75 54.525L176.724 53.524ZM183.549 57.294C183.549 59.036 182.743 59.907 181.56 59.907C180.468 59.907 179.415 59.14 179.415 57.723C179.415 56.436 180.481 55.474 181.716 55.474C183.224 55.474 183.991 56.592 183.991 58.087C183.991 59.855 183.133 61.805 180.117 62.702L179.246 61.857C181.612 61.298 182.99 60.141 182.99 57.996C182.99 56.826 182.418 56.332 181.716 56.332C181.027 56.332 180.39 56.865 180.39 57.71C180.39 58.529 181.001 58.997 181.716 58.997C182.522 58.997 183.042 58.321 182.834 56.93L183.549 57.294ZM190.277 58.841C191.369 58.841 192.253 59.725 192.253 60.817C192.253 61.909 191.369 62.793 190.277 62.793C189.185 62.793 188.288 61.909 188.288 60.817C188.288 59.725 189.185 58.841 190.277 58.841ZM190.277 62.13C191.005 62.13 191.59 61.545 191.59 60.817C191.59 60.089 191.005 59.504 190.277 59.504C189.549 59.504 188.951 60.089 188.951 60.817C188.951 61.545 189.549 62.13 190.277 62.13ZM206.998 51.86C206.946 52.107 206.894 52.38 206.842 52.64C206.764 53.108 206.582 54.174 206.413 54.98C205.971 56.8 205.035 60.037 203.566 62.416L202.513 61.987C203.995 60.011 205.035 56.54 205.386 54.941C205.62 53.914 205.802 52.744 205.802 51.743L206.998 51.86ZM211.483 53.251C212.289 54.304 213.42 56.696 213.849 57.905L212.848 58.386C212.458 57.047 211.444 54.746 210.534 53.68L211.483 53.251ZM202.318 54.72C202.734 54.733 203.072 54.733 203.488 54.72C204.45 54.694 207.089 54.395 207.973 54.395C209.13 54.395 210.079 54.837 210.079 56.605C210.079 58.152 209.871 60.219 209.338 61.298C208.922 62.169 208.272 62.377 207.44 62.377C206.933 62.377 206.322 62.286 205.906 62.195L205.737 61.103C206.283 61.272 206.959 61.376 207.323 61.376C207.804 61.376 208.194 61.272 208.467 60.7C208.883 59.829 209.078 58.126 209.078 56.722C209.078 55.539 208.532 55.318 207.7 55.318C206.829 55.318 204.398 55.604 203.605 55.682C203.306 55.721 202.76 55.786 202.435 55.838L202.318 54.72ZM221.742 61.077C223.939 60.752 225.915 59.738 225.902 57.502C225.902 56.501 225.109 55.175 223.38 55.175C221.716 55.175 220.221 56.098 218.96 57.411V56.254C220.52 54.785 222.171 54.239 223.536 54.239C225.343 54.239 226.942 55.5 226.942 57.515C226.955 60.141 225.044 61.506 222.21 62.052L221.742 61.077ZM218.804 54.811C218.388 54.863 216.971 55.045 216.009 55.188L215.892 54.109C216.178 54.122 216.425 54.122 216.75 54.096C217.439 54.057 219.051 53.862 219.662 53.667L220.039 54.109C219.818 54.447 219.467 55.006 219.246 55.37L218.856 57.151C218.258 58.074 217.049 59.829 216.23 60.96L215.58 60.076C216.386 59.062 218.141 56.67 218.648 55.812L218.7 55.149L218.804 54.811ZM218.674 52.653C218.674 52.354 218.687 52.016 218.622 51.691L219.857 51.73C219.675 52.575 219.272 56.293 219.272 58.581C219.272 59.764 219.272 60.557 219.324 61.714C219.337 61.935 219.376 62.26 219.389 62.507H218.271C218.284 62.325 218.31 61.948 218.31 61.74C218.31 60.479 218.323 59.829 218.336 58.399C218.362 57.255 218.674 53.134 218.674 52.653ZM231.338 52.939C231.273 53.238 231.234 53.862 231.221 54.2C231.208 55.006 231.221 56.202 231.312 57.268C231.533 59.439 232.157 60.882 233.093 60.882C233.756 60.882 234.367 59.543 234.705 58.243L235.524 59.166C234.731 61.363 233.951 62.117 233.067 62.117C231.832 62.117 230.662 60.895 230.298 57.528C230.181 56.41 230.155 54.824 230.155 54.07C230.155 53.771 230.155 53.212 230.077 52.913L231.338 52.939ZM238.098 53.29C239.268 54.798 240.204 57.567 240.399 59.764L239.346 60.18C239.125 57.84 238.332 55.162 237.097 53.641L238.098 53.29ZM244.899 52.939C244.834 53.238 244.795 53.862 244.782 54.2C244.769 55.006 244.782 56.202 244.873 57.268C245.094 59.439 245.718 60.882 246.654 60.882C247.317 60.882 247.928 59.543 248.266 58.243L249.085 59.166C248.292 61.363 247.512 62.117 246.628 62.117C245.393 62.117 244.223 60.895 243.859 57.528C243.742 56.41 243.716 54.824 243.716 54.07C243.716 53.771 243.716 53.212 243.638 52.913L244.899 52.939ZM251.659 53.29C252.829 54.798 253.765 57.567 253.96 59.764L252.907 60.18C252.686 57.84 251.893 55.162 250.658 53.641L251.659 53.29ZM72.083 70.809C72.018 70.484 71.94 70.198 71.849 69.925L73.006 69.73C73.032 69.964 73.084 70.341 73.136 70.627C73.214 71.199 74.644 78.336 74.826 79.194C74.917 79.558 75.021 80 75.151 80.377L73.955 80.598C73.89 80.156 73.851 79.753 73.76 79.376C73.63 78.557 72.239 71.485 72.083 70.809ZM68.417 72.694C68.742 72.668 69.093 72.642 69.509 72.603C70.679 72.473 75.164 71.758 76.399 71.511C76.776 71.446 77.114 71.368 77.335 71.303L77.543 72.395C77.348 72.408 76.958 72.473 76.607 72.525C75.268 72.733 70.835 73.435 69.691 73.63C69.34 73.695 69.028 73.76 68.651 73.851L68.417 72.694ZM68.378 76.438C68.69 76.425 69.184 76.373 69.522 76.321C70.913 76.139 75.749 75.346 77.309 75.06C77.803 74.969 78.18 74.878 78.453 74.8L78.674 75.892C78.401 75.918 77.985 75.996 77.504 76.074C75.775 76.334 71.082 77.101 69.769 77.335C69.262 77.426 68.898 77.504 68.612 77.582L68.378 76.438ZM85.5066 72.044C85.5326 72.278 85.6106 72.551 85.6886 72.889C85.9876 73.968 87.4046 79.116 87.6776 80C87.7556 80.247 87.8726 80.65 87.9636 80.884L86.8456 81.183C86.8196 80.884 86.7546 80.546 86.6636 80.234C86.3906 79.298 84.9996 74.059 84.7006 73.097C84.6096 72.785 84.5056 72.525 84.3886 72.317L85.5066 72.044ZM91.7466 73.838C91.2006 74.93 89.8616 76.763 88.9646 77.634L88.0546 77.166C88.8606 76.477 89.8486 75.268 90.2906 74.501C89.7186 74.605 83.6346 75.827 82.7116 76.022L82.4516 75.034C82.8156 74.995 83.1406 74.956 83.5306 74.878C84.1806 74.774 89.8486 73.708 90.5896 73.539C90.7586 73.5 90.9536 73.435 91.0836 73.37L91.7466 73.838ZM97.0062 70.328C97.3442 70.367 97.7472 70.393 98.1632 70.393C98.8652 70.393 102.518 70.393 103.285 70.393C103.688 70.393 104.143 70.367 104.455 70.328V71.407C104.156 71.381 103.701 71.368 103.259 71.368C102.531 71.368 98.8782 71.368 98.1632 71.368C97.7732 71.368 97.3572 71.381 97.0062 71.407V70.328ZM105.417 73.747C105.352 73.877 105.261 74.033 105.235 74.137C104.897 75.411 104.312 76.763 103.337 77.829C101.985 79.324 100.347 80.078 98.6962 80.546L97.8902 79.623C99.7232 79.246 101.348 78.401 102.466 77.231C103.246 76.412 103.766 75.307 104 74.358C103.363 74.358 97.8902 74.358 97.1102 74.358C96.7982 74.358 96.3042 74.371 95.8362 74.41V73.318C96.3042 73.357 96.7462 73.396 97.1102 73.396C97.7472 73.396 103.285 73.396 103.948 73.396C104.247 73.396 104.533 73.357 104.676 73.292L105.417 73.747ZM118.828 71.875C118.724 72.057 118.594 72.356 118.529 72.564C118.178 73.877 117.385 75.632 116.228 77.049C115.045 78.492 113.485 79.675 111.054 80.585L110.105 79.727C112.497 79.025 114.109 77.855 115.305 76.464C116.306 75.281 117.112 73.591 117.372 72.408H112.562L112.978 71.472C113.498 71.472 116.709 71.472 117.112 71.472C117.463 71.472 117.762 71.433 117.97 71.355L118.828 71.875ZM114.473 69.912C114.265 70.25 114.031 70.692 113.901 70.926C113.134 72.369 111.782 74.228 109.689 75.606L108.779 74.943C111.028 73.604 112.302 71.706 112.874 70.549C113.004 70.315 113.199 69.847 113.277 69.509L114.473 69.912ZM125.881 74.046C127.545 75.021 129.677 76.516 130.964 77.556L130.197 78.466C129.001 77.374 126.778 75.775 125.166 74.774L125.881 74.046ZM131.822 71.68C131.718 71.862 131.588 72.161 131.523 72.369C131.133 73.695 130.314 75.424 129.17 76.828C127.987 78.284 126.297 79.675 123.827 80.585L122.904 79.766C125.322 79.038 127.09 77.66 128.26 76.269C129.261 75.073 130.08 73.422 130.379 72.213H125.569L125.985 71.277H130.119C130.47 71.277 130.756 71.238 130.964 71.16L131.822 71.68ZM127.441 69.795C127.22 70.133 126.986 70.575 126.856 70.822C126.089 72.252 124.62 74.215 122.54 75.645L121.682 74.982C123.905 73.591 125.244 71.641 125.842 70.445C125.972 70.224 126.18 69.756 126.258 69.418L127.441 69.795ZM135.3 74.371C135.703 74.41 136.379 74.449 137.12 74.449C138.069 74.449 143.282 74.449 144.244 74.449C144.894 74.449 145.349 74.397 145.648 74.371V75.645C145.375 75.632 144.829 75.593 144.257 75.593C143.269 75.593 138.082 75.593 137.12 75.593C136.405 75.593 135.716 75.619 135.3 75.645V74.371ZM154.691 71.758C154.197 71.251 153.339 70.458 152.793 70.042L153.534 69.509C153.963 69.847 154.951 70.666 155.432 71.173L154.691 71.758ZM150.557 70.627C150.661 70.848 150.882 71.264 151.012 71.511C151.519 72.421 152.143 73.734 152.676 74.917C153.378 76.542 154.21 78.947 154.652 80.39L153.534 80.689C153.131 79.142 152.507 77.062 151.766 75.359C151.155 73.994 150.57 72.733 150.128 71.992C149.972 71.732 149.712 71.316 149.504 71.056L150.557 70.627ZM148.256 74.423C148.633 74.332 149.088 74.176 149.322 74.072C151.129 73.383 154.288 71.615 156.446 71.615C158.253 71.615 159.345 72.629 159.345 74.046C159.345 75.554 158.396 76.685 156.368 76.685C155.64 76.685 154.899 76.503 154.418 76.321L154.444 75.294C154.951 75.528 155.601 75.723 156.29 75.723C157.72 75.723 158.305 74.93 158.305 74.007C158.305 73.24 157.694 72.525 156.42 72.525C154.249 72.525 150.401 74.774 148.763 75.489L148.256 74.423ZM162.005 69.795H173.003V72.642H171.989V70.705H162.967V72.642H162.005V69.795ZM165.021 72.343H171.092V73.201H165.021V72.343ZM164.579 74.774H170.208V75.645H164.579V74.774ZM161.693 77.179H173.315V78.089H161.693V77.179ZM169.961 74.774H170.936C170.936 74.774 170.91 75.073 170.897 75.216C170.585 78.726 170.273 80.104 169.753 80.624C169.441 80.923 169.142 81.014 168.648 81.04C168.219 81.066 167.374 81.053 166.529 81.001C166.503 80.728 166.373 80.338 166.204 80.078C167.101 80.169 167.998 80.169 168.323 80.169C168.622 80.169 168.778 80.156 168.934 80.026C169.376 79.649 169.675 78.258 169.948 74.93L169.961 74.774ZM164.878 70.796L165.853 70.9C165.541 72.577 165.06 74.774 164.709 76.074L163.721 75.983C164.098 74.657 164.592 72.434 164.878 70.796ZM182.188 79.467L182.825 78.843C184.281 79.337 185.867 79.961 186.842 80.416L186.023 81.066C185.126 80.611 183.657 79.987 182.188 79.467ZM175.22 77.777H186.764V78.609H175.22V77.777ZM175.597 70.172H186.439V71.017H175.597V70.172ZM180.446 69.08H181.473V72.265H180.446V69.08ZM178.119 74.007V74.878H184.06V74.007H178.119ZM178.119 75.489V76.373H184.06V75.489H178.119ZM178.119 72.525V73.37H184.06V72.525H178.119ZM177.183 71.875H185.048V77.023H177.183V71.875ZM178.977 78.856L179.848 79.415C178.808 80.065 177.183 80.715 175.883 81.066C175.74 80.871 175.428 80.572 175.22 80.39C176.533 80.039 178.158 79.415 178.977 78.856ZM195.859 78.947H199.395V79.896H195.859V78.947ZM188.683 71.55H193.675V72.499H188.683V71.55ZM195.417 70.705H199.863V80.754H198.875V71.641H196.366V80.845H195.417V70.705ZM193.415 71.55H194.364C194.364 71.55 194.364 71.914 194.364 72.044C194.26 77.829 194.169 79.727 193.753 80.299C193.519 80.637 193.285 80.754 192.895 80.793C192.531 80.845 191.933 80.845 191.348 80.806C191.335 80.52 191.231 80.091 191.062 79.818C191.673 79.87 192.232 79.87 192.479 79.87C192.674 79.883 192.791 79.844 192.908 79.675C193.207 79.272 193.324 77.348 193.415 71.784V71.55ZM190.529 69.262H191.478C191.465 74.059 191.4 78.57 189.112 81.053C188.943 80.832 188.605 80.533 188.358 80.39C190.529 78.102 190.516 73.812 190.529 69.262ZM202.847 70.549H213.195V71.563H202.847V70.549ZM202.158 79.077H213.845V80.052H202.158V79.077ZM207.41 71.056H208.502V79.48H207.41V71.056ZM215.686 71.134H227.308V72.044H215.686V71.134ZM217.025 75.32H220.665V76.087H217.025V75.32ZM217.025 77.4H220.665V78.167H217.025V77.4ZM222.836 73.318H223.759V78.661H222.836V73.318ZM220.314 73.201H221.263V79.922C221.263 80.416 221.146 80.676 220.782 80.832C220.431 80.988 219.859 80.988 218.975 80.988C218.923 80.741 218.78 80.377 218.65 80.13C219.3 80.156 219.898 80.156 220.08 80.143C220.262 80.13 220.314 80.078 220.314 79.909V73.201ZM225.475 72.928H226.437V79.831C226.437 80.403 226.307 80.676 225.904 80.832C225.501 80.975 224.851 81.001 223.837 81.001C223.785 80.741 223.629 80.325 223.486 80.065C224.279 80.091 224.981 80.091 225.202 80.078C225.41 80.065 225.475 80.013 225.475 79.831V72.928ZM217.701 69.405L218.598 69.067C219.105 69.626 219.651 70.393 219.898 70.9L218.936 71.251C218.728 70.757 218.195 69.964 217.701 69.405ZM224.383 69.028L225.423 69.366C224.929 70.172 224.344 71.069 223.863 71.68L223.005 71.355C223.473 70.731 224.058 69.73 224.383 69.028ZM216.505 73.201H220.626V74.046H217.428V80.975H216.505V73.201ZM235.791 74.384L236.675 74.657C235.804 76.191 234.361 77.53 232.931 78.401C232.801 78.219 232.476 77.842 232.268 77.673C233.672 76.919 235.037 75.723 235.791 74.384ZM235.869 69.08L236.727 69.522C236.077 70.315 235.271 71.199 234.621 71.784L233.932 71.381C234.569 70.77 235.401 69.795 235.869 69.08ZM238.378 70.081L239.262 70.562C237.962 71.966 236.155 73.656 234.725 74.722L234.062 74.293C235.479 73.201 237.312 71.42 238.378 70.081ZM232.853 71.186L233.451 70.562C234.439 71.199 235.661 72.122 236.233 72.785L235.609 73.487C235.05 72.837 233.867 71.849 232.853 71.186ZM238.222 72.733L238.976 72.317C239.808 73.162 240.731 74.358 241.147 75.138L240.315 75.619C239.938 74.839 239.041 73.617 238.222 72.733ZM232.424 74.02C234.283 73.994 237.247 73.942 240.068 73.864L240.029 74.67C237.299 74.761 234.439 74.852 232.502 74.904L232.424 74.02ZM234.946 76.399C236.064 78.297 238.391 79.701 241.147 80.234C240.939 80.442 240.679 80.806 240.549 81.066C237.741 80.416 235.414 78.882 234.153 76.672L234.946 76.399ZM235.245 75.84H239.119V76.62H234.569L235.245 75.84ZM238.807 75.84H238.989L239.158 75.801L239.782 76.1C238.573 78.882 235.687 80.403 232.723 81.079C232.632 80.832 232.411 80.442 232.229 80.247C235.011 79.714 237.78 78.284 238.807 75.996V75.84ZM231.969 71.732L232.853 72.057C231.956 73.617 230.591 75.19 229.317 76.23C229.226 76.022 228.94 75.567 228.758 75.359C229.967 74.475 231.202 73.11 231.969 71.732ZM231.67 69.093L232.541 69.431C231.787 70.523 230.565 71.745 229.46 72.525C229.33 72.33 229.083 71.992 228.914 71.81C229.928 71.121 231.098 70.016 231.67 69.093ZM230.799 74.15L231.592 73.357L231.722 73.422V81.092H230.799V74.15ZM249.319 71.134C249.15 72.486 248.89 74.007 248.487 75.398C247.694 78.063 246.654 79.441 245.458 79.441C244.288 79.441 243.131 78.115 243.131 75.957C243.131 73.136 245.64 70.679 248.825 70.679C251.867 70.679 253.804 72.824 253.804 75.463C253.804 78.18 252.01 80 248.916 80.403L248.318 79.441C248.734 79.402 249.124 79.35 249.436 79.285C251.1 78.908 252.738 77.66 252.738 75.411C252.738 73.331 251.295 71.615 248.799 71.615C245.939 71.615 244.158 73.968 244.158 75.879C244.158 77.517 244.899 78.245 245.484 78.245C246.095 78.245 246.797 77.361 247.46 75.164C247.837 73.929 248.11 72.46 248.24 71.108L249.319 71.134ZM69.808 92.097H73.175V93.059H69.808V92.097ZM69.236 88.158H70.237V98.753L69.236 99V88.158ZM67.494 98.753C69.054 98.454 71.394 97.921 73.578 97.414L73.682 98.35C71.615 98.857 69.418 99.377 67.806 99.754L67.494 98.753ZM78.362 90.927L79.09 91.746C77.894 92.526 76.243 93.293 74.774 93.917C74.709 93.683 74.553 93.345 74.423 93.137C75.84 92.539 77.426 91.668 78.362 90.927ZM74.15 88.158H75.138V97.986C75.138 98.714 75.255 98.844 75.866 98.844C76.152 98.844 77.53 98.844 77.894 98.844C78.505 98.844 78.583 98.363 78.661 96.478C78.908 96.66 79.311 96.842 79.584 96.907C79.454 99.026 79.194 99.767 77.959 99.767C77.686 99.767 76.022 99.767 75.775 99.767C74.488 99.767 74.15 99.39 74.15 97.973V88.158ZM88.541 88.08H89.503V90.212H88.541V88.08ZM89.789 91.317L90.569 90.927C91.232 91.759 91.999 92.864 92.337 93.605L91.505 94.047C91.206 93.319 90.465 92.162 89.789 91.317ZM87.371 90.966L88.281 91.213C87.813 92.318 87.072 93.436 86.344 94.164C86.175 93.995 85.785 93.722 85.564 93.605C86.305 92.942 86.968 91.954 87.371 90.966ZM85.863 89.783H92.168V90.68H85.863V89.783ZM87.735 93.501C88.502 96.114 90.101 98.337 92.376 99.299C92.155 99.481 91.869 99.832 91.739 100.079C89.373 98.961 87.748 96.621 86.89 93.722L87.735 93.501ZM90.166 93.475L91.076 93.683C90.335 96.738 88.658 98.818 85.811 100.079C85.681 99.871 85.395 99.507 85.2 99.351C87.891 98.207 89.542 96.27 90.166 93.475ZM80.377 89.497H85.642V90.368H80.377V89.497ZM80.247 96.907H85.915V97.778H80.247V96.907ZM82.6 88.093H83.497V91.642H82.6V88.093ZM82.678 91.694H83.406V95.477H83.497V100.066H82.6V95.477H82.678V91.694ZM81.417 93.93V95.126H84.693V93.93H81.417ZM81.417 92.058V93.228H84.693V92.058H81.417ZM80.663 91.33H85.46V95.854H80.663V91.33ZM97.992 88.912C97.94 89.146 97.888 89.432 97.836 89.679C97.745 90.147 97.576 91.213 97.394 92.019C96.952 93.852 96.029 97.089 94.56 99.455L93.494 99.039C94.976 97.05 96.016 93.579 96.367 91.993C96.614 90.953 96.783 89.783 96.783 88.782L97.992 88.912ZM102.464 90.407C103.27 91.46 104.401 93.826 104.843 95.022L103.829 95.503C103.452 94.177 102.425 91.915 101.515 90.836L102.464 90.407ZM93.312 91.759C93.715 91.785 94.053 91.772 94.469 91.759C95.444 91.733 98.083 91.447 98.967 91.447C100.124 91.447 101.073 91.889 101.073 93.644C101.073 95.191 100.865 97.258 100.319 98.337C99.916 99.208 99.266 99.429 98.421 99.429C97.927 99.429 97.303 99.338 96.9 99.234L96.718 98.155C97.264 98.324 97.953 98.415 98.317 98.415C98.798 98.415 99.188 98.311 99.448 97.752C99.864 96.868 100.072 95.178 100.072 93.774C100.072 92.578 99.526 92.357 98.694 92.357C97.823 92.357 95.379 92.656 94.586 92.734C94.287 92.773 93.754 92.838 93.416 92.89L93.312 91.759ZM102.607 88.522C102.932 88.99 103.4 89.783 103.673 90.316L102.971 90.628C102.711 90.095 102.269 89.315 101.905 88.821L102.607 88.522ZM104.037 88.002C104.388 88.483 104.882 89.302 105.142 89.783L104.427 90.095C104.154 89.523 103.725 88.782 103.348 88.301L104.037 88.002ZM106.234 90.446C106.728 90.433 107.144 90.407 107.404 90.381C108.236 90.29 110.693 90.056 113.085 89.848C114.515 89.731 115.724 89.653 116.595 89.627L116.608 90.667C115.854 90.654 114.723 90.68 114.06 90.862C112.201 91.46 111.07 93.449 111.07 94.983C111.07 97.518 113.449 98.337 115.555 98.415L115.178 99.481C112.773 99.39 110.043 98.116 110.043 95.204C110.043 93.189 111.278 91.525 112.461 90.823C111.07 90.966 107.755 91.291 106.351 91.59L106.234 90.446ZM114.723 92.253C115.022 92.682 115.516 93.488 115.802 94.073L115.126 94.372C114.827 93.748 114.463 93.085 114.073 92.539L114.723 92.253ZM116.14 91.707C116.465 92.136 116.972 92.929 117.271 93.501L116.608 93.826C116.296 93.202 115.906 92.552 115.503 92.006L116.14 91.707ZM120.287 90.095C122.094 90.316 123.797 90.342 125.123 90.212C126.189 90.121 127.255 89.9 128.191 89.588L128.334 90.537C127.489 90.784 126.384 91.005 125.344 91.096C124.031 91.226 122.211 91.226 120.352 91.044L120.287 90.095ZM120.027 92.76C122.25 92.994 124.46 92.955 125.981 92.773C127.216 92.643 128.269 92.383 128.958 92.175L129.127 93.137C128.412 93.332 127.424 93.527 126.332 93.657C124.733 93.865 122.328 93.904 120.092 93.735L120.027 92.76ZM124.473 89.926C124.369 89.549 124.252 89.146 124.109 88.769L125.214 88.626C125.344 89.718 125.747 91.031 126.072 91.954C126.423 92.968 126.995 94.216 127.671 95.217C127.814 95.425 127.97 95.607 128.165 95.776L127.619 96.569C126.891 96.387 125.682 96.257 124.785 96.166L124.863 95.373C125.565 95.438 126.41 95.529 126.813 95.581C126.098 94.463 125.552 93.215 125.175 92.162C124.85 91.265 124.655 90.576 124.473 89.926ZM121.925 95.568C121.613 96.01 121.379 96.452 121.379 97.037C121.379 98.103 122.328 98.649 124.369 98.649C125.578 98.649 126.527 98.558 127.476 98.376L127.424 99.403C126.514 99.559 125.5 99.637 124.382 99.637C121.847 99.637 120.417 98.883 120.391 97.206C120.391 96.465 120.612 95.919 120.911 95.347L121.925 95.568ZM138.136 88.691C138.11 88.912 138.084 89.172 138.071 89.562C138.045 90.082 138.045 91.824 138.045 92.916C138.045 94.632 138.24 96.907 138.24 97.778C138.24 98.688 137.642 99.611 135.952 99.611C134.08 99.611 133.053 98.948 133.053 97.687C133.053 96.504 134.184 95.711 136.056 95.711C138.799 95.711 140.944 97.193 141.945 98.012L141.347 98.935C140.177 97.856 138.253 96.556 135.939 96.556C134.691 96.556 134.028 97.037 134.028 97.635C134.028 98.246 134.535 98.688 135.822 98.688C136.576 98.688 137.213 98.467 137.213 97.557C137.213 96.556 137.083 94.06 137.083 92.916C137.083 91.746 137.083 90.381 137.083 89.471C137.083 89.25 137.07 88.86 137.031 88.691H138.136ZM133.17 90.095C134.002 90.251 135.627 90.381 136.485 90.381C138.136 90.381 139.878 90.264 141.568 89.991V90.94C140.099 91.109 138.24 91.278 136.498 91.278C135.601 91.278 134.002 91.161 133.183 91.057L133.17 90.095ZM133.105 92.864C134.028 93.007 135.51 93.098 136.368 93.098C138.253 93.098 139.982 92.968 141.672 92.721V93.696C139.904 93.917 138.318 94.008 136.368 94.008C135.471 94.008 134.041 93.943 133.118 93.839L133.105 92.864ZM151.591 88.704C151.565 88.86 151.526 89.367 151.526 89.523C151.487 90.368 151.513 92.877 151.526 93.917L150.538 93.41C150.538 92.838 150.525 90.251 150.486 89.536C150.46 89.185 150.421 88.821 150.395 88.704H151.591ZM144.675 90.524C146.443 90.498 149.693 90.381 151.695 90.381C153.281 90.381 154.893 90.381 155.504 90.394L155.491 91.356C154.763 91.317 153.593 91.291 151.682 91.291C149.446 91.291 146.664 91.382 144.701 91.525L144.675 90.524ZM151.5 94.294C151.5 96.036 150.694 96.907 149.511 96.907C148.419 96.907 147.366 96.14 147.366 94.723C147.366 93.436 148.432 92.474 149.667 92.474C151.175 92.474 151.942 93.592 151.942 95.087C151.942 96.855 151.084 98.805 148.068 99.702L147.197 98.857C149.563 98.298 150.941 97.141 150.941 94.996C150.941 93.826 150.369 93.332 149.667 93.332C148.978 93.332 148.341 93.865 148.341 94.71C148.341 95.529 148.952 95.997 149.667 95.997C150.473 95.997 150.993 95.321 150.785 93.93L151.5 94.294ZM157.407 95.841C158.499 95.841 159.383 96.725 159.383 97.817C159.383 98.909 158.499 99.793 157.407 99.793C156.315 99.793 155.418 98.909 155.418 97.817C155.418 96.725 156.315 95.841 157.407 95.841ZM157.407 99.13C158.135 99.13 158.72 98.545 158.72 97.817C158.72 97.089 158.135 96.504 157.407 96.504C156.679 96.504 156.081 97.089 156.081 97.817C156.081 98.545 156.679 99.13 157.407 99.13Z" fill="white"/>
<path d="M9.706 18.23C8.44867 18.23 7.291 18.023 6.233 17.609C5.175 17.195 4.255 16.62 3.473 15.884C2.691 15.1327 2.08533 14.2587 1.656 13.262C1.22667 12.25 1.012 11.146 1.012 9.95C1.012 8.754 1.22667 7.65767 1.656 6.661C2.08533 5.649 2.691 4.775 3.473 4.039C4.255 3.28767 5.175 2.705 6.233 2.291C7.291 1.877 8.441 1.67 9.683 1.67C10.9403 1.67 12.0903 1.877 13.133 2.291C14.191 2.705 15.111 3.28767 15.893 4.039C16.675 4.775 17.2807 5.649 17.71 6.661C18.1393 7.65767 18.354 8.754 18.354 9.95C18.354 11.146 18.1393 12.25 17.71 13.262C17.2807 14.274 16.675 15.148 15.893 15.884C15.111 16.62 14.191 17.195 13.133 17.609C12.0903 18.023 10.948 18.23 9.706 18.23ZM9.683 15.608C10.4957 15.608 11.247 15.47 11.937 15.194C12.627 14.918 13.225 14.527 13.731 14.021C14.237 13.4997 14.628 12.9017 14.904 12.227C15.1953 11.537 15.341 10.778 15.341 9.95C15.341 9.122 15.1953 8.37067 14.904 7.696C14.628 7.006 14.237 6.408 13.731 5.902C13.225 5.38067 12.627 4.982 11.937 4.706C11.247 4.43 10.4957 4.292 9.683 4.292C8.87033 4.292 8.119 4.43 7.429 4.706C6.75433 4.982 6.15633 5.38067 5.635 5.902C5.129 6.408 4.73033 7.006 4.439 7.696C4.163 8.37067 4.025 9.122 4.025 9.95C4.025 10.7627 4.163 11.514 4.439 12.204C4.73033 12.894 5.129 13.4997 5.635 14.021C6.141 14.527 6.739 14.918 7.429 15.194C8.119 15.47 8.87033 15.608 9.683 15.608ZM25.9826 18.161C24.6333 18.161 23.5906 17.816 22.8546 17.126C22.1186 16.4207 21.7506 15.3857 21.7506 14.021V3.004H24.6256V13.952C24.6256 14.5347 24.7713 14.987 25.0626 15.309C25.3693 15.631 25.791 15.792 26.3276 15.792C26.9716 15.792 27.5083 15.6233 27.9376 15.286L28.7426 17.333C28.4053 17.609 27.9913 17.816 27.5006 17.954C27.01 18.092 26.504 18.161 25.9826 18.161ZM19.7266 8.11V5.81H27.9146V8.11H19.7266ZM38.0767 5.58C39.058 5.58 39.932 5.77167 40.6987 6.155C41.4807 6.53833 42.094 7.12867 42.5387 7.926C42.9833 8.708 43.2057 9.72 43.2057 10.962V18H40.3307V11.33C40.3307 10.2413 40.07 9.42867 39.5487 8.892C39.0427 8.35533 38.3297 8.087 37.4097 8.087C36.735 8.087 36.137 8.225 35.6157 8.501C35.0943 8.777 34.688 9.191 34.3967 9.743C34.1207 10.2797 33.9827 10.962 33.9827 11.79V18H31.1077V0.933999H33.9827V9.03L33.3617 8.018C33.791 7.236 34.412 6.638 35.2247 6.224C36.0527 5.79467 37.0033 5.58 38.0767 5.58ZM52.6483 18.161C51.2836 18.161 50.0876 17.8927 49.0603 17.356C48.0483 16.804 47.2586 16.0527 46.6913 15.102C46.1393 14.1513 45.8633 13.0703 45.8633 11.859C45.8633 10.6323 46.1316 9.55133 46.6683 8.616C47.2203 7.66533 47.9716 6.92167 48.9223 6.385C49.8883 5.84833 50.9846 5.58 52.2113 5.58C53.4073 5.58 54.4729 5.84067 55.4083 6.362C56.3436 6.88333 57.0796 7.61933 57.6163 8.57C58.1529 9.52067 58.4213 10.64 58.4213 11.928C58.4213 12.0507 58.4136 12.1887 58.3983 12.342C58.3983 12.4953 58.3906 12.641 58.3753 12.779H48.1403V10.87H56.8573L55.7303 11.468C55.7456 10.7627 55.5999 10.1417 55.2933 9.605C54.9866 9.06833 54.5649 8.64667 54.0283 8.34C53.5069 8.03333 52.9013 7.88 52.2113 7.88C51.5059 7.88 50.8849 8.03333 50.3483 8.34C49.8269 8.64667 49.4129 9.076 49.1063 9.628C48.8149 10.1647 48.6693 10.801 48.6693 11.537V11.997C48.6693 12.733 48.8379 13.3847 49.1753 13.952C49.5126 14.5193 49.9879 14.9563 50.6013 15.263C51.2146 15.5697 51.9199 15.723 52.7173 15.723C53.4073 15.723 54.0283 15.6157 54.5803 15.401C55.1323 15.1863 55.6229 14.849 56.0523 14.389L57.5933 16.16C57.0413 16.804 56.3436 17.3023 55.5003 17.655C54.6723 17.9923 53.7216 18.161 52.6483 18.161ZM61.1829 18V5.718H63.9199V9.099L63.5979 8.11C63.9659 7.282 64.5409 6.65333 65.3229 6.224C66.1202 5.79467 67.1092 5.58 68.2899 5.58V8.317C68.1672 8.28633 68.0522 8.271 67.9449 8.271C67.8375 8.25567 67.7302 8.248 67.6229 8.248C66.5342 8.248 65.6679 8.57 65.0239 9.214C64.3799 9.84267 64.0579 10.7857 64.0579 12.043V18H61.1829Z" fill="white"/>
</svg>
