<svg width="255" height="101" viewBox="0 0 255 101" fill="none" xmlns="http://www.w3.org/2000/svg">
<path d="M78.1004 33.236L78.8414 34.016C77.3594 34.51 75.1494 34.9 73.2904 35.121C73.2384 34.9 73.0954 34.549 72.9784 34.341C74.7854 34.081 76.8914 33.678 78.1004 33.236ZM72.6404 34.081L73.8754 34.302C73.8624 34.393 73.7844 34.458 73.6154 34.484V38.254C73.6154 40.269 73.3814 43.051 71.6134 44.975C71.4834 44.754 71.1324 44.416 70.8854 44.286C72.4714 42.557 72.6404 40.152 72.6404 38.241V34.081ZM73.1734 37.487H79.3354V38.41H73.1734V37.487ZM76.1894 37.994H77.1514V45.027H76.1894V37.994ZM67.2064 39.983C68.3504 39.684 70.0794 39.19 71.7564 38.696L71.8734 39.593C70.3394 40.074 68.7144 40.568 67.4794 40.919L67.2064 39.983ZM67.4014 35.706H71.7174V36.629H67.4014V35.706ZM69.2604 33.093H70.2224V43.896C70.2224 44.442 70.0924 44.715 69.7544 44.858C69.4164 45.014 68.8834 45.04 68.0124 45.027C67.9864 44.793 67.8434 44.39 67.7134 44.143C68.3114 44.156 68.8574 44.156 69.0134 44.143C69.1954 44.143 69.2604 44.091 69.2604 43.896V33.093ZM84.2523 33.743H86.9693V34.666H84.2523V33.743ZM86.3713 33.743H87.4503C87.7623 37.734 88.7633 40.828 91.3893 42.18C91.1553 42.336 90.8043 42.687 90.6093 42.908C87.9703 41.387 86.9433 38.241 86.5923 34.224H86.3713V33.743ZM86.4233 36.265L87.4243 36.408C86.8133 39.359 85.6043 41.543 83.6673 42.921C83.5113 42.739 83.1213 42.362 82.9003 42.193C84.8113 40.984 85.9163 38.93 86.4233 36.265ZM82.3803 38.215V42.817H81.4313V39.125H79.6113V38.215H82.3803ZM82.3803 42.388C82.9913 43.35 84.1483 43.792 85.6433 43.857C87.0603 43.909 89.9853 43.87 91.5193 43.766C91.4153 44 91.2463 44.468 91.2073 44.767C89.7773 44.819 87.0863 44.845 85.6433 44.793C83.9533 44.728 82.7833 44.273 81.9513 43.246C81.3273 43.805 80.6643 44.364 79.9623 44.936L79.4423 43.935C80.0663 43.519 80.8333 42.947 81.4963 42.388H82.3803ZM79.7543 33.99L80.4693 33.405C81.3273 33.951 82.3023 34.796 82.7573 35.433L81.9903 36.07C81.5743 35.446 80.5993 34.562 79.7543 33.99ZM93.2902 34.965C94.2652 35.017 96.2412 34.965 97.6582 34.77C98.8412 34.614 100.362 34.302 100.999 34.016L101.688 34.926C101.402 35.004 101.155 35.069 100.96 35.121C100.206 35.303 98.9972 35.537 97.9572 35.68C96.5012 35.875 94.7072 35.914 93.5502 35.94L93.2902 34.965ZM94.0182 43.831C96.2282 42.791 97.3332 41.166 97.3332 38.488C97.3332 38.488 97.3332 37.318 97.3332 35.537L98.3732 35.394C98.3732 36.408 98.3732 38.462 98.3732 38.462C98.3732 41.231 97.4632 43.142 95.0322 44.533L94.0182 43.831ZM92.2762 38.059C92.5622 38.085 93.0172 38.124 93.4202 38.124C94.2522 38.124 101.168 38.124 101.974 38.124C102.247 38.124 102.728 38.098 103.001 38.072V39.138C102.715 39.112 102.312 39.099 101.987 39.099C101.207 39.099 94.2392 39.099 93.4332 39.099C93.0172 39.099 92.5882 39.112 92.2762 39.138V38.059ZM106.28 34.328C106.618 34.367 107.021 34.393 107.437 34.393C108.139 34.393 111.792 34.393 112.559 34.393C112.962 34.393 113.417 34.367 113.729 34.328V35.407C113.43 35.381 112.975 35.368 112.533 35.368C111.805 35.368 108.152 35.368 107.437 35.368C107.047 35.368 106.631 35.381 106.28 35.407V34.328ZM114.691 37.747C114.626 37.877 114.535 38.033 114.509 38.137C114.171 39.411 113.586 40.763 112.611 41.829C111.259 43.324 109.621 44.078 107.97 44.546L107.164 43.623C108.997 43.246 110.622 42.401 111.74 41.231C112.52 40.412 113.04 39.307 113.274 38.358C112.637 38.358 107.164 38.358 106.384 38.358C106.072 38.358 105.578 38.371 105.11 38.41V37.318C105.578 37.357 106.02 37.396 106.384 37.396C107.021 37.396 112.559 37.396 113.222 37.396C113.521 37.396 113.807 37.357 113.95 37.292L114.691 37.747ZM119.068 34.016C119.835 34.445 121.33 35.446 121.902 35.862L121.291 36.746C120.667 36.265 119.25 35.329 118.496 34.9L119.068 34.016ZM117.118 43.311C118.548 43.064 120.16 42.544 121.486 41.803C123.644 40.568 125.36 38.865 126.4 37.032L127.037 38.111C125.906 39.853 124.112 41.53 122.032 42.752C120.719 43.519 118.925 44.117 117.729 44.364L117.118 43.311ZM117.118 36.941C117.885 37.357 119.406 38.293 119.965 38.696L119.367 39.606C118.73 39.138 117.326 38.241 116.533 37.825L117.118 36.941ZM130.608 44.728C129.763 43.701 128.645 42.596 127.722 41.842L128.567 41.101C129.503 41.855 130.673 43.025 131.492 43.974L130.608 44.728ZM150.397 35.368C150.306 35.55 150.254 35.758 150.202 36.018C149.916 37.383 149.292 39.476 148.252 40.815C147.069 42.336 145.522 43.545 143.143 44.286L142.259 43.311C144.781 42.687 146.237 41.582 147.329 40.191C148.252 39.008 148.85 37.201 149.032 35.953C148.278 35.953 143.13 35.953 142.376 35.953C141.856 35.953 141.414 35.979 141.089 35.992V34.835C141.44 34.887 141.96 34.926 142.389 34.926C143.13 34.926 148.317 34.926 148.902 34.926C149.097 34.926 149.357 34.913 149.604 34.861L150.397 35.368ZM154.352 34.328C154.69 34.367 155.093 34.393 155.509 34.393C156.211 34.393 159.864 34.393 160.631 34.393C161.034 34.393 161.489 34.367 161.801 34.328V35.407C161.502 35.381 161.047 35.368 160.605 35.368C159.877 35.368 156.224 35.368 155.509 35.368C155.119 35.368 154.703 35.381 154.352 35.407V34.328ZM162.763 37.747C162.698 37.877 162.607 38.033 162.581 38.137C162.243 39.411 161.658 40.763 160.683 41.829C159.331 43.324 157.693 44.078 156.042 44.546L155.236 43.623C157.069 43.246 158.694 42.401 159.812 41.231C160.592 40.412 161.112 39.307 161.346 38.358C160.709 38.358 155.236 38.358 154.456 38.358C154.144 38.358 153.65 38.371 153.182 38.41V37.318C153.65 37.357 154.092 37.396 154.456 37.396C155.093 37.396 160.631 37.396 161.294 37.396C161.593 37.396 161.879 37.357 162.022 37.292L162.763 37.747ZM164.612 39.307C166.861 38.709 168.837 37.786 170.28 36.889C171.645 36.031 172.945 34.913 173.842 33.821L174.713 34.64C173.595 35.797 172.23 36.889 170.709 37.838C169.279 38.722 167.212 39.671 165.119 40.321L164.612 39.307ZM170.072 37.422L171.19 37.084V43.025C171.19 43.506 171.216 44.156 171.281 44.403H169.994C170.033 44.156 170.072 43.506 170.072 43.025V37.422ZM179.626 33.691C179.665 33.964 179.743 34.289 179.847 34.679C180.432 36.759 181.927 42.193 182.252 43.272C182.317 43.545 182.473 44 182.577 44.286L181.381 44.585C181.316 44.286 181.238 43.87 181.134 43.519C180.848 42.44 179.106 35.94 178.794 34.939C178.651 34.471 178.547 34.185 178.43 33.977L179.626 33.691ZM187.14 35.81C186.529 37.084 184.93 39.229 183.864 40.282L182.811 39.775C183.864 38.917 185.112 37.318 185.593 36.499C184.891 36.616 177.468 38.085 176.363 38.358L176.077 37.24C176.519 37.201 176.909 37.162 177.364 37.084C178.131 36.954 185.008 35.667 185.84 35.472C186.035 35.433 186.256 35.355 186.412 35.29L187.14 35.81ZM188.703 38.371C189.106 38.41 189.782 38.449 190.523 38.449C191.472 38.449 196.685 38.449 197.647 38.449C198.297 38.449 198.752 38.397 199.051 38.371V39.645C198.778 39.632 198.232 39.593 197.66 39.593C196.672 39.593 191.485 39.593 190.523 39.593C189.808 39.593 189.119 39.619 188.703 39.645V38.371ZM202.957 44.728C202.112 43.701 200.994 42.596 200.071 41.842L200.916 41.101C201.852 41.855 203.022 43.025 203.841 43.974L202.957 44.728ZM215.284 34.913C216.289 34.913 217.152 35.095 217.871 35.459C218.59 35.823 219.141 36.3473 219.522 37.032C219.903 37.7167 220.094 38.5313 220.094 39.476C220.094 40.412 219.903 41.2223 219.522 41.907C219.141 42.583 218.59 43.103 217.871 43.467C217.152 43.8223 216.289 44 215.284 44H212.593V34.913H215.284ZM215.284 43.246C216.549 43.246 217.511 42.9167 218.17 42.258C218.837 41.5907 219.171 40.6633 219.171 39.476C219.171 38.28 218.837 37.3483 218.17 36.681C217.511 36.005 216.549 35.667 215.284 35.667H213.503V43.246H215.284ZM229.741 35.03V44H228.831V36.837L225.633 44H224.97L221.772 36.863V44H220.862V35.03H221.824L225.295 42.804L228.766 35.03H229.741ZM231.103 35.81C231.584 35.862 232.143 35.888 232.702 35.888C234.106 35.888 235.744 35.719 237.239 35.225L237.265 36.187C235.991 36.538 234.288 36.824 232.702 36.811C232.221 36.811 231.662 36.798 231.181 36.785L231.103 35.81ZM235.718 33.691C235.549 34.328 235.276 35.55 234.964 36.473C234.34 38.345 233.144 40.711 232.065 42.167L231.064 41.647C232.221 40.295 233.43 37.981 233.963 36.447C234.249 35.628 234.535 34.484 234.574 33.574L235.718 33.691ZM238.786 37.708C238.747 38.241 238.747 38.631 238.76 39.099C238.786 39.944 238.903 41.92 238.903 42.778C238.903 43.818 238.24 44.663 236.628 44.663C235.198 44.663 234.041 44.091 234.041 42.791C234.041 41.595 235.172 40.841 236.628 40.841C238.812 40.841 240.489 41.933 241.555 42.856L241.009 43.74C240.008 42.83 238.513 41.673 236.602 41.673C235.64 41.673 234.99 42.115 234.99 42.713C234.99 43.311 235.497 43.727 236.511 43.727C237.59 43.727 237.954 43.155 237.954 42.453C237.954 41.465 237.811 39.138 237.759 37.708H238.786ZM241.386 38.046C240.684 37.448 239.267 36.655 238.409 36.252L238.929 35.472C239.878 35.875 241.347 36.72 241.971 37.188L241.386 38.046ZM251.88 36.59C251.581 36.772 251.256 36.941 250.879 37.136C249.995 37.591 248.552 38.267 247.278 39.112C246.069 39.905 245.341 40.763 245.341 41.738C245.341 42.817 246.368 43.493 248.422 43.493C249.839 43.493 251.581 43.311 252.595 43.051L252.582 44.221C251.607 44.39 250.099 44.533 248.474 44.533C246.03 44.533 244.262 43.805 244.262 41.855C244.262 40.451 245.211 39.346 246.732 38.332C248.058 37.448 249.579 36.733 250.424 36.265C250.801 36.044 251.087 35.875 251.36 35.641L251.88 36.59ZM245.653 34.055C246.251 35.719 247.044 37.344 247.655 38.384L246.758 38.93C246.108 37.864 245.328 36.109 244.626 34.497L245.653 34.055ZM252.101 33.925C252.426 34.406 252.894 35.186 253.154 35.719L252.452 36.044C252.192 35.511 251.763 34.718 251.399 34.224L252.101 33.925ZM253.531 33.405C253.869 33.886 254.376 34.705 254.623 35.186L253.921 35.498C253.635 34.939 253.219 34.185 252.842 33.704L253.531 33.405ZM68.1684 53.68H78.5034V54.642H68.1684V53.68ZM68.7664 57.502H77.9574V58.451H68.7664V57.502ZM67.5704 61.649H79.1534V62.611H67.5704V61.649ZM72.8094 54.447H73.8624V62.143H72.8094V54.447ZM71.6914 51.678L72.4844 51.132C73.3294 51.73 74.3824 52.614 74.8894 53.238L74.0444 53.849C73.5764 53.238 72.5494 52.315 71.6914 51.678ZM85.3612 53.225C86.7782 53.472 89.4172 53.42 90.7042 53.225V54.278C89.3132 54.434 86.7912 54.434 85.3742 54.278L85.3612 53.225ZM85.8682 58.529C85.7512 58.997 85.6862 59.361 85.6862 59.712C85.6862 60.31 86.1022 60.895 87.8832 60.895C89.0402 60.895 90.0542 60.791 91.0942 60.544L91.1202 61.636C90.3142 61.805 89.2222 61.909 87.8702 61.909C85.6992 61.909 84.7242 61.181 84.7242 59.959C84.7242 59.53 84.7892 59.062 84.9322 58.438L85.8682 58.529ZM82.8912 52.224C82.8132 52.445 82.7092 52.861 82.6572 53.095C82.4102 54.304 82.0072 56.618 82.0072 58.087C82.0072 58.711 82.0462 59.257 82.1242 59.894C82.3452 59.309 82.6442 58.529 82.8652 57.996L83.4112 58.425C83.0862 59.348 82.6052 60.713 82.4882 61.337C82.4492 61.519 82.4232 61.766 82.4232 61.922C82.4362 62.052 82.4492 62.234 82.4622 62.377L81.5392 62.442C81.2792 61.519 81.0582 60.024 81.0582 58.256C81.0582 56.345 81.4872 54.122 81.6432 53.043C81.6822 52.744 81.7212 52.419 81.7342 52.133L82.8912 52.224ZM98.2379 52.133L99.1739 52.445V62H98.2379V52.133ZM97.2369 61.909C98.3419 61.701 100.019 61.35 101.631 60.999L101.748 61.844C100.305 62.208 98.7839 62.559 97.6009 62.832L97.2369 61.909ZM103.295 51.08L104.075 51.821C102.684 52.406 100.565 52.848 98.7969 53.134C98.7449 52.913 98.6019 52.575 98.4849 52.367C100.188 52.055 102.203 51.587 103.295 51.08ZM98.7319 56.02H104.543V56.943H98.7319V56.02ZM101.098 52.354H102.034C102.073 57.268 102.385 61.766 103.581 62.052C103.789 62.117 103.945 61.311 104.023 60.089C104.205 60.271 104.543 60.505 104.751 60.635C104.543 62.689 103.945 63.313 103.165 62.923C101.462 62.364 101.228 57.71 101.098 52.354ZM94.7409 57.203H95.6119V63.027H94.7409V57.203ZM94.6109 51.08L95.4819 51.431C94.9879 52.393 94.3509 53.55 93.8439 54.278L93.1549 53.966C93.6619 53.212 94.2729 51.951 94.6109 51.08ZM96.2099 52.575L97.0419 52.978C96.1189 54.447 94.8189 56.332 93.8049 57.476L93.2069 57.138C94.2079 55.955 95.4819 53.992 96.2099 52.575ZM92.5309 53.875L93.0249 53.225C93.7269 53.823 94.5329 54.655 94.8839 55.214L94.3639 55.955C94.0259 55.37 93.2199 54.486 92.5309 53.875ZM95.8199 55.552L96.5349 55.227C97.1329 56.046 97.7569 57.125 97.9909 57.84L97.2239 58.217C97.0029 57.502 96.4049 56.384 95.8199 55.552ZM92.4139 56.917C93.6229 56.865 95.4299 56.735 97.2239 56.605V57.385C95.5599 57.541 93.8439 57.697 92.5569 57.814L92.4139 56.917ZM96.1059 58.698L96.8469 58.464C97.2109 59.218 97.5749 60.219 97.7049 60.869L96.9119 61.142C96.7949 60.479 96.4569 59.478 96.1059 58.698ZM93.2459 58.503L94.0909 58.659C93.9219 59.881 93.6099 61.142 93.2069 61.974C93.0379 61.87 92.6479 61.688 92.4269 61.61C92.8559 60.817 93.1029 59.647 93.2459 58.503ZM105.161 53.771H109.087V54.681H105.161V53.771ZM106.942 51.093L107.878 51.184C107.41 53.758 106.669 57.242 106.11 59.413L105.33 58.932C105.85 56.969 106.552 53.524 106.942 51.093ZM105.772 58.477L106.305 57.827C107.579 58.724 109.1 60.024 109.789 60.934L109.204 61.701C108.528 60.752 107.046 59.4 105.772 58.477ZM108.749 53.771H108.918L109.074 53.745L109.646 53.836C109.347 58.828 108.099 61.597 105.863 63.04C105.733 62.806 105.473 62.455 105.265 62.26C107.267 61.103 108.489 58.347 108.749 53.966V53.771ZM109.477 52.51H117.082V53.355H109.477V52.51ZM109.581 58.425H117.082V59.27H109.581V58.425ZM111.323 54.512H115.223V55.279H111.323V54.512ZM110.842 51.08H111.752V56.462H114.846V51.08H115.769V57.268H110.842V51.08ZM112.805 57.138H113.754V63.04H112.805V57.138ZM112.506 58.815L113.273 59.101C112.506 60.583 111.115 62 109.75 62.728C109.594 62.494 109.282 62.143 109.074 61.961C110.426 61.363 111.804 60.102 112.506 58.815ZM114.04 58.854C114.755 60.037 116.094 61.285 117.277 61.896C117.056 62.065 116.744 62.416 116.588 62.663C115.418 61.922 114.066 60.492 113.338 59.14L114.04 58.854ZM120.507 51.132L121.43 51.405C120.676 53.602 119.493 55.812 118.219 57.281C118.115 57.06 117.829 56.553 117.647 56.319C118.804 55.045 119.87 53.095 120.507 51.132ZM119.337 54.486L120.247 53.563L120.26 53.576V63.027H119.337V54.486ZM124.797 51.132H125.746V62.975H124.797V51.132ZM121.131 53.706H129.646V54.642H121.131V53.706ZM122.652 59.738H127.852V60.622H122.652V59.738ZM126.214 54.187C126.955 56.514 128.385 58.932 129.906 60.154C129.672 60.323 129.347 60.661 129.165 60.921C127.644 59.53 126.253 56.943 125.486 54.408L126.214 54.187ZM124.394 54.135L125.109 54.356C124.303 56.956 122.886 59.53 121.313 60.96C121.17 60.713 120.845 60.375 120.624 60.219C122.145 58.984 123.627 56.514 124.394 54.135ZM137.18 53.134C137.011 54.486 136.751 56.007 136.348 57.398C135.555 60.063 134.515 61.441 133.319 61.441C132.149 61.441 130.992 60.115 130.992 57.957C130.992 55.136 133.501 52.679 136.686 52.679C139.728 52.679 141.665 54.824 141.665 57.463C141.665 60.18 139.871 62 136.777 62.403L136.179 61.441C136.595 61.402 136.985 61.35 137.297 61.285C138.961 60.908 140.599 59.66 140.599 57.411C140.599 55.331 139.156 53.615 136.66 53.615C133.8 53.615 132.019 55.968 132.019 57.879C132.019 59.517 132.76 60.245 133.345 60.245C133.956 60.245 134.658 59.361 135.321 57.164C135.698 55.929 135.971 54.46 136.101 53.108L137.18 53.134ZM144.688 53.095C145.13 53.134 145.689 53.173 146.118 53.173H152.514C152.839 53.173 153.216 53.16 153.476 53.147C153.463 53.433 153.45 53.849 153.45 54.148V60.869C153.45 61.337 153.489 61.922 153.502 62.117H152.332C152.332 61.922 152.358 61.441 152.358 60.973V54.2H146.118C145.637 54.2 145 54.226 144.688 54.252V53.095ZM144.532 60.271C144.857 60.297 145.429 60.336 145.962 60.336H152.943V61.402H146.001C145.468 61.402 144.883 61.415 144.532 61.454V60.271ZM158.02 52.484C158.93 53.095 160.607 54.447 161.322 55.162L160.516 55.994C159.853 55.318 158.241 53.914 157.266 53.277L158.02 52.484ZM156.902 61.194C159.164 60.856 160.854 60.063 162.089 59.296C164.104 58.035 165.677 56.111 166.431 54.499L167.055 55.617C166.171 57.229 164.663 58.997 162.7 60.232C161.387 61.051 159.749 61.857 157.578 62.26L156.902 61.194ZM170.454 52.393C170.831 52.432 171.208 52.458 171.637 52.458C172.391 52.458 176.174 52.458 176.902 52.458C177.266 52.458 177.734 52.432 178.111 52.393V53.472C177.721 53.446 177.266 53.42 176.902 53.42C176.174 53.42 172.391 53.42 171.65 53.42C171.221 53.42 170.792 53.446 170.454 53.472V52.393ZM168.907 55.656C169.258 55.695 169.635 55.708 170.038 55.708C170.792 55.708 177.851 55.708 178.54 55.708C178.813 55.708 179.242 55.695 179.567 55.656V56.722C179.268 56.709 178.865 56.696 178.54 56.696C177.851 56.696 170.792 56.696 170.038 56.696C169.648 56.696 169.258 56.709 168.907 56.735V55.656ZM175.03 56.176C175.03 57.814 174.822 59.166 174.237 60.258C173.769 61.129 172.781 62.052 171.689 62.624L170.727 61.922C171.728 61.493 172.664 60.752 173.171 59.92C173.821 58.893 173.925 57.619 173.938 56.189L175.03 56.176ZM183.227 52.484C184.137 53.095 185.814 54.447 186.529 55.162L185.723 55.994C185.06 55.318 183.448 53.914 182.473 53.277L183.227 52.484ZM182.109 61.194C184.371 60.856 186.061 60.063 187.296 59.296C189.311 58.035 190.884 56.111 191.638 54.499L192.262 55.617C191.378 57.229 189.87 58.997 187.907 60.232C186.594 61.051 184.956 61.857 182.785 62.26L182.109 61.194ZM198.795 52.237C199.081 52.848 199.874 54.915 200.095 55.643L199.081 55.994C198.86 55.253 198.132 53.251 197.807 52.562L198.795 52.237ZM204.58 53.069C204.489 53.277 204.398 53.602 204.346 53.797C203.943 55.422 203.254 57.268 202.175 58.672C200.836 60.44 198.925 61.779 197.079 62.429L196.195 61.532C198.041 60.986 199.978 59.738 201.291 58.074C202.318 56.761 203.124 54.681 203.371 52.718L204.58 53.069ZM195.168 53.017C195.519 53.745 196.325 55.721 196.637 56.579L195.597 56.956C195.35 56.15 194.453 53.953 194.154 53.381L195.168 53.017ZM206.498 53.446C206.992 53.433 207.408 53.407 207.668 53.381C208.5 53.29 210.957 53.056 213.349 52.848C214.779 52.731 215.988 52.653 216.859 52.627L216.872 53.667C216.118 53.654 214.987 53.68 214.324 53.862C212.465 54.46 211.334 56.449 211.334 57.983C211.334 60.518 213.713 61.337 215.819 61.415L215.442 62.481C213.037 62.39 210.307 61.116 210.307 58.204C210.307 56.189 211.542 54.525 212.725 53.823C211.334 53.966 208.019 54.291 206.615 54.59L206.498 53.446ZM214.987 55.253C215.286 55.682 215.78 56.488 216.066 57.073L215.39 57.372C215.091 56.748 214.727 56.085 214.337 55.539L214.987 55.253ZM216.404 54.707C216.729 55.136 217.236 55.929 217.535 56.501L216.872 56.826C216.56 56.202 216.17 55.552 215.767 55.006L216.404 54.707ZM226.238 51.704C226.212 51.86 226.173 52.367 226.173 52.523C226.134 53.368 226.16 55.877 226.173 56.917L225.185 56.41C225.185 55.838 225.172 53.251 225.133 52.536C225.107 52.185 225.068 51.821 225.042 51.704H226.238ZM219.322 53.524C221.09 53.498 224.34 53.381 226.342 53.381C227.928 53.381 229.54 53.381 230.151 53.394L230.138 54.356C229.41 54.317 228.24 54.291 226.329 54.291C224.093 54.291 221.311 54.382 219.348 54.525L219.322 53.524ZM226.147 57.294C226.147 59.036 225.341 59.907 224.158 59.907C223.066 59.907 222.013 59.14 222.013 57.723C222.013 56.436 223.079 55.474 224.314 55.474C225.822 55.474 226.589 56.592 226.589 58.087C226.589 59.855 225.731 61.805 222.715 62.702L221.844 61.857C224.21 61.298 225.588 60.141 225.588 57.996C225.588 56.826 225.016 56.332 224.314 56.332C223.625 56.332 222.988 56.865 222.988 57.71C222.988 58.529 223.599 58.997 224.314 58.997C225.12 58.997 225.64 58.321 225.432 56.93L226.147 57.294ZM231.918 58.841C233.01 58.841 233.894 59.725 233.894 60.817C233.894 61.909 233.01 62.793 231.918 62.793C230.826 62.793 229.929 61.909 229.929 60.817C229.929 59.725 230.826 58.841 231.918 58.841ZM231.918 62.13C232.646 62.13 233.231 61.545 233.231 60.817C233.231 60.089 232.646 59.504 231.918 59.504C231.19 59.504 230.592 60.089 230.592 60.817C230.592 61.545 231.19 62.13 231.918 62.13ZM243.807 55.617H247.915V56.566H243.807V55.617ZM243.807 59.725H247.993V60.661H243.807V59.725ZM252.998 52.003H253.973V59.764C253.973 60.323 253.856 60.661 253.44 60.843C253.037 61.025 252.348 61.038 251.386 61.038C251.334 60.752 251.152 60.271 250.996 59.998C251.789 60.024 252.504 60.011 252.725 60.011C252.933 60.011 252.998 59.946 252.998 59.738V52.003ZM243.339 52.25L244.314 52.627V61.779H243.339V52.25ZM247.317 51.106L248.149 51.912C246.966 52.471 245.341 53.004 243.924 53.394C243.872 53.173 243.716 52.809 243.586 52.588C244.912 52.198 246.42 51.6 247.317 51.106ZM248.799 52.003H253.531V52.965H249.774V62.988H248.799V52.003ZM75.2534 70.445H76.1634V77.764H75.2534V70.445ZM77.8534 69.327H78.7894V79.753C78.7894 80.39 78.6334 80.676 78.2564 80.845C77.8534 81.001 77.1384 81.027 76.1764 81.027C76.1244 80.754 75.9814 80.312 75.8384 80.026C76.6054 80.052 77.3464 80.039 77.5804 80.026C77.7884 80.026 77.8534 79.961 77.8534 79.753V69.327ZM71.3404 73.175H72.1724V81.014H71.3404V73.175ZM73.5374 74.579H74.3434V78.57C74.3434 78.973 74.2914 79.22 74.0184 79.363C73.7324 79.506 73.3164 79.519 72.6924 79.519C72.6664 79.285 72.5494 78.947 72.4324 78.726C72.9004 78.739 73.2514 78.739 73.3814 78.726C73.5114 78.726 73.5374 78.687 73.5374 78.57V74.579ZM68.2204 69.821H69.1044V74.215C69.1044 76.152 68.9484 78.947 67.9604 80.806C67.8044 80.624 67.4274 80.338 67.2194 80.234C68.1424 78.505 68.2204 76.035 68.2204 74.215V69.821ZM68.7014 69.821H74.3044V73.24H68.7014V72.356H73.3684V70.705H68.7014V69.821ZM69.3254 74.579H73.9404V75.411H70.0924V79.623H69.3254V74.579ZM84.5277 72.317C85.2687 72.395 85.9707 72.434 86.7377 72.434C88.2977 72.434 89.8967 72.317 91.2097 72.044V73.045C89.8317 73.279 88.2457 73.383 86.7247 73.383C85.9707 73.383 85.2947 73.357 84.5407 73.305L84.5277 72.317ZM89.0777 69.99C89.0387 70.25 89.0127 70.523 88.9997 70.77C88.9737 71.251 88.9607 72.174 88.9607 72.941C88.9607 74.943 89.1557 76.971 89.1557 78.31C89.1557 79.376 88.6617 80.416 86.9067 80.416C85.1647 80.416 84.2157 79.714 84.2157 78.544C84.2157 77.452 85.1777 76.594 86.8937 76.594C89.0777 76.594 90.5987 77.699 91.6907 78.687L91.1317 79.545C89.7667 78.271 88.4537 77.387 86.8027 77.387C85.8277 77.387 85.1517 77.816 85.1517 78.44C85.1517 79.116 85.7887 79.467 86.7377 79.467C87.8297 79.467 88.1417 78.921 88.1417 78.05C88.1417 77.114 87.9727 74.683 87.9727 72.967C87.9727 72.07 87.9597 71.251 87.9597 70.796C87.9597 70.562 87.9467 70.224 87.9077 69.99H89.0777ZM82.6687 70.081C82.5907 70.289 82.4867 70.718 82.4347 70.952C82.1747 72.161 81.7847 74.735 81.7847 76.191C81.7847 76.828 81.8237 77.374 81.9147 78.011C82.1227 77.413 82.4477 76.62 82.6687 76.087L83.2017 76.503C82.8767 77.413 82.3957 78.739 82.2657 79.376C82.2267 79.558 82.2007 79.818 82.2137 79.961C82.2267 80.091 82.2397 80.286 82.2527 80.416L81.3297 80.494C81.0827 79.558 80.8357 78.128 80.8357 76.373C80.8357 74.462 81.2777 71.979 81.4337 70.913C81.4857 70.601 81.5117 70.263 81.5247 69.977L82.6687 70.081ZM98.0529 70.133L98.9889 70.445V80H98.0529V70.133ZM97.0519 79.909C98.1569 79.701 99.8339 79.35 101.446 78.999L101.563 79.844C100.12 80.208 98.5989 80.559 97.4159 80.832L97.0519 79.909ZM103.11 69.08L103.89 69.821C102.499 70.406 100.38 70.848 98.6119 71.134C98.5599 70.913 98.4169 70.575 98.2999 70.367C100.003 70.055 102.018 69.587 103.11 69.08ZM98.5469 74.02H104.358V74.943H98.5469V74.02ZM100.913 70.354H101.849C101.888 75.268 102.2 79.766 103.396 80.052C103.604 80.117 103.76 79.311 103.838 78.089C104.02 78.271 104.358 78.505 104.566 78.635C104.358 80.689 103.76 81.313 102.98 80.923C101.277 80.364 101.043 75.71 100.913 70.354ZM94.5559 75.203H95.4269V81.027H94.5559V75.203ZM94.4259 69.08L95.2969 69.431C94.8029 70.393 94.1659 71.55 93.6589 72.278L92.9699 71.966C93.4769 71.212 94.0879 69.951 94.4259 69.08ZM96.0249 70.575L96.8569 70.978C95.9339 72.447 94.6339 74.332 93.6199 75.476L93.0219 75.138C94.0229 73.955 95.2969 71.992 96.0249 70.575ZM92.3459 71.875L92.8399 71.225C93.5419 71.823 94.3479 72.655 94.6989 73.214L94.1789 73.955C93.8409 73.37 93.0349 72.486 92.3459 71.875ZM95.6349 73.552L96.3499 73.227C96.9479 74.046 97.5719 75.125 97.8059 75.84L97.0389 76.217C96.8179 75.502 96.2199 74.384 95.6349 73.552ZM92.2289 74.917C93.4379 74.865 95.2449 74.735 97.0389 74.605V75.385C95.3749 75.541 93.6589 75.697 92.3719 75.814L92.2289 74.917ZM95.9209 76.698L96.6619 76.464C97.0259 77.218 97.3899 78.219 97.5199 78.869L96.7269 79.142C96.6099 78.479 96.2719 77.478 95.9209 76.698ZM93.0609 76.503L93.9059 76.659C93.7369 77.881 93.4249 79.142 93.0219 79.974C92.8529 79.87 92.4629 79.688 92.2419 79.61C92.6709 78.817 92.9179 77.647 93.0609 76.503ZM111.695 71.134C111.526 72.486 111.266 74.007 110.863 75.398C110.07 78.063 109.03 79.441 107.834 79.441C106.664 79.441 105.507 78.115 105.507 75.957C105.507 73.136 108.016 70.679 111.201 70.679C114.243 70.679 116.18 72.824 116.18 75.463C116.18 78.18 114.386 80 111.292 80.403L110.694 79.441C111.11 79.402 111.5 79.35 111.812 79.285C113.476 78.908 115.114 77.66 115.114 75.411C115.114 73.331 113.671 71.615 111.175 71.615C108.315 71.615 106.534 73.968 106.534 75.879C106.534 77.517 107.275 78.245 107.86 78.245C108.471 78.245 109.173 77.361 109.836 75.164C110.213 73.929 110.486 72.46 110.616 71.108L111.695 71.134ZM125.207 70.068H126.143V80.442H125.207V70.068ZM121.97 71.381H129.172V72.174H121.97V71.381ZM121.619 79.974H129.419V80.78H121.619V79.974ZM122.36 78.154H128.977V78.947H122.36V78.154ZM128.561 69.249L129.146 69.977C127.417 70.367 124.661 70.575 122.425 70.627C122.412 70.419 122.295 70.081 122.204 69.873C124.375 69.795 127.079 69.587 128.561 69.249ZM123.387 75.45V76.503H128.015V75.45H123.387ZM123.387 73.786V74.813H128.015V73.786H123.387ZM122.516 73.058H128.925V77.231H122.516V73.058ZM119.643 70.159H120.592V81.014H119.643V70.159ZM117.511 72.746H122.23V73.669H117.511V72.746ZM119.695 73.097L120.306 73.357C119.786 75.19 118.746 77.465 117.745 78.674C117.654 78.401 117.42 77.998 117.251 77.777C118.187 76.737 119.227 74.709 119.695 73.097ZM121.567 69.275L122.256 70.029C121.06 70.51 119.24 70.874 117.732 71.082C117.68 70.861 117.55 70.549 117.433 70.328C118.902 70.081 120.618 69.717 121.567 69.275ZM120.553 74.423C120.878 74.709 122.1 75.944 122.36 76.269L121.788 77.036C121.476 76.503 120.501 75.268 120.098 74.813L120.553 74.423ZM130.088 76.334H135.626V77.205H130.088V76.334ZM130.088 71.407H135.548V72.2H130.088V71.407ZM134.586 69.353L135.418 69.613C135.106 70.198 134.781 70.796 134.495 71.199L133.845 70.952C134.105 70.51 134.417 69.821 134.586 69.353ZM132.376 69.223H133.234V74.969H132.376V69.223ZM130.309 69.652L130.998 69.392C131.336 69.86 131.661 70.484 131.765 70.887L131.037 71.199C130.933 70.77 130.634 70.133 130.309 69.652ZM132.389 78.219L133 77.647C133.819 78.193 134.911 79.012 135.47 79.506L134.833 80.169C134.3 79.662 133.221 78.804 132.389 78.219ZM133.195 72.343C133.663 72.59 135.262 73.63 135.626 73.903L135.106 74.618C134.638 74.176 133.26 73.149 132.701 72.798L133.195 72.343ZM132.298 71.823L132.961 72.083C132.415 73.188 131.375 74.358 130.439 74.943C130.309 74.748 130.036 74.449 129.854 74.306C130.777 73.812 131.778 72.785 132.298 71.823ZM135.626 69.691H141.801V70.549H135.626V69.691ZM136.952 74.514V75.762H140.475V74.514H136.952ZM136.952 76.49V77.777H140.475V76.49H136.952ZM136.952 72.538V73.786H140.475V72.538H136.952ZM136.068 71.771H141.398V78.544H136.068V71.771ZM138.2 70.107L139.266 70.237C139.032 70.991 138.759 71.797 138.525 72.343L137.693 72.161C137.888 71.589 138.096 70.705 138.2 70.107ZM137.264 78.778L138.109 79.285C137.446 79.948 136.341 80.65 135.379 81.04C135.223 80.858 134.95 80.559 134.729 80.39C135.678 80.013 136.744 79.35 137.264 78.778ZM139.149 79.337L139.864 78.843C140.631 79.324 141.606 80.026 142.1 80.507L141.346 81.04C140.891 80.572 139.916 79.831 139.149 79.337ZM132.35 75.255H133.247V76.594C133.247 78.037 132.922 79.688 130.374 80.819C130.27 80.598 130.01 80.26 129.841 80.078C132.116 79.09 132.35 77.725 132.35 76.581V75.255ZM142.924 71.446C143.418 71.433 143.834 71.407 144.094 71.381C144.926 71.29 147.383 71.056 149.775 70.848C151.205 70.731 152.414 70.653 153.285 70.627L153.298 71.667C152.544 71.654 151.413 71.68 150.75 71.862C148.891 72.46 147.76 74.449 147.76 75.983C147.76 78.518 150.139 79.337 152.245 79.415L151.868 80.481C149.463 80.39 146.733 79.116 146.733 76.204C146.733 74.189 147.968 72.525 149.151 71.823C147.76 71.966 144.445 72.291 143.041 72.59L142.924 71.446ZM151.413 73.253C151.712 73.682 152.206 74.488 152.492 75.073L151.816 75.372C151.517 74.748 151.153 74.085 150.763 73.539L151.413 73.253ZM152.83 72.707C153.155 73.136 153.662 73.929 153.961 74.501L153.298 74.826C152.986 74.202 152.596 73.552 152.193 73.006L152.83 72.707ZM162.221 69.288H163.209V80.156H162.221V69.288ZM158.503 73.214H166.966V74.15H158.503V73.214ZM158.828 79.558H166.745V80.507H158.828V79.558ZM156.826 72.629L157.775 71.667L157.788 71.68V81.014H156.826V72.629ZM158.282 69.119L159.218 69.405C158.282 71.68 156.826 73.916 155.305 75.372C155.201 75.164 154.902 74.657 154.72 74.436C156.124 73.149 157.476 71.16 158.282 69.119ZM173.042 73.292H178.385V74.267H173.042V73.292ZM167.595 79.454H179.269V80.429H167.595V79.454ZM172.483 69.275H173.51V79.974H172.483V69.275ZM184.956 69.912C184.904 70.146 184.852 70.432 184.8 70.679C184.709 71.147 184.54 72.213 184.358 73.019C183.916 74.852 182.993 78.089 181.524 80.455L180.458 80.039C181.94 78.05 182.98 74.579 183.331 72.993C183.578 71.953 183.747 70.783 183.747 69.782L184.956 69.912ZM189.428 71.407C190.234 72.46 191.365 74.826 191.807 76.022L190.793 76.503C190.416 75.177 189.389 72.915 188.479 71.836L189.428 71.407ZM180.276 72.759C180.679 72.785 181.017 72.772 181.433 72.759C182.408 72.733 185.047 72.447 185.931 72.447C187.088 72.447 188.037 72.889 188.037 74.644C188.037 76.191 187.829 78.258 187.283 79.337C186.88 80.208 186.23 80.429 185.385 80.429C184.891 80.429 184.267 80.338 183.864 80.234L183.682 79.155C184.228 79.324 184.917 79.415 185.281 79.415C185.762 79.415 186.152 79.311 186.412 78.752C186.828 77.868 187.036 76.178 187.036 74.774C187.036 73.578 186.49 73.357 185.658 73.357C184.787 73.357 182.343 73.656 181.55 73.734C181.251 73.773 180.718 73.838 180.38 73.89L180.276 72.759ZM189.571 69.522C189.896 69.99 190.364 70.783 190.637 71.316L189.935 71.628C189.675 71.095 189.233 70.315 188.869 69.821L189.571 69.522ZM191.001 69.002C191.352 69.483 191.846 70.302 192.106 70.783L191.391 71.095C191.118 70.523 190.689 69.782 190.312 69.301L191.001 69.002ZM196.349 69.743C196.076 70.705 195.829 72.46 195.751 73.37C196.284 72.031 197.636 70.406 199.287 70.406C201.003 70.406 202.251 72.148 202.251 74.878C202.251 78.479 199.976 80.078 196.765 80.663L196.141 79.727C198.975 79.298 201.172 78.154 201.172 74.891C201.172 72.837 200.483 71.355 199.118 71.355C197.493 71.355 195.985 73.721 195.829 75.424C195.764 75.918 195.764 76.373 195.855 77.023L194.841 77.101C194.776 76.607 194.711 75.879 194.711 75.034C194.711 73.799 194.958 71.888 195.114 70.822C195.166 70.432 195.192 70.068 195.218 69.704L196.349 69.743ZM209.978 69.912C209.926 70.146 209.874 70.432 209.822 70.679C209.731 71.147 209.562 72.213 209.38 73.019C208.938 74.852 208.015 78.089 206.546 80.455L205.48 80.039C206.962 78.05 208.002 74.579 208.353 72.993C208.6 71.953 208.769 70.783 208.769 69.782L209.978 69.912ZM214.45 71.407C215.256 72.46 216.387 74.826 216.829 76.022L215.815 76.503C215.438 75.177 214.411 72.915 213.501 71.836L214.45 71.407ZM205.298 72.759C205.701 72.785 206.039 72.772 206.455 72.759C207.43 72.733 210.069 72.447 210.953 72.447C212.11 72.447 213.059 72.889 213.059 74.644C213.059 76.191 212.851 78.258 212.305 79.337C211.902 80.208 211.252 80.429 210.407 80.429C209.913 80.429 209.289 80.338 208.886 80.234L208.704 79.155C209.25 79.324 209.939 79.415 210.303 79.415C210.784 79.415 211.174 79.311 211.434 78.752C211.85 77.868 212.058 76.178 212.058 74.774C212.058 73.578 211.512 73.357 210.68 73.357C209.809 73.357 207.365 73.656 206.572 73.734C206.273 73.773 205.74 73.838 205.402 73.89L205.298 72.759ZM214.593 69.522C214.918 69.99 215.386 70.783 215.659 71.316L214.957 71.628C214.697 71.095 214.255 70.315 213.891 69.821L214.593 69.522ZM216.023 69.002C216.374 69.483 216.868 70.302 217.128 70.783L216.413 71.095C216.14 70.523 215.711 69.782 215.334 69.301L216.023 69.002ZM217.797 70.38H229.198V71.303H217.797V70.38ZM222.958 69.093H223.959V70.744H222.958V69.093ZM224.713 70.744H225.662V74.163C225.662 74.657 225.584 74.904 225.207 75.047C224.856 75.19 224.258 75.203 223.387 75.203C223.348 74.93 223.231 74.592 223.127 74.319C223.764 74.345 224.323 74.345 224.505 74.332C224.674 74.332 224.713 74.293 224.713 74.15V70.744ZM221.996 70.64H222.906V71.368C222.906 72.707 222.711 74.436 220.644 75.684C220.501 75.476 220.163 75.164 219.942 75.021C221.827 73.929 221.996 72.447 221.996 71.355V70.64ZM226.338 72.356L227.105 71.901C227.937 72.655 228.951 73.721 229.419 74.436L228.6 74.943C228.171 74.228 227.183 73.136 226.338 72.356ZM219.76 71.966L220.683 72.226C220.137 73.201 219.188 74.215 218.239 74.839C218.07 74.657 217.758 74.397 217.563 74.254C218.46 73.708 219.357 72.785 219.76 71.966ZM221.307 76.581C222.659 78.674 225.662 79.857 229.471 80.169C229.263 80.39 229.016 80.793 228.899 81.079C224.986 80.65 222.035 79.324 220.449 76.88L221.307 76.581ZM222.061 74.956L223.101 75.164C222.126 76.477 220.631 77.699 218.525 78.609C218.382 78.388 218.109 78.05 217.901 77.894C219.903 77.127 221.32 75.996 222.061 74.956ZM221.671 75.944H226.533V76.75H220.956L221.671 75.944ZM226.273 75.944H226.494L226.676 75.905L227.3 76.347C225.649 79.233 221.944 80.533 218.057 81.079C217.979 80.845 217.758 80.416 217.576 80.221C221.372 79.779 224.895 78.596 226.273 76.113V75.944ZM235.807 69.405H236.795V79.051C236.795 79.779 236.925 79.935 237.653 79.935C238.004 79.935 239.772 79.935 240.214 79.935C240.929 79.935 241.033 79.454 241.124 77.556C241.371 77.738 241.774 77.92 242.06 77.985C241.904 80.117 241.618 80.858 240.266 80.858C239.928 80.858 237.887 80.858 237.588 80.858C236.223 80.858 235.807 80.468 235.807 79.038V69.405ZM240.682 71.563L241.397 72.395C240.084 73.474 238.173 74.527 236.457 75.424C236.392 75.203 236.197 74.865 236.054 74.657C237.718 73.786 239.577 72.577 240.682 71.563ZM233.545 69.288L234.494 69.6C233.519 71.888 231.959 74.111 230.347 75.554C230.243 75.32 229.944 74.813 229.749 74.579C231.257 73.318 232.687 71.342 233.545 69.288ZM232.063 72.681L233.012 71.732L233.025 71.745V81.027H232.063V72.681ZM250.151 69.704C250.125 69.86 250.086 70.367 250.086 70.523C250.047 71.368 250.073 73.877 250.086 74.917L249.098 74.41C249.098 73.838 249.085 71.251 249.046 70.536C249.02 70.185 248.981 69.821 248.955 69.704H250.151ZM243.235 71.524C245.003 71.498 248.253 71.381 250.255 71.381C251.841 71.381 253.453 71.381 254.064 71.394L254.051 72.356C253.323 72.317 252.153 72.291 250.242 72.291C248.006 72.291 245.224 72.382 243.261 72.525L243.235 71.524ZM250.06 75.294C250.06 77.036 249.254 77.907 248.071 77.907C246.979 77.907 245.926 77.14 245.926 75.723C245.926 74.436 246.992 73.474 248.227 73.474C249.735 73.474 250.502 74.592 250.502 76.087C250.502 77.855 249.644 79.805 246.628 80.702L245.757 79.857C248.123 79.298 249.501 78.141 249.501 75.996C249.501 74.826 248.929 74.332 248.227 74.332C247.538 74.332 246.901 74.865 246.901 75.71C246.901 76.529 247.512 76.997 248.227 76.997C249.033 76.997 249.553 76.321 249.345 74.93L250.06 75.294ZM69.9364 89.432C70.2224 89.458 70.5864 89.471 70.8464 89.471C71.5354 89.471 74.6164 89.38 75.3054 89.315C75.6954 89.276 75.8774 89.25 76.0204 89.198L76.6184 89.965C76.3844 90.121 76.1244 90.29 75.8774 90.485C75.2404 90.979 73.4724 92.5 72.4584 93.332C73.0564 93.137 73.6804 93.072 74.2654 93.072C76.4234 93.072 77.9704 94.359 77.9704 96.114C77.9704 98.207 76.2414 99.572 73.4854 99.572C71.7174 99.572 70.6384 98.805 70.6384 97.713C70.6384 96.829 71.4444 96.023 72.6404 96.023C74.3694 96.023 75.2404 97.245 75.3314 98.558L74.3954 98.714C74.3174 97.609 73.6804 96.816 72.6404 96.816C72.0424 96.816 71.5874 97.18 71.5874 97.635C71.5874 98.272 72.3024 98.649 73.3294 98.649C75.5394 98.649 76.9304 97.739 76.9304 96.114C76.9304 94.827 75.7084 93.878 74.0054 93.878C71.8474 93.878 70.6774 94.788 69.0394 96.465L68.2854 95.711C69.3644 94.827 71.0414 93.423 71.7824 92.786C72.5104 92.188 74.1484 90.823 74.7984 90.238C74.1094 90.277 71.5094 90.381 70.8334 90.42C70.5344 90.446 70.2484 90.459 69.9624 90.498L69.9364 89.432ZM86.2514 90.134C86.0824 91.486 85.8224 93.007 85.4194 94.398C84.6264 97.063 83.5864 98.441 82.3904 98.441C81.2204 98.441 80.0634 97.115 80.0634 94.957C80.0634 92.136 82.5724 89.679 85.7574 89.679C88.7994 89.679 90.7364 91.824 90.7364 94.463C90.7364 97.18 88.9424 99 85.8484 99.403L85.2504 98.441C85.6664 98.402 86.0564 98.35 86.3684 98.285C88.0324 97.908 89.6704 96.66 89.6704 94.411C89.6704 92.331 88.2274 90.615 85.7314 90.615C82.8714 90.615 81.0904 92.968 81.0904 94.879C81.0904 96.517 81.8314 97.245 82.4164 97.245C83.0274 97.245 83.7294 96.361 84.3924 94.164C84.7694 92.929 85.0424 91.46 85.1724 90.108L86.2514 90.134ZM92.0364 90.446C92.5304 90.433 92.9464 90.407 93.2064 90.381C94.0384 90.29 96.4954 90.056 98.8874 89.848C100.317 89.731 101.526 89.653 102.397 89.627L102.41 90.667C101.656 90.654 100.525 90.68 99.8624 90.862C98.0034 91.46 96.8724 93.449 96.8724 94.983C96.8724 97.518 99.2514 98.337 101.357 98.415L100.98 99.481C98.5754 99.39 95.8454 98.116 95.8454 95.204C95.8454 93.189 97.0804 91.525 98.2634 90.823C96.8724 90.966 93.5574 91.291 92.1534 91.59L92.0364 90.446ZM100.525 92.253C100.824 92.682 101.318 93.488 101.604 94.073L100.928 94.372C100.629 93.748 100.265 93.085 99.8754 92.539L100.525 92.253ZM101.942 91.707C102.267 92.136 102.774 92.929 103.073 93.501L102.41 93.826C102.098 93.202 101.708 92.552 101.305 92.006L101.942 91.707ZM113.681 91.252C113.395 91.421 113.07 91.603 112.68 91.798C111.809 92.253 110.002 93.111 108.728 93.943C107.519 94.736 106.791 95.594 106.791 96.569C106.791 97.648 107.831 98.324 109.885 98.324C111.289 98.324 113.031 98.142 114.045 97.882L114.032 99.052C113.057 99.221 111.549 99.364 109.924 99.364C107.48 99.364 105.712 98.636 105.712 96.686C105.712 95.282 106.661 94.177 108.195 93.163C109.521 92.279 111.341 91.408 112.186 90.927C112.563 90.706 112.849 90.537 113.122 90.316L113.681 91.252ZM107.103 88.886C107.701 90.55 108.507 92.175 109.105 93.228L108.221 93.761C107.558 92.695 106.778 90.94 106.076 89.328L107.103 88.886ZM115.901 90.368C116.395 90.355 116.811 90.329 117.071 90.303C117.916 90.212 120.36 89.978 122.765 89.77C124.182 89.653 125.391 89.575 126.262 89.549L126.275 90.589C125.521 90.576 124.39 90.602 123.727 90.784C121.868 91.382 120.737 93.371 120.737 94.905C120.737 97.44 123.116 98.246 125.222 98.337L124.858 99.403C122.44 99.312 119.71 98.038 119.71 95.126C119.71 93.098 120.945 91.447 122.141 90.745C120.737 90.888 117.435 91.213 116.018 91.512L115.901 90.368ZM131.997 88.782C131.919 89.133 131.88 89.406 131.828 89.692C131.659 91.148 131.074 95.152 131.074 96.556C131.074 97.817 131.789 98.584 133.271 98.584C135.247 98.584 136.508 97.726 136.508 96.374C136.508 95.503 136.04 94.541 135.078 93.735L136.222 93.488C137.119 94.476 137.561 95.386 137.561 96.491C137.561 98.428 135.832 99.611 133.258 99.611C131.503 99.611 130.073 98.831 130.073 96.712C130.073 95.321 130.684 91.434 130.827 89.64C130.866 89.185 130.866 88.951 130.84 88.717L131.997 88.782ZM127.837 90.511C128.929 90.862 130.489 91.031 131.646 91.031C132.634 91.031 133.531 90.979 134.298 90.862L134.272 91.85C133.44 91.928 132.673 91.967 131.62 91.967C130.476 91.967 128.916 91.772 127.772 91.46L127.837 90.511ZM127.512 93.748C128.773 94.19 130.294 94.307 131.49 94.307C132.387 94.307 133.284 94.281 134.194 94.151L134.181 95.139C133.31 95.23 132.504 95.256 131.633 95.256C130.216 95.256 128.643 95.1 127.46 94.736L127.512 93.748ZM140.382 89.276H149.3V96.348H148.351V90.056H141.292V96.348H140.382V89.276ZM139.056 95.906H150.587V96.764H139.056V95.906ZM141.903 92.253H147.701V92.942H141.903V92.253ZM144.23 95.074H145.257C144.828 97.752 143.749 99.364 139.277 100.04C139.212 99.806 138.991 99.416 138.822 99.221C142.995 98.649 143.879 97.31 144.23 95.074ZM145.582 96.205C146.31 98.051 148.039 98.909 150.873 99.156C150.652 99.377 150.392 99.793 150.275 100.066C147.298 99.689 145.543 98.636 144.685 96.361L145.582 96.205ZM144.399 90.394H145.179V94.853H144.399V90.394ZM146.648 90.498L147.35 90.836C146.999 91.317 146.609 91.837 146.31 92.188L145.751 91.915C146.05 91.525 146.44 90.914 146.648 90.498ZM142.254 90.862L142.839 90.563C143.216 90.94 143.593 91.486 143.736 91.876L143.099 92.214C142.982 91.811 142.605 91.265 142.254 90.862ZM144.724 93.189L145.205 92.76C146.037 93.228 147.09 93.943 147.636 94.424L147.155 94.918C146.635 94.424 145.595 93.683 144.724 93.189ZM144.425 88.08L145.478 88.21C145.244 88.782 145.023 89.328 144.828 89.705L143.879 89.588C144.074 89.159 144.321 88.509 144.425 88.08ZM144.126 92.474L144.737 92.721C144.165 93.657 143.086 94.658 142.15 95.165C142.033 94.97 141.799 94.71 141.63 94.58C142.553 94.177 143.606 93.306 144.126 92.474ZM155.943 88.912C155.891 89.146 155.839 89.432 155.787 89.679C155.696 90.147 155.527 91.213 155.345 92.019C154.903 93.852 153.98 97.089 152.511 99.455L151.445 99.039C152.927 97.05 153.967 93.579 154.318 91.993C154.565 90.953 154.734 89.783 154.734 88.782L155.943 88.912ZM160.415 90.407C161.221 91.46 162.352 93.826 162.794 95.022L161.78 95.503C161.403 94.177 160.376 91.915 159.466 90.836L160.415 90.407ZM151.263 91.759C151.666 91.785 152.004 91.772 152.42 91.759C153.395 91.733 156.034 91.447 156.918 91.447C158.075 91.447 159.024 91.889 159.024 93.644C159.024 95.191 158.816 97.258 158.27 98.337C157.867 99.208 157.217 99.429 156.372 99.429C155.878 99.429 155.254 99.338 154.851 99.234L154.669 98.155C155.215 98.324 155.904 98.415 156.268 98.415C156.749 98.415 157.139 98.311 157.399 97.752C157.815 96.868 158.023 95.178 158.023 93.774C158.023 92.578 157.477 92.357 156.645 92.357C155.774 92.357 153.33 92.656 152.537 92.734C152.238 92.773 151.705 92.838 151.367 92.89L151.263 91.759ZM160.558 88.522C160.883 88.99 161.351 89.783 161.624 90.316L160.922 90.628C160.662 90.095 160.22 89.315 159.856 88.821L160.558 88.522ZM161.988 88.002C162.339 88.483 162.833 89.302 163.093 89.783L162.378 90.095C162.105 89.523 161.676 88.782 161.299 88.301L161.988 88.002ZM166.603 94.697H174.858V95.581H166.603V94.697ZM171.4 89.406H172.31V91.954C172.31 92.24 172.349 92.292 172.687 92.292C172.83 92.292 173.597 92.292 173.792 92.292C174.065 92.292 174.117 92.162 174.143 91.278C174.338 91.421 174.702 91.538 174.949 91.603C174.858 92.786 174.611 93.085 173.896 93.085C173.701 93.085 172.752 93.085 172.57 93.085C171.621 93.085 171.4 92.851 171.4 91.967V89.406ZM166.785 88.665H174.767V90.836H173.87V89.497H167.656V91.057H166.785V88.665ZM170.152 93.228H171.101V100.04H170.152V93.228ZM169.242 89.419H170.165C170.035 91.733 169.515 92.916 167.084 93.566C167.006 93.345 166.759 93.007 166.59 92.838C168.748 92.318 169.138 91.382 169.242 89.419ZM171.491 95.113C172.219 96.504 173.675 97.947 175.066 98.61C174.832 98.792 174.52 99.143 174.364 99.403C172.986 98.597 171.556 96.972 170.776 95.373L171.491 95.113ZM169.853 95.035L170.62 95.295C169.762 97.063 168.189 98.675 166.59 99.494C166.447 99.273 166.174 98.935 165.966 98.753C167.513 98.064 169.06 96.582 169.853 95.035ZM163.626 88.938L164.198 88.236C165.004 88.6 166.005 89.211 166.499 89.666L165.914 90.459C165.433 89.978 164.458 89.341 163.626 88.938ZM163.028 92.513L163.522 91.759C164.354 92.019 165.394 92.5 165.914 92.903L165.394 93.761C164.887 93.332 163.86 92.825 163.028 92.513ZM163.366 99.299C163.99 98.311 164.887 96.621 165.55 95.178L166.304 95.75C165.693 97.102 164.9 98.701 164.211 99.897L163.366 99.299ZM177.51 89.939C177.445 90.238 177.406 90.862 177.393 91.2C177.38 92.006 177.393 93.202 177.484 94.268C177.705 96.439 178.329 97.882 179.265 97.882C179.928 97.882 180.539 96.543 180.877 95.243L181.696 96.166C180.903 98.363 180.123 99.117 179.239 99.117C178.004 99.117 176.834 97.895 176.47 94.528C176.353 93.41 176.327 91.824 176.327 91.07C176.327 90.771 176.327 90.212 176.249 89.913L177.51 89.939ZM184.27 90.29C185.44 91.798 186.376 94.567 186.571 96.764L185.518 97.18C185.297 94.84 184.504 92.162 183.269 90.641L184.27 90.29ZM187.322 90.446C187.816 90.433 188.232 90.407 188.492 90.381C189.324 90.29 191.781 90.056 194.173 89.848C195.603 89.731 196.812 89.653 197.683 89.627L197.696 90.667C196.942 90.654 195.811 90.68 195.148 90.862C193.289 91.46 192.158 93.449 192.158 94.983C192.158 97.518 194.537 98.337 196.643 98.415L196.266 99.481C193.861 99.39 191.131 98.116 191.131 95.204C191.131 93.189 192.366 91.525 193.549 90.823C192.158 90.966 188.843 91.291 187.439 91.59L187.322 90.446ZM195.811 92.253C196.11 92.682 196.604 93.488 196.89 94.073L196.214 94.372C195.915 93.748 195.551 93.085 195.161 92.539L195.811 92.253ZM197.228 91.707C197.553 92.136 198.06 92.929 198.359 93.501L197.696 93.826C197.384 93.202 196.994 92.552 196.591 92.006L197.228 91.707ZM206.549 88.704C206.523 88.86 206.484 89.367 206.484 89.523C206.445 90.368 206.471 92.877 206.484 93.917L205.496 93.41C205.496 92.838 205.483 90.251 205.444 89.536C205.418 89.185 205.379 88.821 205.353 88.704H206.549ZM199.633 90.524C201.401 90.498 204.651 90.381 206.653 90.381C208.239 90.381 209.851 90.381 210.462 90.394L210.449 91.356C209.721 91.317 208.551 91.291 206.64 91.291C204.404 91.291 201.622 91.382 199.659 91.525L199.633 90.524ZM206.458 94.294C206.458 96.036 205.652 96.907 204.469 96.907C203.377 96.907 202.324 96.14 202.324 94.723C202.324 93.436 203.39 92.474 204.625 92.474C206.133 92.474 206.9 93.592 206.9 95.087C206.9 96.855 206.042 98.805 203.026 99.702L202.155 98.857C204.521 98.298 205.899 97.141 205.899 94.996C205.899 93.826 205.327 93.332 204.625 93.332C203.936 93.332 203.299 93.865 203.299 94.71C203.299 95.529 203.91 95.997 204.625 95.997C205.431 95.997 205.951 95.321 205.743 93.93L206.458 94.294ZM211.715 95.841C212.807 95.841 213.691 96.725 213.691 97.817C213.691 98.909 212.807 99.793 211.715 99.793C210.623 99.793 209.726 98.909 209.726 97.817C209.726 96.725 210.623 95.841 211.715 95.841ZM211.715 99.13C212.443 99.13 213.028 98.545 213.028 97.817C213.028 97.089 212.443 96.504 211.715 96.504C210.987 96.504 210.389 97.089 210.389 97.817C210.389 98.545 210.987 99.13 211.715 99.13Z" fill="white"/>
<rect x="1.91296" y="35" width="49.9761" height="64" rx="3" stroke="white" stroke-width="2"/>
<rect x="9.98877" y="66.9995" width="14.8503" height="12.1579" stroke="white" stroke-width="2"/>
<path d="M29.7887 73.0796L43.814 73.0796" stroke="white" stroke-width="2"/>
<path d="M0.912964 60.9209L50.414 60.9209" stroke="white" stroke-width="2"/>
<path d="M29.7887 66.9995L43.814 66.9995" stroke="white" stroke-width="2"/>
<path d="M29.7887 79.1572L43.814 79.1572" stroke="white" stroke-width="2"/>
<path d="M9.16321 85.2363H43.8139" stroke="white" stroke-width="2"/>
<path d="M9.16321 91.3159H43.8139" stroke="white" stroke-width="2"/>
<path d="M2.162 18L2.162 1.9L8.786 1.9C10.212 1.9 11.431 2.13 12.443 2.59C13.4703 3.05 14.26 3.70933 14.812 4.568C15.364 5.42667 15.64 6.44633 15.64 7.627C15.64 8.80767 15.364 9.82733 14.812 10.686C14.26 11.5447 13.4703 12.204 12.443 12.664C11.431 13.124 10.212 13.354 8.786 13.354H3.818L5.152 11.951V18H2.162ZM5.152 12.273L3.818 10.824H8.648C9.96667 10.824 10.9557 10.548 11.615 9.996C12.2897 9.42867 12.627 8.639 12.627 7.627C12.627 6.59967 12.2897 5.81 11.615 5.258C10.9557 4.706 9.96667 4.43 8.648 4.43H3.818L5.152 2.958L5.152 12.273ZM25.8046 18V15.516L25.6436 14.987V10.64C25.6436 9.79667 25.3906 9.145 24.8846 8.685C24.3786 8.20967 23.6119 7.972 22.5846 7.972C21.8946 7.972 21.2122 8.07933 20.5376 8.294C19.8782 8.50867 19.3186 8.80767 18.8586 9.191L17.7316 7.098C18.3909 6.592 19.1729 6.21633 20.0776 5.971C20.9976 5.71033 21.9482 5.58 22.9296 5.58C24.7082 5.58 26.0806 6.00933 27.0466 6.868C28.0279 7.71133 28.5186 9.02233 28.5186 10.801V18H25.8046ZM21.9406 18.161C21.0206 18.161 20.2156 18.0077 19.5256 17.701C18.8356 17.379 18.2989 16.942 17.9156 16.39C17.5476 15.8227 17.3636 15.1863 17.3636 14.481C17.3636 13.791 17.5246 13.17 17.8466 12.618C18.1839 12.066 18.7282 11.629 19.4796 11.307C20.2309 10.985 21.2276 10.824 22.4696 10.824H26.0346V12.733H22.6766C21.6952 12.733 21.0359 12.894 20.6986 13.216C20.3612 13.5227 20.1926 13.906 20.1926 14.366C20.1926 14.8873 20.3996 15.3013 20.8136 15.608C21.2276 15.9147 21.8026 16.068 22.5386 16.068C23.2439 16.068 23.8726 15.907 24.4246 15.585C24.9919 15.263 25.3982 14.7877 25.6436 14.159L26.1266 15.884C25.8506 16.6047 25.3522 17.1643 24.6316 17.563C23.9262 17.9617 23.0292 18.161 21.9406 18.161ZM39.0163 18.161C38.0196 18.161 37.1073 17.931 36.2793 17.471C35.4666 17.011 34.8149 16.321 34.3243 15.401C33.8489 14.4657 33.6113 13.285 33.6113 11.859C33.6113 10.4177 33.8413 9.237 34.3013 8.317C34.7766 7.397 35.4206 6.71467 36.2333 6.27C37.0459 5.81 37.9736 5.58 39.0163 5.58C40.2276 5.58 41.2933 5.84067 42.2133 6.362C43.1486 6.88333 43.8846 7.61167 44.4213 8.547C44.9733 9.48233 45.2493 10.5863 45.2493 11.859C45.2493 13.1317 44.9733 14.2433 44.4213 15.194C43.8846 16.1293 43.1486 16.8577 42.2133 17.379C41.2933 17.9003 40.2276 18.161 39.0163 18.161ZM32.2083 22.462V5.718L34.9453 5.718V8.616L34.8533 11.882L35.0833 15.148V22.462H32.2083ZM38.6943 15.7C39.3843 15.7 39.9976 15.5467 40.5343 15.24C41.0863 14.9333 41.5233 14.4887 41.8453 13.906C42.1673 13.3233 42.3283 12.641 42.3283 11.859C42.3283 11.0617 42.1673 10.3793 41.8453 9.812C41.5233 9.22933 41.0863 8.78467 40.5343 8.478C39.9976 8.17133 39.3843 8.018 38.6943 8.018C38.0043 8.018 37.3833 8.17133 36.8313 8.478C36.2793 8.78467 35.8423 9.22933 35.5203 9.812C35.1983 10.3793 35.0373 11.0617 35.0373 11.859C35.0373 12.641 35.1983 13.3233 35.5203 13.906C35.8423 14.4887 36.2793 14.9333 36.8313 15.24C37.3833 15.5467 38.0043 15.7 38.6943 15.7ZM53.7488 18.161C52.3842 18.161 51.1882 17.8927 50.1608 17.356C49.1488 16.804 48.3592 16.0527 47.7918 15.102C47.2398 14.1513 46.9638 13.0703 46.9638 11.859C46.9638 10.6323 47.2322 9.55133 47.7688 8.616C48.3208 7.66533 49.0722 6.92167 50.0228 6.385C50.9888 5.84833 52.0852 5.58 53.3118 5.58C54.5078 5.58 55.5735 5.84067 56.5088 6.362C57.4442 6.88333 58.1802 7.61933 58.7168 8.57C59.2535 9.52067 59.5218 10.64 59.5218 11.928C59.5218 12.0507 59.5142 12.1887 59.4988 12.342C59.4988 12.4953 59.4912 12.641 59.4758 12.779H49.2408V10.87H57.9578L56.8308 11.468C56.8462 10.7627 56.7005 10.1417 56.3938 9.605C56.0872 9.06833 55.6655 8.64667 55.1288 8.34C54.6075 8.03333 54.0018 7.88 53.3118 7.88C52.6065 7.88 51.9855 8.03333 51.4488 8.34C50.9275 8.64667 50.5135 9.076 50.2068 9.628C49.9155 10.1647 49.7698 10.801 49.7698 11.537V11.997C49.7698 12.733 49.9385 13.3847 50.2758 13.952C50.6132 14.5193 51.0885 14.9563 51.7018 15.263C52.3152 15.5697 53.0205 15.723 53.8178 15.723C54.5078 15.723 55.1288 15.6157 55.6808 15.401C56.2328 15.1863 56.7235 14.849 57.1528 14.389L58.6938 16.16C58.1418 16.804 57.4442 17.3023 56.6008 17.655C55.7728 17.9923 54.8222 18.161 53.7488 18.161ZM62.2835 18V5.718H65.0205V9.099L64.6985 8.11C65.0665 7.282 65.6415 6.65333 66.4235 6.224C67.2208 5.79467 68.2098 5.58 69.3905 5.58V8.317C69.2678 8.28633 69.1528 8.271 69.0455 8.271C68.9381 8.25567 68.8308 8.248 68.7235 8.248C67.6348 8.248 66.7685 8.57 66.1245 9.214C65.4805 9.84267 65.1585 10.7857 65.1585 12.043V18H62.2835ZM93.8001 5.58C94.7814 5.58 95.6478 5.77167 96.3991 6.155C97.1658 6.53833 97.7638 7.12867 98.1931 7.926C98.6224 8.708 98.8371 9.72 98.8371 10.962V18H95.9621V11.33C95.9621 10.2413 95.7244 9.42867 95.2491 8.892C94.7738 8.35533 94.0914 8.087 93.2021 8.087C92.5734 8.087 92.0138 8.225 91.5231 8.501C91.0478 8.777 90.6721 9.18333 90.3961 9.72C90.1354 10.2567 90.0051 10.939 90.0051 11.767V18H87.1301V11.33C87.1301 10.2413 86.8924 9.42867 86.4171 8.892C85.9418 8.35533 85.2594 8.087 84.3701 8.087C83.7414 8.087 83.1818 8.225 82.6911 8.501C82.2158 8.777 81.8401 9.18333 81.5641 9.72C81.3034 10.2567 81.1731 10.939 81.1731 11.767V18H78.2981V5.718H81.0351V8.984L80.5521 8.018C80.9661 7.22067 81.5641 6.615 82.3461 6.201C83.1434 5.787 84.0481 5.58 85.0601 5.58C86.2101 5.58 87.2068 5.86367 88.0501 6.431C88.9088 6.99833 89.4761 7.857 89.7521 9.007L88.6251 8.616C89.0238 7.696 89.6831 6.96 90.6031 6.408C91.5231 5.856 92.5888 5.58 93.8001 5.58ZM108.306 18.161C106.942 18.161 105.746 17.8927 104.718 17.356C103.706 16.804 102.917 16.0527 102.349 15.102C101.797 14.1513 101.521 13.0703 101.521 11.859C101.521 10.6323 101.79 9.55133 102.326 8.616C102.878 7.66533 103.63 6.92167 104.58 6.385C105.546 5.84833 106.643 5.58 107.869 5.58C109.065 5.58 110.131 5.84067 111.066 6.362C112.002 6.88333 112.738 7.61933 113.274 8.57C113.811 9.52067 114.079 10.64 114.079 11.928C114.079 12.0507 114.072 12.1887 114.056 12.342C114.056 12.4953 114.049 12.641 114.033 12.779L103.798 12.779V10.87L112.515 10.87L111.388 11.468C111.404 10.7627 111.258 10.1417 110.951 9.605C110.645 9.06833 110.223 8.64667 109.686 8.34C109.165 8.03333 108.559 7.88 107.869 7.88C107.164 7.88 106.543 8.03333 106.006 8.34C105.485 8.64667 105.071 9.076 104.764 9.628C104.473 10.1647 104.327 10.801 104.327 11.537V11.997C104.327 12.733 104.496 13.3847 104.833 13.952C105.171 14.5193 105.646 14.9563 106.259 15.263C106.873 15.5697 107.578 15.723 108.375 15.723C109.065 15.723 109.686 15.6157 110.238 15.401C110.79 15.1863 111.281 14.849 111.71 14.389L113.251 16.16C112.699 16.804 112.002 17.3023 111.158 17.655C110.33 17.9923 109.38 18.161 108.306 18.161ZM122.039 18.161C120.858 18.161 119.793 17.9003 118.842 17.379C117.907 16.8423 117.171 16.1063 116.634 15.171C116.097 14.2357 115.829 13.1317 115.829 11.859C115.829 10.5863 116.097 9.48233 116.634 8.547C117.171 7.61167 117.907 6.88333 118.842 6.362C119.793 5.84067 120.858 5.58 122.039 5.58C123.066 5.58 123.986 5.81 124.799 6.27C125.612 6.71467 126.256 7.397 126.731 8.317C127.206 9.237 127.444 10.4177 127.444 11.859C127.444 13.285 127.214 14.4657 126.754 15.401C126.294 16.321 125.658 17.011 124.845 17.471C124.032 17.931 123.097 18.161 122.039 18.161ZM122.384 15.7C123.074 15.7 123.687 15.5467 124.224 15.24C124.776 14.9333 125.213 14.4887 125.535 13.906C125.872 13.3233 126.041 12.641 126.041 11.859C126.041 11.0617 125.872 10.3793 125.535 9.812C125.213 9.22933 124.776 8.78467 124.224 8.478C123.687 8.17133 123.074 8.018 122.384 8.018C121.694 8.018 121.073 8.17133 120.521 8.478C119.984 8.78467 119.547 9.22933 119.21 9.812C118.888 10.3793 118.727 11.0617 118.727 11.859C118.727 12.641 118.888 13.3233 119.21 13.906C119.547 14.4887 119.984 14.9333 120.521 15.24C121.073 15.5467 121.694 15.7 122.384 15.7ZM126.11 18V15.102L126.225 11.836L125.995 8.57V0.933999L128.847 0.933999V18H126.11ZM132.631 18V5.718H135.506V18H132.631ZM134.08 3.694C133.543 3.694 133.099 3.52533 132.746 3.188C132.409 2.85067 132.24 2.44433 132.24 1.969C132.24 1.47833 132.409 1.072 132.746 0.749999C133.099 0.412666 133.543 0.244 134.08 0.244C134.617 0.244 135.054 0.404999 135.391 0.726999C135.744 1.03367 135.92 1.42467 135.92 1.9C135.92 2.406 135.751 2.83533 135.414 3.188C135.077 3.52533 134.632 3.694 134.08 3.694ZM146.847 18V15.516L146.686 14.987V10.64C146.686 9.79667 146.433 9.145 145.927 8.685C145.421 8.20967 144.654 7.972 143.627 7.972C142.937 7.972 142.254 8.07933 141.58 8.294C140.92 8.50867 140.361 8.80767 139.901 9.191L138.774 7.098C139.433 6.592 140.215 6.21633 141.12 5.971C142.04 5.71033 142.99 5.58 143.972 5.58C145.75 5.58 147.123 6.00933 148.089 6.868C149.07 7.71133 149.561 9.02233 149.561 10.801V18H146.847ZM142.983 18.161C142.063 18.161 141.258 18.0077 140.568 17.701C139.878 17.379 139.341 16.942 138.958 16.39C138.59 15.8227 138.406 15.1863 138.406 14.481C138.406 13.791 138.567 13.17 138.889 12.618C139.226 12.066 139.77 11.629 140.522 11.307C141.273 10.985 142.27 10.824 143.512 10.824H147.077V12.733H143.719C142.737 12.733 142.078 12.894 141.741 13.216C141.403 13.5227 141.235 13.906 141.235 14.366C141.235 14.8873 141.442 15.3013 141.856 15.608C142.27 15.9147 142.845 16.068 143.581 16.068C144.286 16.068 144.915 15.907 145.467 15.585C146.034 15.263 146.44 14.7877 146.686 14.159L147.169 15.884C146.893 16.6047 146.394 17.1643 145.674 17.563C144.968 17.9617 144.071 18.161 142.983 18.161Z" fill="white"/>
</svg>
