<svg width="255" height="98" viewBox="0 0 255 98" fill="none" xmlns="http://www.w3.org/2000/svg">
<rect x="0.6" y="0.6" width="253.8" height="96.8" rx="4.4" stroke="white" stroke-width="1.2"/>
<path d="M50.62 42.9801C51.38 43.0601 52.4 43.1201 53.1 43.1201H63.18C63.76 43.1201 64.58 43.0801 64.92 43.0601C64.9 43.5401 64.86 44.3201 64.86 44.9201V55.2801C64.86 55.9801 64.92 57.0201 64.96 57.6401H62.06C62.08 57.0401 62.1 56.3201 62.1 55.5801V45.7001H53.1C52.26 45.7001 51.18 45.7401 50.62 45.7801V42.9801ZM50.38 53.8401C51.06 53.9001 51.96 53.9601 52.86 53.9601H63.68V56.6001H52.94C52.16 56.6001 51.04 56.6401 50.38 56.7201V53.8401ZM72.32 41.9801C73.7 42.9201 76.3 45.0001 77.48 46.2201L75.44 48.3001C74.4 47.1801 71.88 45.0001 70.42 44.0001L72.32 41.9801ZM69.8 55.3001C72.94 54.8601 75.52 53.8401 77.46 52.7001C80.88 50.6601 83.48 47.6201 84.76 44.9201L86.3 47.7201C84.8 50.4401 82.14 53.2001 78.92 55.1401C76.88 56.3601 74.3 57.4601 71.5 57.9401L69.8 55.3001ZM91.52 41.8601C92.16 41.9401 92.98 42.0001 93.66 42.0001C94.92 42.0001 100.52 42.0001 101.7 42.0001C102.36 42.0001 103.16 41.9401 103.84 41.8601V44.4401C103.16 44.4001 102.38 44.3601 101.7 44.3601C100.52 44.3601 94.92 44.3601 93.66 44.3601C92.98 44.3601 92.12 44.4001 91.52 44.4401V41.8601ZM89.18 46.9601C89.78 47.0401 90.48 47.0801 91.1 47.0801C92.36 47.0801 103.02 47.0801 104.2 47.0801C104.62 47.0801 105.5 47.0601 106.04 46.9601V49.5601C105.52 49.5401 104.76 49.5201 104.2 49.5201C103.02 49.5201 92.36 49.5201 91.1 49.5201C90.52 49.5201 89.74 49.5401 89.18 49.5801V46.9601ZM99.42 48.3601C99.42 50.9801 98.96 52.9801 98.1 54.6401C97.42 56.0401 95.86 57.5801 94.1 58.5001L91.74 56.8001C93.16 56.2401 94.58 55.1001 95.36 53.9201C96.36 52.4001 96.64 50.5201 96.64 48.3801L99.42 48.3601ZM112.32 41.9801C113.7 42.9201 116.3 45.0001 117.48 46.2201L115.44 48.3001C114.4 47.1801 111.88 45.0001 110.42 44.0001L112.32 41.9801ZM109.8 55.3001C112.94 54.8601 115.52 53.8401 117.46 52.7001C120.88 50.6601 123.48 47.6201 124.76 44.9201L126.3 47.7201C124.8 50.4401 122.14 53.2001 118.92 55.1401C116.88 56.3601 114.3 57.4601 111.5 57.9401L109.8 55.3001ZM136.96 41.6001C137.44 42.6001 138.66 45.6801 139.06 46.9601L136.54 47.8401C136.16 46.5801 135.04 43.6601 134.46 42.4201L136.96 41.6001ZM146.08 43.2001C145.86 43.7001 145.68 44.3201 145.56 44.7601C145 46.9401 143.86 50.1201 142.22 52.2801C140.12 55.0601 137.2 57.0801 134.36 58.1601L132.12 55.9001C134.84 55.1201 137.96 53.3201 140.02 50.7401C141.52 48.8401 142.76 45.4201 143.1 42.3601L146.08 43.2001ZM131.38 42.8401C132 44.1201 133.24 47.1001 133.7 48.4401L131.14 49.3801C130.72 48.1001 129.4 44.8001 128.84 43.7401L131.38 42.8401ZM162.86 41.1801C163.36 41.9201 164.08 43.1801 164.46 43.9201L162.86 44.6001C162.44 43.7801 161.82 42.6001 161.28 41.8201L162.86 41.1801ZM165.24 40.2801C165.76 41.0201 166.5 42.3001 166.84 43.0001L165.26 43.6801C164.84 42.8401 164.2 41.6801 163.66 40.9201L165.24 40.2801ZM157.74 41.3601C157.68 41.8201 157.62 42.6601 157.6 43.1401C157.38 51.1001 155.5 55.1401 151.08 58.3001L148.74 56.4201C149.58 55.9601 150.58 55.2801 151.38 54.4601C154 51.8601 154.92 48.4601 154.94 43.2001C154.94 42.7401 154.86 41.8401 154.78 41.3601H157.74ZM164.52 45.6401C164.46 45.9601 164.4 46.4801 164.4 46.7001C164.32 48.8601 164.06 54.4401 163.2 56.4801C162.78 57.5001 162 58.0201 160.64 58.0201C159.48 58.0201 158.3 57.9401 157.32 57.8601L157 55.1801C158 55.3601 159.02 55.4601 159.82 55.4601C160.46 55.4601 160.74 55.2401 160.94 54.7601C161.52 53.5001 161.8 49.5001 161.8 47.3401H152.04C151.36 47.3401 150.24 47.3401 149.4 47.4201V44.8001C150.24 44.8801 151.26 44.9401 152.02 44.9401H161.28C161.8 44.9401 162.32 44.8801 162.8 44.8001L164.52 45.6401ZM168.74 49.4201C172.32 48.5001 175.24 47.2001 177.48 45.8201C179.52 44.5601 181.8 42.5601 183.1 40.9801L185.26 43.0201C183.44 44.8601 181 46.7401 178.64 48.1601C176.38 49.5001 173.14 51.0001 169.98 51.9401L168.74 49.4201ZM177.06 47.1201L179.9 46.4401V55.4601C179.9 56.3401 179.94 57.5801 180.08 58.0801H176.9C176.98 57.6001 177.06 56.3401 177.06 55.4601V47.1201ZM201.12 42.3001C201.68 43.1401 202.5 44.4201 202.94 45.3401L201.22 46.1001C200.62 44.8401 200.18 44.0401 199.44 43.0201L201.12 42.3001ZM203.74 41.2201C204.34 42.0201 205.18 43.2601 205.62 44.1601L203.94 45.0001C203.3 43.7201 202.82 42.9801 202.08 42.0001L203.74 41.2201ZM193.16 55.5601C193.16 54.0401 193.16 45.7601 193.16 44.0601C193.16 43.3401 193.08 42.3601 192.94 41.6601H196.08C196 42.3601 195.9 43.2401 195.9 44.0601C195.9 46.2801 195.9 54.0801 195.9 55.5601C195.9 56.1401 196 57.5401 196.08 58.3401H192.96C193.08 57.5601 193.16 56.3601 193.16 55.5601ZM195.3 46.8201C197.98 47.5601 202.28 49.1401 204.26 50.1201L203.12 52.8801C200.86 51.7001 197.48 50.4201 195.3 49.7001V46.8201Z" fill="white"/>
</svg>
