<svg width="255" height="101" viewBox="0 0 255 101" fill="none" xmlns="http://www.w3.org/2000/svg">
<rect x="1.91296" y="35" width="49.9761" height="64" rx="3" stroke="white" stroke-width="2"/>
<rect x="6.86316" y="40.2124" width="40.0759" height="46.6316" rx="1.06137" stroke="white" stroke-width="2"/>
<path d="M31.264 92.6188C31.264 94.2737 30.0019 95.5267 28.5514 95.5267C27.101 95.5267 25.8389 94.2737 25.8389 92.6188C25.8389 90.9639 27.101 89.7109 28.5514 89.7109C30.0019 89.7109 31.264 90.9639 31.264 92.6188Z" stroke="white" stroke-width="2"/>
<path d="M77.2424 36.902L75.0194 44H74.1094L72.1464 38.046L70.1834 44H69.2604L67.0374 36.902H67.9604L69.7284 43.077L71.7174 36.902H72.6274L74.5904 43.09L76.3454 36.902H77.2424ZM83.995 40.087C83.995 40.399 83.9863 40.6373 83.969 40.802H78.08C78.106 41.3393 78.236 41.7987 78.47 42.18C78.704 42.5613 79.0117 42.8517 79.393 43.051C79.7743 43.2417 80.1903 43.337 80.641 43.337C81.2303 43.337 81.7243 43.194 82.123 42.908C82.5303 42.622 82.799 42.2363 82.929 41.751H83.891C83.7177 42.4443 83.345 43.012 82.773 43.454C82.2097 43.8873 81.499 44.104 80.641 44.104C79.9737 44.104 79.3757 43.9567 78.847 43.662C78.3183 43.3587 77.9023 42.934 77.599 42.388C77.3043 41.8333 77.157 41.1877 77.157 40.451C77.157 39.7143 77.3043 39.0687 77.599 38.514C77.8937 37.9593 78.3053 37.5347 78.834 37.24C79.3627 36.9453 79.965 36.798 80.641 36.798C81.317 36.798 81.9063 36.9453 82.409 37.24C82.9203 37.5347 83.3103 37.9333 83.579 38.436C83.8563 38.93 83.995 39.4803 83.995 40.087ZM83.072 40.061C83.0807 39.5323 82.9723 39.0817 82.747 38.709C82.5303 38.3363 82.2313 38.0547 81.85 37.864C81.4687 37.6733 81.0527 37.578 80.602 37.578C79.926 37.578 79.3497 37.7947 78.873 38.228C78.3963 38.6613 78.132 39.2723 78.08 40.061H83.072ZM85.6469 38.475C85.8809 37.981 86.2406 37.578 86.7259 37.266C87.2199 36.954 87.8006 36.798 88.4679 36.798C89.1179 36.798 89.6986 36.9497 90.2099 37.253C90.7212 37.5477 91.1199 37.9723 91.4059 38.527C91.7006 39.073 91.8479 39.71 91.8479 40.438C91.8479 41.166 91.7006 41.8073 91.4059 42.362C91.1199 42.9167 90.7169 43.3457 90.1969 43.649C89.6856 43.9523 89.1092 44.104 88.4679 44.104C87.7919 44.104 87.2069 43.9523 86.7129 43.649C86.2276 43.337 85.8722 42.934 85.6469 42.44V44H84.7499V34.38H85.6469V38.475ZM90.9249 40.438C90.9249 39.8487 90.8079 39.3417 90.5739 38.917C90.3486 38.4837 90.0366 38.1543 89.6379 37.929C89.2392 37.7037 88.7886 37.591 88.2859 37.591C87.8006 37.591 87.3542 37.708 86.9469 37.942C86.5482 38.176 86.2319 38.5097 85.9979 38.943C85.7639 39.3763 85.6469 39.879 85.6469 40.451C85.6469 41.023 85.7639 41.5257 85.9979 41.959C86.2319 42.3923 86.5482 42.726 86.9469 42.96C87.3542 43.194 87.8006 43.311 88.2859 43.311C88.7886 43.311 89.2392 43.1983 89.6379 42.973C90.0366 42.739 90.3486 42.4053 90.5739 41.972C90.8079 41.53 90.9249 41.0187 90.9249 40.438ZM100.932 38.033C100.932 41.491 100.178 43.272 97.2144 44.611L96.3434 43.779C98.7094 42.882 99.8794 41.764 99.8794 38.111V34.952C99.8794 34.445 99.8404 34.016 99.8144 33.899H100.997C100.984 34.029 100.932 34.445 100.932 34.952V38.033ZM96.2394 33.977C96.2264 34.094 96.1874 34.471 96.1874 34.913V39.684C96.1874 40.165 96.2264 40.737 96.2394 40.854H95.0824C95.0954 40.737 95.1474 40.178 95.1474 39.684V34.913C95.1474 34.64 95.1214 34.276 95.0824 33.977H96.2394ZM92.4434 36.499C92.5604 36.512 93.1974 36.59 93.7434 36.59H102.349C102.934 36.59 103.363 36.538 103.545 36.512V37.617C103.402 37.604 102.934 37.578 102.362 37.578H93.7434C93.1714 37.578 92.5864 37.617 92.4434 37.617V36.499ZM106.472 39.307C108.721 38.709 110.697 37.786 112.14 36.889C113.505 36.031 114.805 34.913 115.702 33.821L116.573 34.64C115.455 35.797 114.09 36.889 112.569 37.838C111.139 38.722 109.072 39.671 106.979 40.321L106.472 39.307ZM111.932 37.422L113.05 37.084V43.025C113.05 43.506 113.076 44.156 113.141 44.403H111.854C111.893 44.156 111.932 43.506 111.932 43.025V37.422ZM123.503 42.856C123.503 42.128 123.503 36.382 123.503 35.303C123.503 34.926 123.477 34.354 123.412 33.938H124.686C124.634 34.341 124.595 34.9 124.595 35.303C124.595 37.318 124.608 42.245 124.608 42.856C124.608 43.272 124.634 43.974 124.686 44.403H123.425C123.49 43.987 123.503 43.337 123.503 42.856ZM124.361 37.357C126.077 37.851 128.703 38.852 130.146 39.554L129.691 40.659C128.209 39.866 125.778 38.943 124.361 38.501V37.357ZM140.119 35.758C139.625 35.251 138.767 34.458 138.221 34.042L138.962 33.509C139.391 33.847 140.379 34.666 140.86 35.173L140.119 35.758ZM135.985 34.627C136.089 34.848 136.31 35.264 136.44 35.511C136.947 36.421 137.571 37.734 138.104 38.917C138.806 40.542 139.638 42.947 140.08 44.39L138.962 44.689C138.559 43.142 137.935 41.062 137.194 39.359C136.583 37.994 135.998 36.733 135.556 35.992C135.4 35.732 135.14 35.316 134.932 35.056L135.985 34.627ZM133.684 38.423C134.061 38.332 134.516 38.176 134.75 38.072C136.557 37.383 139.716 35.615 141.874 35.615C143.681 35.615 144.773 36.629 144.773 38.046C144.773 39.554 143.824 40.685 141.796 40.685C141.068 40.685 140.327 40.503 139.846 40.321L139.872 39.294C140.379 39.528 141.029 39.723 141.718 39.723C143.148 39.723 143.733 38.93 143.733 38.007C143.733 37.24 143.122 36.525 141.848 36.525C139.677 36.525 135.829 38.774 134.191 39.489L133.684 38.423ZM149.701 34.328C150.039 34.367 150.442 34.393 150.858 34.393C151.56 34.393 155.213 34.393 155.98 34.393C156.383 34.393 156.838 34.367 157.15 34.328V35.407C156.851 35.381 156.396 35.368 155.954 35.368C155.226 35.368 151.573 35.368 150.858 35.368C150.468 35.368 150.052 35.381 149.701 35.407V34.328ZM158.112 37.747C158.047 37.877 157.956 38.033 157.93 38.137C157.592 39.411 157.007 40.763 156.032 41.829C154.68 43.324 153.042 44.078 151.391 44.546L150.585 43.623C152.418 43.246 154.043 42.401 155.161 41.231C155.941 40.412 156.461 39.307 156.695 38.358C156.058 38.358 150.585 38.358 149.805 38.358C149.493 38.358 148.999 38.371 148.531 38.41V37.318C148.999 37.357 149.441 37.396 149.805 37.396C150.442 37.396 155.98 37.396 156.643 37.396C156.942 37.396 157.228 37.357 157.371 37.292L158.112 37.747ZM163.43 34.484C164.34 35.095 166.017 36.447 166.732 37.162L165.926 37.994C165.263 37.318 163.651 35.914 162.676 35.277L163.43 34.484ZM162.312 43.194C164.574 42.856 166.264 42.063 167.499 41.296C169.514 40.035 171.087 38.111 171.841 36.499L172.465 37.617C171.581 39.229 170.073 40.997 168.11 42.232C166.797 43.051 165.159 43.857 162.988 44.26L162.312 43.194ZM176.9 34.51C177.264 34.549 177.654 34.575 178.07 34.575C178.824 34.575 181.853 34.575 182.581 34.575C182.945 34.575 183.413 34.549 183.79 34.51V35.589C183.4 35.563 182.945 35.537 182.581 35.537C181.853 35.537 178.824 35.537 178.096 35.537C177.654 35.537 177.238 35.563 176.9 35.589V34.51ZM175.353 37.773C175.704 37.812 176.081 37.838 176.484 37.838C177.238 37.838 184.297 37.838 184.986 37.838C185.259 37.838 185.688 37.812 186.013 37.773V38.852C185.727 38.826 185.311 38.813 184.986 38.813C184.297 38.813 177.238 38.813 176.484 38.813C176.094 38.813 175.704 38.826 175.353 38.852V37.773ZM181.476 38.293C181.476 39.931 181.268 41.283 180.696 42.375C180.215 43.246 179.24 44.182 178.135 44.741L177.173 44.039C178.174 43.61 179.11 42.869 179.63 42.037C180.28 41.01 180.371 39.736 180.384 38.306L181.476 38.293ZM184.466 33.444C184.791 33.912 185.259 34.705 185.519 35.225L184.817 35.537C184.57 35.017 184.128 34.237 183.777 33.743L184.466 33.444ZM185.883 32.924C186.234 33.405 186.728 34.211 186.975 34.692L186.286 35.004C186 34.445 185.571 33.704 185.207 33.223L185.883 32.924ZM188.701 40.659C190.417 40.243 192.328 39.333 193.394 38.683C194.616 37.942 195.812 36.863 196.488 36.044L197.294 36.824C196.54 37.63 195.188 38.761 193.836 39.58C192.744 40.23 190.937 41.088 189.208 41.621L188.701 40.659ZM193.277 39.281L194.356 39.008V43.883C194.356 44.273 194.369 44.819 194.421 45.014H193.212C193.238 44.819 193.277 44.273 193.277 43.883V39.281ZM203.861 34.484C204.771 35.095 206.448 36.447 207.163 37.162L206.357 37.994C205.694 37.318 204.082 35.914 203.107 35.277L203.861 34.484ZM202.743 43.194C205.005 42.856 206.695 42.063 207.93 41.296C209.945 40.035 211.518 38.111 212.272 36.499L212.896 37.617C212.012 39.229 210.504 40.997 208.541 42.232C207.228 43.051 205.59 43.857 203.419 44.26L202.743 43.194ZM224.636 33.6C224.961 34.068 225.429 34.861 225.689 35.381L224.987 35.706C224.727 35.173 224.285 34.393 223.934 33.899L224.636 33.6ZM226.053 33.08C226.404 33.561 226.898 34.367 227.145 34.848L226.443 35.16C226.157 34.601 225.741 33.86 225.377 33.379L226.053 33.08ZM225.494 36.187C225.39 36.382 225.26 36.681 225.195 36.889C224.844 38.189 224.038 39.957 222.894 41.361C221.711 42.804 220.151 44 217.707 44.897L216.771 44.052C219.163 43.35 220.775 42.167 221.958 40.789C222.972 39.593 223.765 37.916 224.038 36.733H219.215L219.631 35.797C220.164 35.797 223.375 35.797 223.778 35.797C224.129 35.797 224.415 35.758 224.636 35.667L225.494 36.187ZM221.139 34.224C220.931 34.562 220.697 35.004 220.567 35.251C219.8 36.681 218.435 38.54 216.355 39.931L215.445 39.255C217.694 37.916 218.968 36.031 219.54 34.861C219.67 34.64 219.865 34.159 219.943 33.834L221.139 34.224ZM237.625 36.2C237.625 36.733 238.054 37.162 238.574 37.162C239.107 37.162 239.523 36.733 239.523 36.2C239.523 35.68 239.107 35.251 238.574 35.251C238.054 35.251 237.625 35.68 237.625 36.2ZM237.001 36.2C237.001 35.329 237.703 34.627 238.574 34.627C239.445 34.627 240.16 35.329 240.16 36.2C240.16 37.071 239.445 37.786 238.574 37.786C237.703 37.786 237.001 37.071 237.001 36.2ZM229.162 40.581C229.487 40.295 229.734 40.061 230.072 39.723C230.696 39.099 231.827 37.656 232.646 36.681C233.335 35.862 233.946 35.719 234.83 36.564C235.623 37.305 236.741 38.475 237.495 39.281C238.379 40.217 239.679 41.621 240.68 42.7L239.783 43.649C238.86 42.531 237.716 41.192 236.871 40.243C236.117 39.398 234.921 38.111 234.375 37.565C233.868 37.084 233.621 37.123 233.179 37.669C232.555 38.423 231.463 39.853 230.878 40.568C230.605 40.906 230.332 41.309 230.124 41.569L229.162 40.581ZM243.567 38.371C243.97 38.41 244.646 38.449 245.387 38.449C246.336 38.449 251.549 38.449 252.511 38.449C253.161 38.449 253.616 38.397 253.915 38.371V39.645C253.642 39.632 253.096 39.593 252.524 39.593C251.536 39.593 246.349 39.593 245.387 39.593C244.672 39.593 243.983 39.619 243.567 39.645V38.371ZM76.1504 52.302C76.4754 52.783 77.0604 53.706 77.3594 54.33L76.6184 54.668C76.2934 53.979 75.8514 53.199 75.4224 52.614L76.1504 52.302ZM77.8404 51.678C78.1914 52.133 78.7764 53.069 79.0884 53.667L78.3474 54.005C78.0094 53.329 77.5544 52.575 77.1254 52.003L77.8404 51.678ZM70.5864 52.107C71.3534 52.536 72.8484 53.537 73.4204 53.953L72.7964 54.837C72.1854 54.369 70.7684 53.42 70.0014 52.991L70.5864 52.107ZM68.6364 61.402C70.0664 61.155 71.6784 60.648 73.0044 59.894C75.1624 58.659 76.8654 56.969 77.9184 55.136L78.5554 56.202C77.4244 57.944 75.6304 59.634 73.5504 60.843C72.2374 61.61 70.4434 62.221 69.2474 62.468L68.6364 61.402ZM68.6364 55.032C69.4034 55.448 70.9244 56.384 71.4834 56.787L70.8854 57.697C70.2484 57.242 68.8444 56.332 68.0514 55.929L68.6364 55.032ZM83.6014 62.728C82.7564 61.701 81.6384 60.596 80.7154 59.842L81.5604 59.101C82.4964 59.855 83.6664 61.025 84.4854 61.974L83.6014 62.728ZM103.601 51.873C103.926 52.341 104.394 53.134 104.667 53.654L103.952 53.966C103.705 53.446 103.263 52.666 102.912 52.172L103.601 51.873ZM105.031 51.353C105.369 51.834 105.876 52.64 106.11 53.121L105.421 53.433C105.135 52.874 104.706 52.133 104.342 51.652L105.031 51.353ZM96.4769 58.1C97.0489 56.748 97.5819 54.772 97.7639 53.277L98.9209 53.511C98.8299 53.797 98.7389 54.187 98.6739 54.46C98.5049 55.266 98.0499 57.19 97.5039 58.529C97.0229 59.712 96.3079 61.051 95.5799 62.104L94.4749 61.636C95.2939 60.544 96.0349 59.179 96.4769 58.1ZM102.886 57.606C102.366 56.267 101.56 54.46 101.001 53.485L102.054 53.134C102.561 54.083 103.393 55.877 103.952 57.242C104.472 58.529 105.161 60.518 105.512 61.701L104.355 62.065C104.03 60.752 103.419 58.984 102.886 57.606ZM113.564 53.238C113.564 52.835 113.512 52.211 113.434 51.938H114.734C114.695 52.211 114.643 52.861 114.643 53.238C114.643 53.979 114.643 55.188 114.643 55.981C114.643 58.854 113.694 60.973 111.042 62.494L110.028 61.753C112.498 60.583 113.564 58.659 113.564 55.981C113.564 55.201 113.564 53.979 113.564 53.238ZM108.52 54.915C108.78 54.954 109.261 54.98 109.729 54.98C110.366 54.98 117.477 54.98 118.101 54.98C118.543 54.98 119.037 54.954 119.232 54.928V56.033C119.037 56.02 118.491 56.007 118.088 56.007C117.477 56.007 110.366 56.007 109.755 56.007C109.261 56.007 108.793 56.02 108.52 56.046V54.915ZM122.176 56.371C122.579 56.41 123.255 56.449 123.996 56.449C124.945 56.449 130.158 56.449 131.12 56.449C131.77 56.449 132.225 56.397 132.524 56.371V57.645C132.251 57.632 131.705 57.593 131.133 57.593C130.145 57.593 124.958 57.593 123.996 57.593C123.281 57.593 122.592 57.619 122.176 57.645V56.371ZM141.786 53.134C141.617 54.486 141.357 56.007 140.954 57.398C140.161 60.063 139.121 61.441 137.925 61.441C136.755 61.441 135.598 60.115 135.598 57.957C135.598 55.136 138.107 52.679 141.292 52.679C144.334 52.679 146.271 54.824 146.271 57.463C146.271 60.18 144.477 62 141.383 62.403L140.785 61.441C141.201 61.402 141.591 61.35 141.903 61.285C143.567 60.908 145.205 59.66 145.205 57.411C145.205 55.331 143.762 53.615 141.266 53.615C138.406 53.615 136.625 55.968 136.625 57.879C136.625 59.517 137.366 60.245 137.951 60.245C138.562 60.245 139.264 59.361 139.927 57.164C140.304 55.929 140.577 54.46 140.707 53.108L141.786 53.134ZM150.293 53.095C150.735 53.134 151.294 53.173 151.723 53.173H158.119C158.444 53.173 158.821 53.16 159.081 53.147C159.068 53.433 159.055 53.849 159.055 54.148V60.869C159.055 61.337 159.094 61.922 159.107 62.117H157.937C157.937 61.922 157.963 61.441 157.963 60.973V54.2H151.723C151.242 54.2 150.605 54.226 150.293 54.252V53.095ZM150.137 60.271C150.462 60.297 151.034 60.336 151.567 60.336H158.548V61.402H151.606C151.073 61.402 150.488 61.415 150.137 61.454V60.271ZM164.625 52.484C165.535 53.095 167.212 54.447 167.927 55.162L167.121 55.994C166.458 55.318 164.846 53.914 163.871 53.277L164.625 52.484ZM163.507 61.194C165.769 60.856 167.459 60.063 168.694 59.296C170.709 58.035 172.282 56.111 173.036 54.499L173.66 55.617C172.776 57.229 171.268 58.997 169.305 60.232C167.992 61.051 166.354 61.857 164.183 62.26L163.507 61.194ZM178.059 52.393C178.436 52.432 178.813 52.458 179.242 52.458C179.996 52.458 183.779 52.458 184.507 52.458C184.871 52.458 185.339 52.432 185.716 52.393V53.472C185.326 53.446 184.871 53.42 184.507 53.42C183.779 53.42 179.996 53.42 179.255 53.42C178.826 53.42 178.397 53.446 178.059 53.472V52.393ZM176.512 55.656C176.863 55.695 177.24 55.708 177.643 55.708C178.397 55.708 185.456 55.708 186.145 55.708C186.418 55.708 186.847 55.695 187.172 55.656V56.722C186.873 56.709 186.47 56.696 186.145 56.696C185.456 56.696 178.397 56.696 177.643 56.696C177.253 56.696 176.863 56.709 176.512 56.735V55.656ZM182.635 56.176C182.635 57.814 182.427 59.166 181.842 60.258C181.374 61.129 180.386 62.052 179.294 62.624L178.332 61.922C179.333 61.493 180.269 60.752 180.776 59.92C181.426 58.893 181.53 57.619 181.543 56.189L182.635 56.176ZM191.832 52.484C192.742 53.095 194.419 54.447 195.134 55.162L194.328 55.994C193.665 55.318 192.053 53.914 191.078 53.277L191.832 52.484ZM190.714 61.194C192.976 60.856 194.666 60.063 195.901 59.296C197.916 58.035 199.489 56.111 200.243 54.499L200.867 55.617C199.983 57.229 198.475 58.997 196.512 60.232C195.199 61.051 193.561 61.857 191.39 62.26L190.714 61.194ZM208.399 52.237C208.685 52.848 209.478 54.915 209.699 55.643L208.685 55.994C208.464 55.253 207.736 53.251 207.411 52.562L208.399 52.237ZM214.184 53.069C214.093 53.277 214.002 53.602 213.95 53.797C213.547 55.422 212.858 57.268 211.779 58.672C210.44 60.44 208.529 61.779 206.683 62.429L205.799 61.532C207.645 60.986 209.582 59.738 210.895 58.074C211.922 56.761 212.728 54.681 212.975 52.718L214.184 53.069ZM204.772 53.017C205.123 53.745 205.929 55.721 206.241 56.579L205.201 56.956C204.954 56.15 204.057 53.953 203.758 53.381L204.772 53.017ZM217.102 53.446C217.596 53.433 218.012 53.407 218.272 53.381C219.104 53.29 221.561 53.056 223.953 52.848C225.383 52.731 226.592 52.653 227.463 52.627L227.476 53.667C226.722 53.654 225.591 53.68 224.928 53.862C223.069 54.46 221.938 56.449 221.938 57.983C221.938 60.518 224.317 61.337 226.423 61.415L226.046 62.481C223.641 62.39 220.911 61.116 220.911 58.204C220.911 56.189 222.146 54.525 223.329 53.823C221.938 53.966 218.623 54.291 217.219 54.59L217.102 53.446ZM225.591 55.253C225.89 55.682 226.384 56.488 226.67 57.073L225.994 57.372C225.695 56.748 225.331 56.085 224.941 55.539L225.591 55.253ZM227.008 54.707C227.333 55.136 227.84 55.929 228.139 56.501L227.476 56.826C227.164 56.202 226.774 55.552 226.371 55.006L227.008 54.707ZM237.842 51.704C237.816 51.86 237.777 52.367 237.777 52.523C237.738 53.368 237.764 55.877 237.777 56.917L236.789 56.41C236.789 55.838 236.776 53.251 236.737 52.536C236.711 52.185 236.672 51.821 236.646 51.704H237.842ZM230.926 53.524C232.694 53.498 235.944 53.381 237.946 53.381C239.532 53.381 241.144 53.381 241.755 53.394L241.742 54.356C241.014 54.317 239.844 54.291 237.933 54.291C235.697 54.291 232.915 54.382 230.952 54.525L230.926 53.524ZM237.751 57.294C237.751 59.036 236.945 59.907 235.762 59.907C234.67 59.907 233.617 59.14 233.617 57.723C233.617 56.436 234.683 55.474 235.918 55.474C237.426 55.474 238.193 56.592 238.193 58.087C238.193 59.855 237.335 61.805 234.319 62.702L233.448 61.857C235.814 61.298 237.192 60.141 237.192 57.996C237.192 56.826 236.62 56.332 235.918 56.332C235.229 56.332 234.592 56.865 234.592 57.71C234.592 58.529 235.203 58.997 235.918 58.997C236.724 58.997 237.244 58.321 237.036 56.93L237.751 57.294ZM244.522 58.841C245.614 58.841 246.498 59.725 246.498 60.817C246.498 61.909 245.614 62.793 244.522 62.793C243.43 62.793 242.533 61.909 242.533 60.817C242.533 59.725 243.43 58.841 244.522 58.841ZM244.522 62.13C245.25 62.13 245.835 61.545 245.835 60.817C245.835 60.089 245.25 59.504 244.522 59.504C243.794 59.504 243.196 60.089 243.196 60.817C243.196 61.545 243.794 62.13 244.522 62.13ZM73.6934 73.526C73.6934 74.306 73.4377 74.9343 72.9264 75.411C72.4151 75.8877 71.6481 76.126 70.6254 76.126H68.7924V80H67.8824V70.913H70.6254C71.6394 70.913 72.4021 71.1513 72.9134 71.628C73.4334 72.1047 73.6934 72.7373 73.6934 73.526ZM70.6254 75.346C72.0467 75.346 72.7574 74.7393 72.7574 73.526C72.7574 72.9193 72.5884 72.46 72.2504 72.148C71.9124 71.836 71.3707 71.68 70.6254 71.68H68.7924V75.346H70.6254ZM73.8943 75.45C73.8943 74.5573 74.0893 73.76 74.4793 73.058C74.8693 72.3473 75.4023 71.797 76.0783 71.407C76.7543 71.0083 77.5083 70.809 78.3403 70.809C79.3543 70.809 80.221 71.0517 80.9403 71.537C81.6683 72.0137 82.197 72.6897 82.5263 73.565H81.4603C81.2003 72.9497 80.8016 72.4687 80.2643 72.122C79.7356 71.7753 79.0943 71.602 78.3403 71.602C77.673 71.602 77.0706 71.758 76.5333 72.07C76.0046 72.382 75.5886 72.8327 75.2853 73.422C74.982 74.0027 74.8303 74.6787 74.8303 75.45C74.8303 76.2213 74.982 76.8973 75.2853 77.478C75.5886 78.0587 76.0046 78.505 76.5333 78.817C77.0706 79.129 77.673 79.285 78.3403 79.285C79.0943 79.285 79.7356 79.116 80.2643 78.778C80.8016 78.4313 81.2003 77.9547 81.4603 77.348H82.5263C82.197 78.2147 81.6683 78.8863 80.9403 79.363C80.2123 79.8397 79.3456 80.078 78.3403 80.078C77.5083 80.078 76.7543 79.883 76.0783 79.493C75.4023 79.0943 74.8693 78.544 74.4793 77.842C74.0893 77.14 73.8943 76.3427 73.8943 75.45ZM85.9386 80.728C85.0936 79.701 83.9756 78.596 83.0526 77.842L83.8976 77.101C84.8336 77.855 86.0036 79.025 86.8226 79.974L85.9386 80.728ZM105.085 71.316C105.007 71.42 104.838 71.706 104.773 71.875C104.253 73.162 103.265 74.982 102.186 76.178C100.73 77.803 98.8706 79.35 96.8166 80.286L95.9846 79.415C98.0906 78.609 100.002 77.049 101.341 75.567C102.225 74.566 103.174 73.019 103.512 71.94C103.044 71.94 98.8836 71.94 98.4416 71.94C97.9736 71.94 97.2716 71.992 97.1286 72.005V70.835C97.2976 70.861 98.0386 70.913 98.4416 70.913C98.9486 70.913 102.966 70.913 103.46 70.913C103.876 70.913 104.227 70.874 104.435 70.809L105.085 71.316ZM102.355 75.502C103.759 76.672 105.488 78.492 106.372 79.571L105.475 80.364C104.539 79.129 103.018 77.465 101.614 76.23L102.355 75.502ZM118.676 71.758C118.546 71.901 118.429 72.044 118.351 72.161C117.376 73.76 115.582 76.048 113.281 77.712L112.475 76.984C114.555 75.541 116.232 73.435 116.921 72.2C115.751 72.2 110.018 72.2 109.277 72.2C108.757 72.2 108.198 72.239 107.951 72.265V71.108C108.302 71.16 108.822 71.199 109.277 71.199C109.94 71.199 115.725 71.199 117.025 71.199C117.376 71.199 117.675 71.173 117.857 71.108L118.676 71.758ZM112.553 77.933C111.773 77.153 110.278 75.866 109.589 75.372L110.421 74.696C111.019 75.125 112.527 76.36 113.463 77.27C114.282 78.089 115.296 79.155 115.855 79.831L114.906 80.585C114.425 79.922 113.385 78.778 112.553 77.933ZM126.213 69.808C126.187 69.99 126.135 70.458 126.135 70.744C126.135 71.433 126.135 72.525 126.135 73.149C126.135 74.215 126.135 78.427 126.135 79.35C126.135 80.039 125.81 80.39 125.03 80.39C124.471 80.39 123.704 80.351 123.171 80.299L123.08 79.259C123.652 79.363 124.237 79.415 124.588 79.415C124.939 79.415 125.082 79.259 125.095 78.921C125.095 78.206 125.095 73.773 125.095 73.149C125.095 72.707 125.095 71.42 125.095 70.731C125.095 70.458 125.043 70.003 125.004 69.808H126.213ZM120.376 72.005C120.74 72.044 121.065 72.07 121.481 72.07C122.248 72.07 128.813 72.07 129.58 72.07C129.879 72.07 130.321 72.057 130.633 72.005V73.084C130.295 73.058 129.905 73.058 129.593 73.058C128.813 73.058 122.274 73.058 121.481 73.058C121.091 73.058 120.714 73.071 120.376 73.097V72.005ZM123.366 75.06C122.807 76.178 121.598 77.829 120.857 78.635L119.973 78.024C120.831 77.218 121.949 75.671 122.456 74.618L123.366 75.06ZM128.8 74.631C129.489 75.463 130.529 77.088 131.049 78.024L130.087 78.557C129.567 77.543 128.592 75.918 127.916 75.099L128.8 74.631ZM134.777 80.728C133.932 79.701 132.814 78.596 131.891 77.842L132.736 77.101C133.672 77.855 134.842 79.025 135.661 79.974L134.777 80.728ZM148.931 74.046C150.595 75.021 152.727 76.516 154.014 77.556L153.247 78.466C152.051 77.374 149.828 75.775 148.216 74.774L148.931 74.046ZM154.872 71.68C154.768 71.862 154.638 72.161 154.573 72.369C154.183 73.695 153.364 75.424 152.22 76.828C151.037 78.284 149.347 79.675 146.877 80.585L145.954 79.766C148.372 79.038 150.14 77.66 151.31 76.269C152.311 75.073 153.13 73.422 153.429 72.213H148.619L149.035 71.277H153.169C153.52 71.277 153.806 71.238 154.014 71.16L154.872 71.68ZM150.491 69.795C150.27 70.133 150.036 70.575 149.906 70.822C149.139 72.252 147.67 74.215 145.59 75.645L144.732 74.982C146.955 73.591 148.294 71.641 148.892 70.445C149.022 70.224 149.23 69.756 149.308 69.418L150.491 69.795ZM165.659 69.197C165.971 69.652 166.439 70.419 166.699 70.913L165.971 71.238C165.711 70.705 165.269 69.964 164.944 69.496L165.659 69.197ZM167.336 68.872C167.648 69.314 168.129 70.081 168.402 70.588L167.674 70.9C167.388 70.367 166.972 69.613 166.621 69.171L167.336 68.872ZM166.829 71.537C166.751 71.719 166.686 71.94 166.634 72.187C166.361 73.552 165.724 75.658 164.697 76.984C163.514 78.518 161.967 79.714 159.588 80.468L158.704 79.493C161.213 78.856 162.682 77.751 163.761 76.36C164.684 75.19 165.295 73.37 165.464 72.122C164.723 72.122 159.562 72.122 158.821 72.122C158.301 72.122 157.859 72.148 157.521 72.174V71.017C157.885 71.056 158.392 71.108 158.821 71.108C159.562 71.108 164.749 71.108 165.347 71.108C165.542 71.108 165.802 71.095 166.036 71.03L166.829 71.537ZM171.038 79.597C171.129 79.389 171.155 79.207 171.155 78.96C171.155 78.141 171.155 72.759 171.155 71.524C171.155 71.173 171.103 70.588 171.051 70.341H172.325C172.286 70.653 172.234 71.147 172.234 71.511C172.234 72.746 172.234 78.232 172.234 78.895C174.73 78.258 177.733 76.555 179.358 74.462L179.943 75.372C178.253 77.465 175.575 79.064 172.325 80.013C172.195 80.052 171.987 80.117 171.779 80.234L171.038 79.597ZM186.739 72.525C186.96 73.045 187.597 74.761 187.753 75.32L186.791 75.671C186.648 75.073 186.05 73.422 185.777 72.85L186.739 72.525ZM191.445 73.253C191.354 73.513 191.289 73.721 191.237 73.89C190.899 75.32 190.327 76.724 189.404 77.894C188.195 79.415 186.609 80.429 185.166 80.975L184.308 80.104C185.803 79.662 187.467 78.674 188.533 77.348C189.456 76.217 190.119 74.553 190.327 72.889L191.445 73.253ZM183.71 73.175C183.97 73.721 184.659 75.424 184.893 76.113L183.918 76.477C183.71 75.801 183.008 73.994 182.748 73.539L183.71 73.175ZM197.136 78.856C197.136 78.128 197.136 72.382 197.136 71.303C197.136 70.926 197.11 70.354 197.045 69.938H198.319C198.267 70.341 198.228 70.9 198.228 71.303C198.228 73.318 198.241 78.245 198.241 78.856C198.241 79.272 198.267 79.974 198.319 80.403H197.058C197.123 79.987 197.136 79.337 197.136 78.856ZM197.994 73.357C199.71 73.851 202.336 74.852 203.779 75.554L203.324 76.659C201.842 75.866 199.411 74.943 197.994 74.501V73.357ZM206.324 71.81C206.805 71.862 207.364 71.888 207.923 71.888C209.327 71.888 210.965 71.719 212.46 71.225L212.486 72.187C211.212 72.538 209.509 72.824 207.923 72.811C207.442 72.811 206.883 72.798 206.402 72.785L206.324 71.81ZM210.939 69.691C210.77 70.328 210.497 71.55 210.185 72.473C209.561 74.345 208.365 76.711 207.286 78.167L206.285 77.647C207.442 76.295 208.651 73.981 209.184 72.447C209.47 71.628 209.756 70.484 209.795 69.574L210.939 69.691ZM214.007 73.708C213.968 74.241 213.968 74.631 213.981 75.099C214.007 75.944 214.124 77.92 214.124 78.778C214.124 79.818 213.461 80.663 211.849 80.663C210.419 80.663 209.262 80.091 209.262 78.791C209.262 77.595 210.393 76.841 211.849 76.841C214.033 76.841 215.71 77.933 216.776 78.856L216.23 79.74C215.229 78.83 213.734 77.673 211.823 77.673C210.861 77.673 210.211 78.115 210.211 78.713C210.211 79.311 210.718 79.727 211.732 79.727C212.811 79.727 213.175 79.155 213.175 78.453C213.175 77.465 213.032 75.138 212.98 73.708H214.007ZM216.607 74.046C215.905 73.448 214.488 72.655 213.63 72.252L214.15 71.472C215.099 71.875 216.568 72.72 217.192 73.188L216.607 74.046ZM227.264 72.59C226.965 72.772 226.64 72.941 226.263 73.136C225.379 73.591 223.936 74.267 222.662 75.112C221.453 75.905 220.725 76.763 220.725 77.738C220.725 78.817 221.752 79.493 223.806 79.493C225.223 79.493 226.965 79.311 227.979 79.051L227.966 80.221C226.991 80.39 225.483 80.533 223.858 80.533C221.414 80.533 219.646 79.805 219.646 77.855C219.646 76.451 220.595 75.346 222.116 74.332C223.442 73.448 224.963 72.733 225.808 72.265C226.185 72.044 226.471 71.875 226.744 71.641L227.264 72.59ZM221.037 70.055C221.635 71.719 222.428 73.344 223.039 74.384L222.142 74.93C221.492 73.864 220.712 72.109 220.01 70.497L221.037 70.055ZM227.485 69.925C227.81 70.406 228.278 71.186 228.538 71.719L227.836 72.044C227.576 71.511 227.147 70.718 226.783 70.224L227.485 69.925ZM228.915 69.405C229.253 69.886 229.76 70.705 230.007 71.186L229.305 71.498C229.019 70.939 228.603 70.185 228.226 69.704L228.915 69.405ZM234.593 73.799H242.146V74.683H234.593V73.799ZM237.024 76.23H237.804V80.897H237.024V76.23ZM239 76.23H239.793V80.871H239V76.23ZM237.856 69.106H238.792V72.46H237.856V69.106ZM234.996 75.892H241.47V76.737H235.88V81.027H234.996V75.892ZM240.989 75.892H241.873V80.13C241.873 80.546 241.808 80.78 241.548 80.897C241.262 81.053 240.898 81.053 240.313 81.053C240.274 80.819 240.157 80.494 240.04 80.273C240.417 80.286 240.742 80.286 240.846 80.273C240.95 80.273 240.989 80.234 240.989 80.117V75.892ZM237.856 74.085L238.974 74.319C238.727 75.06 238.493 75.892 238.285 76.425L237.453 76.204C237.609 75.606 237.778 74.696 237.856 74.085ZM235.152 69.743H236.062V71.966H240.768V69.743H241.704V72.824H235.152V69.743ZM230.355 71.693H234.463V72.59H230.355V71.693ZM231.993 69.249H232.877V72.135H231.993V69.249ZM230.108 78.388C231.291 78.167 233.02 77.777 234.697 77.413L234.788 78.258C233.228 78.661 231.59 79.051 230.342 79.35L230.108 78.388ZM230.641 73.227L231.395 73.097C231.694 74.436 231.915 76.152 231.928 77.296L231.122 77.426C231.122 76.282 230.914 74.553 230.641 73.227ZM233.241 72.98L234.164 73.175C233.917 74.696 233.566 76.711 233.254 77.92L232.526 77.725C232.812 76.503 233.124 74.423 233.241 72.98ZM242.806 71.277H254.233V72.239H242.806V71.277ZM243.469 74.527H253.557V75.476H243.469V74.527ZM247.967 69.08H248.981V81.027H247.967V69.08ZM247.707 74.995L248.487 75.333C247.278 77.374 245.146 79.298 243.183 80.312C243.001 80.052 242.689 79.675 242.455 79.467C244.431 78.609 246.589 76.815 247.707 74.995ZM249.241 74.956C250.372 76.75 252.569 78.57 254.558 79.415C254.324 79.623 253.999 80.013 253.83 80.273C251.854 79.272 249.696 77.283 248.461 75.281L249.241 74.956ZM72.7574 90.225C74.1744 90.472 76.8134 90.42 78.1004 90.225V91.278C76.7094 91.434 74.1874 91.434 72.7704 91.278L72.7574 90.225ZM73.2644 95.529C73.1474 95.997 73.0824 96.361 73.0824 96.712C73.0824 97.31 73.4984 97.895 75.2794 97.895C76.4364 97.895 77.4504 97.791 78.4904 97.544L78.5164 98.636C77.7104 98.805 76.6184 98.909 75.2664 98.909C73.0954 98.909 72.1204 98.181 72.1204 96.959C72.1204 96.53 72.1854 96.062 72.3284 95.438L73.2644 95.529ZM70.2874 89.224C70.2094 89.445 70.1054 89.861 70.0534 90.095C69.8064 91.304 69.4034 93.618 69.4034 95.087C69.4034 95.711 69.4424 96.257 69.5204 96.894C69.7414 96.309 70.0404 95.529 70.2614 94.996L70.8074 95.425C70.4824 96.348 70.0014 97.713 69.8844 98.337C69.8454 98.519 69.8194 98.766 69.8194 98.922C69.8324 99.052 69.8454 99.234 69.8584 99.377L68.9354 99.442C68.6754 98.519 68.4544 97.024 68.4544 95.256C68.4544 93.345 68.8834 91.122 69.0394 90.043C69.0784 89.744 69.1174 89.419 69.1304 89.133L70.2874 89.224ZM82.1564 92.331H88.7214V93.202H82.1564V92.331ZM81.9224 98.649H88.8904V99.52H81.9224V98.649ZM81.4804 94.84H89.4364V100.053H88.4484V95.724H82.4294V100.053H81.4804V94.84ZM85.3934 89.081C84.3274 90.667 82.1954 92.513 79.9724 93.722C79.8424 93.501 79.5824 93.15 79.3614 92.942C81.6494 91.785 83.8204 89.796 84.8474 88.119H85.8354C87.2394 90.056 89.5144 91.863 91.5944 92.786C91.3474 93.02 91.1134 93.358 90.9444 93.644C88.9034 92.578 86.6154 90.745 85.3934 89.081ZM97.8864 98.077C100.083 97.752 102.059 96.738 102.046 94.502C102.046 93.501 101.253 92.175 99.5244 92.175C97.8604 92.175 96.3654 93.098 95.1044 94.411V93.254C96.6644 91.785 98.3154 91.239 99.6804 91.239C101.487 91.239 103.086 92.5 103.086 94.515C103.099 97.141 101.188 98.506 98.3544 99.052L97.8864 98.077ZM94.9484 91.811C94.5324 91.863 93.1154 92.045 92.1534 92.188L92.0364 91.109C92.3224 91.122 92.5694 91.122 92.8944 91.096C93.5834 91.057 95.1954 90.862 95.8064 90.667L96.1834 91.109C95.9624 91.447 95.6114 92.006 95.3904 92.37L95.0004 94.151C94.4024 95.074 93.1934 96.829 92.3744 97.96L91.7244 97.076C92.5304 96.062 94.2854 93.67 94.7924 92.812L94.8444 92.149L94.9484 91.811ZM94.8184 89.653C94.8184 89.354 94.8314 89.016 94.7664 88.691L96.0014 88.73C95.8194 89.575 95.4164 93.293 95.4164 95.581C95.4164 96.764 95.4164 97.557 95.4684 98.714C95.4814 98.935 95.5204 99.26 95.5334 99.507H94.4154C94.4284 99.325 94.4544 98.948 94.4544 98.74C94.4544 97.479 94.4674 96.829 94.4804 95.399C94.5064 94.255 94.8184 90.134 94.8184 89.653ZM112.719 88.977C112.693 89.198 112.667 89.64 112.667 89.926C112.654 90.732 112.654 91.642 112.628 92.305C112.602 93.306 112.563 94.71 112.433 95.386C112.316 95.971 112.017 96.14 111.432 96.14C110.951 96.14 110.054 96.023 109.716 95.958L109.729 95.048C110.184 95.152 110.73 95.217 111.029 95.217C111.354 95.217 111.484 95.165 111.536 94.866C111.614 94.372 111.666 93.241 111.679 92.318C111.692 91.59 111.692 90.68 111.692 89.965C111.692 89.666 111.653 89.211 111.614 88.977H112.719ZM107.584 89.393C107.545 89.692 107.532 90.043 107.532 90.446C107.519 91.85 107.48 95.425 107.506 96.322C107.558 97.726 107.571 98.22 109.82 98.22C111.237 98.22 112.849 98.077 113.694 97.921L113.655 99.013C112.784 99.104 111.198 99.234 109.872 99.234C106.869 99.234 106.583 98.532 106.531 96.465C106.505 95.373 106.518 91.083 106.518 90.485C106.518 90.095 106.505 89.783 106.44 89.393H107.584ZM103.697 92.5C104.1 92.5 104.581 92.474 105.049 92.422C106.453 92.305 111.406 91.785 114.071 91.642C114.409 91.629 114.786 91.603 115.085 91.577V92.604C114.89 92.591 114.396 92.604 114.071 92.604C111.991 92.643 106.765 93.189 105.114 93.384C104.724 93.436 104.165 93.514 103.801 93.566L103.697 92.5ZM116.294 90.368C116.788 90.355 117.204 90.329 117.464 90.303C118.309 90.212 120.753 89.978 123.158 89.77C124.575 89.653 125.784 89.575 126.655 89.549L126.668 90.589C125.914 90.576 124.783 90.602 124.12 90.784C122.261 91.382 121.13 93.371 121.13 94.905C121.13 97.44 123.509 98.246 125.615 98.337L125.251 99.403C122.833 99.312 120.103 98.038 120.103 95.126C120.103 93.098 121.338 91.447 122.534 90.745C121.13 90.888 117.828 91.213 116.411 91.512L116.294 90.368ZM136.08 89.276H136.99V96.478H136.08V89.276ZM138.394 88.223H139.343V98.688C139.343 99.338 139.187 99.624 138.784 99.806C138.394 99.975 137.679 100.001 136.717 100.001C136.665 99.715 136.522 99.273 136.392 98.961C137.159 98.987 137.887 98.987 138.121 98.987C138.329 98.974 138.394 98.922 138.394 98.701V88.223ZM131.049 88.132H131.972V100.04H131.049V88.132ZM133.779 94.437H134.676V98.012C134.676 98.454 134.611 98.701 134.286 98.857C133.974 99.013 133.48 99.026 132.752 99.013C132.726 98.766 132.609 98.415 132.479 98.168C133.038 98.181 133.454 98.181 133.61 98.168C133.74 98.168 133.779 98.129 133.779 97.999V94.437ZM128.462 94.437H134.143V95.321H129.346V98.974H128.462V94.437ZM127.864 92.227H135.144V93.124H127.864V92.227ZM129.125 89.965H134.624V90.862H128.943L129.125 89.965ZM129.138 88.392L130.048 88.574C129.736 89.926 129.229 91.304 128.683 92.188C128.488 92.084 128.059 91.915 127.825 91.837C128.41 90.953 128.865 89.653 129.138 88.392ZM145.713 90.264H151.875V91.2H145.258L145.713 90.264ZM147.338 93.085H151.576V93.982H147.338V93.085ZM147.325 95.945H151.758V96.868H147.325V95.945ZM146.844 90.563H147.845V100.04H146.844V90.563ZM146.207 88.236L147.156 88.483C146.415 90.55 145.284 92.591 144.088 93.93C143.945 93.761 143.555 93.41 143.334 93.254C144.517 92.045 145.57 90.147 146.207 88.236ZM143.087 88.132L144.023 88.431C143.165 90.628 141.826 92.851 140.409 94.307C140.318 94.073 140.019 93.553 139.837 93.319C141.137 92.058 142.346 90.108 143.087 88.132ZM141.696 91.486L142.658 90.511L142.684 90.524V100.027H141.696V91.486ZM154.371 89.939C154.306 90.238 154.267 90.862 154.254 91.2C154.241 92.006 154.254 93.202 154.345 94.268C154.566 96.439 155.19 97.882 156.126 97.882C156.789 97.882 157.4 96.543 157.738 95.243L158.557 96.166C157.764 98.363 156.984 99.117 156.1 99.117C154.865 99.117 153.695 97.895 153.331 94.528C153.214 93.41 153.188 91.824 153.188 91.07C153.188 90.771 153.188 90.212 153.11 89.913L154.371 89.939ZM161.131 90.29C162.301 91.798 163.237 94.567 163.432 96.764L162.379 97.18C162.158 94.84 161.365 92.162 160.13 90.641L161.131 90.29ZM169.308 88.782C169.23 89.068 169.139 89.562 169.087 89.809C168.892 90.745 168.619 92.214 168.255 93.514C167.787 95.36 166.916 98.051 166.227 99.468L165.096 99.091C165.876 97.739 166.786 95.1 167.28 93.267C167.592 92.071 167.93 90.433 168.021 89.757C168.073 89.393 168.099 88.951 168.073 88.678L169.308 88.782ZM166.435 90.953C167.865 90.953 169.776 90.719 171.388 90.316V91.33C169.776 91.694 167.813 91.915 166.409 91.915C165.837 91.915 165.382 91.902 164.901 91.863L164.875 90.849C165.486 90.927 165.954 90.953 166.435 90.953ZM170.543 92.734C171.219 92.669 172.09 92.63 172.922 92.63C173.676 92.63 174.469 92.656 175.171 92.734L175.145 93.722C174.469 93.644 173.715 93.566 172.948 93.566C172.142 93.566 171.336 93.618 170.543 93.709V92.734ZM170.803 95.893C170.699 96.322 170.621 96.725 170.621 97.063C170.621 97.674 170.972 98.272 172.818 98.272C173.676 98.272 174.56 98.181 175.366 98.025L175.327 99.065C174.625 99.169 173.754 99.247 172.805 99.247C170.764 99.247 169.646 98.623 169.646 97.336C169.646 96.842 169.724 96.348 169.841 95.802L170.803 95.893ZM180.072 88.873C180.007 89.302 179.968 89.757 179.942 90.186C179.89 91.655 179.786 94.736 179.786 96.673C179.786 98.103 180.683 98.597 181.918 98.597C184.297 98.597 185.649 97.271 186.585 95.919L187.313 96.803C186.429 98.038 184.739 99.663 181.892 99.663C180.02 99.663 178.733 98.896 178.733 96.764C178.733 94.84 178.863 91.551 178.863 90.186C178.863 89.705 178.824 89.25 178.746 88.873H180.072ZM195.178 88.691C195.152 88.912 195.126 89.172 195.113 89.562C195.087 90.082 195.087 91.824 195.087 92.916C195.087 94.632 195.282 96.907 195.282 97.778C195.282 98.688 194.684 99.611 192.994 99.611C191.122 99.611 190.095 98.948 190.095 97.687C190.095 96.504 191.226 95.711 193.098 95.711C195.841 95.711 197.986 97.193 198.987 98.012L198.389 98.935C197.219 97.856 195.295 96.556 192.981 96.556C191.733 96.556 191.07 97.037 191.07 97.635C191.07 98.246 191.577 98.688 192.864 98.688C193.618 98.688 194.255 98.467 194.255 97.557C194.255 96.556 194.125 94.06 194.125 92.916C194.125 91.746 194.125 90.381 194.125 89.471C194.125 89.25 194.112 88.86 194.073 88.691H195.178ZM190.212 90.095C191.044 90.251 192.669 90.381 193.527 90.381C195.178 90.381 196.92 90.264 198.61 89.991V90.94C197.141 91.109 195.282 91.278 193.54 91.278C192.643 91.278 191.044 91.161 190.225 91.057L190.212 90.095ZM190.147 92.864C191.07 93.007 192.552 93.098 193.41 93.098C195.295 93.098 197.024 92.968 198.714 92.721V93.696C196.946 93.917 195.36 94.008 193.41 94.008C192.513 94.008 191.083 93.943 190.16 93.839L190.147 92.864ZM207.983 88.704C207.957 88.86 207.918 89.367 207.918 89.523C207.879 90.368 207.905 92.877 207.918 93.917L206.93 93.41C206.93 92.838 206.917 90.251 206.878 89.536C206.852 89.185 206.813 88.821 206.787 88.704H207.983ZM201.067 90.524C202.835 90.498 206.085 90.381 208.087 90.381C209.673 90.381 211.285 90.381 211.896 90.394L211.883 91.356C211.155 91.317 209.985 91.291 208.074 91.291C205.838 91.291 203.056 91.382 201.093 91.525L201.067 90.524ZM207.892 94.294C207.892 96.036 207.086 96.907 205.903 96.907C204.811 96.907 203.758 96.14 203.758 94.723C203.758 93.436 204.824 92.474 206.059 92.474C207.567 92.474 208.334 93.592 208.334 95.087C208.334 96.855 207.476 98.805 204.46 99.702L203.589 98.857C205.955 98.298 207.333 97.141 207.333 94.996C207.333 93.826 206.761 93.332 206.059 93.332C205.37 93.332 204.733 93.865 204.733 94.71C204.733 95.529 205.344 95.997 206.059 95.997C206.865 95.997 207.385 95.321 207.177 93.93L207.892 94.294ZM213.149 95.841C214.241 95.841 215.125 96.725 215.125 97.817C215.125 98.909 214.241 99.793 213.149 99.793C212.057 99.793 211.16 98.909 211.16 97.817C211.16 96.725 212.057 95.841 213.149 95.841ZM213.149 99.13C213.877 99.13 214.462 98.545 214.462 97.817C214.462 97.089 213.877 96.504 213.149 96.504C212.421 96.504 211.823 97.089 211.823 97.817C211.823 98.545 212.421 99.13 213.149 99.13Z" fill="white"/>
<path d="M5.957 18L0.621 1.9L3.726 1.9L8.487 16.459H6.946L11.891 1.9L14.651 1.9L19.458 16.459H17.963L22.839 1.9L25.691 1.9L20.355 18H17.181L12.788 4.867H13.616L9.154 18H5.957ZM32.7029 18.161C31.3383 18.161 30.1423 17.8927 29.1149 17.356C28.1029 16.804 27.3133 16.0527 26.7459 15.102C26.1939 14.1513 25.9179 13.0703 25.9179 11.859C25.9179 10.6323 26.1863 9.55133 26.7229 8.616C27.2749 7.66533 28.0263 6.92167 28.9769 6.385C29.9429 5.84833 31.0393 5.58 32.2659 5.58C33.4619 5.58 34.5276 5.84067 35.4629 6.362C36.3983 6.88333 37.1343 7.61933 37.6709 8.57C38.2076 9.52067 38.4759 10.64 38.4759 11.928C38.4759 12.0507 38.4683 12.1887 38.4529 12.342C38.4529 12.4953 38.4453 12.641 38.4299 12.779H28.1949V10.87H36.9119L35.7849 11.468C35.8003 10.7627 35.6546 10.1417 35.3479 9.605C35.0413 9.06833 34.6196 8.64667 34.0829 8.34C33.5616 8.03333 32.9559 7.88 32.2659 7.88C31.5606 7.88 30.9396 8.03333 30.4029 8.34C29.8816 8.64667 29.4676 9.076 29.1609 9.628C28.8696 10.1647 28.7239 10.801 28.7239 11.537V11.997C28.7239 12.733 28.8926 13.3847 29.2299 13.952C29.5673 14.5193 30.0426 14.9563 30.6559 15.263C31.2693 15.5697 31.9746 15.723 32.7719 15.723C33.4619 15.723 34.0829 15.6157 34.6349 15.401C35.1869 15.1863 35.6776 14.849 36.1069 14.389L37.6479 16.16C37.0959 16.804 36.3983 17.3023 35.5549 17.655C34.7269 17.9923 33.7763 18.161 32.7029 18.161ZM48.0456 18.161C47.0029 18.161 46.0752 17.931 45.2626 17.471C44.4499 17.011 43.8059 16.321 43.3306 15.401C42.8706 14.4657 42.6406 13.285 42.6406 11.859C42.6406 10.4177 42.8782 9.237 43.3536 8.317C43.8442 7.397 44.4959 6.71467 45.3086 6.27C46.1366 5.81 47.0489 5.58 48.0456 5.58C49.2569 5.58 50.3226 5.84067 51.2426 6.362C52.1779 6.88333 52.9139 7.61167 53.4506 8.547C54.0026 9.48233 54.2786 10.5863 54.2786 11.859C54.2786 13.1317 54.0026 14.2357 53.4506 15.171C52.9139 16.1063 52.1779 16.8423 51.2426 17.379C50.3226 17.9003 49.2569 18.161 48.0456 18.161ZM41.2376 18V0.933999L44.1126 0.933999V8.57L43.8826 11.836L43.9746 15.102V18L41.2376 18ZM47.7236 15.7C48.4136 15.7 49.0269 15.5467 49.5636 15.24C50.1156 14.9333 50.5526 14.4887 50.8746 13.906C51.1966 13.3233 51.3576 12.641 51.3576 11.859C51.3576 11.0617 51.1966 10.3793 50.8746 9.812C50.5526 9.22933 50.1156 8.78467 49.5636 8.478C49.0269 8.17133 48.4136 8.018 47.7236 8.018C47.0336 8.018 46.4126 8.17133 45.8606 8.478C45.3086 8.78467 44.8716 9.22933 44.5496 9.812C44.2276 10.3793 44.0666 11.0617 44.0666 11.859C44.0666 12.641 44.2276 13.3233 44.5496 13.906C44.8716 14.4887 45.3086 14.9333 45.8606 15.24C46.4126 15.5467 47.0336 15.7 47.7236 15.7ZM78.8636 5.58C79.8449 5.58 80.7113 5.77167 81.4626 6.155C82.2293 6.53833 82.8273 7.12867 83.2566 7.926C83.6859 8.708 83.9006 9.72 83.9006 10.962V18H81.0256V11.33C81.0256 10.2413 80.7879 9.42867 80.3126 8.892C79.8373 8.35533 79.1549 8.087 78.2656 8.087C77.6369 8.087 77.0773 8.225 76.5866 8.501C76.1113 8.777 75.7356 9.18333 75.4596 9.72C75.1989 10.2567 75.0686 10.939 75.0686 11.767V18H72.1936V11.33C72.1936 10.2413 71.9559 9.42867 71.4806 8.892C71.0053 8.35533 70.3229 8.087 69.4336 8.087C68.8049 8.087 68.2453 8.225 67.7546 8.501C67.2793 8.777 66.9036 9.18333 66.6276 9.72C66.3669 10.2567 66.2366 10.939 66.2366 11.767V18H63.3616V5.718H66.0986V8.984L65.6156 8.018C66.0296 7.22067 66.6276 6.615 67.4096 6.201C68.2069 5.787 69.1116 5.58 70.1236 5.58C71.2736 5.58 72.2703 5.86367 73.1136 6.431C73.9723 6.99833 74.5396 7.857 74.8156 9.007L73.6886 8.616C74.0873 7.696 74.7466 6.96 75.6666 6.408C76.5866 5.856 77.6523 5.58 78.8636 5.58ZM93.3699 18.161C92.0053 18.161 90.8093 17.8927 89.7819 17.356C88.7699 16.804 87.9803 16.0527 87.4129 15.102C86.8609 14.1513 86.5849 13.0703 86.5849 11.859C86.5849 10.6323 86.8533 9.55133 87.3899 8.616C87.9419 7.66533 88.6933 6.92167 89.6439 6.385C90.6099 5.84833 91.7063 5.58 92.9329 5.58C94.1289 5.58 95.1946 5.84067 96.1299 6.362C97.0653 6.88333 97.8013 7.61933 98.3379 8.57C98.8746 9.52067 99.1429 10.64 99.1429 11.928C99.1429 12.0507 99.1353 12.1887 99.1199 12.342C99.1199 12.4953 99.1123 12.641 99.0969 12.779H88.8619V10.87H97.5789L96.4519 11.468C96.4673 10.7627 96.3216 10.1417 96.0149 9.605C95.7083 9.06833 95.2866 8.64667 94.7499 8.34C94.2286 8.03333 93.6229 7.88 92.9329 7.88C92.2276 7.88 91.6066 8.03333 91.0699 8.34C90.5486 8.64667 90.1346 9.076 89.8279 9.628C89.5366 10.1647 89.3909 10.801 89.3909 11.537V11.997C89.3909 12.733 89.5596 13.3847 89.8969 13.952C90.2343 14.5193 90.7096 14.9563 91.3229 15.263C91.9363 15.5697 92.6416 15.723 93.4389 15.723C94.1289 15.723 94.7499 15.6157 95.3019 15.401C95.8539 15.1863 96.3446 14.849 96.7739 14.389L98.3149 16.16C97.7629 16.804 97.0653 17.3023 96.2219 17.655C95.3939 17.9923 94.4433 18.161 93.3699 18.161ZM107.103 18.161C105.922 18.161 104.856 17.9003 103.906 17.379C102.97 16.8423 102.234 16.1063 101.698 15.171C101.161 14.2357 100.893 13.1317 100.893 11.859C100.893 10.5863 101.161 9.48233 101.698 8.547C102.234 7.61167 102.97 6.88333 103.906 6.362C104.856 5.84067 105.922 5.58 107.103 5.58C108.13 5.58 109.05 5.81 109.863 6.27C110.675 6.71467 111.319 7.397 111.795 8.317C112.27 9.237 112.508 10.4177 112.508 11.859C112.508 13.285 112.278 14.4657 111.818 15.401C111.358 16.321 110.721 17.011 109.909 17.471C109.096 17.931 108.161 18.161 107.103 18.161ZM107.448 15.7C108.138 15.7 108.751 15.5467 109.288 15.24C109.84 14.9333 110.277 14.4887 110.599 13.906C110.936 13.3233 111.105 12.641 111.105 11.859C111.105 11.0617 110.936 10.3793 110.599 9.812C110.277 9.22933 109.84 8.78467 109.288 8.478C108.751 8.17133 108.138 8.018 107.448 8.018C106.758 8.018 106.137 8.17133 105.585 8.478C105.048 8.78467 104.611 9.22933 104.274 9.812C103.952 10.3793 103.791 11.0617 103.791 11.859C103.791 12.641 103.952 13.3233 104.274 13.906C104.611 14.4887 105.048 14.9333 105.585 15.24C106.137 15.5467 106.758 15.7 107.448 15.7ZM111.174 18V15.102L111.289 11.836L111.059 8.57V0.933999L113.911 0.933999V18H111.174ZM117.695 18V5.718L120.57 5.718V18H117.695ZM119.144 3.694C118.607 3.694 118.162 3.52533 117.81 3.188C117.472 2.85067 117.304 2.44433 117.304 1.969C117.304 1.47833 117.472 1.072 117.81 0.749999C118.162 0.412666 118.607 0.244 119.144 0.244C119.68 0.244 120.117 0.404999 120.455 0.726999C120.807 1.03367 120.984 1.42467 120.984 1.9C120.984 2.406 120.815 2.83533 120.478 3.188C120.14 3.52533 119.696 3.694 119.144 3.694ZM131.91 18V15.516L131.749 14.987V10.64C131.749 9.79667 131.496 9.145 130.99 8.685C130.484 8.20967 129.717 7.972 128.69 7.972C128 7.972 127.318 8.07933 126.643 8.294C125.984 8.50867 125.424 8.80767 124.964 9.191L123.837 7.098C124.496 6.592 125.278 6.21633 126.183 5.971C127.103 5.71033 128.054 5.58 129.035 5.58C130.814 5.58 132.186 6.00933 133.152 6.868C134.133 7.71133 134.624 9.02233 134.624 10.801V18H131.91ZM128.046 18.161C127.126 18.161 126.321 18.0077 125.631 17.701C124.941 17.379 124.404 16.942 124.021 16.39C123.653 15.8227 123.469 15.1863 123.469 14.481C123.469 13.791 123.63 13.17 123.952 12.618C124.289 12.066 124.834 11.629 125.585 11.307C126.336 10.985 127.333 10.824 128.575 10.824H132.14V12.733H128.782C127.801 12.733 127.141 12.894 126.804 13.216C126.467 13.5227 126.298 13.906 126.298 14.366C126.298 14.8873 126.505 15.3013 126.919 15.608C127.333 15.9147 127.908 16.068 128.644 16.068C129.349 16.068 129.978 15.907 130.53 15.585C131.097 15.263 131.504 14.7877 131.749 14.159L132.232 15.884C131.956 16.6047 131.458 17.1643 130.737 17.563C130.032 17.9617 129.135 18.161 128.046 18.161Z" fill="white"/>
</svg>
