<svg width="255" height="98" viewBox="0 0 255 98" fill="none" xmlns="http://www.w3.org/2000/svg">
<path d="M0.4 5C0.4 2.45949 2.45949 0.4 5 0.4L250 0.4C252.541 0.4 254.6 2.45949 254.6 5V93C254.6 95.5405 252.541 97.6 250 97.6H5C2.45949 97.6 0.4 95.5405 0.4 93L0.4 5Z" stroke="white" stroke-width="0.8"/>
<path d="M68.442 50.2042C68.442 48.6742 67.218 47.6122 65.364 47.6122C63.294 47.6122 61.512 48.2062 60.468 48.5122C59.91 48.6742 59.37 48.8722 58.938 49.0522L58.488 47.3962C58.992 47.3602 59.586 47.2342 60.144 47.1262C61.404 46.8382 63.438 46.2622 65.526 46.2622C68.082 46.2622 69.972 47.6842 69.972 50.2582C69.972 54.1642 66.48 56.3422 61.818 57.0622L60.99 55.6942C65.364 55.1362 68.442 53.4262 68.442 50.2042ZM60.882 42.0862C62.88 42.5362 66.786 42.9142 68.532 42.9322L68.316 44.3182C66.318 44.1742 62.7 43.8142 60.666 43.4542L60.882 42.0862ZM87.18 45.9202C86.766 46.1722 86.316 46.4062 85.794 46.6762C84.57 47.3062 82.572 48.2422 80.808 49.4122C79.134 50.5102 78.126 51.6982 78.126 53.0482C78.126 54.5422 79.548 55.4782 82.392 55.4782C84.354 55.4782 86.766 55.2262 88.17 54.8662L88.152 56.4862C86.802 56.7202 84.714 56.9182 82.464 56.9182C79.08 56.9182 76.632 55.9102 76.632 53.2102C76.632 51.2662 77.946 49.7362 80.052 48.3322C81.888 47.1082 83.994 46.1182 85.164 45.4702C85.686 45.1642 86.082 44.9302 86.46 44.6062L87.18 45.9202ZM78.558 42.4102C79.386 44.7142 80.484 46.9642 81.33 48.4042L80.088 49.1602C79.188 47.6842 78.108 45.2542 77.136 43.0222L78.558 42.4102ZM87.486 42.2302C87.936 42.8962 88.584 43.9762 88.944 44.7142L87.972 45.1642C87.612 44.4262 87.018 43.3282 86.514 42.6442L87.486 42.2302ZM89.466 41.5102C89.934 42.1762 90.636 43.3102 90.978 43.9762L90.006 44.4082C89.61 43.6342 89.034 42.5902 88.512 41.9242L89.466 41.5102ZM101.346 42.8242C101.184 43.0402 100.968 43.3642 100.77 43.7062C99.96 44.9482 98.304 47.9362 97.386 49.6822C98.25 48.9082 99.186 48.5662 100.05 48.5662C101.256 48.5662 102.12 49.3402 102.174 50.7622C102.21 51.8242 102.174 53.1922 102.246 54.0742C102.3 54.9742 102.912 55.3702 103.686 55.3702C105.702 55.3702 106.89 52.8862 107.34 50.9602L108.546 51.9322C107.592 54.8302 106.08 56.8462 103.47 56.8462C101.544 56.8462 100.914 55.6402 100.86 54.5782C100.806 53.5162 100.824 52.1302 100.77 51.1402C100.734 50.3662 100.266 49.8802 99.456 49.8802C98.016 49.8802 96.648 51.3562 95.964 52.7782C95.406 53.8402 94.65 55.9822 94.398 56.8642L92.85 56.3242C94.164 52.6882 98.106 45.3082 99.096 43.5802C99.294 43.1482 99.528 42.7162 99.744 42.1762L101.346 42.8242ZM115.89 45.1462V46.5862H123.126V45.1462H115.89ZM115.89 47.5402V48.9982H123.126V47.5402H115.89ZM115.89 42.7522V44.1742H123.126V42.7522H115.89ZM114.612 41.7622H124.458V49.9882H114.612V41.7622ZM121.146 53.9662L122.262 53.2462C123.702 54.2182 125.592 55.6402 126.564 56.5762L125.376 57.4222C124.476 56.5042 122.622 55.0102 121.146 53.9662ZM117.78 51.8422H119.202V57.6202H117.78V51.8422ZM112.236 51.3382H126.546V52.5442H112.236V51.3382ZM111.426 42.6802H112.776V53.0482H111.426V42.6802ZM114.432 53.2822L115.836 53.8042C114.72 55.1182 112.974 56.5222 111.462 57.4042C111.192 57.1342 110.706 56.7202 110.382 56.5042C111.876 55.6942 113.586 54.3982 114.432 53.2822ZM137.292 43.4722H144.51V44.7142H137.292V43.4722ZM137.13 48.3502H138.408V57.6382H137.13V48.3502ZM137.67 41.0602L139.002 41.3302C138.354 43.7422 137.22 45.9742 135.852 47.4322C135.618 47.1982 135.078 46.7662 134.754 46.5862C136.086 45.2542 137.112 43.2202 137.67 41.0602ZM140.676 47.4322C141.27 51.4102 142.548 54.9202 144.996 56.4682C144.672 56.7022 144.258 57.2242 144.06 57.5662C141.468 55.7302 140.19 52.0402 139.506 47.5942L140.676 47.4322ZM143.916 48.3502L144.888 49.1782C143.88 50.1682 142.476 51.2482 141.432 51.9502L140.604 51.1762C141.63 50.4562 143.088 49.2502 143.916 48.3502ZM128.31 43.9762H135.654V45.2542H128.31V43.9762ZM131.046 47.5942H134.268V48.8362H131.046V47.5942ZM131.46 41.0962H132.774V44.4622H131.46V41.0962ZM133.782 47.5942H135.042C135.042 47.5942 135.042 48.0262 135.024 48.2062C134.898 54.2722 134.79 56.3242 134.34 56.9542C134.052 57.3502 133.746 57.4762 133.278 57.5302C132.846 57.5842 132.09 57.5662 131.352 57.5482C131.316 57.1702 131.208 56.6482 131.01 56.3062C131.73 56.3782 132.396 56.3962 132.684 56.3962C132.954 56.3962 133.098 56.3422 133.224 56.1442C133.548 55.7122 133.692 53.7142 133.782 47.8642V47.5942ZM130.398 44.8042H131.604V47.7382C131.604 50.7982 131.316 54.5062 129.012 57.6742C128.778 57.4042 128.328 57.0802 127.986 56.8642C130.164 53.9302 130.398 50.4022 130.398 47.7382V44.8042ZM142.89 45.2362L143.88 45.9562C142.098 47.3242 138.714 48.8002 136.158 49.5202C135.978 49.1602 135.636 48.6742 135.33 48.3862C137.886 47.8282 141.27 46.4782 142.89 45.2362ZM155.436 41.7802C155.364 42.1582 155.328 42.8602 155.328 43.3462C155.328 43.8322 155.328 44.7682 155.328 45.1282H153.888C153.888 44.7682 153.888 43.8682 153.888 43.3462C153.888 42.8422 153.87 42.1762 153.798 41.7802H155.436ZM160.386 45.3082C160.062 45.6322 159.666 46.0462 159.378 46.3882C158.442 47.4862 156.894 49.0342 155.184 50.2042C153.222 51.5722 150.864 52.6162 147.786 53.5522L146.904 52.2202C150.324 51.3922 152.574 50.2222 154.194 49.1602C155.814 48.1162 157.236 46.7122 157.866 45.8662C157.02 45.8662 151.188 45.8662 150.378 45.8662C149.766 45.8662 148.722 45.8842 148.182 45.9382V44.4082C148.758 44.4802 149.748 44.5162 150.36 44.5162C151.188 44.5162 157.218 44.5162 158.298 44.5162C158.73 44.5162 159.144 44.4802 159.432 44.3902L160.386 45.3082ZM155.292 49.4662C155.292 50.8522 155.292 53.5702 155.292 54.9562C155.292 55.5862 155.328 56.3962 155.382 56.9542H153.744C153.798 56.4142 153.852 55.5862 153.852 54.9562C153.852 53.6062 153.852 51.2302 153.852 50.0782L155.292 49.4662ZM161.214 53.7682C159.648 52.6162 158.568 51.8962 156.894 50.9962L157.83 49.9522C159.522 50.8522 160.494 51.4282 162.168 52.5442L161.214 53.7682ZM172.194 45.8302C172.5 46.5502 173.382 48.9262 173.598 49.7002L172.266 50.1862C172.068 49.3582 171.24 47.0722 170.862 46.2802L172.194 45.8302ZM178.71 46.8382C178.584 47.1982 178.494 47.4862 178.422 47.7202C177.954 49.7002 177.162 51.6442 175.884 53.2642C174.21 55.3702 172.014 56.7742 170.016 57.5302L168.828 56.3242C170.898 55.7122 173.202 54.3442 174.678 52.5082C175.956 50.9422 176.874 48.6382 177.162 46.3342L178.71 46.8382ZM168 46.7302C168.36 47.4862 169.314 49.8442 169.638 50.7982L168.288 51.3022C168 50.3662 167.028 47.8642 166.668 47.2342L168 46.7302ZM187.548 54.5962C187.548 53.5882 187.548 45.6322 187.548 44.1382C187.548 43.6162 187.512 42.8242 187.422 42.2482H189.186C189.114 42.8062 189.06 43.5802 189.06 44.1382C189.06 46.9282 189.078 53.7502 189.078 54.5962C189.078 55.1722 189.114 56.1442 189.186 56.7382H187.44C187.53 56.1622 187.548 55.2622 187.548 54.5962ZM188.736 46.9822C191.112 47.6662 194.748 49.0522 196.746 50.0242L196.116 51.5542C194.064 50.4562 190.698 49.1782 188.736 48.5662V46.9822Z" fill="white"/>
</svg>
