<svg width="255" height="98" viewBox="0 0 255 98" fill="none" xmlns="http://www.w3.org/2000/svg">
<path d="M0.4 5C0.4 2.45949 2.45949 0.4 5 0.4L250 0.4C252.541 0.4 254.6 2.45949 254.6 5V93C254.6 95.5405 252.541 97.6 250 97.6H5C2.45949 97.6 0.4 95.5405 0.4 93L0.4 5Z" stroke="white" stroke-width="0.8"/>
<path d="M40.668 29.2841H52.458V44.3501H51.036V30.6521H42.054V44.4221H40.668V29.2841ZM41.586 35.5301H51.63V36.8621H41.586V35.5301ZM41.568 41.9021H51.666V43.2521H41.568V41.9021ZM56.652 31.8581H72.366V33.2261H56.652V31.8581ZM60.252 39.8861H68.64V41.2541H60.252V39.8861ZM63.762 28.0781H65.184V44.6201H63.762V28.0781ZM63.348 32.3081L64.554 32.7221C62.952 36.5381 60.126 39.9761 57.012 41.7941C56.796 41.4521 56.346 40.9481 56.04 40.6781C59.046 39.1121 61.908 35.7641 63.348 32.3081ZM65.634 32.3621C67.056 35.7821 69.882 39.0581 72.996 40.5521C72.654 40.8401 72.186 41.3801 71.97 41.7581C68.784 39.9941 66.012 36.5561 64.428 32.7761L65.634 32.3621ZM77.856 31.6781H87.09V32.8841H77.856V31.6781ZM78.36 35.4401H86.658V36.6281H78.36V35.4401ZM77.586 39.6701H87.486V40.8221H77.586V39.6701ZM81.762 32.0561H83.022V40.2821H81.762V32.0561ZM84.156 37.4201L85.02 36.9341C85.704 37.5281 86.496 38.3561 86.856 38.9141L85.938 39.4721C85.578 38.9141 84.804 38.0321 84.156 37.4201ZM75.03 28.8881H89.952V44.6381H88.512V30.1301H76.398V44.6381H75.03V28.8881ZM75.768 42.4781H89.178V43.7201H75.768V42.4781ZM99.816 35.4761H105.882V36.5921H99.816V35.4761ZM98.178 38.1401H107.664V39.2741H98.178V38.1401ZM99.06 29.5541H102.084V30.5261H99.06V29.5541ZM98.556 31.5521L99.078 30.9221C99.834 31.3001 100.752 31.8941 101.184 32.3441L100.68 33.0641C100.212 32.6141 99.312 31.9661 98.556 31.5521ZM97.512 32.9381L98.07 32.3441C98.826 32.8301 99.744 33.5501 100.176 34.0361L99.6 34.6841C99.15 34.1801 98.268 33.4241 97.512 32.9381ZM105.054 40.6241L106.08 40.0841C107.016 41.0561 108.042 42.4241 108.474 43.3241L107.394 43.9541C106.962 43.0361 105.972 41.6321 105.054 40.6241ZM101.688 29.5541H101.904L102.12 29.5181L102.894 29.8061C102.066 33.4421 100.068 36.0341 97.764 37.4201C97.602 37.1501 97.278 36.7181 97.008 36.5021C99.114 35.3501 101.022 32.8481 101.688 29.7881V29.5541ZM104.64 29.5001H107.772V30.5261H104.64V29.5001ZM99.402 28.0961L100.5 28.3481C99.816 30.4721 98.61 32.3981 97.242 33.6581C97.044 33.4781 96.594 33.1181 96.342 32.9561C97.71 31.8041 98.808 30.0221 99.402 28.0961ZM107.322 29.5001H107.574L107.79 29.4281L108.582 29.8601C108.006 31.5161 107.052 33.2801 106.08 34.3961C105.918 34.1441 105.558 33.8021 105.306 33.6221C106.152 32.6321 106.944 30.9761 107.322 29.7341V29.5001ZM102.246 38.6621H103.524V43.2161C103.524 43.8821 103.38 44.2061 102.912 44.4041C102.426 44.6021 101.67 44.6021 100.482 44.6021C100.428 44.2601 100.23 43.7741 100.068 43.4501C100.932 43.4681 101.706 43.4681 101.94 43.4681C102.174 43.4501 102.246 43.3961 102.246 43.1981V38.6621ZM99.132 40.1381L100.338 40.4621C99.762 41.7581 98.808 43.0901 97.926 43.9541C97.692 43.7561 97.188 43.4321 96.9 43.2701C97.8 42.4601 98.646 41.3081 99.132 40.1381ZM103.686 28.4201C104.478 32.0201 106.188 34.9901 108.96 36.2861C108.69 36.5201 108.312 36.9701 108.132 37.3121C105.216 35.7641 103.488 32.6321 102.606 28.6541L103.686 28.4201ZM92.904 28.8521H96.504V30.0761H94.11V44.6381H92.904V28.8521ZM96.144 28.8521H96.342L96.522 28.7981L97.35 29.2841C96.936 30.7961 96.396 32.7041 95.91 34.1801C96.936 35.7281 97.17 37.0781 97.188 38.2121C97.188 39.2021 96.99 39.9761 96.576 40.3181C96.36 40.4981 96.09 40.5881 95.766 40.6241C95.496 40.6601 95.136 40.6781 94.812 40.6601C94.794 40.3361 94.722 39.8501 94.524 39.5261C94.83 39.5441 95.1 39.5441 95.316 39.5441C95.478 39.5441 95.64 39.4901 95.766 39.3821C95.982 39.1841 96.054 38.6441 96.054 38.0861C96.054 37.0601 95.838 35.8001 94.812 34.3061C95.334 32.6501 95.838 30.4361 96.144 29.2121V28.8521ZM111.372 30.0941H125.7V31.4981H111.372V30.0941ZM110.418 41.9021H126.6V43.2521H110.418V41.9021ZM117.69 30.7961H119.202V42.4601H117.69V30.7961ZM131.316 29.5541H132.63V44.5841H131.316V29.5541ZM128.274 33.1361H135.294V34.4141H128.274V33.1361ZM131.388 33.6221L132.234 33.9821C131.514 36.5201 130.074 39.6701 128.688 41.3441C128.562 40.9661 128.238 40.4081 128.004 40.1021C129.3 38.6621 130.74 35.8541 131.388 33.6221ZM134.196 28.3121L135.024 29.4101C133.368 30.0581 130.884 30.5441 128.832 30.8321C128.76 30.5261 128.58 30.0761 128.436 29.7701C130.47 29.4461 132.828 28.9241 134.196 28.3121ZM132.558 34.6481C133.026 35.1341 134.754 37.3121 135.15 37.8521L134.304 38.9141C133.872 38.0501 132.468 35.9081 131.928 35.2061L132.558 34.6481ZM141.216 28.0601H142.548V44.6021H141.216V28.0601ZM135.078 39.7781L144.654 38.2301L144.87 39.4901L135.276 41.0561L135.078 39.7781ZM136.536 30.1121L137.4 29.3201C138.48 30.0041 139.758 31.0301 140.37 31.7861L139.434 32.6681C138.858 31.9121 137.598 30.8321 136.536 30.1121ZM135.816 34.7921L136.662 34.0001C137.832 34.7021 139.254 35.7821 139.92 36.5561L139.02 37.4561C138.354 36.6641 136.986 35.5301 135.816 34.7921ZM146.418 39.1841H162.582V40.3541H146.418V39.1841ZM146.868 29.5181H162.168V30.6701H146.868V29.5181ZM157.164 37.5821H158.496V43.1981C158.496 43.9541 158.316 44.2961 157.722 44.4941C157.128 44.6741 156.138 44.6741 154.59 44.6741C154.536 44.3141 154.338 43.8461 154.158 43.4861C155.328 43.5221 156.444 43.5221 156.768 43.5041C157.074 43.4861 157.164 43.4141 157.164 43.1621V37.5821ZM153.762 28.0961H155.112V37.2761H153.762V28.0961ZM149.172 41.2721L150.162 40.5521C151.224 41.2361 152.466 42.2621 153.042 43.0001L151.98 43.8281C151.422 43.0901 150.198 42.0101 149.172 41.2721ZM149.46 35.3141V36.7901H159.54V35.3141H149.46ZM149.46 32.9021V34.3601H159.54V32.9021H149.46ZM148.2 31.8941H160.854V37.7981H148.2V31.8941ZM165.786 31.6421H170.79V32.6681H165.786V31.6421ZM174.066 31.6421H179.16V32.6681H174.066V31.6421ZM178.584 28.9241H179.934V42.7841C179.934 43.7021 179.718 44.1341 179.106 44.3501C178.476 44.5841 177.414 44.6021 175.776 44.6021C175.704 44.2241 175.47 43.5941 175.272 43.1981C176.514 43.2701 177.756 43.2521 178.116 43.2341C178.476 43.2161 178.584 43.1261 178.584 42.7841V28.9241ZM165.894 28.9241H171.582V35.5301H165.894V34.3961H170.304V30.0581H165.894V28.9241ZM179.286 28.9241V30.0581H174.57V34.4141H179.286V35.5481H173.274V28.9241H179.286ZM165.138 28.9241H166.47V44.6201H165.138V28.9241ZM185.604 34.1441H194.514V35.3321H185.604V34.1441ZM182.58 38.2481H198.492V39.5081H182.58V38.2481ZM189.816 36.9341H191.202V43.0181C191.202 43.8281 190.986 44.2241 190.302 44.4221C189.654 44.6201 188.61 44.6381 186.972 44.6381C186.882 44.2601 186.612 43.7021 186.396 43.3421C187.782 43.3781 189.006 43.3781 189.366 43.3601C189.726 43.3421 189.816 43.2521 189.816 42.9821V36.9341ZM194.1 34.1441H194.442L194.73 34.0721L195.594 34.7381C194.37 35.9801 192.48 37.2221 190.77 37.9601C190.608 37.7261 190.248 37.3661 190.014 37.1681C191.526 36.5201 193.254 35.3321 194.1 34.4141V34.1441ZM182.94 31.0661H198.186V35.0801H196.854V32.2901H184.218V35.0801H182.94V31.0661ZM195.81 28.1861L197.214 28.6541C196.458 29.7701 195.486 30.9761 194.73 31.7681L193.668 31.3181C194.388 30.4721 195.306 29.1401 195.81 28.1861ZM184.164 28.8161L185.298 28.2761C186 29.0321 186.738 30.0581 187.044 30.7781L185.838 31.3541C185.55 30.6701 184.83 29.5901 184.164 28.8161ZM188.79 28.4201L189.96 27.9881C190.572 28.8341 191.22 30.0041 191.436 30.7601L190.194 31.2461C189.978 30.4901 189.384 29.3021 188.79 28.4201ZM206.682 30.7241H216.582V31.9841H206.682V30.7241ZM210.948 28.0601H212.262V31.3181H210.948V28.0601ZM209.076 32.5061L210.3 33.0281C209.562 34.5041 208.428 36.0521 207.204 37.1141C207.006 36.8621 206.574 36.4841 206.268 36.2681C207.42 35.3141 208.5 33.8021 209.076 32.5061ZM212.838 33.0641L213.882 32.4701C215.052 33.6221 216.33 35.2241 216.906 36.3041L215.754 36.9701C215.25 35.8901 213.99 34.2341 212.838 33.0641ZM209.652 35.8001C210.912 39.3101 213.504 42.2441 216.924 43.4861C216.618 43.7561 216.186 44.2961 215.988 44.6741C212.442 43.1981 209.886 40.0661 208.482 36.1421L209.652 35.8001ZM213.288 35.7101L214.638 35.9981C213.45 39.8861 210.966 43.0361 206.682 44.6921C206.538 44.3861 206.214 43.8821 205.98 43.6301C209.994 42.1361 212.352 39.2021 213.288 35.7101ZM200.418 31.9301H206.538V33.2081H200.418V31.9301ZM203.082 28.0601H204.342V44.6021H203.082V28.0601ZM203.028 32.7221L203.874 33.0101C203.316 35.8901 202.074 39.4181 200.778 41.2361C200.634 40.8761 200.31 40.3541 200.076 40.0481C201.3 38.4281 202.506 35.3141 203.028 32.7221ZM204.252 34.4681C204.702 34.9721 206.34 37.3301 206.7 37.8881L205.926 38.9321C205.476 37.9961 204.126 35.8001 203.604 35.0441L204.252 34.4681ZM111.138 70.1801V60.8381C111.138 60.1181 111.174 59.3081 111.228 58.4261H111.156C110.634 59.2541 110.202 59.9921 109.734 60.6761L106.368 65.2301H114.72V66.5441H104.478V65.4461L110.652 56.9681H112.686V70.1801H111.138ZM123.18 57.0041V59.9021H131.946V57.0041H123.18ZM121.866 55.8161H133.332V61.1081H121.866V55.8161ZM119.364 62.4941H135.582V63.7541H119.364V62.4941ZM123.216 65.3381H132.396V66.5981H123.216V65.3381ZM131.91 65.3381H133.35C133.35 65.3381 133.314 65.7701 133.278 65.9681C132.81 69.1361 132.378 70.5401 131.694 71.1341C131.262 71.5121 130.83 71.6021 130.128 71.6381C129.516 71.6741 128.328 71.6381 127.068 71.5661C127.032 71.1881 126.852 70.6481 126.6 70.2881C127.878 70.3961 129.192 70.4141 129.678 70.4141C130.11 70.4141 130.344 70.3961 130.56 70.2521C131.1 69.8201 131.514 68.4881 131.892 65.5361L131.91 65.3381ZM123.558 62.8361L124.98 63.0521C124.494 64.6361 123.828 66.5981 123.306 67.8401L121.866 67.5881C122.406 66.3461 123.108 64.3481 123.558 62.8361ZM146.418 69.5321H152.628V70.7021H146.418V69.5321ZM145.842 59.9201H147.084V71.6201H145.842V59.9201ZM146.418 59.9201H152.412V64.4021H146.418V63.2861H151.17V61.0361H146.418V59.9201ZM144.762 57.0221H153.6V60.0641H152.34V58.1561H145.986V60.0641H144.762V57.0221ZM148.416 55.0601H149.73V57.6341H148.416V55.0601ZM146.418 65.9321H153.168V71.4941H151.908V67.0661H146.418V65.9321ZM140.784 58.1201H141.936V60.3521H140.784V58.1201ZM138.426 59.8121H139.632V69.8561H138.426V59.8121ZM139.182 62.2601H143.358V63.2141H139.182V62.2601ZM137.184 69.6401C138.714 69.3161 141 68.7401 143.232 68.1821L143.358 69.2801C141.36 69.8741 139.218 70.4681 137.598 70.9001L137.184 69.6401ZM141.432 66.8321L142.494 66.3461C143.466 67.6061 144.438 69.2981 144.78 70.4321L143.646 70.9721C143.286 69.8561 142.368 68.1101 141.432 66.8321ZM139.092 59.8121H143.952V65.6981H139.092V64.6541H142.746V60.8561H139.092V59.8121ZM140.406 55.0781H141.144V55.3661H141.54V55.7261C140.802 57.1121 139.56 59.0381 137.67 60.5861C137.49 60.2981 137.112 59.9021 136.824 59.7221C138.552 58.3541 139.758 56.5181 140.406 55.0781ZM140.748 55.0781H141.72C142.818 55.9961 144.096 57.3281 144.69 58.2461L143.79 59.2361C143.232 58.3361 142.062 56.8601 141 55.9961H140.748V55.0781Z" fill="white"/>
</svg>
