<svg width="255" height="98" viewBox="0 0 255 98" fill="none" xmlns="http://www.w3.org/2000/svg">
<path d="M38.33 16.626C38.291 16.86 38.265 17.211 38.252 17.523C38.213 18.29 38.148 20.279 38.148 21.631C38.148 22.983 38.213 25.011 38.213 25.83C38.213 27.026 37.771 27.416 37.056 27.416C36.042 27.416 34.352 26.428 34.352 25.258C34.352 24.114 35.899 22.905 37.511 22.294C38.668 21.839 39.968 21.605 40.995 21.605C42.906 21.605 44.271 22.632 44.271 24.192C44.271 25.765 43.283 26.766 41.489 27.182C40.917 27.312 40.332 27.338 39.877 27.364L39.513 26.324C40.007 26.324 40.553 26.337 41.047 26.233C42.178 26.012 43.218 25.401 43.218 24.192C43.218 23.087 42.217 22.502 40.995 22.502C39.825 22.502 38.759 22.749 37.654 23.191C36.38 23.685 35.379 24.556 35.379 25.219C35.379 25.804 36.289 26.324 36.796 26.324C37.095 26.324 37.264 26.116 37.264 25.687C37.264 24.933 37.199 23.126 37.199 21.683C37.199 20.188 37.251 18.069 37.251 17.536C37.251 17.289 37.225 16.834 37.186 16.626H38.33ZM42.373 18.069C43.296 18.55 44.713 19.434 45.337 19.954L44.817 20.786C44.18 20.188 42.724 19.291 41.892 18.849L42.373 18.069ZM34.573 18.953C35.288 19.044 35.756 19.057 36.224 19.057C37.511 19.057 39.578 18.784 40.865 18.394L40.891 19.408C39.552 19.733 37.42 20.019 36.25 20.019C35.522 20.019 35.028 19.993 34.599 19.954L34.573 18.953ZM47.7754 19.005V19.993H50.3104V19.005H47.7754ZM47.7754 17.341V18.316H50.3104V17.341H47.7754ZM46.9044 16.639H51.2204V20.721H46.9044V16.639ZM46.1244 21.683H51.9874V22.437H46.1244V21.683ZM51.9094 16.73H57.8374V17.458H51.9094V16.73ZM48.7244 21.917H49.5564V26.87L48.7244 26.35V21.917ZM49.1664 23.841H51.7664V24.582H49.1664V23.841ZM54.4834 16.912L55.4064 17.094C55.1594 17.757 54.8994 18.498 54.6654 18.979L53.9374 18.81C54.1454 18.277 54.3664 17.471 54.4834 16.912ZM53.3004 20.851V21.826H56.4074V20.851H53.3004ZM53.3004 22.502V23.503H56.4074V22.502H53.3004ZM53.3004 19.187V20.149H56.4074V19.187H53.3004ZM52.4164 18.472H57.3174V24.218H52.4164V18.472ZM53.4954 24.452L54.3274 24.699C53.7554 25.427 52.8064 26.168 52.0004 26.61C51.8574 26.467 51.5324 26.155 51.3504 26.012C52.1564 25.635 53.0014 25.05 53.4954 24.452ZM47.0344 23.152H47.8534C47.7754 25.024 47.5154 26.974 46.5924 28.079C46.4624 27.884 46.1764 27.598 45.9684 27.455C46.7614 26.506 46.9694 24.751 47.0344 23.152ZM47.6454 24.426C48.5684 26.662 50.5964 26.948 53.5214 26.948C54.1064 26.948 57.3304 26.948 58.0974 26.922C57.9544 27.13 57.7984 27.507 57.7464 27.767H53.5214C50.2064 27.767 48.1134 27.338 47.0344 24.647L47.6454 24.426ZM55.3154 24.803L55.9784 24.426C56.7324 24.881 57.5904 25.609 58.0194 26.103L57.3044 26.558C56.8884 26.038 56.0174 25.284 55.3154 24.803ZM59.7557 26.298H69.3887V27.234H59.7557V26.298ZM58.8197 16.938H70.3247V17.861H58.8197V16.938ZM59.2227 19.161H60.1717V28.04H59.2227V19.161ZM68.9987 19.161H69.9607V28.001H68.9987V19.161ZM64.0327 17.224H65.0207V19.733H64.0327V17.224ZM64.0977 19.655H64.9557V24.803H64.0977V19.655ZM62.2387 22.619V24.322H66.8277V22.619H62.2387ZM62.2387 20.136V21.826H66.8277V20.136H62.2387ZM61.4067 19.304H67.6857V25.154H61.4067V19.304ZM76.7411 16.106L77.6901 16.275C77.0011 17.484 76.0001 18.823 74.6091 19.902C74.4401 19.707 74.1281 19.46 73.8941 19.343C75.2331 18.394 76.2081 17.12 76.7411 16.106ZM76.8061 16.925H79.9521V17.679H76.2081L76.8061 16.925ZM75.8831 19.369V20.838H81.6551V19.369H75.8831ZM74.9861 18.641H82.6041V21.553H74.9861V18.641ZM78.2751 18.94H79.1591V21.15H78.2751V18.94ZM78.3271 20.916L79.0941 21.228C78.0281 22.216 76.2471 23.113 74.7651 23.646C74.6351 23.477 74.3751 23.139 74.1931 22.97C75.6751 22.528 77.3781 21.774 78.3271 20.916ZM76.9621 22.307L77.5991 21.891C80.0821 23.685 80.1471 26.818 79.0291 27.65C78.6521 27.962 78.3011 28.04 77.7811 28.053C77.5081 28.053 77.1441 28.053 76.7671 28.027C76.7671 27.793 76.6891 27.429 76.5331 27.182C76.9491 27.221 77.3391 27.234 77.5991 27.234C77.9241 27.234 78.1581 27.208 78.3921 27.013C79.1721 26.454 79.1071 23.919 76.9621 22.307ZM78.1191 22.827L78.7171 23.23C77.8201 24.049 76.1301 24.998 74.8041 25.492C74.7001 25.284 74.4921 24.998 74.2971 24.816C75.5971 24.452 77.3001 23.581 78.1191 22.827ZM78.7951 24.218L79.4451 24.686C78.3531 25.817 76.2861 27.078 74.5961 27.715C74.4791 27.481 74.2581 27.169 74.0631 26.987C75.7141 26.467 77.8071 25.297 78.7951 24.218ZM82.2921 21.956L82.9811 22.528C82.3051 23.126 81.3951 23.776 80.7061 24.192L80.1341 23.659C80.8101 23.243 81.7591 22.489 82.2921 21.956ZM79.7701 21.059C80.3161 23.516 81.4601 25.726 83.1891 26.714C82.9811 26.896 82.6821 27.234 82.5391 27.481C80.7191 26.324 79.5621 23.971 78.9641 21.215L79.7701 21.059ZM79.6401 16.925H79.8481L80.0171 16.86L80.6151 17.276C80.2121 18.004 79.5881 18.797 79.0811 19.304C78.9511 19.135 78.6911 18.862 78.5221 18.732C78.9381 18.303 79.4061 17.601 79.6401 17.094V16.925ZM73.6341 16.158L74.5441 16.405C73.8031 18.654 72.6461 20.942 71.3591 22.463C71.2681 22.229 71.0081 21.709 70.8391 21.462C71.9831 20.162 73.0101 18.16 73.6341 16.158ZM72.5941 19.343L73.4911 18.446L73.5171 18.472V28.04H72.5941V19.343ZM89.0725 18.225C90.4895 18.472 93.1285 18.42 94.4155 18.225V19.278C93.0245 19.434 90.5025 19.434 89.0855 19.278L89.0725 18.225ZM89.5795 23.529C89.4625 23.997 89.3975 24.361 89.3975 24.712C89.3975 25.31 89.8135 25.895 91.5945 25.895C92.7515 25.895 93.7655 25.791 94.8055 25.544L94.8315 26.636C94.0255 26.805 92.9335 26.909 91.5815 26.909C89.4105 26.909 88.4355 26.181 88.4355 24.959C88.4355 24.53 88.5005 24.062 88.6435 23.438L89.5795 23.529ZM86.6025 17.224C86.5245 17.445 86.4205 17.861 86.3685 18.095C86.1215 19.304 85.7185 21.618 85.7185 23.087C85.7185 23.711 85.7575 24.257 85.8355 24.894C86.0565 24.309 86.3555 23.529 86.5765 22.996L87.1225 23.425C86.7975 24.348 86.3165 25.713 86.1995 26.337C86.1605 26.519 86.1345 26.766 86.1345 26.922C86.1475 27.052 86.1605 27.234 86.1735 27.377L85.2505 27.442C84.9905 26.519 84.7695 25.024 84.7695 23.256C84.7695 21.345 85.1985 19.122 85.3545 18.043C85.3935 17.744 85.4325 17.419 85.4455 17.133L86.6025 17.224ZM102.067 19.213H108.151V20.162H102.067V19.213ZM96.4118 18.238H102.457V19.148H96.4118V18.238ZM105.629 16.08H106.604V26.727C106.604 27.377 106.435 27.663 106.045 27.845C105.655 28.014 104.992 28.04 103.874 28.04C103.835 27.767 103.692 27.312 103.549 27.013C104.368 27.039 105.096 27.039 105.317 27.026C105.538 27.013 105.629 26.948 105.629 26.714V16.08ZM102.21 21.891L103.016 21.514C103.64 22.411 104.264 23.607 104.472 24.4L103.614 24.816C103.419 24.036 102.834 22.801 102.21 21.891ZM96.8148 21.007L97.5168 20.461C99.1029 22.125 100.91 24.4 101.664 25.895L100.884 26.558C100.156 25.037 98.3879 22.697 96.8148 21.007ZM98.8948 16.106H99.8309V18.771H98.8948V16.106ZM100.377 19.447L101.339 19.59C100.676 23.503 99.3628 26.22 96.7888 27.949C96.6588 27.754 96.3078 27.364 96.0998 27.182C98.6088 25.687 99.8178 23.061 100.377 19.447ZM112.656 16.873C112.591 17.302 112.552 17.757 112.526 18.186C112.474 19.655 112.37 22.736 112.37 24.673C112.37 26.103 113.267 26.597 114.502 26.597C116.881 26.597 118.233 25.271 119.169 23.919L119.897 24.803C119.013 26.038 117.323 27.663 114.476 27.663C112.604 27.663 111.317 26.896 111.317 24.764C111.317 22.84 111.447 19.551 111.447 18.186C111.447 17.705 111.408 17.25 111.33 16.873H112.656ZM121.474 18.368C121.968 18.355 122.384 18.329 122.644 18.303C123.489 18.212 125.933 17.978 128.338 17.77C129.755 17.653 130.964 17.575 131.835 17.549L131.848 18.589C131.094 18.576 129.963 18.602 129.3 18.784C127.441 19.382 126.31 21.371 126.31 22.905C126.31 25.44 128.689 26.246 130.795 26.337L130.431 27.403C128.013 27.312 125.283 26.038 125.283 23.126C125.283 21.098 126.518 19.447 127.714 18.745C126.31 18.888 123.008 19.213 121.591 19.512L121.474 18.368ZM142.684 16.73C143.009 17.198 143.464 17.952 143.724 18.472L143.022 18.784C142.762 18.264 142.346 17.523 141.995 17.029L142.684 16.73ZM144.218 16.366C144.569 16.847 145.05 17.614 145.297 18.095L144.595 18.407C144.309 17.835 143.906 17.146 143.542 16.665L144.218 16.366ZM139.954 16.99C139.928 17.172 139.876 17.64 139.876 17.913C139.876 18.602 139.876 19.694 139.876 20.331C139.876 21.384 139.876 25.596 139.876 26.532C139.876 27.208 139.551 27.559 138.758 27.559C138.212 27.559 137.445 27.533 136.912 27.468L136.821 26.441C137.393 26.545 137.978 26.584 138.329 26.584C138.68 26.584 138.823 26.441 138.823 26.09C138.836 25.388 138.836 20.942 138.836 20.331C138.836 19.889 138.836 18.602 138.836 17.913C138.836 17.627 138.784 17.185 138.745 16.99H139.954ZM134.117 19.174C134.481 19.226 134.806 19.252 135.209 19.252C135.976 19.252 142.541 19.252 143.321 19.252C143.62 19.252 144.049 19.226 144.374 19.187V20.266C144.036 20.24 143.646 20.227 143.334 20.227C142.554 20.227 136.015 20.227 135.222 20.227C134.819 20.227 134.455 20.24 134.117 20.279V19.174ZM137.107 22.242C136.548 23.347 135.339 25.011 134.598 25.804L133.701 25.193C134.572 24.4 135.677 22.853 136.184 21.8L137.107 22.242ZM142.528 21.8C143.23 22.632 144.257 24.257 144.777 25.206L143.828 25.739C143.308 24.712 142.333 23.1 141.644 22.281L142.528 21.8ZM150.817 16.951C150.7 17.25 150.583 17.601 150.479 17.874C150.284 18.459 149.985 19.252 149.621 19.967C149.114 20.981 148.152 22.294 147.346 22.983L146.319 22.359C147.255 21.696 148.178 20.357 148.633 19.564C148.984 18.914 149.218 18.251 149.361 17.744C149.465 17.419 149.53 17.055 149.556 16.717L150.817 16.951ZM149.179 19.187C149.998 19.187 155.484 19.187 156.134 19.187C156.446 19.187 156.966 19.174 157.343 19.109V20.227C156.94 20.201 156.433 20.201 156.134 20.201C155.471 20.201 149.998 20.201 149.049 20.201L149.179 19.187ZM153.95 19.733C153.833 23.737 152.351 26.038 150.024 27.507L148.919 26.766C149.296 26.623 149.686 26.389 149.972 26.155C151.311 25.154 152.78 23.334 152.858 19.733H153.95ZM161.094 17.432C161.38 17.458 161.744 17.471 162.004 17.471C162.693 17.471 165.774 17.38 166.463 17.315C166.853 17.276 167.035 17.25 167.178 17.198L167.776 17.965C167.542 18.121 167.282 18.29 167.035 18.485C166.398 18.979 164.63 20.5 163.616 21.332C164.214 21.137 164.838 21.072 165.423 21.072C167.581 21.072 169.128 22.359 169.128 24.114C169.128 26.207 167.399 27.572 164.643 27.572C162.875 27.572 161.796 26.805 161.796 25.713C161.796 24.829 162.602 24.023 163.798 24.023C165.527 24.023 166.398 25.245 166.489 26.558L165.553 26.714C165.475 25.609 164.838 24.816 163.798 24.816C163.2 24.816 162.745 25.18 162.745 25.635C162.745 26.272 163.46 26.649 164.487 26.649C166.697 26.649 168.088 25.739 168.088 24.114C168.088 22.827 166.866 21.878 165.163 21.878C163.005 21.878 161.835 22.788 160.197 24.465L159.443 23.711C160.522 22.827 162.199 21.423 162.94 20.786C163.668 20.188 165.306 18.823 165.956 18.238C165.267 18.277 162.667 18.381 161.991 18.42C161.692 18.446 161.406 18.459 161.12 18.498L161.094 17.432ZM175.87 16.626C175.831 16.86 175.805 17.211 175.792 17.523C175.753 18.29 175.688 20.279 175.688 21.631C175.688 22.983 175.753 25.011 175.753 25.83C175.753 27.026 175.311 27.416 174.596 27.416C173.582 27.416 171.892 26.428 171.892 25.258C171.892 24.114 173.439 22.905 175.051 22.294C176.208 21.839 177.508 21.605 178.535 21.605C180.446 21.605 181.811 22.632 181.811 24.192C181.811 25.765 180.823 26.766 179.029 27.182C178.457 27.312 177.872 27.338 177.417 27.364L177.053 26.324C177.547 26.324 178.093 26.337 178.587 26.233C179.718 26.012 180.758 25.401 180.758 24.192C180.758 23.087 179.757 22.502 178.535 22.502C177.365 22.502 176.299 22.749 175.194 23.191C173.92 23.685 172.919 24.556 172.919 25.219C172.919 25.804 173.829 26.324 174.336 26.324C174.635 26.324 174.804 26.116 174.804 25.687C174.804 24.933 174.739 23.126 174.739 21.683C174.739 20.188 174.791 18.069 174.791 17.536C174.791 17.289 174.765 16.834 174.726 16.626H175.87ZM179.913 18.069C180.836 18.55 182.253 19.434 182.877 19.954L182.357 20.786C181.72 20.188 180.264 19.291 179.432 18.849L179.913 18.069ZM172.113 18.953C172.828 19.044 173.296 19.057 173.764 19.057C175.051 19.057 177.118 18.784 178.405 18.394L178.431 19.408C177.092 19.733 174.96 20.019 173.79 20.019C173.062 20.019 172.568 19.993 172.139 19.954L172.113 18.953ZM186.199 17.458H195.117V18.303H186.199V17.458ZM186.342 19.33H193.869V20.149H186.342V19.33ZM184.847 21.189H192.686V22.034H184.847V21.189ZM186.368 16.054L187.395 16.288C186.758 18.29 185.692 20.084 184.457 21.241C184.262 21.072 183.82 20.76 183.56 20.617C184.834 19.564 185.835 17.887 186.368 16.054ZM189.865 22.255L190.801 22.567C189.397 25.05 187.109 26.948 184.639 28.157C184.496 27.949 184.132 27.572 183.911 27.403C186.407 26.337 188.617 24.517 189.865 22.255ZM192.322 21.189H193.323C193.323 24.556 193.518 27.091 194.506 27.091C194.766 27.091 194.818 26.35 194.844 25.245C195.039 25.453 195.325 25.687 195.533 25.817C195.442 27.455 195.234 28.04 194.441 28.053C192.582 28.04 192.374 25.219 192.322 21.189ZM185.172 23.425L185.861 22.788C187.863 23.867 190.294 25.57 191.477 26.844L190.697 27.572C189.592 26.311 187.187 24.556 185.172 23.425ZM201.533 18.225C202.95 18.472 205.589 18.42 206.876 18.225V19.278C205.485 19.434 202.963 19.434 201.546 19.278L201.533 18.225ZM202.04 23.529C201.923 23.997 201.858 24.361 201.858 24.712C201.858 25.31 202.274 25.895 204.055 25.895C205.212 25.895 206.226 25.791 207.266 25.544L207.292 26.636C206.486 26.805 205.394 26.909 204.042 26.909C201.871 26.909 200.896 26.181 200.896 24.959C200.896 24.53 200.961 24.062 201.104 23.438L202.04 23.529ZM199.063 17.224C198.985 17.445 198.881 17.861 198.829 18.095C198.582 19.304 198.179 21.618 198.179 23.087C198.179 23.711 198.218 24.257 198.296 24.894C198.517 24.309 198.816 23.529 199.037 22.996L199.583 23.425C199.258 24.348 198.777 25.713 198.66 26.337C198.621 26.519 198.595 26.766 198.595 26.922C198.608 27.052 198.621 27.234 198.634 27.377L197.711 27.442C197.451 26.519 197.23 25.024 197.23 23.256C197.23 21.345 197.659 19.122 197.815 18.043C197.854 17.744 197.893 17.419 197.906 17.133L199.063 17.224ZM211.109 16.873H214.788V17.861H211.109V16.873ZM214.294 16.873H215.295C215.295 19.2 215.581 24.14 220.716 27.182C220.495 27.351 220.105 27.767 219.923 28.001C214.723 24.855 214.294 19.317 214.294 16.873ZM213.93 19.421L215.035 19.629C214.099 23.594 212.383 26.337 209.51 28.027C209.328 27.819 208.886 27.416 208.626 27.234C211.512 25.726 213.137 23.1 213.93 19.421ZM37.394 34.743C37.121 35.705 36.874 37.46 36.796 38.37C37.329 37.031 38.681 35.406 40.332 35.406C42.048 35.406 43.296 37.148 43.296 39.878C43.296 43.479 41.021 45.078 37.81 45.663L37.186 44.727C40.02 44.298 42.217 43.154 42.217 39.891C42.217 37.837 41.528 36.355 40.163 36.355C38.538 36.355 37.03 38.721 36.874 40.424C36.809 40.918 36.809 41.373 36.9 42.023L35.886 42.101C35.821 41.607 35.756 40.879 35.756 40.034C35.756 38.799 36.003 36.888 36.159 35.822C36.211 35.432 36.237 35.068 36.263 34.704L37.394 34.743ZM54.9638 39.033C54.9638 42.491 54.2098 44.272 51.2458 45.611L50.3748 44.779C52.7408 43.882 53.9108 42.764 53.9108 39.111V35.952C53.9108 35.445 53.8718 35.016 53.8458 34.899H55.0288C55.0158 35.029 54.9638 35.445 54.9638 35.952V39.033ZM50.2708 34.977C50.2578 35.094 50.2188 35.471 50.2188 35.913V40.684C50.2188 41.165 50.2578 41.737 50.2708 41.854H49.1138C49.1268 41.737 49.1788 41.178 49.1788 40.684V35.913C49.1788 35.64 49.1528 35.276 49.1138 34.977H50.2708ZM46.4748 37.499C46.5918 37.512 47.2288 37.59 47.7748 37.59H56.3808C56.9658 37.59 57.3948 37.538 57.5768 37.512V38.617C57.4338 38.604 56.9658 38.578 56.3938 38.578H47.7748C47.2028 38.578 46.6178 38.617 46.4748 38.617V37.499ZM59.3255 40.307C61.5745 39.709 63.5505 38.786 64.9935 37.889C66.3585 37.031 67.6585 35.913 68.5555 34.821L69.4265 35.64C68.3085 36.797 66.9435 37.889 65.4225 38.838C63.9925 39.722 61.9255 40.671 59.8325 41.321L59.3255 40.307ZM64.7855 38.422L65.9035 38.084V44.025C65.9035 44.506 65.9295 45.156 65.9945 45.403H64.7075C64.7465 45.156 64.7855 44.506 64.7855 44.025V38.422ZM75.1793 43.856C75.1793 43.128 75.1793 37.382 75.1793 36.303C75.1793 35.926 75.1533 35.354 75.0883 34.938H76.3623C76.3103 35.341 76.2713 35.9 76.2713 36.303C76.2713 38.318 76.2843 43.245 76.2843 43.856C76.2843 44.272 76.3103 44.974 76.3623 45.403H75.1013C75.1663 44.987 75.1793 44.337 75.1793 43.856ZM76.0373 38.357C77.7533 38.851 80.3793 39.852 81.8223 40.554L81.3673 41.659C79.8853 40.866 77.4543 39.943 76.0373 39.501V38.357ZM84.429 36.446C84.923 36.433 85.339 36.407 85.599 36.381C86.431 36.29 88.888 36.056 91.28 35.848C92.71 35.731 93.919 35.653 94.79 35.627L94.803 36.667C94.049 36.654 92.918 36.68 92.255 36.862C90.396 37.46 89.265 39.449 89.265 40.983C89.265 43.518 91.644 44.337 93.75 44.415L93.373 45.481C90.968 45.39 88.238 44.116 88.238 41.204C88.238 39.189 89.473 37.525 90.656 36.823C89.265 36.966 85.95 37.291 84.546 37.59L84.429 36.446ZM92.918 38.253C93.217 38.682 93.711 39.488 93.997 40.073L93.321 40.372C93.022 39.748 92.658 39.085 92.268 38.539L92.918 38.253ZM94.335 37.707C94.66 38.136 95.167 38.929 95.466 39.501L94.803 39.826C94.491 39.202 94.101 38.552 93.698 38.006L94.335 37.707ZM104.17 34.704C104.144 34.86 104.105 35.367 104.105 35.523C104.066 36.368 104.092 38.877 104.105 39.917L103.117 39.41C103.117 38.838 103.104 36.251 103.065 35.536C103.039 35.185 103 34.821 102.974 34.704H104.17ZM97.2538 36.524C99.0218 36.498 102.272 36.381 104.274 36.381C105.86 36.381 107.472 36.381 108.083 36.394L108.07 37.356C107.342 37.317 106.172 37.291 104.261 37.291C102.025 37.291 99.2428 37.382 97.2798 37.525L97.2538 36.524ZM104.079 40.294C104.079 42.036 103.273 42.907 102.09 42.907C100.998 42.907 99.9448 42.14 99.9448 40.723C99.9448 39.436 101.011 38.474 102.246 38.474C103.754 38.474 104.521 39.592 104.521 41.087C104.521 42.855 103.663 44.805 100.647 45.702L99.7758 44.857C102.142 44.298 103.52 43.141 103.52 40.996C103.52 39.826 102.948 39.332 102.246 39.332C101.557 39.332 100.92 39.865 100.92 40.71C100.92 41.529 101.531 41.997 102.246 41.997C103.052 41.997 103.572 41.321 103.364 39.93L104.079 40.294ZM109.85 41.841C110.942 41.841 111.826 42.725 111.826 43.817C111.826 44.909 110.942 45.793 109.85 45.793C108.758 45.793 107.861 44.909 107.861 43.817C107.861 42.725 108.758 41.841 109.85 41.841ZM109.85 45.13C110.578 45.13 111.163 44.545 111.163 43.817C111.163 43.089 110.578 42.504 109.85 42.504C109.122 42.504 108.524 43.089 108.524 43.817C108.524 44.545 109.122 45.13 109.85 45.13ZM123.116 39.215V43.817H122.18V40.125H120.529V39.215H123.116ZM123.116 43.427C123.727 44.389 124.871 44.831 126.418 44.883C127.861 44.948 130.864 44.909 132.437 44.805C132.32 45.026 132.164 45.481 132.125 45.767C130.656 45.832 127.874 45.858 126.418 45.793C124.702 45.728 123.519 45.273 122.713 44.246C122.141 44.805 121.543 45.364 120.893 45.936L120.386 44.987C120.958 44.571 121.66 43.986 122.271 43.427H123.116ZM120.646 34.951L121.387 34.418C122.193 35.003 123.103 35.9 123.506 36.537L122.7 37.148C122.336 36.498 121.439 35.588 120.646 34.951ZM124.377 38.565H131.41V39.345H125.248V44.207H124.377V38.565ZM127.523 36.368H130.253V37.057H128.264V38.89H127.523V36.368ZM125.391 34.535H130.747V38.825H129.863V35.302H126.262V38.825H125.391V34.535ZM126.782 40.177H129.72V42.933H126.782V42.257H128.966V40.879H126.782V40.177ZM130.864 38.565H131.761V43.245C131.761 43.687 131.683 43.934 131.345 44.064C131.033 44.207 130.526 44.207 129.759 44.207C129.72 43.973 129.603 43.635 129.486 43.414C130.032 43.427 130.526 43.427 130.669 43.427C130.812 43.414 130.864 43.375 130.864 43.245V38.565ZM126.34 40.177H127.094V43.453H126.34V40.177ZM134.225 36.043H143.936V37.031H134.225V36.043ZM133.211 39.475H144.898V40.45H133.211V39.475ZM138.476 34.08H139.503V40.021H138.476V34.08ZM137.423 40.112L138.567 40.411C137.891 41.945 136.994 43.804 136.24 45.013L135.33 44.701C136.058 43.466 136.955 41.503 137.423 40.112ZM133.679 44.467C136.123 44.402 139.971 44.233 143.533 44.064L143.494 45.013C139.997 45.208 136.266 45.403 133.809 45.507L133.679 44.467ZM140.842 41.932L141.739 41.516C142.909 42.79 144.17 44.493 144.768 45.637L143.806 46.157C143.247 45 141.973 43.219 140.842 41.932ZM151.054 36.225C152.471 36.472 155.11 36.42 156.397 36.225V37.278C155.006 37.434 152.484 37.434 151.067 37.278L151.054 36.225ZM151.561 41.529C151.444 41.997 151.379 42.361 151.379 42.712C151.379 43.31 151.795 43.895 153.576 43.895C154.733 43.895 155.747 43.791 156.787 43.544L156.813 44.636C156.007 44.805 154.915 44.909 153.563 44.909C151.392 44.909 150.417 44.181 150.417 42.959C150.417 42.53 150.482 42.062 150.625 41.438L151.561 41.529ZM148.584 35.224C148.506 35.445 148.402 35.861 148.35 36.095C148.103 37.304 147.7 39.618 147.7 41.087C147.7 41.711 147.739 42.257 147.817 42.894C148.038 42.309 148.337 41.529 148.558 40.996L149.104 41.425C148.779 42.348 148.298 43.713 148.181 44.337C148.142 44.519 148.116 44.766 148.116 44.922C148.129 45.052 148.142 45.234 148.155 45.377L147.232 45.442C146.972 44.519 146.751 43.024 146.751 41.256C146.751 39.345 147.18 37.122 147.336 36.043C147.375 35.744 147.414 35.419 147.427 35.133L148.584 35.224ZM164.75 39.813H169.066V40.684H164.75V39.813ZM159.875 39.358H164.321V40.151H159.875V39.358ZM165.738 34.613H168.416V35.484H165.738V34.613ZM168.832 39.813H169.014L169.183 39.774L169.781 39.982C168.988 43.258 166.973 45.13 164.49 46.053C164.373 45.832 164.139 45.455 163.944 45.26C166.232 44.506 168.169 42.738 168.832 39.982V39.813ZM166.076 40.71C166.778 42.842 168.26 44.532 170.366 45.247C170.158 45.429 169.885 45.806 169.742 46.053C167.532 45.195 166.037 43.349 165.244 40.918L166.076 40.71ZM165.426 34.613H166.297V36.446C166.297 37.486 166.076 38.773 164.893 39.618C164.776 39.449 164.425 39.124 164.23 38.994C165.283 38.253 165.426 37.265 165.426 36.433V34.613ZM167.948 34.613H168.832V37.733C168.832 37.98 168.845 38.136 168.884 38.188C168.923 38.227 168.975 38.24 169.053 38.24C169.118 38.24 169.235 38.24 169.326 38.24C169.404 38.24 169.495 38.227 169.534 38.188C169.573 38.162 169.612 38.058 169.638 37.902C169.664 37.72 169.677 37.317 169.69 36.797C169.859 36.953 170.158 37.096 170.392 37.174C170.379 37.681 170.327 38.266 170.262 38.461C170.197 38.669 170.08 38.812 169.911 38.89C169.781 38.968 169.56 39.007 169.378 39.007C169.235 39.007 168.962 39.007 168.845 39.007C168.611 39.007 168.351 38.942 168.169 38.786C168.013 38.617 167.948 38.409 167.948 37.668V34.613ZM159.472 34.613H164.36V37.616H159.472V36.823H163.463V35.393H159.472V34.613ZM160.876 43.18L161.721 43.375C161.383 44.376 160.811 45.377 160.213 46.027C160.057 45.884 159.693 45.65 159.485 45.52C160.096 44.935 160.59 44.051 160.876 43.18ZM162.553 43.401L163.294 43.089C163.762 43.687 164.243 44.467 164.451 45L163.684 45.364C163.476 44.818 163.008 43.999 162.553 43.401ZM159.056 34.613H159.914V39.137C159.914 41.061 159.771 43.83 158.822 45.689C158.666 45.533 158.302 45.273 158.081 45.182C158.978 43.44 159.056 40.97 159.056 39.137V34.613ZM160.837 37.902H161.565V42.322H160.837V37.902ZM162.774 37.902H163.502V42.361H162.774V37.902ZM159.758 41.815H164.594V42.621H159.758V41.815ZM171.191 44.818H182.527V45.689H171.191V44.818ZM172.322 42.4H181.539V43.258H172.322V42.4ZM176.326 40.918H177.314V45.299H176.326V40.918ZM176.326 34.08H177.314V36.524H176.326V34.08ZM171.282 36.173H182.436V39.02H181.5V37.044H172.192V39.02H171.282V36.173ZM174.168 38.864V40.32H179.511V38.864H174.168ZM173.258 38.084H180.473V41.1H173.258V38.084ZM172.478 34.574L173.349 34.223C173.804 34.769 174.311 35.471 174.532 35.952L173.622 36.368C173.414 35.874 172.92 35.12 172.478 34.574ZM180.33 34.184L181.331 34.522C180.889 35.159 180.356 35.822 179.94 36.251L179.134 35.952C179.524 35.471 180.044 34.704 180.33 34.184ZM185.901 34.873H189.58V35.861H185.901V34.873ZM189.086 34.873H190.087C190.087 37.2 190.373 42.14 195.508 45.182C195.287 45.351 194.897 45.767 194.715 46.001C189.515 42.855 189.086 37.317 189.086 34.873ZM188.722 37.421L189.827 37.629C188.891 41.594 187.175 44.337 184.302 46.027C184.12 45.819 183.678 45.416 183.418 45.234C186.304 43.726 187.929 41.1 188.722 37.421ZM199.948 34.743C199.675 35.705 199.428 37.46 199.35 38.37C199.883 37.031 201.235 35.406 202.886 35.406C204.602 35.406 205.85 37.148 205.85 39.878C205.85 43.479 203.575 45.078 200.364 45.663L199.74 44.727C202.574 44.298 204.771 43.154 204.771 39.891C204.771 37.837 204.082 36.355 202.717 36.355C201.092 36.355 199.584 38.721 199.428 40.424C199.363 40.918 199.363 41.373 199.454 42.023L198.44 42.101C198.375 41.607 198.31 40.879 198.31 40.034C198.31 38.799 198.557 36.888 198.713 35.822C198.765 35.432 198.791 35.068 198.817 34.704L199.948 34.743ZM212.578 34.873C212.513 35.302 212.474 35.757 212.448 36.186C212.396 37.655 212.292 40.736 212.292 42.673C212.292 44.103 213.189 44.597 214.424 44.597C216.803 44.597 218.155 43.271 219.091 41.919L219.819 42.803C218.935 44.038 217.245 45.663 214.398 45.663C212.526 45.663 211.239 44.896 211.239 42.764C211.239 40.84 211.369 37.551 211.369 36.186C211.369 35.705 211.33 35.25 211.252 34.873H212.578ZM38.746 52.782C38.668 53.068 38.577 53.562 38.525 53.809C38.33 54.745 38.057 56.214 37.693 57.514C37.225 59.36 36.354 62.051 35.665 63.468L34.534 63.091C35.314 61.739 36.224 59.1 36.718 57.267C37.03 56.071 37.368 54.433 37.459 53.757C37.511 53.393 37.537 52.951 37.511 52.678L38.746 52.782ZM35.873 54.953C37.303 54.953 39.214 54.719 40.826 54.316V55.33C39.214 55.694 37.251 55.915 35.847 55.915C35.275 55.915 34.82 55.902 34.339 55.863L34.313 54.849C34.924 54.927 35.392 54.953 35.873 54.953ZM39.981 56.734C40.657 56.669 41.528 56.63 42.36 56.63C43.114 56.63 43.907 56.656 44.609 56.734L44.583 57.722C43.907 57.644 43.153 57.566 42.386 57.566C41.58 57.566 40.774 57.618 39.981 57.709V56.734ZM40.241 59.893C40.137 60.322 40.059 60.725 40.059 61.063C40.059 61.674 40.41 62.272 42.256 62.272C43.114 62.272 43.998 62.181 44.804 62.025L44.765 63.065C44.063 63.169 43.192 63.247 42.243 63.247C40.202 63.247 39.084 62.623 39.084 61.336C39.084 60.842 39.162 60.348 39.279 59.802L40.241 59.893ZM50.9845 52.756H56.7435V53.614H50.9845V52.756ZM51.4785 59.763H57.5105V60.647H51.4785V59.763ZM50.6335 62.779H58.0825V63.663H50.6335V62.779ZM56.4705 52.756H56.6655L56.8475 52.717L57.5105 53.016C56.4575 56.006 54.0135 57.683 51.2575 58.567C51.1405 58.32 50.8935 57.956 50.6985 57.761C53.2465 57.046 55.5865 55.421 56.4705 52.925V52.756ZM52.6745 53.523C53.5975 55.629 55.5995 57.15 58.2385 57.735C58.0305 57.917 57.7705 58.294 57.6275 58.541C54.9105 57.826 52.8825 56.201 51.8035 53.809L52.6745 53.523ZM53.9745 57.891H54.9235V63.338H53.9745V57.891ZM48.1115 52.093L48.9695 52.431C48.4755 53.38 47.8645 54.537 47.3575 55.252L46.6815 54.94C47.1755 54.199 47.7735 52.951 48.1115 52.093ZM49.5675 53.575L50.3865 53.939C49.5025 55.434 48.2545 57.319 47.2925 58.463L46.6945 58.125C47.6565 56.955 48.8785 54.979 49.5675 53.575ZM46.0575 54.823L46.5515 54.186C47.2795 54.797 48.0985 55.642 48.4495 56.227L47.9295 56.968C47.5785 56.357 46.7595 55.447 46.0575 54.823ZM49.1125 56.591L49.7885 56.318C50.3215 57.15 50.8415 58.268 51.0235 58.983L50.2955 59.321C50.1135 58.593 49.6325 57.449 49.1125 56.591ZM46.0185 57.917C47.1495 57.878 48.7745 57.813 50.4255 57.722L50.4125 58.528C48.8525 58.632 47.2795 58.723 46.0965 58.801L46.0185 57.917ZM49.4505 59.659L50.1525 59.438C50.5165 60.166 50.8675 61.154 50.9975 61.804L50.2435 62.064C50.1265 61.414 49.7755 60.413 49.4505 59.659ZM46.7465 59.516L47.5915 59.672C47.4095 60.894 47.0845 62.155 46.6685 62.987C46.4995 62.883 46.1095 62.701 45.9015 62.61C46.3305 61.817 46.5905 60.66 46.7465 59.516ZM48.1505 58.281H49.0215V64.079H48.1505V58.281ZM65.2641 57.93V59.659H69.3331V57.93H65.2641ZM64.4321 57.189H70.1911V60.4H64.4321V57.189ZM67.2401 52.964C66.6031 54.082 65.4331 55.382 64.1461 56.188C64.0421 55.967 63.8341 55.629 63.6651 55.421C64.9391 54.68 66.1741 53.302 66.7591 52.093H67.6431C68.4231 53.38 69.6841 54.628 70.8801 55.252C70.6981 55.473 70.4901 55.824 70.3601 56.084C69.1901 55.343 67.9421 54.108 67.2401 52.964ZM66.8241 55.707H67.7081V58.385C67.7081 60.439 67.3311 62.597 64.2891 64.053C64.1591 63.845 63.8861 63.52 63.6781 63.364C66.5121 62.064 66.8241 60.153 66.8241 58.372V55.707ZM67.8901 59.932C68.3451 61.466 69.3461 62.701 70.7761 63.26C70.5681 63.429 70.2821 63.793 70.1521 64.027C68.6441 63.325 67.6301 61.908 67.1231 60.127L67.8901 59.932ZM65.2771 55.343H69.3201V56.136H65.2771V55.343ZM59.7781 54.589H63.6651V55.356H59.7781V54.589ZM59.7781 56.539H63.6651V57.319H59.7781V56.539ZM59.3101 58.515H63.6521V59.308H59.3101V58.515ZM61.4031 53.068H62.2091V58.957H61.4031V53.068ZM61.9101 60.01L62.3651 59.841C62.6771 60.361 62.9761 61.063 63.1061 61.518L62.6121 61.713C62.5081 61.245 62.2091 60.53 61.9101 60.01ZM61.0521 60.218L61.5461 60.114C61.7931 60.777 62.0271 61.635 62.0791 62.194L61.5591 62.324C61.5071 61.765 61.2991 60.881 61.0521 60.218ZM60.1161 60.335L60.6231 60.27C60.7661 61.037 60.8441 62.025 60.8311 62.662L60.2981 62.727C60.3241 62.077 60.2461 61.102 60.1161 60.335ZM59.2061 60.114L59.8041 60.231C59.7391 61.401 59.5961 62.623 59.0891 63.325L58.5431 63.013C58.9981 62.363 59.1541 61.219 59.2061 60.114ZM59.3101 52.626H63.9381V53.445H60.1421V59.035H59.3101V52.626ZM63.2361 58.515H64.0681C64.0681 58.515 64.0681 58.775 64.0551 58.905C63.9121 62.142 63.7691 63.286 63.4571 63.676C63.2621 63.897 63.0671 63.988 62.7551 64.014C62.5081 64.04 62.0401 64.04 61.5851 64.014C61.5721 63.78 61.4941 63.442 61.3771 63.234C61.8191 63.273 62.2221 63.273 62.3781 63.273C62.5471 63.273 62.6511 63.247 62.7421 63.13C62.9631 62.857 63.1061 61.765 63.2361 58.671V58.515ZM76.2416 52.912C76.1896 53.146 76.1376 53.432 76.0856 53.679C75.9946 54.147 75.8256 55.213 75.6436 56.019C75.2016 57.852 74.2786 61.089 72.8096 63.455L71.7436 63.039C73.2256 61.05 74.2656 57.579 74.6166 55.993C74.8636 54.953 75.0326 53.783 75.0326 52.782L76.2416 52.912ZM80.7136 54.407C81.5196 55.46 82.6506 57.826 83.0926 59.022L82.0786 59.503C81.7016 58.177 80.6746 55.915 79.7646 54.836L80.7136 54.407ZM71.5616 55.759C71.9646 55.785 72.3026 55.772 72.7186 55.759C73.6936 55.733 76.3326 55.447 77.2166 55.447C78.3736 55.447 79.3226 55.889 79.3226 57.644C79.3226 59.191 79.1146 61.258 78.5686 62.337C78.1656 63.208 77.5156 63.429 76.6706 63.429C76.1766 63.429 75.5526 63.338 75.1496 63.234L74.9676 62.155C75.5136 62.324 76.2026 62.415 76.5666 62.415C77.0476 62.415 77.4376 62.311 77.6976 61.752C78.1136 60.868 78.3216 59.178 78.3216 57.774C78.3216 56.578 77.7756 56.357 76.9436 56.357C76.0726 56.357 73.6286 56.656 72.8356 56.734C72.5366 56.773 72.0036 56.838 71.6656 56.89L71.5616 55.759ZM80.8566 52.522C81.1816 52.99 81.6496 53.783 81.9226 54.316L81.2206 54.628C80.9606 54.095 80.5186 53.315 80.1546 52.821L80.8566 52.522ZM82.2866 52.002C82.6376 52.483 83.1316 53.302 83.3916 53.783L82.6766 54.095C82.4036 53.523 81.9746 52.782 81.5976 52.301L82.2866 52.002ZM89.4292 52.717C89.3772 52.873 89.3252 53.107 89.2862 53.289C89.0652 54.381 88.8442 56.435 88.8442 58.216C88.8442 59.906 89.2082 61.466 89.6112 62.688L88.6622 62.974C88.2852 61.817 87.9342 59.971 87.9342 58.32C87.9342 56.539 88.1942 54.433 88.3112 53.315C88.3372 53.081 88.3502 52.847 88.3502 52.678L89.4292 52.717ZM87.3362 54.316C89.6242 54.316 91.8862 54.134 93.6802 53.731L93.6932 54.693C91.8212 55.018 89.2602 55.213 87.3232 55.213C86.7642 55.213 85.7502 55.161 85.2172 55.135L85.1912 54.16C85.6462 54.238 86.7772 54.316 87.3362 54.316ZM92.7572 55.85C92.6792 56.019 92.5622 56.37 92.4842 56.578C91.7172 58.983 90.4172 60.79 89.0522 61.843C88.2202 62.48 87.1802 62.961 86.2572 62.961C85.3992 62.961 84.7232 62.441 84.7232 61.336C84.7232 59.555 86.3742 57.722 88.2982 56.981C89.1692 56.643 90.2222 56.448 91.0672 56.448C93.5242 56.448 95.0712 57.878 95.0712 59.698C95.0712 61.557 93.8362 63.182 90.8202 63.663L90.2612 62.792C92.6012 62.532 94.0572 61.323 94.0572 59.646C94.0572 58.385 92.9912 57.28 91.0542 57.28C89.9622 57.28 89.0002 57.592 88.3372 57.891C86.8682 58.541 85.6982 59.971 85.6982 61.167C85.6982 61.7 85.9582 61.96 86.4392 61.96C87.0892 61.96 87.9342 61.596 88.7662 60.868C89.9232 59.854 90.9892 58.45 91.5872 56.344C91.6392 56.149 91.7042 55.798 91.7172 55.59L92.7572 55.85ZM100.277 52.743C100.004 53.705 99.7567 55.46 99.6787 56.37C100.212 55.031 101.564 53.406 103.215 53.406C104.931 53.406 106.179 55.148 106.179 57.878C106.179 61.479 103.904 63.078 100.693 63.663L100.069 62.727C102.903 62.298 105.1 61.154 105.1 57.891C105.1 55.837 104.411 54.355 103.046 54.355C101.421 54.355 99.9127 56.721 99.7567 58.424C99.6917 58.918 99.6917 59.373 99.7827 60.023L98.7687 60.101C98.7037 59.607 98.6387 58.879 98.6387 58.034C98.6387 56.799 98.8857 54.888 99.0417 53.822C99.0937 53.432 99.1197 53.068 99.1457 52.704L100.277 52.743ZM111.488 63.728C110.643 62.701 109.525 61.596 108.602 60.842L109.447 60.101C110.383 60.855 111.553 62.025 112.372 62.974L111.488 63.728ZM121.152 52.756H125.624V53.666H121.152V52.756ZM121.308 56.435H125.494V57.345H121.308V56.435ZM120.905 61.063C122.114 60.764 123.934 60.257 125.689 59.75L125.819 60.621C124.181 61.115 122.439 61.622 121.165 62.012L120.905 61.063ZM127.132 55.564V56.877H131.396V55.564H127.132ZM127.132 57.67V58.983H131.396V57.67H127.132ZM127.132 53.484V54.784H131.396V53.484H127.132ZM126.222 52.652H132.345V59.828H126.222V52.652ZM129.628 59.425H130.564V62.727C130.564 63.052 130.629 63.104 130.941 63.104C131.084 63.104 131.76 63.104 131.955 63.104C132.254 63.104 132.306 62.909 132.345 61.57C132.54 61.726 132.93 61.882 133.177 61.934C133.099 63.546 132.852 63.962 132.059 63.962C131.864 63.962 130.98 63.962 130.798 63.962C129.849 63.962 129.628 63.676 129.628 62.74V59.425ZM127.418 59.62H128.367C128.133 61.817 127.47 63.312 124.844 64.131C124.74 63.884 124.48 63.507 124.285 63.325C126.677 62.675 127.21 61.427 127.418 59.62ZM122.959 53.12H123.895V60.777L122.959 60.933V53.12ZM133.898 54.095H145.286V55.044H133.898V54.095ZM137.928 58.216H144.779V59.126H137.928V58.216ZM137.421 62.818H145.286V63.741H137.421V62.818ZM140.866 55.707H141.841V63.312H140.866V55.707ZM138.175 52.08L139.176 52.327C138.266 55.304 136.68 58.333 134.093 60.192C133.989 59.932 133.742 59.516 133.586 59.295C135.926 57.644 137.447 54.758 138.175 52.08ZM135.601 57.436H136.576V64.001H135.601V57.436ZM151.414 52.782C151.336 53.133 151.297 53.406 151.245 53.692C151.076 55.148 150.491 59.152 150.491 60.556C150.491 61.817 151.206 62.584 152.688 62.584C154.664 62.584 155.925 61.726 155.925 60.374C155.925 59.503 155.457 58.541 154.495 57.735L155.639 57.488C156.536 58.476 156.978 59.386 156.978 60.491C156.978 62.428 155.249 63.611 152.675 63.611C150.92 63.611 149.49 62.831 149.49 60.712C149.49 59.321 150.101 55.434 150.244 53.64C150.283 53.185 150.283 52.951 150.257 52.717L151.414 52.782ZM147.254 54.511C148.346 54.862 149.906 55.031 151.063 55.031C152.051 55.031 152.948 54.979 153.715 54.862L153.689 55.85C152.857 55.928 152.09 55.967 151.037 55.967C149.893 55.967 148.333 55.772 147.189 55.46L147.254 54.511ZM146.929 57.748C148.19 58.19 149.711 58.307 150.907 58.307C151.804 58.307 152.701 58.281 153.611 58.151L153.598 59.139C152.727 59.23 151.921 59.256 151.05 59.256C149.633 59.256 148.06 59.1 146.877 58.736L146.929 57.748ZM163.991 52.782C163.913 53.068 163.822 53.562 163.77 53.809C163.575 54.745 163.302 56.214 162.938 57.514C162.47 59.36 161.599 62.051 160.91 63.468L159.779 63.091C160.559 61.739 161.469 59.1 161.963 57.267C162.275 56.071 162.613 54.433 162.704 53.757C162.756 53.393 162.782 52.951 162.756 52.678L163.991 52.782ZM161.118 54.953C162.548 54.953 164.459 54.719 166.071 54.316V55.33C164.459 55.694 162.496 55.915 161.092 55.915C160.52 55.915 160.065 55.902 159.584 55.863L159.558 54.849C160.169 54.927 160.637 54.953 161.118 54.953ZM165.226 56.734C165.902 56.669 166.773 56.63 167.605 56.63C168.359 56.63 169.152 56.656 169.854 56.734L169.828 57.722C169.152 57.644 168.398 57.566 167.631 57.566C166.825 57.566 166.019 57.618 165.226 57.709V56.734ZM165.486 59.893C165.382 60.322 165.304 60.725 165.304 61.063C165.304 61.674 165.655 62.272 167.501 62.272C168.359 62.272 169.243 62.181 170.049 62.025L170.01 63.065C169.308 63.169 168.437 63.247 167.488 63.247C165.447 63.247 164.329 62.623 164.329 61.336C164.329 60.842 164.407 60.348 164.524 59.802L165.486 59.893ZM177.864 52.691C177.838 52.912 177.812 53.172 177.799 53.562C177.773 54.082 177.773 55.824 177.773 56.916C177.773 58.632 177.968 60.907 177.968 61.778C177.968 62.688 177.37 63.611 175.68 63.611C173.808 63.611 172.781 62.948 172.781 61.687C172.781 60.504 173.912 59.711 175.784 59.711C178.527 59.711 180.672 61.193 181.673 62.012L181.075 62.935C179.905 61.856 177.981 60.556 175.667 60.556C174.419 60.556 173.756 61.037 173.756 61.635C173.756 62.246 174.263 62.688 175.55 62.688C176.304 62.688 176.941 62.467 176.941 61.557C176.941 60.556 176.811 58.06 176.811 56.916C176.811 55.746 176.811 54.381 176.811 53.471C176.811 53.25 176.798 52.86 176.759 52.691H177.864ZM172.898 54.095C173.73 54.251 175.355 54.381 176.213 54.381C177.864 54.381 179.606 54.264 181.296 53.991V54.94C179.827 55.109 177.968 55.278 176.226 55.278C175.329 55.278 173.73 55.161 172.911 55.057L172.898 54.095ZM172.833 56.864C173.756 57.007 175.238 57.098 176.096 57.098C177.981 57.098 179.71 56.968 181.4 56.721V57.696C179.632 57.917 178.046 58.008 176.096 58.008C175.199 58.008 173.769 57.943 172.846 57.839L172.833 56.864ZM188.92 54.225C190.337 54.472 192.976 54.42 194.263 54.225V55.278C192.872 55.434 190.35 55.434 188.933 55.278L188.92 54.225ZM189.427 59.529C189.31 59.997 189.245 60.361 189.245 60.712C189.245 61.31 189.661 61.895 191.442 61.895C192.599 61.895 193.613 61.791 194.653 61.544L194.679 62.636C193.873 62.805 192.781 62.909 191.429 62.909C189.258 62.909 188.283 62.181 188.283 60.959C188.283 60.53 188.348 60.062 188.491 59.438L189.427 59.529ZM186.45 53.224C186.372 53.445 186.268 53.861 186.216 54.095C185.969 55.304 185.566 57.618 185.566 59.087C185.566 59.711 185.605 60.257 185.683 60.894C185.904 60.309 186.203 59.529 186.424 58.996L186.97 59.425C186.645 60.348 186.164 61.713 186.047 62.337C186.008 62.519 185.982 62.766 185.982 62.922C185.995 63.052 186.008 63.234 186.021 63.377L185.098 63.442C184.838 62.519 184.617 61.024 184.617 59.256C184.617 57.345 185.046 55.122 185.202 54.043C185.241 53.744 185.28 53.419 185.293 53.133L186.45 53.224ZM201.782 52.6H202.705V53.926C202.705 55.07 202.38 56.5 200.937 57.449C200.807 57.254 200.469 56.877 200.274 56.747C201.574 55.928 201.782 54.81 201.782 53.913V52.6ZM202.263 52.6H205.591V53.51H202.263V52.6ZM205.149 52.6H206.085V55.733C206.085 56.019 206.124 56.058 206.358 56.058C206.462 56.058 206.93 56.058 207.073 56.058C207.307 56.058 207.359 55.876 207.385 54.524C207.58 54.693 207.957 54.823 208.217 54.901C208.139 56.487 207.905 56.903 207.177 56.903C206.995 56.903 206.371 56.903 206.202 56.903C205.383 56.903 205.149 56.656 205.149 55.733V52.6ZM201.002 57.709H206.553V58.606H201.002V57.709ZM206.267 57.709H206.462L206.644 57.67L207.268 57.943C206.202 61.401 203.459 63.247 200.352 64.066C200.261 63.806 200.027 63.39 199.845 63.182C202.744 62.532 205.357 60.803 206.267 57.878V57.709ZM202.315 58.554C203.277 60.907 205.331 62.558 208.243 63.169C208.035 63.377 207.749 63.78 207.606 64.04C204.603 63.312 202.536 61.518 201.444 58.827L202.315 58.554ZM195.997 59.061C197.089 58.775 198.74 58.268 200.352 57.774L200.469 58.619C199.013 59.139 197.492 59.672 196.322 60.075L195.997 59.061ZM196.166 54.654H200.482V55.564H196.166V54.654ZM198.064 52.093H199.013V62.896C199.013 63.442 198.883 63.715 198.545 63.858C198.207 64.014 197.687 64.04 196.816 64.027C196.777 63.793 196.634 63.39 196.517 63.143C197.102 63.156 197.648 63.156 197.817 63.143C197.986 63.143 198.064 63.091 198.064 62.896V52.093ZM216.374 52.093H217.323V53.822H216.374V52.093ZM213.267 53.419H220.404V54.212H213.267V53.419ZM215.165 55.655V56.903H218.597V55.655H215.165ZM214.32 54.927H219.481V57.631H214.32V54.927ZM213.371 58.346H219.832V59.139H214.255V64.027H213.371V58.346ZM219.481 58.346H220.378V63.091C220.378 63.52 220.287 63.754 219.988 63.897C219.689 64.027 219.208 64.04 218.467 64.04C218.428 63.806 218.311 63.481 218.194 63.26C218.714 63.273 219.156 63.273 219.299 63.26C219.429 63.247 219.481 63.221 219.481 63.078V58.346ZM215.191 59.919H215.919V63.195H215.191V59.919ZM215.698 59.919H218.532V62.571H215.698V61.908H217.804V60.582H215.698V59.919ZM210.654 53.12H211.59V64.053H210.654V53.12ZM208.743 55.694H213.241V56.604H208.743V55.694ZM210.706 56.045L211.317 56.292C210.862 58.099 209.952 60.413 209.042 61.609C208.951 61.349 208.717 60.946 208.548 60.712C209.38 59.659 210.303 57.631 210.706 56.045ZM212.5 52.301L213.228 53.029C212.097 53.471 210.42 53.796 209.016 53.978C208.964 53.77 208.834 53.445 208.717 53.224C210.069 53.016 211.642 52.691 212.5 52.301ZM211.538 57.02C211.85 57.306 212.942 58.606 213.176 58.931L212.578 59.685C212.318 59.126 211.434 57.865 211.096 57.397L211.538 57.02ZM37.42 71.873C37.355 72.302 37.316 72.757 37.29 73.186C37.238 74.655 37.134 77.736 37.134 79.673C37.134 81.103 38.031 81.597 39.266 81.597C41.645 81.597 42.997 80.271 43.933 78.919L44.661 79.803C43.777 81.038 42.087 82.663 39.24 82.663C37.368 82.663 36.081 81.896 36.081 79.764C36.081 77.84 36.211 74.551 36.211 73.186C36.211 72.705 36.172 72.25 36.094 71.873H37.42ZM46.1784 73.368C46.6724 73.355 47.0884 73.329 47.3484 73.303C48.1934 73.212 50.6374 72.978 53.0424 72.77C54.4594 72.653 55.6684 72.575 56.5394 72.549L56.5524 73.589C55.7984 73.576 54.6674 73.602 54.0044 73.784C52.1454 74.382 51.0144 76.371 51.0144 77.905C51.0144 80.44 53.3934 81.246 55.4994 81.337L55.1354 82.403C52.7174 82.312 49.9874 81.038 49.9874 78.126C49.9874 76.098 51.2224 74.447 52.4184 73.745C51.0144 73.888 47.7124 74.213 46.2954 74.512L46.1784 73.368ZM60.4654 72.939C60.4004 73.238 60.3614 73.862 60.3484 74.2C60.3354 75.006 60.3484 76.202 60.4394 77.268C60.6604 79.439 61.2844 80.882 62.2204 80.882C62.8834 80.882 63.4944 79.543 63.8324 78.243L64.6514 79.166C63.8584 81.363 63.0784 82.117 62.1944 82.117C60.9594 82.117 59.7894 80.895 59.4254 77.528C59.3084 76.41 59.2824 74.824 59.2824 74.07C59.2824 73.771 59.2824 73.212 59.2044 72.913L60.4654 72.939ZM67.2254 73.29C68.3954 74.798 69.3314 77.567 69.5264 79.764L68.4734 80.18C68.2524 77.84 67.4594 75.162 66.2244 73.641L67.2254 73.29ZM77.4824 71.691C77.4564 71.912 77.4304 72.172 77.4174 72.562C77.3914 73.082 77.3914 74.824 77.3914 75.916C77.3914 77.632 77.5864 79.907 77.5864 80.778C77.5864 81.688 76.9884 82.611 75.2984 82.611C73.4264 82.611 72.3994 81.948 72.3994 80.687C72.3994 79.504 73.5304 78.711 75.4024 78.711C78.1454 78.711 80.2904 80.193 81.2914 81.012L80.6934 81.935C79.5234 80.856 77.5994 79.556 75.2854 79.556C74.0374 79.556 73.3744 80.037 73.3744 80.635C73.3744 81.246 73.8814 81.688 75.1684 81.688C75.9224 81.688 76.5594 81.467 76.5594 80.557C76.5594 79.556 76.4294 77.06 76.4294 75.916C76.4294 74.746 76.4294 73.381 76.4294 72.471C76.4294 72.25 76.4164 71.86 76.3774 71.691H77.4824ZM72.5164 73.095C73.3484 73.251 74.9734 73.381 75.8314 73.381C77.4824 73.381 79.2244 73.264 80.9144 72.991V73.94C79.4454 74.109 77.5864 74.278 75.8444 74.278C74.9474 74.278 73.3484 74.161 72.5294 74.057L72.5164 73.095ZM72.4514 75.864C73.3744 76.007 74.8564 76.098 75.7144 76.098C77.5994 76.098 79.3284 75.968 81.0184 75.721V76.696C79.2504 76.917 77.6644 77.008 75.7144 77.008C74.8174 77.008 73.3874 76.943 72.4644 76.839L72.4514 75.864ZM90.6774 71.704C90.6514 71.86 90.6124 72.367 90.6124 72.523C90.5734 73.368 90.5994 75.877 90.6124 76.917L89.6244 76.41C89.6244 75.838 89.6114 73.251 89.5724 72.536C89.5464 72.185 89.5074 71.821 89.4814 71.704H90.6774ZM83.7614 73.524C85.5294 73.498 88.7794 73.381 90.7814 73.381C92.3674 73.381 93.9794 73.381 94.5904 73.394L94.5774 74.356C93.8494 74.317 92.6794 74.291 90.7684 74.291C88.5324 74.291 85.7504 74.382 83.7874 74.525L83.7614 73.524ZM90.5864 77.294C90.5864 79.036 89.7804 79.907 88.5974 79.907C87.5054 79.907 86.4524 79.14 86.4524 77.723C86.4524 76.436 87.5184 75.474 88.7534 75.474C90.2614 75.474 91.0284 76.592 91.0284 78.087C91.0284 79.855 90.1704 81.805 87.1544 82.702L86.2834 81.857C88.6494 81.298 90.0274 80.141 90.0274 77.996C90.0274 76.826 89.4554 76.332 88.7534 76.332C88.0644 76.332 87.4274 76.865 87.4274 77.71C87.4274 78.529 88.0384 78.997 88.7534 78.997C89.5594 78.997 90.0794 78.321 89.8714 76.93L90.5864 77.294ZM96.2335 78.841C97.3255 78.841 98.2095 79.725 98.2095 80.817C98.2095 81.909 97.3255 82.793 96.2335 82.793C95.1415 82.793 94.2445 81.909 94.2445 80.817C94.2445 79.725 95.1415 78.841 96.2335 78.841ZM96.2335 82.13C96.9615 82.13 97.5465 81.545 97.5465 80.817C97.5465 80.089 96.9615 79.504 96.2335 79.504C95.5055 79.504 94.9075 80.089 94.9075 80.817C94.9075 81.545 95.5055 82.13 96.2335 82.13Z" fill="white"/>
<path d="M5 0.6L250 0.6C252.43 0.6 254.4 2.56995 254.4 5V93C254.4 95.4301 252.43 97.4 250 97.4H5C2.56995 97.4 0.6 95.4301 0.6 93L0.6 5C0.6 2.56995 2.56995 0.6 5 0.6Z" stroke="white" stroke-width="1.2"/>
</svg>
