<svg width="255" height="98" viewBox="0 0 255 98" fill="none" xmlns="http://www.w3.org/2000/svg">
<path d="M0.4 5C0.4 2.45949 2.45949 0.4 5 0.4L250 0.4C252.541 0.4 254.6 2.45949 254.6 5V93C254.6 95.5405 252.541 97.6 250 97.6H5C2.45949 97.6 0.4 95.5405 0.4 93L0.4 5Z" stroke="white" stroke-width="0.8"/>
<path d="M102.299 50.0001C102.806 50.0801 103.266 50.2867 103.679 50.6201C104.106 50.9534 104.439 51.3667 104.679 51.8601C104.933 52.3534 105.059 52.8801 105.059 53.4401C105.059 54.1467 104.879 54.7867 104.519 55.3601C104.159 55.9201 103.633 56.3667 102.939 56.7001C102.259 57.0201 101.453 57.1801 100.519 57.1801H95.3193V43.2401H100.319C101.266 43.2401 102.073 43.4001 102.739 43.7201C103.406 44.0267 103.906 44.4467 104.239 44.9801C104.573 45.5134 104.739 46.1134 104.739 46.7801C104.739 47.6067 104.513 48.2934 104.059 48.8401C103.619 49.3734 103.033 49.7601 102.299 50.0001ZM97.1393 49.2601H100.199C101.053 49.2601 101.713 49.0601 102.179 48.6601C102.646 48.2601 102.879 47.7067 102.879 47.0001C102.879 46.2934 102.646 45.7401 102.179 45.3401C101.713 44.9401 101.039 44.7401 100.159 44.7401H97.1393V49.2601ZM100.359 55.6801C101.266 55.6801 101.973 55.4667 102.479 55.0401C102.986 54.6134 103.239 54.0201 103.239 53.2601C103.239 52.4867 102.973 51.8801 102.439 51.4401C101.906 50.9867 101.193 50.7601 100.299 50.7601H97.1393V55.6801H100.359ZM112.365 57.3601C111.338 57.3601 110.405 57.1267 109.565 56.6601C108.738 56.1934 108.085 55.5334 107.605 54.6801C107.138 53.8134 106.905 52.8134 106.905 51.6801C106.905 50.5601 107.145 49.5734 107.625 48.7201C108.118 47.8534 108.785 47.1934 109.625 46.7401C110.465 46.2734 111.405 46.0401 112.445 46.0401C113.485 46.0401 114.425 46.2734 115.265 46.7401C116.105 47.1934 116.765 47.8467 117.245 48.7001C117.738 49.5534 117.985 50.5467 117.985 51.6801C117.985 52.8134 117.732 53.8134 117.225 54.6801C116.732 55.5334 116.058 56.1934 115.205 56.6601C114.352 57.1267 113.405 57.3601 112.365 57.3601ZM112.365 55.7601C113.018 55.7601 113.632 55.6067 114.205 55.3001C114.778 54.9934 115.238 54.5334 115.585 53.9201C115.945 53.3067 116.125 52.5601 116.125 51.6801C116.125 50.8001 115.952 50.0534 115.605 49.4401C115.258 48.8267 114.805 48.3734 114.245 48.0801C113.685 47.7734 113.078 47.6201 112.425 47.6201C111.758 47.6201 111.145 47.7734 110.585 48.0801C110.038 48.3734 109.598 48.8267 109.265 49.4401C108.932 50.0534 108.765 50.8001 108.765 51.6801C108.765 52.5734 108.925 53.3267 109.245 53.9401C109.578 54.5534 110.018 55.0134 110.565 55.3201C111.112 55.6134 111.712 55.7601 112.365 55.7601ZM126.498 57.1801L122.198 52.3401V57.1801H120.378V42.3801H122.198V51.0801L126.418 46.2201H128.958L123.798 51.6801L128.978 57.1801H126.498ZM140.671 51.2801C140.671 51.6267 140.651 51.9934 140.611 52.3801H131.851C131.918 53.4601 132.284 54.3067 132.951 54.9201C133.631 55.5201 134.451 55.8201 135.411 55.8201C136.198 55.8201 136.851 55.6401 137.371 55.2801C137.904 54.9067 138.278 54.4134 138.491 53.8001H140.451C140.158 54.8534 139.571 55.7134 138.691 56.3801C137.811 57.0334 136.718 57.3601 135.411 57.3601C134.371 57.3601 133.438 57.1267 132.611 56.6601C131.798 56.1934 131.158 55.5334 130.691 54.6801C130.224 53.8134 129.991 52.8134 129.991 51.6801C129.991 50.5467 130.218 49.5534 130.671 48.7001C131.124 47.8467 131.758 47.1934 132.571 46.7401C133.398 46.2734 134.344 46.0401 135.411 46.0401C136.451 46.0401 137.371 46.2667 138.171 46.7201C138.971 47.1734 139.584 47.8001 140.011 48.6001C140.451 49.3867 140.671 50.2801 140.671 51.2801ZM138.791 50.9001C138.791 50.2067 138.638 49.6134 138.331 49.1201C138.024 48.6134 137.604 48.2334 137.071 47.9801C136.551 47.7134 135.971 47.5801 135.331 47.5801C134.411 47.5801 133.624 47.8734 132.971 48.4601C132.331 49.0467 131.964 49.8601 131.871 50.9001H138.791ZM145.293 47.7201V54.1801C145.293 54.7134 145.407 55.0934 145.633 55.3201C145.86 55.5334 146.253 55.6401 146.813 55.6401H148.153V57.1801H146.513C145.5 57.1801 144.74 56.9467 144.233 56.4801C143.727 56.0134 143.473 55.2467 143.473 54.1801V47.7201H142.053V46.2201H143.473V43.4601H145.293V46.2201H148.153V47.7201H145.293ZM160.358 51.2801C160.358 51.6267 160.338 51.9934 160.298 52.3801H151.538C151.605 53.4601 151.972 54.3067 152.638 54.9201C153.318 55.5201 154.138 55.8201 155.098 55.8201C155.885 55.8201 156.538 55.6401 157.058 55.2801C157.592 54.9067 157.965 54.4134 158.178 53.8001H160.138C159.845 54.8534 159.258 55.7134 158.378 56.3801C157.498 57.0334 156.405 57.3601 155.098 57.3601C154.058 57.3601 153.125 57.1267 152.298 56.6601C151.485 56.1934 150.845 55.5334 150.378 54.6801C149.912 53.8134 149.678 52.8134 149.678 51.6801C149.678 50.5467 149.905 49.5534 150.358 48.7001C150.812 47.8467 151.445 47.1934 152.258 46.7401C153.085 46.2734 154.032 46.0401 155.098 46.0401C156.138 46.0401 157.058 46.2667 157.858 46.7201C158.658 47.1734 159.272 47.8001 159.698 48.6001C160.138 49.3867 160.358 50.2801 160.358 51.2801ZM158.478 50.9001C158.478 50.2067 158.325 49.6134 158.018 49.1201C157.712 48.6134 157.292 48.2334 156.758 47.9801C156.238 47.7134 155.658 47.5801 155.018 47.5801C154.098 47.5801 153.312 47.8734 152.658 48.4601C152.018 49.0467 151.652 49.8601 151.558 50.9001H158.478Z" fill="white"/>
</svg>
