<svg width="255" height="98" viewBox="0 0 255 98" fill="none" xmlns="http://www.w3.org/2000/svg">
<path d="M41.021 21.137L42.139 21.41C41.541 23.243 40.696 25.57 40.007 27.013L39.149 26.74C39.825 25.258 40.618 22.853 41.021 21.137ZM37.94 26.545C39.565 26.467 42.152 26.324 44.648 26.181L44.635 27.078C42.295 27.247 39.812 27.429 38.109 27.533L37.94 26.545ZM42.568 23.932L43.4 23.529C44.271 24.816 45.233 26.519 45.623 27.598L44.713 28.066C44.349 26.987 43.426 25.245 42.568 23.932ZM40.085 16.34L41.099 16.535C40.605 18.615 39.799 20.578 38.785 21.852C38.603 21.683 38.187 21.371 37.94 21.228C38.954 20.071 39.682 18.251 40.085 16.34ZM43.413 16.301C43.894 18.017 44.817 19.98 45.623 21.02C45.376 21.202 45.012 21.553 44.83 21.813C43.972 20.604 43.075 18.459 42.542 16.587L43.413 16.301ZM33.663 18.875H38.239V19.798H33.663V18.875ZM35.626 16.08H36.549V28.027H35.626V16.08ZM35.574 19.447L36.198 19.668C35.769 21.748 34.833 24.296 33.858 25.609C33.754 25.349 33.52 24.959 33.351 24.738C34.274 23.568 35.184 21.319 35.574 19.447ZM36.484 20.851C36.822 21.215 38.07 22.801 38.33 23.191L37.732 23.958C37.407 23.308 36.393 21.826 36.003 21.306L36.484 20.851ZM47.3772 16.86H58.6352V17.809H47.3772V16.86ZM49.2102 22.905H57.0752V23.815H49.2102V22.905ZM49.2882 19.226H57.6472V24.53H56.6592V20.136H49.2882V19.226ZM48.6382 19.226H49.6262V22.177C49.6262 23.984 49.3402 26.48 47.6892 28.105C47.5462 27.897 47.1432 27.559 46.9222 27.429C48.4692 25.908 48.6382 23.802 48.6382 22.164V19.226ZM65.9274 16.028H66.9544V18.459H65.9274V16.028ZM65.9404 18.771H66.9414V28.079H65.9404V18.771ZM60.6364 17.887H72.3494V18.836H60.6364V17.887ZM61.9754 20.617H70.5164V21.566H62.9504V26.428H61.9754V20.617ZM70.1394 20.617H71.1404V25.193C71.1404 25.752 71.0104 26.051 70.5814 26.22C70.1264 26.376 69.3984 26.389 68.2804 26.389C68.2414 26.09 68.0854 25.7 67.9424 25.427C68.8264 25.453 69.6194 25.453 69.8404 25.44C70.0744 25.427 70.1394 25.375 70.1394 25.193V20.617ZM80.7986 18.134C80.6296 19.486 80.3696 21.007 79.9666 22.398C79.1736 25.063 78.1336 26.441 76.9376 26.441C75.7676 26.441 74.6106 25.115 74.6106 22.957C74.6106 20.136 77.1196 17.679 80.3046 17.679C83.3466 17.679 85.2836 19.824 85.2836 22.463C85.2836 25.18 83.4896 27 80.3956 27.403L79.7976 26.441C80.2136 26.402 80.6036 26.35 80.9156 26.285C82.5796 25.908 84.2176 24.66 84.2176 22.411C84.2176 20.331 82.7746 18.615 80.2786 18.615C77.4186 18.615 75.6376 20.968 75.6376 22.879C75.6376 24.517 76.3786 25.245 76.9636 25.245C77.5746 25.245 78.2766 24.361 78.9396 22.164C79.3166 20.929 79.5896 19.46 79.7196 18.108L80.7986 18.134ZM96.3328 21.033C96.3328 24.491 95.5788 26.272 92.6148 27.611L91.7438 26.779C94.1098 25.882 95.2798 24.764 95.2798 21.111V17.952C95.2798 17.445 95.2408 17.016 95.2148 16.899H96.3978C96.3848 17.029 96.3328 17.445 96.3328 17.952V21.033ZM91.6398 16.977C91.6268 17.094 91.5878 17.471 91.5878 17.913V22.684C91.5878 23.165 91.6268 23.737 91.6398 23.854H90.4828C90.4958 23.737 90.5478 23.178 90.5478 22.684V17.913C90.5478 17.64 90.5218 17.276 90.4828 16.977H91.6398ZM87.8438 19.499C87.9608 19.512 88.5978 19.59 89.1438 19.59H97.7498C98.3348 19.59 98.7638 19.538 98.9458 19.512V20.617C98.8028 20.604 98.3348 20.578 97.7628 20.578H89.1438C88.5718 20.578 87.9868 20.617 87.8438 20.617V19.499ZM101.584 22.307C103.833 21.709 105.809 20.786 107.252 19.889C108.617 19.031 109.917 17.913 110.814 16.821L111.685 17.64C110.567 18.797 109.202 19.889 107.681 20.838C106.251 21.722 104.184 22.671 102.091 23.321L101.584 22.307ZM107.044 20.422L108.162 20.084V26.025C108.162 26.506 108.188 27.156 108.253 27.403H106.966C107.005 27.156 107.044 26.506 107.044 26.025V20.422ZM118.327 25.856C118.327 25.128 118.327 19.382 118.327 18.303C118.327 17.926 118.301 17.354 118.236 16.938H119.51C119.458 17.341 119.419 17.9 119.419 18.303C119.419 20.318 119.432 25.245 119.432 25.856C119.432 26.272 119.458 26.974 119.51 27.403H118.249C118.314 26.987 118.327 26.337 118.327 25.856ZM119.185 20.357C120.901 20.851 123.527 21.852 124.97 22.554L124.515 23.659C123.033 22.866 120.602 21.943 119.185 21.501V20.357ZM129.72 23.841C130.812 23.841 131.696 24.725 131.696 25.817C131.696 26.909 130.812 27.793 129.72 27.793C128.628 27.793 127.731 26.909 127.731 25.817C127.731 24.725 128.628 23.841 129.72 23.841ZM129.72 27.13C130.448 27.13 131.033 26.545 131.033 25.817C131.033 25.089 130.448 24.504 129.72 24.504C128.992 24.504 128.394 25.089 128.394 25.817C128.394 26.545 128.992 27.13 129.72 27.13ZM144.085 17.302C144.41 17.328 144.722 17.341 145.125 17.341C145.697 17.341 148.375 17.224 149.116 17.146C149.428 17.12 149.675 17.068 149.831 17.016L150.481 17.757C150.312 17.874 149.974 18.095 149.792 18.251C148.817 19.044 146.945 20.617 145.905 21.449C147.881 21.228 150.221 21.059 152.08 21.059L152.093 22.021C150.819 21.956 149.571 21.969 148.791 22.086C147.53 22.268 146.282 23.334 146.282 24.556C146.282 25.869 147.335 26.311 148.531 26.48C149.298 26.571 149.922 26.545 150.39 26.506L150.182 27.572C146.997 27.702 145.268 26.714 145.268 24.712C145.268 23.607 146.113 22.658 146.789 22.255C145.398 22.372 143.656 22.58 142.096 22.84L142.005 21.865C142.707 21.787 143.591 21.683 144.254 21.605C145.671 20.617 147.725 18.81 148.557 18.082C147.972 18.121 145.697 18.225 145.138 18.277C144.8 18.303 144.423 18.342 144.137 18.368L144.085 17.302ZM161.504 18.134C161.335 19.486 161.075 21.007 160.672 22.398C159.879 25.063 158.839 26.441 157.643 26.441C156.473 26.441 155.316 25.115 155.316 22.957C155.316 20.136 157.825 17.679 161.01 17.679C164.052 17.679 165.989 19.824 165.989 22.463C165.989 25.18 164.195 27 161.101 27.403L160.503 26.441C160.919 26.402 161.309 26.35 161.621 26.285C163.285 25.908 164.923 24.66 164.923 22.411C164.923 20.331 163.48 18.615 160.984 18.615C158.124 18.615 156.343 20.968 156.343 22.879C156.343 24.517 157.084 25.245 157.669 25.245C158.28 25.245 158.982 24.361 159.645 22.164C160.022 20.929 160.295 19.46 160.425 18.108L161.504 18.134ZM175.114 16.691C175.088 16.912 175.062 17.172 175.049 17.562C175.023 18.082 175.023 19.824 175.023 20.916C175.023 22.632 175.218 24.907 175.218 25.778C175.218 26.688 174.62 27.611 172.93 27.611C171.058 27.611 170.031 26.948 170.031 25.687C170.031 24.504 171.162 23.711 173.034 23.711C175.777 23.711 177.922 25.193 178.923 26.012L178.325 26.935C177.155 25.856 175.231 24.556 172.917 24.556C171.669 24.556 171.006 25.037 171.006 25.635C171.006 26.246 171.513 26.688 172.8 26.688C173.554 26.688 174.191 26.467 174.191 25.557C174.191 24.556 174.061 22.06 174.061 20.916C174.061 19.746 174.061 18.381 174.061 17.471C174.061 17.25 174.048 16.86 174.009 16.691H175.114ZM170.148 18.095C170.98 18.251 172.605 18.381 173.463 18.381C175.114 18.381 176.856 18.264 178.546 17.991V18.94C177.077 19.109 175.218 19.278 173.476 19.278C172.579 19.278 170.98 19.161 170.161 19.057L170.148 18.095ZM170.083 20.864C171.006 21.007 172.488 21.098 173.346 21.098C175.231 21.098 176.96 20.968 178.65 20.721V21.696C176.882 21.917 175.296 22.008 173.346 22.008C172.449 22.008 171.019 21.943 170.096 21.839L170.083 20.864ZM188.282 17.354C188.165 17.51 188.009 17.744 187.866 17.991C187.281 18.888 186.085 21.046 185.422 22.307C186.046 21.748 186.722 21.501 187.346 21.501C188.217 21.501 188.841 22.06 188.88 23.087C188.906 23.854 188.88 24.842 188.932 25.479C188.971 26.129 189.413 26.415 189.972 26.415C191.428 26.415 192.286 24.621 192.611 23.23L193.482 23.932C192.793 26.025 191.701 27.481 189.816 27.481C188.425 27.481 187.97 26.61 187.931 25.843C187.892 25.076 187.905 24.075 187.866 23.36C187.84 22.801 187.502 22.45 186.917 22.45C185.877 22.45 184.889 23.516 184.395 24.543C183.992 25.31 183.446 26.857 183.264 27.494L182.146 27.104C183.095 24.478 185.942 19.148 186.657 17.9C186.8 17.588 186.969 17.276 187.125 16.886L188.282 17.354ZM202.1 16.691C202.074 16.912 202.048 17.172 202.035 17.562C202.009 18.082 202.009 19.824 202.009 20.916C202.009 22.632 202.204 24.907 202.204 25.778C202.204 26.688 201.606 27.611 199.916 27.611C198.044 27.611 197.017 26.948 197.017 25.687C197.017 24.504 198.148 23.711 200.02 23.711C202.763 23.711 204.908 25.193 205.909 26.012L205.311 26.935C204.141 25.856 202.217 24.556 199.903 24.556C198.655 24.556 197.992 25.037 197.992 25.635C197.992 26.246 198.499 26.688 199.786 26.688C200.54 26.688 201.177 26.467 201.177 25.557C201.177 24.556 201.047 22.06 201.047 20.916C201.047 19.746 201.047 18.381 201.047 17.471C201.047 17.25 201.034 16.86 200.995 16.691H202.1ZM197.134 18.095C197.966 18.251 199.591 18.381 200.449 18.381C202.1 18.381 203.842 18.264 205.532 17.991V18.94C204.063 19.109 202.204 19.278 200.462 19.278C199.565 19.278 197.966 19.161 197.147 19.057L197.134 18.095ZM197.069 20.864C197.992 21.007 199.474 21.098 200.332 21.098C202.217 21.098 203.946 20.968 205.636 20.721V21.696C203.868 21.917 202.282 22.008 200.332 22.008C199.435 22.008 198.005 21.943 197.082 21.839L197.069 20.864ZM209.172 18.446C209.666 18.433 210.082 18.407 210.342 18.381C211.174 18.29 213.631 18.056 216.023 17.848C217.453 17.731 218.662 17.653 219.533 17.627L219.546 18.667C218.792 18.654 217.661 18.68 216.998 18.862C215.139 19.46 214.008 21.449 214.008 22.983C214.008 25.518 216.387 26.337 218.493 26.415L218.116 27.481C215.711 27.39 212.981 26.116 212.981 23.204C212.981 21.189 214.216 19.525 215.399 18.823C214.008 18.966 210.693 19.291 209.289 19.59L209.172 18.446ZM217.661 20.253C217.96 20.682 218.454 21.488 218.74 22.073L218.064 22.372C217.765 21.748 217.401 21.085 217.011 20.539L217.661 20.253ZM219.078 19.707C219.403 20.136 219.91 20.929 220.209 21.501L219.546 21.826C219.234 21.202 218.844 20.552 218.441 20.006L219.078 19.707ZM41.151 34.704C41.125 34.86 41.086 35.367 41.086 35.523C41.047 36.368 41.073 38.877 41.086 39.917L40.098 39.41C40.098 38.838 40.085 36.251 40.046 35.536C40.02 35.185 39.981 34.821 39.955 34.704H41.151ZM34.235 36.524C36.003 36.498 39.253 36.381 41.255 36.381C42.841 36.381 44.453 36.381 45.064 36.394L45.051 37.356C44.323 37.317 43.153 37.291 41.242 37.291C39.006 37.291 36.224 37.382 34.261 37.525L34.235 36.524ZM41.06 40.294C41.06 42.036 40.254 42.907 39.071 42.907C37.979 42.907 36.926 42.14 36.926 40.723C36.926 39.436 37.992 38.474 39.227 38.474C40.735 38.474 41.502 39.592 41.502 41.087C41.502 42.855 40.644 44.805 37.628 45.702L36.757 44.857C39.123 44.298 40.501 43.141 40.501 40.996C40.501 39.826 39.929 39.332 39.227 39.332C38.538 39.332 37.901 39.865 37.901 40.71C37.901 41.529 38.512 41.997 39.227 41.997C40.033 41.997 40.553 41.321 40.345 39.93L41.06 40.294ZM47.8004 41.841C48.8924 41.841 49.7764 42.725 49.7764 43.817C49.7764 44.909 48.8924 45.793 47.8004 45.793C46.7084 45.793 45.8114 44.909 45.8114 43.817C45.8114 42.725 46.7084 41.841 47.8004 41.841ZM47.8004 45.13C48.5284 45.13 49.1134 44.545 49.1134 43.817C49.1134 43.089 48.5284 42.504 47.8004 42.504C47.0724 42.504 46.4744 43.089 46.4744 43.817C46.4744 44.545 47.0724 45.13 47.8004 45.13ZM59.4626 39.891H71.2666V40.866H59.4626V39.891ZM64.8706 37.798H65.8846V44.792C65.8846 45.442 65.7026 45.741 65.2086 45.897C64.7276 46.053 63.8826 46.079 62.6346 46.079C62.5566 45.793 62.3746 45.351 62.2056 45.065C63.2586 45.104 64.2206 45.104 64.5066 45.091C64.7796 45.078 64.8706 45.013 64.8706 44.779V37.798ZM60.8016 34.99H69.2906V35.952H60.8016V34.99ZM68.9526 34.99H69.2126L69.4336 34.938L70.1746 35.484C68.9916 36.68 67.1456 37.967 65.6246 38.747C65.4816 38.526 65.1826 38.214 64.9876 38.045C66.4046 37.369 68.1336 36.134 68.9526 35.211V34.99ZM75.9089 34.119L76.8319 34.405C75.9869 36.602 74.6479 38.812 73.2439 40.268C73.1399 40.047 72.8669 39.527 72.6849 39.306C73.9589 38.045 75.1809 36.095 75.9089 34.119ZM74.5309 37.486L75.4799 36.537L75.4929 36.55V46.027H74.5309V37.486ZM76.7669 36.862H84.7489V37.798H76.7669V36.862ZM76.4419 41.009H84.9049V41.971H76.4419V41.009ZM78.4439 34.223H79.4059V41.529H78.4439V34.223ZM81.9409 34.21H82.8899V41.542H81.9409V34.21ZM78.7169 42.699L79.6399 42.985C79.0029 44.116 78.0149 45.273 77.1439 46.014C76.9619 45.845 76.5849 45.533 76.3639 45.403C77.2609 44.727 78.1579 43.7 78.7169 42.699ZM81.6679 43.167L82.4349 42.725C83.3319 43.583 84.2939 44.74 84.7619 45.533L83.9429 46.053C83.5009 45.247 82.5389 44.038 81.6679 43.167ZM91.5102 34.912C91.4582 35.146 91.4062 35.432 91.3542 35.679C91.2632 36.147 91.0942 37.213 90.9122 38.019C90.4702 39.852 89.5472 43.089 88.0782 45.455L87.0122 45.039C88.4942 43.05 89.5342 39.579 89.8852 37.993C90.1322 36.953 90.3012 35.783 90.3012 34.782L91.5102 34.912ZM95.9822 36.407C96.7882 37.46 97.9192 39.826 98.3612 41.022L97.3472 41.503C96.9702 40.177 95.9432 37.915 95.0332 36.836L95.9822 36.407ZM86.8302 37.759C87.2332 37.785 87.5712 37.772 87.9872 37.759C88.9622 37.733 91.6012 37.447 92.4852 37.447C93.6422 37.447 94.5912 37.889 94.5912 39.644C94.5912 41.191 94.3832 43.258 93.8372 44.337C93.4342 45.208 92.7842 45.429 91.9392 45.429C91.4452 45.429 90.8212 45.338 90.4182 45.234L90.2362 44.155C90.7822 44.324 91.4712 44.415 91.8352 44.415C92.3162 44.415 92.7062 44.311 92.9662 43.752C93.3822 42.868 93.5902 41.178 93.5902 39.774C93.5902 38.578 93.0442 38.357 92.2122 38.357C91.3412 38.357 88.8972 38.656 88.1042 38.734C87.8052 38.773 87.2722 38.838 86.9342 38.89L86.8302 37.759ZM96.1252 34.522C96.4502 34.99 96.9182 35.783 97.1912 36.316L96.4892 36.628C96.2292 36.095 95.7872 35.315 95.4232 34.821L96.1252 34.522ZM97.5552 34.002C97.9062 34.483 98.4002 35.302 98.6602 35.783L97.9452 36.095C97.6722 35.523 97.2432 34.782 96.8662 34.301L97.5552 34.002ZM107.007 34.691C106.981 34.912 106.955 35.172 106.942 35.562C106.916 36.082 106.916 37.824 106.916 38.916C106.916 40.632 107.111 42.907 107.111 43.778C107.111 44.688 106.513 45.611 104.823 45.611C102.951 45.611 101.924 44.948 101.924 43.687C101.924 42.504 103.055 41.711 104.927 41.711C107.67 41.711 109.815 43.193 110.816 44.012L110.218 44.935C109.048 43.856 107.124 42.556 104.81 42.556C103.562 42.556 102.899 43.037 102.899 43.635C102.899 44.246 103.406 44.688 104.693 44.688C105.447 44.688 106.084 44.467 106.084 43.557C106.084 42.556 105.954 40.06 105.954 38.916C105.954 37.746 105.954 36.381 105.954 35.471C105.954 35.25 105.941 34.86 105.902 34.691H107.007ZM102.041 36.095C102.873 36.251 104.498 36.381 105.356 36.381C107.007 36.381 108.749 36.264 110.439 35.991V36.94C108.97 37.109 107.111 37.278 105.369 37.278C104.472 37.278 102.873 37.161 102.054 37.057L102.041 36.095ZM101.976 38.864C102.899 39.007 104.381 39.098 105.239 39.098C107.124 39.098 108.853 38.968 110.543 38.721V39.696C108.775 39.917 107.189 40.008 105.239 40.008C104.342 40.008 102.912 39.943 101.989 39.839L101.976 38.864ZM118.501 34.964C118.423 35.25 118.319 35.744 118.267 35.991C118.085 36.927 117.812 38.409 117.448 39.696C116.98 41.542 116.109 44.233 115.42 45.65L114.276 45.273C115.069 43.934 115.979 41.282 116.46 39.449C116.785 38.253 117.123 36.628 117.214 35.939C117.266 35.575 117.292 35.133 117.266 34.86L118.501 34.964ZM115.628 37.135C117.058 37.135 118.969 36.914 120.581 36.498V37.525C118.969 37.889 117.006 38.097 115.602 38.097C115.03 38.097 114.575 38.084 114.094 38.045L114.068 37.044C114.679 37.122 115.147 37.135 115.628 37.135ZM119.736 38.929C120.412 38.864 121.27 38.812 122.115 38.812C122.869 38.812 123.662 38.838 124.364 38.916L124.338 39.904C123.662 39.826 122.908 39.761 122.141 39.761C121.322 39.761 120.529 39.8 119.736 39.891V38.929ZM119.996 42.088C119.892 42.504 119.814 42.92 119.814 43.258C119.814 43.869 120.165 44.467 122.011 44.467C122.856 44.467 123.753 44.363 124.559 44.207L124.52 45.26C123.818 45.351 122.947 45.442 121.998 45.442C119.957 45.442 118.839 44.805 118.839 43.518C118.839 43.024 118.917 42.543 119.034 41.984L119.996 42.088ZM122.947 35.367C123.285 35.822 123.753 36.628 124.026 37.148L123.324 37.46C123.064 36.94 122.609 36.147 122.258 35.653L122.947 35.367ZM124.39 34.834C124.741 35.315 125.235 36.121 125.482 36.615L124.78 36.927C124.507 36.355 124.065 35.627 123.701 35.133L124.39 34.834ZM132.737 34.275H133.79V44.688C133.79 45.416 133.595 45.702 133.127 45.858C132.659 46.027 131.853 46.053 130.618 46.053C130.566 45.767 130.384 45.312 130.215 45.026C131.177 45.065 132.113 45.052 132.373 45.039C132.646 45.039 132.737 44.948 132.737 44.688V34.275ZM135.883 37.59L136.819 37.226C137.95 39.059 139.055 41.438 139.393 43.011L138.353 43.427C138.041 41.893 136.988 39.449 135.883 37.59ZM129.331 37.317L130.423 37.499C129.994 39.41 129.24 41.763 128.057 43.219C127.823 43.037 127.394 42.803 127.134 42.699C128.291 41.321 129.006 39.072 129.331 37.317ZM147.09 35.796C147.012 35.51 146.895 35.12 146.765 34.769L147.883 34.639C148 35.393 148.338 36.511 148.637 37.356C149.04 38.474 149.703 39.683 150.262 40.437C150.431 40.697 150.626 40.918 150.821 41.126L150.301 41.867C149.677 41.711 148.091 41.568 147.155 41.503L147.233 40.645C147.961 40.71 148.923 40.788 149.391 40.84C148.845 40.008 148.13 38.721 147.701 37.538C147.415 36.797 147.233 36.199 147.09 35.796ZM142.332 36.81C144.503 37.057 146.557 37.07 148.039 36.914C149.066 36.797 150.353 36.563 151.367 36.212L151.484 37.239C150.561 37.499 149.326 37.707 148.377 37.824C146.726 38.019 144.659 38.032 142.358 37.837L142.332 36.81ZM144.347 40.944C143.957 41.581 143.723 42.14 143.723 42.751C143.723 43.999 144.854 44.532 146.791 44.558C148.104 44.558 149.235 44.428 150.132 44.233L150.093 45.273C149.274 45.416 148.182 45.559 146.726 45.546C144.256 45.533 142.696 44.649 142.696 42.881C142.696 42.153 142.956 41.477 143.333 40.71L144.347 40.944ZM156.764 35.939C156.699 36.238 156.66 36.862 156.647 37.2C156.634 38.006 156.647 39.202 156.738 40.268C156.959 42.439 157.583 43.882 158.519 43.882C159.182 43.882 159.793 42.543 160.131 41.243L160.95 42.166C160.157 44.363 159.377 45.117 158.493 45.117C157.258 45.117 156.088 43.895 155.724 40.528C155.607 39.41 155.581 37.824 155.581 37.07C155.581 36.771 155.581 36.212 155.503 35.913L156.764 35.939ZM163.524 36.29C164.694 37.798 165.63 40.567 165.825 42.764L164.772 43.18C164.551 40.84 163.758 38.162 162.523 36.641L163.524 36.29ZM174.757 36.134C174.588 37.486 174.328 39.007 173.925 40.398C173.132 43.063 172.092 44.441 170.896 44.441C169.726 44.441 168.569 43.115 168.569 40.957C168.569 38.136 171.078 35.679 174.263 35.679C177.305 35.679 179.242 37.824 179.242 40.463C179.242 43.18 177.448 45 174.354 45.403L173.756 44.441C174.172 44.402 174.562 44.35 174.874 44.285C176.538 43.908 178.176 42.66 178.176 40.411C178.176 38.331 176.733 36.615 174.237 36.615C171.377 36.615 169.596 38.968 169.596 40.879C169.596 42.517 170.337 43.245 170.922 43.245C171.533 43.245 172.235 42.361 172.898 40.164C173.275 38.929 173.548 37.46 173.678 36.108L174.757 36.134ZM182.025 36.446C182.519 36.433 182.935 36.407 183.195 36.381C184.027 36.29 186.484 36.056 188.876 35.848C190.306 35.731 191.515 35.653 192.386 35.627L192.399 36.667C191.645 36.654 190.514 36.68 189.851 36.862C187.992 37.46 186.861 39.449 186.861 40.983C186.861 43.518 189.24 44.337 191.346 44.415L190.969 45.481C188.564 45.39 185.834 44.116 185.834 41.204C185.834 39.189 187.069 37.525 188.252 36.823C186.861 36.966 183.546 37.291 182.142 37.59L182.025 36.446ZM190.514 38.253C190.813 38.682 191.307 39.488 191.593 40.073L190.917 40.372C190.618 39.748 190.254 39.085 189.864 38.539L190.514 38.253ZM191.931 37.707C192.256 38.136 192.763 38.929 193.062 39.501L192.399 39.826C192.087 39.202 191.697 38.552 191.294 38.006L191.931 37.707ZM197.717 44.623H204.516V45.494H197.717V44.623ZM199.446 33.976L200.369 34.301C199.316 36.069 197.665 37.655 196.04 38.656C195.884 38.474 195.52 38.11 195.299 37.954C196.937 37.044 198.523 35.575 199.446 33.976ZM204.191 35.445H204.399L204.568 35.393L205.244 35.848C203.32 38.903 199.082 40.879 195.429 41.737C195.351 41.464 195.13 41.061 194.948 40.853C198.419 40.151 202.553 38.227 204.191 35.601V35.445ZM198.432 36.043C200.174 38.292 203.606 40.099 207.181 40.788C206.947 41.009 206.687 41.412 206.544 41.685C202.956 40.879 199.55 38.981 197.626 36.433L198.432 36.043ZM197.21 41.386H204.919V46.053H203.905V42.283H198.185V46.105H197.21V41.386ZM198.939 35.445H204.438V36.316H198.354L198.939 35.445ZM216.478 35.068H217.414V45.442H216.478V35.068ZM213.241 36.381H220.443V37.174H213.241V36.381ZM212.89 44.974H220.69V45.78H212.89V44.974ZM213.631 43.154H220.248V43.947H213.631V43.154ZM219.832 34.249L220.417 34.977C218.688 35.367 215.932 35.575 213.696 35.627C213.683 35.419 213.566 35.081 213.475 34.873C215.646 34.795 218.35 34.587 219.832 34.249ZM214.658 40.45V41.503H219.286V40.45H214.658ZM214.658 38.786V39.813H219.286V38.786H214.658ZM213.787 38.058H220.196V42.231H213.787V38.058ZM210.914 35.159H211.863V46.014H210.914V35.159ZM208.782 37.746H213.501V38.669H208.782V37.746ZM210.966 38.097L211.577 38.357C211.057 40.19 210.017 42.465 209.016 43.674C208.925 43.401 208.691 42.998 208.522 42.777C209.458 41.737 210.498 39.709 210.966 38.097ZM212.838 34.275L213.527 35.029C212.331 35.51 210.511 35.874 209.003 36.082C208.951 35.861 208.821 35.549 208.704 35.328C210.173 35.081 211.889 34.717 212.838 34.275ZM211.824 39.423C212.149 39.709 213.371 40.944 213.631 41.269L213.059 42.036C212.747 41.503 211.772 40.268 211.369 39.813L211.824 39.423ZM43.361 52.106L44.089 52.899C41.736 53.588 37.888 53.939 34.729 54.069C34.703 53.822 34.586 53.432 34.495 53.211C37.589 53.068 41.385 52.717 43.361 52.106ZM34.508 55.772H44.648V56.708H34.508V55.772ZM33.637 58.827H45.376V59.776H33.637V58.827ZM39.006 53.484H40.02V62.688C40.02 63.377 39.812 63.676 39.318 63.832C38.824 63.988 37.979 64.014 36.601 64.001C36.536 63.728 36.354 63.286 36.198 63.026C37.277 63.065 38.317 63.052 38.603 63.039C38.902 63.039 39.006 62.948 39.006 62.675V53.484ZM54.8067 52.08H55.7687V55.72H54.8067V52.08ZM51.8297 53.302H58.8107V54.121H51.8297V53.302ZM52.2847 55.304H58.3557V56.136H52.2847V55.304ZM51.8817 57.033H58.8367V59.373H57.9657V57.826H52.7267V59.373H51.8817V57.033ZM55.9377 58.775H56.8347V62.753C56.8347 63.065 56.8737 63.117 57.1467 63.117C57.2507 63.117 57.8097 63.117 57.9657 63.117C58.2127 63.117 58.2777 62.909 58.3037 61.518C58.4857 61.687 58.8627 61.817 59.1097 61.895C59.0317 63.533 58.7977 63.962 58.0567 63.962C57.8877 63.962 57.1857 63.962 57.0167 63.962C56.1457 63.962 55.9377 63.689 55.9377 62.753V58.775ZM53.5457 58.788H54.4427V59.607C54.4427 60.907 54.1567 62.805 51.6607 64.066C51.5177 63.858 51.2057 63.572 50.9717 63.403C53.2987 62.272 53.5457 60.621 53.5457 59.581V58.788ZM49.0217 52.093L49.8797 52.418C49.3857 53.38 48.7747 54.55 48.2677 55.265L47.6047 54.979C48.0727 54.225 48.6837 52.951 49.0217 52.093ZM50.4777 53.575L51.2967 53.952C50.3997 55.395 49.1387 57.241 48.1637 58.372L47.5657 58.034C48.5407 56.877 49.7627 54.94 50.4777 53.575ZM46.9417 54.797L47.4617 54.173C48.1637 54.81 48.9567 55.681 49.2947 56.279L48.7357 57.007C48.4107 56.383 47.6307 55.46 46.9417 54.797ZM49.9707 56.552L50.6727 56.253C51.2187 57.111 51.7517 58.229 51.9337 58.944L51.1667 59.295C50.9977 58.567 50.4907 57.41 49.9707 56.552ZM46.8377 57.839C47.9687 57.787 49.5937 57.709 51.2317 57.618V58.437C49.6847 58.541 48.1247 58.632 46.9417 58.71L46.8377 57.839ZM50.3087 59.698L51.0237 59.477C51.3617 60.231 51.6347 61.206 51.7257 61.843L50.9717 62.077C50.8937 61.44 50.6207 60.452 50.3087 59.698ZM47.6177 59.516L48.4367 59.659C48.2677 60.894 47.9687 62.142 47.5527 62.974C47.3967 62.87 47.0067 62.701 46.8117 62.61C47.2277 61.817 47.4747 60.647 47.6177 59.516ZM48.9957 58.216H49.8537V64.04H48.9957V58.216ZM62.2743 54.095C64.0813 54.316 65.7843 54.342 67.1103 54.212C68.1763 54.121 69.2423 53.9 70.1783 53.588L70.3213 54.537C69.4763 54.784 68.3713 55.005 67.3313 55.096C66.0183 55.226 64.1983 55.226 62.3393 55.044L62.2743 54.095ZM62.0143 56.76C64.2373 56.994 66.4473 56.955 67.9683 56.773C69.2033 56.643 70.2563 56.383 70.9453 56.175L71.1143 57.137C70.3993 57.332 69.4113 57.527 68.3193 57.657C66.7203 57.865 64.3153 57.904 62.0793 57.735L62.0143 56.76ZM66.4603 53.926C66.3563 53.549 66.2393 53.146 66.0963 52.769L67.2013 52.626C67.3313 53.718 67.7343 55.031 68.0593 55.954C68.4103 56.968 68.9823 58.216 69.6583 59.217C69.8013 59.425 69.9573 59.607 70.1523 59.776L69.6063 60.569C68.8783 60.387 67.6693 60.257 66.7723 60.166L66.8503 59.373C67.5523 59.438 68.3973 59.529 68.8003 59.581C68.0853 58.463 67.5393 57.215 67.1623 56.162C66.8373 55.265 66.6423 54.576 66.4603 53.926ZM63.9123 59.568C63.6003 60.01 63.3663 60.452 63.3663 61.037C63.3663 62.103 64.3153 62.649 66.3563 62.649C67.5653 62.649 68.5143 62.558 69.4633 62.376L69.4113 63.403C68.5013 63.559 67.4873 63.637 66.3693 63.637C63.8343 63.637 62.4043 62.883 62.3783 61.206C62.3783 60.465 62.5993 59.919 62.8983 59.347L63.9123 59.568ZM74.669 54.81C75.15 54.862 75.709 54.888 76.268 54.888C77.672 54.888 79.31 54.719 80.805 54.225L80.831 55.187C79.557 55.538 77.854 55.824 76.268 55.811C75.787 55.811 75.228 55.798 74.747 55.785L74.669 54.81ZM79.284 52.691C79.115 53.328 78.842 54.55 78.53 55.473C77.906 57.345 76.71 59.711 75.631 61.167L74.63 60.647C75.787 59.295 76.996 56.981 77.529 55.447C77.815 54.628 78.101 53.484 78.14 52.574L79.284 52.691ZM82.352 56.708C82.313 57.241 82.313 57.631 82.326 58.099C82.352 58.944 82.469 60.92 82.469 61.778C82.469 62.818 81.806 63.663 80.194 63.663C78.764 63.663 77.607 63.091 77.607 61.791C77.607 60.595 78.738 59.841 80.194 59.841C82.378 59.841 84.055 60.933 85.121 61.856L84.575 62.74C83.574 61.83 82.079 60.673 80.168 60.673C79.206 60.673 78.556 61.115 78.556 61.713C78.556 62.311 79.063 62.727 80.077 62.727C81.156 62.727 81.52 62.155 81.52 61.453C81.52 60.465 81.377 58.138 81.325 56.708H82.352ZM84.952 57.046C84.25 56.448 82.833 55.655 81.975 55.252L82.495 54.472C83.444 54.875 84.913 55.72 85.537 56.188L84.952 57.046ZM96.7747 55.59C96.4757 55.772 96.1507 55.941 95.7737 56.136C94.8897 56.591 93.4467 57.267 92.1727 58.112C90.9637 58.905 90.2357 59.763 90.2357 60.738C90.2357 61.817 91.2627 62.493 93.3167 62.493C94.7337 62.493 96.4757 62.311 97.4897 62.051L97.4767 63.221C96.5017 63.39 94.9937 63.533 93.3687 63.533C90.9247 63.533 89.1567 62.805 89.1567 60.855C89.1567 59.451 90.1057 58.346 91.6267 57.332C92.9527 56.448 94.4737 55.733 95.3187 55.265C95.6957 55.044 95.9817 54.875 96.2547 54.641L96.7747 55.59ZM90.5477 53.055C91.1457 54.719 91.9387 56.344 92.5497 57.384L91.6527 57.93C91.0027 56.864 90.2227 55.109 89.5207 53.497L90.5477 53.055ZM96.9957 52.925C97.3207 53.406 97.7887 54.186 98.0487 54.719L97.3467 55.044C97.0867 54.511 96.6577 53.718 96.2937 53.224L96.9957 52.925ZM98.4257 52.405C98.7637 52.886 99.2707 53.705 99.5177 54.186L98.8157 54.498C98.5297 53.939 98.1137 53.185 97.7367 52.704L98.4257 52.405ZM107.297 54.849H110.82V55.616H107.297V54.849ZM107.167 56.864H111.002V57.631H107.167V56.864ZM108.636 53.744H109.429V57.306H108.636V53.744ZM106.218 52.626H111.899V53.484H106.218V52.626ZM107.765 58.619H110.742V61.986H107.765V61.232H109.988V59.36H107.765V58.619ZM107.362 58.619H108.103V62.493H107.362V58.619ZM111.535 52.626H112.445V62.818C112.445 63.39 112.328 63.702 111.964 63.858C111.6 64.027 110.95 64.04 109.975 64.04C109.936 63.78 109.819 63.338 109.676 63.065C110.391 63.104 111.067 63.091 111.288 63.078C111.483 63.078 111.535 63.026 111.535 62.818V52.626ZM105.724 52.626H106.621V57.293C106.621 59.334 106.478 62.207 105.386 64.131C105.23 63.962 104.84 63.689 104.619 63.585C105.646 61.778 105.724 59.217 105.724 57.293V52.626ZM101.395 56.019H104.736V56.799H101.395V56.019ZM101.473 52.548H104.697V53.328H101.473V52.548ZM101.395 57.761H104.736V58.541H101.395V57.761ZM100.862 54.251H105.061V55.057H100.862V54.251ZM101.85 59.516H104.723V63.299H101.85V62.493H103.904V60.322H101.85V59.516ZM101.369 59.516H102.175V63.91H101.369V59.516ZM114.44 59.685C114.765 59.438 115.038 59.191 115.376 58.827C116.078 58.125 117.157 56.643 117.937 55.72C118.691 54.836 119.367 54.706 120.225 55.59C121.005 56.383 122.006 57.67 122.838 58.554C123.618 59.425 124.918 60.79 126.088 61.83L125.243 62.766C124.268 61.843 123.098 60.491 122.201 59.477C121.356 58.515 120.368 57.267 119.757 56.604C119.211 55.993 118.964 56.097 118.509 56.643C117.898 57.397 116.832 58.827 116.156 59.633C115.896 59.971 115.597 60.387 115.402 60.673L114.44 59.685ZM122.838 54.225C123.163 54.719 123.761 55.681 124.073 56.305L123.293 56.656C122.981 55.967 122.526 55.148 122.084 54.55L122.838 54.225ZM124.515 53.575C124.853 54.03 125.477 55.005 125.789 55.603L125.035 55.967C124.684 55.291 124.216 54.485 123.787 53.913L124.515 53.575ZM130.41 53.432C130.696 53.458 131.06 53.471 131.32 53.471C132.009 53.471 135.09 53.38 135.779 53.315C136.169 53.276 136.351 53.25 136.494 53.198L137.092 53.965C136.858 54.121 136.598 54.29 136.351 54.485C135.714 54.979 133.946 56.5 132.932 57.332C133.53 57.137 134.154 57.072 134.739 57.072C136.897 57.072 138.444 58.359 138.444 60.114C138.444 62.207 136.715 63.572 133.959 63.572C132.191 63.572 131.112 62.805 131.112 61.713C131.112 60.829 131.918 60.023 133.114 60.023C134.843 60.023 135.714 61.245 135.805 62.558L134.869 62.714C134.791 61.609 134.154 60.816 133.114 60.816C132.516 60.816 132.061 61.18 132.061 61.635C132.061 62.272 132.776 62.649 133.803 62.649C136.013 62.649 137.404 61.739 137.404 60.114C137.404 58.827 136.182 57.878 134.479 57.878C132.321 57.878 131.151 58.788 129.513 60.465L128.759 59.711C129.838 58.827 131.515 57.423 132.256 56.786C132.984 56.188 134.622 54.823 135.272 54.238C134.583 54.277 131.983 54.381 131.307 54.42C131.008 54.446 130.722 54.459 130.436 54.498L130.41 53.432ZM146.535 52.782C146.457 53.068 146.366 53.562 146.314 53.809C146.119 54.745 145.846 56.214 145.482 57.514C145.014 59.36 144.143 62.051 143.454 63.468L142.323 63.091C143.103 61.739 144.013 59.1 144.507 57.267C144.819 56.071 145.157 54.433 145.248 53.757C145.3 53.393 145.326 52.951 145.3 52.678L146.535 52.782ZM143.662 54.953C145.092 54.953 147.003 54.719 148.615 54.316V55.33C147.003 55.694 145.04 55.915 143.636 55.915C143.064 55.915 142.609 55.902 142.128 55.863L142.102 54.849C142.713 54.927 143.181 54.953 143.662 54.953ZM147.77 56.734C148.446 56.669 149.317 56.63 150.149 56.63C150.903 56.63 151.696 56.656 152.398 56.734L152.372 57.722C151.696 57.644 150.942 57.566 150.175 57.566C149.369 57.566 148.563 57.618 147.77 57.709V56.734ZM148.03 59.893C147.926 60.322 147.848 60.725 147.848 61.063C147.848 61.674 148.199 62.272 150.045 62.272C150.903 62.272 151.787 62.181 152.593 62.025L152.554 63.065C151.852 63.169 150.981 63.247 150.032 63.247C147.991 63.247 146.873 62.623 146.873 61.336C146.873 60.842 146.951 60.348 147.068 59.802L148.03 59.893ZM162.96 52.938C162.869 53.263 162.791 53.718 162.726 53.965C162.258 56.11 161.348 58.827 160.308 60.257C159.32 61.635 158.371 62.61 157.188 62.61C156.2 62.61 155.368 61.791 155.368 60.27C155.368 58.632 156.369 56.903 157.747 55.98C159.034 55.109 160.308 54.771 161.647 54.771C164.195 54.771 166.041 56.487 166.041 59.022C166.041 61.622 164.182 63.195 161.387 63.585L160.789 62.662C163.506 62.415 165.001 60.998 165.001 58.983C165.001 57.072 163.623 55.668 161.53 55.668C160.269 55.668 159.138 56.097 158.124 56.851C157.019 57.644 156.317 59.035 156.317 60.205C156.317 61.063 156.694 61.583 157.279 61.583C158.124 61.583 159.034 60.478 159.697 59.425C160.555 58.099 161.426 55.72 161.751 53.822C161.803 53.562 161.842 53.133 161.829 52.834L162.96 52.938ZM157.63 53.536C157.695 53.887 157.799 54.316 157.903 54.68C158.241 55.954 158.969 57.956 159.515 58.866C159.957 59.62 160.568 60.478 161.192 61.076L160.373 61.739C159.853 61.167 159.372 60.53 158.878 59.685C158.241 58.671 157.487 56.682 156.993 55.057C156.863 54.641 156.72 54.212 156.551 53.874L157.63 53.536ZM174.77 52.795C174.718 53.081 174.679 53.705 174.666 54.095C174.666 54.68 174.666 55.577 174.666 56.474C174.666 57.891 174.874 60.491 174.874 61.635C174.874 62.688 174.224 63.598 172.495 63.598C170.688 63.598 169.375 63.039 169.375 61.557C169.375 60.374 170.389 59.425 172.638 59.425C175.212 59.425 177.526 60.725 178.852 61.934L178.228 62.909C176.928 61.609 174.796 60.335 172.521 60.335C171.169 60.335 170.402 60.79 170.402 61.518C170.402 62.233 171.13 62.636 172.391 62.636C173.34 62.636 173.808 62.181 173.808 61.284C173.808 60.322 173.652 57.8 173.652 56.474C173.652 55.72 173.639 54.654 173.639 54.095C173.626 53.614 173.587 53.042 173.535 52.795H174.77ZM174.094 55.421C174.991 55.421 177.11 55.356 178.514 55.187L178.553 56.162C177.149 56.292 175.03 56.383 174.094 56.383V55.421ZM190.362 53.419C190.076 53.627 189.673 53.978 189.465 54.16C188.568 54.94 186.696 56.409 185.734 57.215C184.954 57.891 184.941 58.086 185.786 58.788C186.969 59.763 189.27 61.609 190.648 63L189.725 63.845C189.452 63.533 189.14 63.221 188.828 62.896C187.905 61.96 185.942 60.27 184.72 59.269C183.498 58.242 183.641 57.683 184.811 56.695C185.799 55.876 187.775 54.316 188.646 53.432C188.906 53.172 189.244 52.795 189.387 52.561L190.362 53.419ZM195.321 56.006H201.509V56.916H195.321V56.006ZM202.38 53.627H203.329V60.816H202.38V53.627ZM198.051 53.185H199.013V64.027H198.051V53.185ZM205.578 52.327H206.54V62.74C206.54 63.416 206.371 63.715 205.955 63.871C205.526 64.04 204.798 64.066 203.602 64.053C203.55 63.78 203.394 63.351 203.238 63.065C204.174 63.091 204.98 63.091 205.227 63.078C205.474 63.078 205.578 63 205.578 62.753V52.327ZM200.638 52.158L201.366 52.912C199.858 53.51 197.505 53.939 195.529 54.199C195.49 53.965 195.347 53.627 195.23 53.419C197.154 53.146 199.416 52.704 200.638 52.158ZM198.012 56.422L198.714 56.708C198.051 58.684 196.777 61.011 195.568 62.246C195.451 61.96 195.204 61.57 195.035 61.323C196.179 60.231 197.44 58.164 198.012 56.422ZM198.883 57.761C199.377 58.112 201.054 59.568 201.47 59.932L200.898 60.751C200.365 60.153 198.948 58.788 198.35 58.281L198.883 57.761ZM210.693 53.003H219.104V53.939H210.693V53.003ZM210.693 56.032H219.091V56.955H210.693V56.032ZM210.628 59.139H219.117V60.062H210.628V59.139ZM210.147 53.003H211.109V57.722C211.109 59.698 210.875 62.389 209.328 64.118C209.172 63.923 208.782 63.598 208.574 63.468C210.004 61.856 210.147 59.542 210.147 57.709V53.003ZM218.714 53.003H219.676V62.714C219.676 63.351 219.52 63.65 219.091 63.819C218.649 63.975 217.895 63.988 216.66 63.975C216.621 63.715 216.465 63.286 216.322 63.026C217.245 63.065 218.129 63.052 218.376 63.052C218.623 63.039 218.714 62.961 218.714 62.714V53.003ZM214.229 53.354H215.217V63.923H214.229V53.354ZM37.42 71.873C37.355 72.302 37.316 72.757 37.29 73.186C37.238 74.655 37.134 77.736 37.134 79.673C37.134 81.103 38.031 81.597 39.266 81.597C41.645 81.597 42.997 80.271 43.933 78.919L44.661 79.803C43.777 81.038 42.087 82.663 39.24 82.663C37.368 82.663 36.081 81.896 36.081 79.764C36.081 77.84 36.211 74.551 36.211 73.186C36.211 72.705 36.172 72.25 36.094 71.873H37.42ZM46.3084 73.368C46.8024 73.355 47.2184 73.329 47.4784 73.303C48.3234 73.212 50.7674 72.978 53.1724 72.77C54.5894 72.653 55.7984 72.575 56.6694 72.549L56.6824 73.589C55.9284 73.576 54.7974 73.602 54.1344 73.784C52.2754 74.382 51.1444 76.371 51.1444 77.905C51.1444 80.44 53.5234 81.246 55.6294 81.337L55.2654 82.403C52.8474 82.312 50.1174 81.038 50.1174 78.126C50.1174 76.098 51.3524 74.447 52.5484 73.745C51.1444 73.888 47.8424 74.213 46.4254 74.512L46.3084 73.368ZM60.7254 72.939C60.6604 73.238 60.6214 73.862 60.6084 74.2C60.5954 75.006 60.6084 76.202 60.6994 77.268C60.9204 79.439 61.5444 80.882 62.4804 80.882C63.1434 80.882 63.7544 79.543 64.0924 78.243L64.9114 79.166C64.1184 81.363 63.3384 82.117 62.4544 82.117C61.2194 82.117 60.0494 80.895 59.6854 77.528C59.5684 76.41 59.5424 74.824 59.5424 74.07C59.5424 73.771 59.5424 73.212 59.4644 72.913L60.7254 72.939ZM67.4854 73.29C68.6554 74.798 69.5914 77.567 69.7864 79.764L68.7334 80.18C68.5124 77.84 67.7194 75.162 66.4844 73.641L67.4854 73.29ZM77.8724 71.691C77.8464 71.912 77.8204 72.172 77.8074 72.562C77.7814 73.082 77.7814 74.824 77.7814 75.916C77.7814 77.632 77.9764 79.907 77.9764 80.778C77.9764 81.688 77.3784 82.611 75.6884 82.611C73.8164 82.611 72.7894 81.948 72.7894 80.687C72.7894 79.504 73.9204 78.711 75.7924 78.711C78.5354 78.711 80.6804 80.193 81.6814 81.012L81.0834 81.935C79.9134 80.856 77.9894 79.556 75.6754 79.556C74.4274 79.556 73.7644 80.037 73.7644 80.635C73.7644 81.246 74.2714 81.688 75.5584 81.688C76.3124 81.688 76.9494 81.467 76.9494 80.557C76.9494 79.556 76.8194 77.06 76.8194 75.916C76.8194 74.746 76.8194 73.381 76.8194 72.471C76.8194 72.25 76.8064 71.86 76.7674 71.691H77.8724ZM72.9064 73.095C73.7384 73.251 75.3634 73.381 76.2214 73.381C77.8724 73.381 79.6144 73.264 81.3044 72.991V73.94C79.8354 74.109 77.9764 74.278 76.2344 74.278C75.3374 74.278 73.7384 74.161 72.9194 74.057L72.9064 73.095ZM72.8414 75.864C73.7644 76.007 75.2464 76.098 76.1044 76.098C77.9894 76.098 79.7184 75.968 81.4084 75.721V76.696C79.6404 76.917 78.0544 77.008 76.1044 77.008C75.2074 77.008 73.7774 76.943 72.8544 76.839L72.8414 75.864ZM91.1974 71.704C91.1714 71.86 91.1324 72.367 91.1324 72.523C91.0934 73.368 91.1194 75.877 91.1324 76.917L90.1444 76.41C90.1444 75.838 90.1314 73.251 90.0924 72.536C90.0664 72.185 90.0274 71.821 90.0014 71.704H91.1974ZM84.2814 73.524C86.0494 73.498 89.2994 73.381 91.3014 73.381C92.8874 73.381 94.4994 73.381 95.1104 73.394L95.0974 74.356C94.3694 74.317 93.1994 74.291 91.2884 74.291C89.0524 74.291 86.2704 74.382 84.3074 74.525L84.2814 73.524ZM91.1064 77.294C91.1064 79.036 90.3004 79.907 89.1174 79.907C88.0254 79.907 86.9724 79.14 86.9724 77.723C86.9724 76.436 88.0384 75.474 89.2734 75.474C90.7814 75.474 91.5484 76.592 91.5484 78.087C91.5484 79.855 90.6904 81.805 87.6744 82.702L86.8034 81.857C89.1694 81.298 90.5474 80.141 90.5474 77.996C90.5474 76.826 89.9754 76.332 89.2734 76.332C88.5844 76.332 87.9474 76.865 87.9474 77.71C87.9474 78.529 88.5584 78.997 89.2734 78.997C90.0794 78.997 90.5994 78.321 90.3914 76.93L91.1064 77.294ZM96.8835 78.841C97.9755 78.841 98.8595 79.725 98.8595 80.817C98.8595 81.909 97.9755 82.793 96.8835 82.793C95.7915 82.793 94.8945 81.909 94.8945 80.817C94.8945 79.725 95.7915 78.841 96.8835 78.841ZM96.8835 82.13C97.6115 82.13 98.1965 81.545 98.1965 80.817C98.1965 80.089 97.6115 79.504 96.8835 79.504C96.1555 79.504 95.5575 80.089 95.5575 80.817C95.5575 81.545 96.1555 82.13 96.8835 82.13Z" fill="white"/>
<path d="M5 0.6L250 0.6C252.43 0.6 254.4 2.56995 254.4 5V93C254.4 95.4301 252.43 97.4 250 97.4H5C2.56995 97.4 0.6 95.4301 0.6 93L0.6 5C0.6 2.56995 2.56995 0.6 5 0.6Z" stroke="white" stroke-width="1.2"/>
</svg>
