<svg width="255" height="98" viewBox="0 0 255 98" fill="none" xmlns="http://www.w3.org/2000/svg">
<path d="M33.611 19.343H45.415V20.292H33.611V19.343ZM36.068 26.142H44.973V27.078H36.068V26.142ZM39.409 23.009H42.841V23.932H39.409V23.009ZM35.561 16.431H36.562V28.053H35.561V16.431ZM38.98 16.158H39.968V24.569H38.98V16.158ZM42.412 16.301H43.387V24.504H42.412V16.301ZM49.4864 19.499V20.916H56.4544V19.499H49.4864ZM49.4864 17.328V18.719H56.4544V17.328H49.4864ZM48.5114 16.509H57.4554V21.722H48.5114V16.509ZM54.4134 21.189C55.3234 22.45 57.1564 23.503 58.9764 23.984C58.7554 24.179 58.4694 24.556 58.3264 24.816C56.4674 24.218 54.6084 22.983 53.5814 21.501L54.4134 21.189ZM51.6054 21.189L52.4504 21.54C51.4104 22.983 49.4994 24.231 47.7184 24.868C47.5624 24.621 47.2764 24.257 47.0554 24.062C48.8104 23.555 50.6694 22.437 51.6054 21.189ZM50.5264 23.477H51.5144V24.283C51.5144 25.531 51.2024 27.104 48.6804 28.118C48.5374 27.871 48.2254 27.533 48.0044 27.338C50.2924 26.48 50.5264 25.219 50.5264 24.257V23.477ZM52.4634 16.938H53.4514V21.358H52.4634V16.938ZM54.6604 23.477H55.6614V28.014H54.6604V23.477ZM63.2169 18.758V19.681H69.7429V18.758H63.2169ZM63.2169 17.198V18.095H69.7429V17.198H63.2169ZM62.2679 16.496H70.7049V20.37H62.2679V16.496ZM60.7209 21.098H72.1739V21.904H60.7209V21.098ZM66.4929 22.723H71.1209V23.516H66.4929V22.723ZM62.4109 22.801H65.6219V23.529H62.4109V22.801ZM62.4109 24.439H65.6219V25.167H62.4109V24.439ZM67.8579 23.451C68.6119 25.31 70.2759 26.727 72.4859 27.273C72.2779 27.455 72.0179 27.806 71.8879 28.04C69.5999 27.364 67.9229 25.817 67.0649 23.685L67.8579 23.451ZM70.8219 22.723H71.0039L71.1729 22.684L71.7709 22.931C70.9129 25.57 68.8199 27.195 66.5579 27.975C66.4539 27.741 66.2069 27.39 66.0249 27.208C68.1049 26.584 70.1069 25.063 70.8219 22.879V22.723ZM60.6039 26.428C61.8779 26.324 63.7629 26.116 65.5959 25.908V26.714C63.8409 26.922 62.0339 27.143 60.6949 27.299L60.6039 26.428ZM65.1019 21.358H66.0379V28.04H65.1019V21.358ZM61.8389 21.371H62.7489V26.662H61.8389V21.371ZM74.2563 19.824H85.6833V20.812H74.2563V19.824ZM80.5873 20.214C81.4323 23.36 83.2003 25.986 85.9043 27.104C85.6573 27.325 85.3323 27.741 85.1633 28.014C82.3553 26.688 80.5873 23.945 79.6123 20.448L80.5873 20.214ZM79.4433 16.093H80.4963C80.4443 19.499 80.4183 25.427 74.7373 28.027C74.5813 27.767 74.2693 27.416 73.9963 27.221C79.5213 24.816 79.4173 19.213 79.4433 16.093ZM94.2527 18.134C94.0837 19.486 93.8237 21.007 93.4207 22.398C92.6277 25.063 91.5877 26.441 90.3917 26.441C89.2217 26.441 88.0647 25.115 88.0647 22.957C88.0647 20.136 90.5737 17.679 93.7587 17.679C96.8007 17.679 98.7377 19.824 98.7377 22.463C98.7377 25.18 96.9437 27 93.8497 27.403L93.2517 26.441C93.6677 26.402 94.0577 26.35 94.3697 26.285C96.0337 25.908 97.6717 24.66 97.6717 22.411C97.6717 20.331 96.2287 18.615 93.7327 18.615C90.8727 18.615 89.0917 20.968 89.0917 22.879C89.0917 24.517 89.8327 25.245 90.4177 25.245C91.0287 25.245 91.7307 24.361 92.3937 22.164C92.7707 20.929 93.0437 19.46 93.1737 18.108L94.2527 18.134ZM102.25 17.952H111.584V18.992H102.25V17.952ZM101.145 25.661H112.689V26.753H101.145V25.661ZM120.726 19.668H125.068V20.5H120.726V19.668ZM120.284 24.192H125.458V25.024H120.284V24.192ZM121.688 21.904H122.351V27.858H121.688V21.904ZM123.391 21.904H124.054V27.858H123.391V21.904ZM122.832 17.042C122.195 18.147 121.025 19.46 119.764 20.318C119.66 20.071 119.426 19.733 119.257 19.525C120.518 18.732 121.766 17.328 122.364 16.132H123.235C124.054 17.432 125.341 18.719 126.524 19.421C126.342 19.642 126.121 19.98 125.978 20.266C124.821 19.46 123.56 18.173 122.832 17.042ZM119.894 21.592H125.471V22.424H120.674V28.053H119.894V21.592ZM125.12 21.592H125.965V27.13C125.965 27.52 125.913 27.754 125.653 27.897C125.406 28.027 125.055 28.04 124.535 28.04C124.496 27.819 124.392 27.481 124.288 27.247C124.6 27.26 124.886 27.26 124.99 27.26C125.081 27.26 125.12 27.221 125.12 27.117V21.592ZM114.564 17.497H119.439V18.368H114.564V17.497ZM114.395 24.907H119.504V25.778H114.395V24.907ZM116.592 16.093H117.411V19.642H116.592V16.093ZM116.67 19.694H117.359V23.477H117.424V28.066H116.592V23.477H116.67V19.694ZM115.539 21.93V23.126H118.503V21.93H115.539ZM115.539 20.058V21.228H118.503V20.058H115.539ZM114.811 19.33H119.27V23.854H114.811V19.33ZM128.463 17.276H139.305V18.173H128.463V17.276ZM128.06 25.258H139.747V26.155H128.06V25.258ZM133.351 16.093H134.352V28.079H133.351V16.093ZM130.361 22.034V23.386H137.394V22.034H130.361ZM130.361 19.941V21.267H137.394V19.941H130.361ZM129.425 19.122H138.369V24.192H129.425V19.122ZM151.384 17.536C151.254 17.783 151.072 18.225 150.968 18.498C150.474 19.785 149.694 21.475 148.628 22.827C147.38 24.413 145.69 26.129 143.233 27.403L142.349 26.597C144.767 25.44 146.431 23.893 147.77 22.19C148.836 20.812 149.486 19.369 149.928 18.095C150.019 17.835 150.136 17.406 150.201 17.133L151.384 17.536ZM144.52 19.07C145.807 19.889 147.614 21.189 148.602 21.982C149.902 23.048 151.189 24.179 152.216 25.297L151.397 26.194C150.318 24.946 149.187 23.919 147.887 22.827C146.951 22.047 145.261 20.76 143.831 19.889L144.52 19.07ZM155.664 21.371C156.067 21.41 156.743 21.449 157.484 21.449C158.433 21.449 163.646 21.449 164.608 21.449C165.258 21.449 165.713 21.397 166.012 21.371V22.645C165.739 22.632 165.193 22.593 164.621 22.593C163.633 22.593 158.446 22.593 157.484 22.593C156.769 22.593 156.08 22.619 155.664 22.645V21.371ZM174.425 16.782C174.399 17.081 174.373 17.523 174.36 17.835C174.191 23.139 172.761 25.57 170.2 27.351L169.251 26.584C169.667 26.363 170.187 25.999 170.577 25.635C172.202 24.166 173.268 21.969 173.294 17.861C173.294 17.562 173.268 17.081 173.216 16.782H174.425ZM178.949 19.486C178.91 19.707 178.884 19.941 178.871 20.11C178.832 21.371 178.663 25.141 178.078 26.389C177.818 26.948 177.402 27.182 176.687 27.182C176.037 27.182 175.283 27.143 174.607 27.091L174.477 26.012C175.179 26.103 175.855 26.168 176.414 26.168C176.778 26.168 177.025 26.051 177.168 25.739C177.662 24.738 177.831 21.54 177.831 20.149H170.98C170.46 20.149 169.94 20.162 169.472 20.201V19.109C169.927 19.148 170.46 19.174 170.967 19.174H177.389C177.74 19.174 177.987 19.148 178.208 19.109L178.949 19.486ZM182.631 21.371C183.034 21.41 183.71 21.449 184.451 21.449C185.4 21.449 190.613 21.449 191.575 21.449C192.225 21.449 192.68 21.397 192.979 21.371V22.645C192.706 22.632 192.16 22.593 191.588 22.593C190.6 22.593 185.413 22.593 184.451 22.593C183.736 22.593 183.047 22.619 182.631 22.645V21.371ZM197.196 23.841C198.288 23.841 199.172 24.725 199.172 25.817C199.172 26.909 198.288 27.793 197.196 27.793C196.104 27.793 195.207 26.909 195.207 25.817C195.207 24.725 196.104 23.841 197.196 23.841ZM197.196 27.13C197.924 27.13 198.509 26.545 198.509 25.817C198.509 25.089 197.924 24.504 197.196 24.504C196.468 24.504 195.87 25.089 195.87 25.817C195.87 26.545 196.468 27.13 197.196 27.13ZM209.328 17.276H220.027V27.572H219V18.225H210.303V27.676H209.328V17.276ZM209.848 25.804H219.559V26.753H209.848V25.804ZM215.399 17.9H216.348V22.047C216.348 22.307 216.374 22.45 216.452 22.489C216.543 22.528 216.66 22.554 216.803 22.554C216.933 22.554 217.232 22.554 217.414 22.554C217.583 22.554 217.765 22.541 217.843 22.502C217.934 22.463 218.012 22.372 218.038 22.19C218.09 21.995 218.103 21.566 218.116 20.994C218.298 21.15 218.623 21.319 218.87 21.397C218.844 21.93 218.805 22.541 218.714 22.775C218.636 23.009 218.493 23.152 218.272 23.256C218.077 23.334 217.739 23.373 217.479 23.373C217.284 23.373 216.764 23.373 216.595 23.373C216.296 23.373 215.945 23.308 215.724 23.139C215.49 22.97 215.399 22.749 215.399 21.956V17.9ZM212.747 17.874H213.709C213.579 20.799 213.215 22.957 211.122 24.192C211.005 23.958 210.719 23.633 210.498 23.477C212.383 22.424 212.656 20.474 212.747 17.874ZM39.825 37.668H44.167V38.5H39.825V37.668ZM39.383 42.192H44.557V43.024H39.383V42.192ZM40.787 39.904H41.45V45.858H40.787V39.904ZM42.49 39.904H43.153V45.858H42.49V39.904ZM41.931 35.042C41.294 36.147 40.124 37.46 38.863 38.318C38.759 38.071 38.525 37.733 38.356 37.525C39.617 36.732 40.865 35.328 41.463 34.132H42.334C43.153 35.432 44.44 36.719 45.623 37.421C45.441 37.642 45.22 37.98 45.077 38.266C43.92 37.46 42.659 36.173 41.931 35.042ZM38.993 39.592H44.57V40.424H39.773V46.053H38.993V39.592ZM44.219 39.592H45.064V45.13C45.064 45.52 45.012 45.754 44.752 45.897C44.505 46.027 44.154 46.04 43.634 46.04C43.595 45.819 43.491 45.481 43.387 45.247C43.699 45.26 43.985 45.26 44.089 45.26C44.18 45.26 44.219 45.221 44.219 45.117V39.592ZM33.663 35.497H38.538V36.368H33.663V35.497ZM33.494 42.907H38.603V43.778H33.494V42.907ZM35.691 34.093H36.51V37.642H35.691V34.093ZM35.769 37.694H36.458V41.477H36.523V46.066H35.691V41.477H35.769V37.694ZM34.638 39.93V41.126H37.602V39.93H34.638ZM34.638 38.058V39.228H37.602V38.058H34.638ZM33.91 37.33H38.369V41.854H33.91V37.33ZM47.6327 35.276H58.4747V36.173H47.6327V35.276ZM47.2297 43.258H58.9167V44.155H47.2297V43.258ZM52.5207 34.093H53.5217V46.079H52.5207V34.093ZM49.5307 40.034V41.386H56.5637V40.034H49.5307ZM49.5307 37.941V39.267H56.5637V37.941H49.5307ZM48.5947 37.122H57.5387V42.192H48.5947V37.122ZM67.3095 36.758C66.8155 36.251 65.9575 35.458 65.4115 35.042L66.1525 34.509C66.5815 34.847 67.5695 35.666 68.0505 36.173L67.3095 36.758ZM63.1755 35.627C63.2795 35.848 63.5005 36.264 63.6305 36.511C64.1375 37.421 64.7615 38.734 65.2945 39.917C65.9965 41.542 66.8285 43.947 67.2705 45.39L66.1525 45.689C65.7495 44.142 65.1255 42.062 64.3845 40.359C63.7735 38.994 63.1885 37.733 62.7465 36.992C62.5905 36.732 62.3305 36.316 62.1225 36.056L63.1755 35.627ZM60.8745 39.423C61.2515 39.332 61.7065 39.176 61.9405 39.072C63.7475 38.383 66.9065 36.615 69.0645 36.615C70.8715 36.615 71.9635 37.629 71.9635 39.046C71.9635 40.554 71.0145 41.685 68.9865 41.685C68.2585 41.685 67.5175 41.503 67.0365 41.321L67.0625 40.294C67.5695 40.528 68.2195 40.723 68.9085 40.723C70.3385 40.723 70.9235 39.93 70.9235 39.007C70.9235 38.24 70.3125 37.525 69.0385 37.525C66.8675 37.525 63.0195 39.774 61.3815 40.489L60.8745 39.423ZM82.1892 34.106H83.1252V36.589H82.1892V34.106ZM79.3682 36.16H86.1152V37.031H79.3682V36.16ZM80.9802 38.448H84.1132V39.319H80.9802V38.448ZM80.4862 38.448H81.4092V41.36C81.4092 42.829 81.2012 44.766 79.9272 46.027C79.7582 45.871 79.3812 45.585 79.1732 45.481C80.3562 44.298 80.4862 42.647 80.4862 41.334V38.448ZM76.5992 40.944H77.2362V44.038H76.5992V40.944ZM75.4552 35.848H78.3932V36.641H75.4552V35.848ZM78.1202 35.848H78.9392V45.013C78.9392 45.481 78.8352 45.728 78.5492 45.871C78.2372 46.001 77.7692 46.014 76.9762 46.014C76.9502 45.793 76.8202 45.442 76.7032 45.221C77.2622 45.234 77.7692 45.234 77.9122 45.221C78.0682 45.221 78.1202 45.169 78.1202 45.013V35.848ZM75.0782 35.848H75.8842V40.58C75.8842 42.27 75.7412 44.571 74.8052 46.04C74.6622 45.897 74.3112 45.689 74.1162 45.598C75.0002 44.181 75.0782 42.166 75.0782 40.58V35.848ZM74.1422 39.956C75.5332 39.878 77.6392 39.735 79.6932 39.592L79.7062 40.372C77.7302 40.528 75.6892 40.684 74.2462 40.788L74.1422 39.956ZM76.2872 37.447L76.8982 37.2C77.2622 37.746 77.5742 38.487 77.6782 38.981L77.0152 39.254C76.9112 38.76 76.6122 38.006 76.2872 37.447ZM76.6642 34.08L77.6912 34.275C77.4572 34.977 77.1842 35.744 76.9762 36.238L76.1182 36.056C76.3262 35.51 76.5602 34.652 76.6642 34.08ZM83.5932 38.448H84.5162V44.363C84.5162 44.688 84.5422 44.883 84.5812 44.935C84.6332 44.974 84.6982 45 84.7892 45C84.8672 45 85.0232 45 85.1272 45C85.2312 45 85.3352 44.974 85.3872 44.922C85.4522 44.883 85.4782 44.766 85.5042 44.558C85.5432 44.324 85.5562 43.83 85.5562 43.167C85.7382 43.323 86.0242 43.466 86.2452 43.544C86.2452 44.129 86.2062 44.87 86.1412 45.117C86.0762 45.39 85.9592 45.559 85.7902 45.676C85.6472 45.78 85.4002 45.832 85.1662 45.832C85.0102 45.832 84.6982 45.832 84.5552 45.832C84.3082 45.832 84.0352 45.767 83.8402 45.598C83.6582 45.416 83.5932 45.195 83.5932 44.311V38.448ZM93.182 34.08H94.183V36.03H93.182V34.08ZM93.182 41.659H94.183V45.26H93.182V41.659ZM91.739 36.199H92.74C92.493 38.591 91.752 39.982 88.606 40.684C88.515 40.45 88.281 40.06 88.073 39.865C90.933 39.306 91.531 38.188 91.739 36.199ZM94.625 36.16H95.587V38.916C95.587 39.228 95.678 39.28 96.159 39.28C96.38 39.28 97.537 39.28 97.836 39.28C98.213 39.28 98.278 39.15 98.33 38.24C98.525 38.383 98.915 38.526 99.188 38.591C99.071 39.826 98.798 40.138 97.927 40.138C97.68 40.138 96.289 40.138 96.055 40.138C94.911 40.138 94.625 39.878 94.625 38.916V36.16ZM88.229 35.432H99.227V37.772H98.239V36.329H89.191V38.058H88.229V35.432ZM89.347 41.243H98.304V42.127H89.347V41.243ZM87.982 44.766H99.435V45.65H87.982V44.766ZM105.293 40.736H113.184V41.529H105.293V40.736ZM106.32 42.79L106.84 42.192C107.516 42.582 108.387 43.167 108.816 43.57L108.27 44.246C107.854 43.83 106.996 43.206 106.32 42.79ZM110.532 39.969L111.013 39.501C111.494 39.761 112.092 40.151 112.391 40.45L111.884 40.957C111.598 40.671 111.013 40.242 110.532 39.969ZM106.255 41.1H107.139C106.996 43.115 106.606 44.948 105.15 46.014C105.02 45.819 104.76 45.52 104.552 45.377C105.839 44.467 106.151 42.803 106.255 41.1ZM108.595 34.093H109.466C109.401 40.567 110.35 45.221 112.118 45.221C112.495 45.221 112.625 44.922 112.69 43.739C112.872 43.921 113.171 44.09 113.379 44.168C113.21 45.637 112.924 46.066 112.053 46.066C109.44 46.053 108.621 40.736 108.595 34.093ZM111.507 41.737L112.339 42.049C111.494 43.843 109.895 45.208 107.893 46.04C107.776 45.871 107.529 45.572 107.347 45.416C109.297 44.662 110.779 43.349 111.507 41.737ZM109.531 36.355L109.934 35.822C110.506 36.212 111.156 36.81 111.455 37.226L111.039 37.837C110.74 37.408 110.09 36.784 109.531 36.355ZM111.962 37.928L112.56 37.694C112.924 38.292 113.275 39.072 113.379 39.566L112.742 39.865C112.625 39.358 112.3 38.539 111.962 37.928ZM109.7 38.838C110.506 38.786 111.585 38.721 112.729 38.643V39.319C111.689 39.423 110.701 39.514 109.843 39.592L109.7 38.838ZM111.039 34.21L111.793 34.509C111.429 35.237 110.987 36.082 110.623 36.615L110.064 36.355C110.389 35.783 110.818 34.847 111.039 34.21ZM112.105 35.51L112.833 35.861C112.17 36.979 111.286 38.37 110.584 39.254L110.038 38.942C110.727 38.045 111.611 36.563 112.105 35.51ZM105.124 36.355L105.54 35.822C106.099 36.212 106.762 36.81 107.048 37.226L106.632 37.837C106.333 37.408 105.683 36.784 105.124 36.355ZM107.386 38.006L107.984 37.785C108.322 38.383 108.634 39.176 108.712 39.67L108.075 39.943C107.984 39.436 107.698 38.63 107.386 38.006ZM105.176 38.981C105.995 38.942 107.061 38.864 108.218 38.773V39.475C107.178 39.579 106.177 39.67 105.319 39.748L105.176 38.981ZM106.645 34.21L107.399 34.522C107.022 35.237 106.58 36.095 106.229 36.628L105.67 36.381C105.995 35.796 106.411 34.847 106.645 34.21ZM107.711 35.51L108.426 35.861C107.75 37.018 106.84 38.461 106.099 39.358L105.54 39.059C106.268 38.136 107.191 36.602 107.711 35.51ZM101.432 36.901H105.371V37.811H101.432V36.901ZM103.083 34.08H103.967V46.027H103.083V34.08ZM103.044 37.447L103.629 37.629C103.265 39.683 102.498 42.244 101.64 43.544C101.536 43.31 101.315 42.946 101.159 42.738C101.952 41.568 102.732 39.293 103.044 37.447ZM103.902 38.305C104.162 38.656 105.176 40.281 105.384 40.658L104.89 41.373C104.63 40.723 103.811 39.189 103.499 38.682L103.902 38.305ZM124.839 35.536C124.709 35.783 124.527 36.225 124.423 36.498C123.929 37.785 123.149 39.475 122.083 40.827C120.835 42.413 119.145 44.129 116.688 45.403L115.804 44.597C118.222 43.44 119.886 41.893 121.225 40.19C122.291 38.812 122.941 37.369 123.383 36.095C123.474 35.835 123.591 35.406 123.656 35.133L124.839 35.536ZM117.975 37.07C119.262 37.889 121.069 39.189 122.057 39.982C123.357 41.048 124.644 42.179 125.671 43.297L124.852 44.194C123.773 42.946 122.642 41.919 121.342 40.827C120.406 40.047 118.716 38.76 117.286 37.889L117.975 37.07ZM129.189 39.371C129.592 39.41 130.268 39.449 131.009 39.449C131.958 39.449 137.171 39.449 138.133 39.449C138.783 39.449 139.238 39.397 139.537 39.371V40.645C139.264 40.632 138.718 40.593 138.146 40.593C137.158 40.593 131.971 40.593 131.009 40.593C130.294 40.593 129.605 40.619 129.189 40.645V39.371ZM148.021 34.782C147.995 35.081 147.969 35.523 147.956 35.835C147.787 41.139 146.357 43.57 143.796 45.351L142.847 44.584C143.263 44.363 143.783 43.999 144.173 43.635C145.798 42.166 146.864 39.969 146.89 35.861C146.89 35.562 146.864 35.081 146.812 34.782H148.021ZM152.545 37.486C152.506 37.707 152.48 37.941 152.467 38.11C152.428 39.371 152.259 43.141 151.674 44.389C151.414 44.948 150.998 45.182 150.283 45.182C149.633 45.182 148.879 45.143 148.203 45.091L148.073 44.012C148.775 44.103 149.451 44.168 150.01 44.168C150.374 44.168 150.621 44.051 150.764 43.739C151.258 42.738 151.427 39.54 151.427 38.149H144.576C144.056 38.149 143.536 38.162 143.068 38.201V37.109C143.523 37.148 144.056 37.174 144.563 37.174H150.985C151.336 37.174 151.583 37.148 151.804 37.109L152.545 37.486ZM156.297 39.371C156.7 39.41 157.376 39.449 158.117 39.449C159.066 39.449 164.279 39.449 165.241 39.449C165.891 39.449 166.346 39.397 166.645 39.371V40.645C166.372 40.632 165.826 40.593 165.254 40.593C164.266 40.593 159.079 40.593 158.117 40.593C157.402 40.593 156.713 40.619 156.297 40.645V39.371ZM179.106 37.252C178.82 37.421 178.495 37.603 178.105 37.798C177.234 38.253 175.427 39.111 174.153 39.943C172.944 40.736 172.216 41.594 172.216 42.569C172.216 43.648 173.256 44.324 175.31 44.324C176.714 44.324 178.456 44.142 179.47 43.882L179.457 45.052C178.482 45.221 176.974 45.364 175.349 45.364C172.905 45.364 171.137 44.636 171.137 42.686C171.137 41.282 172.086 40.177 173.62 39.163C174.946 38.279 176.766 37.408 177.611 36.927C177.988 36.706 178.274 36.537 178.547 36.316L179.106 37.252ZM172.528 34.886C173.126 36.55 173.932 38.175 174.53 39.228L173.646 39.761C172.983 38.695 172.203 36.94 171.501 35.328L172.528 34.886ZM186.511 34.873C186.446 35.302 186.407 35.757 186.381 36.186C186.329 37.655 186.225 40.736 186.225 42.673C186.225 44.103 187.122 44.597 188.357 44.597C190.736 44.597 192.088 43.271 193.024 41.919L193.752 42.803C192.868 44.038 191.178 45.663 188.331 45.663C186.459 45.663 185.172 44.896 185.172 42.764C185.172 40.84 185.302 37.551 185.302 36.186C185.302 35.705 185.263 35.25 185.185 34.873H186.511ZM196.343 36.368C196.837 36.355 197.253 36.329 197.513 36.303C198.358 36.212 200.802 35.978 203.207 35.77C204.624 35.653 205.833 35.575 206.704 35.549L206.717 36.589C205.963 36.576 204.832 36.602 204.169 36.784C202.31 37.382 201.179 39.371 201.179 40.905C201.179 43.44 203.558 44.246 205.664 44.337L205.3 45.403C202.882 45.312 200.152 44.038 200.152 41.126C200.152 39.098 201.387 37.447 202.583 36.745C201.179 36.888 197.877 37.213 196.46 37.512L196.343 36.368ZM213.904 34.782C213.826 35.133 213.787 35.406 213.735 35.692C213.566 37.148 212.981 41.152 212.981 42.556C212.981 43.817 213.696 44.584 215.178 44.584C217.154 44.584 218.415 43.726 218.415 42.374C218.415 41.503 217.947 40.541 216.985 39.735L218.129 39.488C219.026 40.476 219.468 41.386 219.468 42.491C219.468 44.428 217.739 45.611 215.165 45.611C213.41 45.611 211.98 44.831 211.98 42.712C211.98 41.321 212.591 37.434 212.734 35.64C212.773 35.185 212.773 34.951 212.747 34.717L213.904 34.782ZM209.744 36.511C210.836 36.862 212.396 37.031 213.553 37.031C214.541 37.031 215.438 36.979 216.205 36.862L216.179 37.85C215.347 37.928 214.58 37.967 213.527 37.967C212.383 37.967 210.823 37.772 209.679 37.46L209.744 36.511ZM209.419 39.748C210.68 40.19 212.201 40.307 213.397 40.307C214.294 40.307 215.191 40.281 216.101 40.151L216.088 41.139C215.217 41.23 214.411 41.256 213.54 41.256C212.123 41.256 210.55 41.1 209.367 40.736L209.419 39.748ZM33.819 53.77H45.207V54.693H33.819V53.77ZM36.991 58.411H43.101V59.256H36.991V58.411ZM36.302 56.201H42.945V57.072H37.264V64.04H36.302V56.201ZM42.724 56.201H43.673V62.831C43.673 63.403 43.556 63.702 43.114 63.858C42.698 64.014 41.97 64.014 40.852 64.014C40.813 63.741 40.67 63.338 40.527 63.065C41.398 63.104 42.191 63.091 42.425 63.091C42.646 63.078 42.724 63.013 42.724 62.818V56.201ZM38.07 52.08L39.058 52.314C38.174 55.174 36.614 58.06 34.131 59.802C34.001 59.581 33.702 59.243 33.507 59.048C35.834 57.449 37.368 54.693 38.07 52.08ZM36.991 60.608H43.101V61.453H36.991V60.608ZM51.7391 62.623H58.0181V63.52H51.7391V62.623ZM51.2971 53.393H56.0681V54.264H51.2971V53.393ZM51.8821 52.041L52.9741 52.262C51.9991 53.952 50.4391 55.72 48.1771 57.059C48.0341 56.812 47.7091 56.474 47.4881 56.305C49.6331 55.135 51.1281 53.458 51.8821 52.041ZM55.7431 53.393H55.9251L56.1071 53.341L56.7571 53.692C55.1971 57.618 51.5311 60.231 47.9951 61.375C47.8781 61.115 47.6311 60.712 47.4231 60.504C50.7901 59.529 54.3911 56.981 55.7431 53.562V53.393ZM49.6721 55.707L50.4001 55.083C51.4271 55.785 52.6751 56.825 53.2731 57.566L52.4801 58.268C51.9341 57.527 50.6991 56.435 49.6721 55.707ZM57.5371 58.515H58.5381V64.066H57.5371V58.515ZM52.1811 58.515H58.0311V59.412H52.1811V64.04H51.2061V59.282L51.9861 58.515H52.1811ZM63.5361 59.841C64.6281 59.841 65.5121 60.725 65.5121 61.817C65.5121 62.909 64.6281 63.793 63.5361 63.793C62.4441 63.793 61.5471 62.909 61.5471 61.817C61.5471 60.725 62.4441 59.841 63.5361 59.841ZM63.5361 63.13C64.2641 63.13 64.8491 62.545 64.8491 61.817C64.8491 61.089 64.2641 60.504 63.5361 60.504C62.8081 60.504 62.2101 61.089 62.2101 61.817C62.2101 62.545 62.8081 63.13 63.5361 63.13ZM84.9402 54.03V63H84.0302V55.837L80.8322 63H80.1692L76.9712 55.863V63H76.0612V54.03H77.0232L80.4942 61.804L83.9652 54.03H84.9402ZM89.7215 63.104C89.0542 63.104 88.4519 62.9567 87.9145 62.662C87.3859 62.3587 86.9655 61.934 86.6535 61.388C86.3502 60.8333 86.1985 60.1877 86.1985 59.451C86.1985 58.7143 86.3545 58.073 86.6665 57.527C86.9785 56.9723 87.4032 56.5477 87.9405 56.253C88.4779 55.9497 89.0802 55.798 89.7475 55.798C90.4149 55.798 91.0172 55.9497 91.5545 56.253C92.1005 56.5477 92.5252 56.9723 92.8285 57.527C93.1405 58.073 93.2965 58.7143 93.2965 59.451C93.2965 60.179 93.1405 60.8203 92.8285 61.375C92.5165 61.9297 92.0875 62.3587 91.5415 62.662C90.9955 62.9567 90.3889 63.104 89.7215 63.104ZM89.7215 62.311C90.1895 62.311 90.6229 62.207 91.0215 61.999C91.4202 61.7823 91.7409 61.4617 91.9835 61.037C92.2349 60.6037 92.3605 60.075 92.3605 59.451C92.3605 58.827 92.2392 58.3027 91.9965 57.878C91.7539 57.4447 91.4332 57.124 91.0345 56.916C90.6359 56.6993 90.2025 56.591 89.7345 56.591C89.2665 56.591 88.8332 56.6993 88.4345 56.916C88.0359 57.124 87.7152 57.4447 87.4725 57.878C87.2385 58.3027 87.1215 58.827 87.1215 59.451C87.1215 60.075 87.2385 60.6037 87.4725 61.037C87.7152 61.4617 88.0315 61.7823 88.4215 61.999C88.8202 62.207 89.2535 62.311 89.7215 62.311ZM95.7484 56.669V61.076C95.7484 61.5093 95.8307 61.8083 95.9954 61.973C96.16 62.1377 96.4504 62.22 96.8664 62.22H97.6984V63H96.7234C96.082 63 95.6054 62.8527 95.2934 62.558C94.9814 62.2547 94.8254 61.7607 94.8254 61.076V56.669H93.8374V55.902H94.8254V54.121H95.7484V55.902H97.6984V56.669H95.7484ZM101.916 63.104C101.249 63.104 100.646 62.9567 100.109 62.662C99.5805 62.3587 99.1601 61.934 98.8481 61.388C98.5448 60.8333 98.3931 60.1877 98.3931 59.451C98.3931 58.7143 98.5491 58.073 98.8611 57.527C99.1731 56.9723 99.5978 56.5477 100.135 56.253C100.672 55.9497 101.275 55.798 101.942 55.798C102.609 55.798 103.212 55.9497 103.749 56.253C104.295 56.5477 104.72 56.9723 105.023 57.527C105.335 58.073 105.491 58.7143 105.491 59.451C105.491 60.179 105.335 60.8203 105.023 61.375C104.711 61.9297 104.282 62.3587 103.736 62.662C103.19 62.9567 102.583 63.104 101.916 63.104ZM101.916 62.311C102.384 62.311 102.817 62.207 103.216 61.999C103.615 61.7823 103.935 61.4617 104.178 61.037C104.429 60.6037 104.555 60.075 104.555 59.451C104.555 58.827 104.434 58.3027 104.191 57.878C103.948 57.4447 103.628 57.124 103.229 56.916C102.83 56.6993 102.397 56.591 101.929 56.591C101.461 56.591 101.028 56.6993 100.629 56.916C100.23 57.124 99.9098 57.4447 99.6671 57.878C99.4331 58.3027 99.3161 58.827 99.3161 59.451C99.3161 60.075 99.4331 60.6037 99.6671 61.037C99.9098 61.4617 100.226 61.7823 100.616 61.999C101.015 62.207 101.448 62.311 101.916 62.311ZM113.91 56.565C113.65 55.967 113.251 55.499 112.714 55.161C112.185 54.8143 111.561 54.641 110.842 54.641C110.166 54.641 109.559 54.797 109.022 55.109C108.485 55.421 108.06 55.8673 107.748 56.448C107.436 57.02 107.28 57.6873 107.28 58.45C107.28 59.2127 107.436 59.8843 107.748 60.465C108.06 61.0457 108.485 61.492 109.022 61.804C109.559 62.116 110.166 62.272 110.842 62.272C111.475 62.272 112.042 62.1377 112.545 61.869C113.056 61.5917 113.464 61.2017 113.767 60.699C114.079 60.1877 114.257 59.594 114.3 58.918H110.478V58.177H115.262V58.84C115.219 59.6373 115.002 60.361 114.612 61.011C114.222 61.6523 113.698 62.1593 113.039 62.532C112.389 62.9047 111.657 63.091 110.842 63.091C110.001 63.091 109.239 62.896 108.554 62.506C107.869 62.1073 107.328 61.557 106.929 60.855C106.539 60.1443 106.344 59.3427 106.344 58.45C106.344 57.5573 106.539 56.76 106.929 56.058C107.328 55.3473 107.869 54.797 108.554 54.407C109.239 54.0083 110.001 53.809 110.842 53.809C111.813 53.809 112.662 54.0517 113.39 54.537C114.118 55.0223 114.647 55.6983 114.976 56.565H113.91ZM122.35 56.526C122.35 57.306 122.094 57.9343 121.583 58.411C121.072 58.8877 120.305 59.126 119.282 59.126H117.449V63H116.539V53.913H119.282C120.296 53.913 121.059 54.1513 121.57 54.628C122.09 55.1047 122.35 55.7373 122.35 56.526ZM119.282 58.346C120.703 58.346 121.414 57.7393 121.414 56.526C121.414 55.9193 121.245 55.46 120.907 55.148C120.569 54.836 120.027 54.68 119.282 54.68H117.449V58.346H119.282ZM123.461 54.446C123.955 54.433 124.371 54.407 124.631 54.381C125.463 54.29 127.92 54.056 130.312 53.848C131.742 53.731 132.951 53.653 133.822 53.627L133.835 54.667C133.081 54.654 131.95 54.68 131.287 54.862C129.428 55.46 128.297 57.449 128.297 58.983C128.297 61.518 130.676 62.337 132.782 62.415L132.405 63.481C130 63.39 127.27 62.116 127.27 59.204C127.27 57.189 128.505 55.525 129.688 54.823C128.297 54.966 124.982 55.291 123.578 55.59L123.461 54.446ZM131.95 56.253C132.249 56.682 132.743 57.488 133.029 58.073L132.353 58.372C132.054 57.748 131.69 57.085 131.3 56.539L131.95 56.253ZM133.367 55.707C133.692 56.136 134.199 56.929 134.498 57.501L133.835 57.826C133.523 57.202 133.133 56.552 132.73 56.006L133.367 55.707ZM144.241 53.913V63H143.331V58.749H138.404V63H137.494V53.913H138.404V57.995H143.331V53.913H144.241ZM150.009 63.091C149.168 63.091 148.406 62.896 147.721 62.506C147.036 62.1073 146.495 61.557 146.096 60.855C145.706 60.1443 145.511 59.3427 145.511 58.45C145.511 57.5573 145.706 56.76 146.096 56.058C146.495 55.3473 147.036 54.797 147.721 54.407C148.406 54.0083 149.168 53.809 150.009 53.809C150.858 53.809 151.625 54.0083 152.31 54.407C152.995 54.797 153.532 55.3473 153.922 56.058C154.312 56.76 154.507 57.5573 154.507 58.45C154.507 59.3427 154.312 60.1443 153.922 60.855C153.532 61.557 152.995 62.1073 152.31 62.506C151.625 62.896 150.858 63.091 150.009 63.091ZM150.009 62.298C150.685 62.298 151.292 62.142 151.829 61.83C152.366 61.518 152.791 61.0717 153.103 60.491C153.415 59.9017 153.571 59.2213 153.571 58.45C153.571 57.6787 153.415 57.0027 153.103 56.422C152.791 55.8413 152.366 55.395 151.829 55.083C151.292 54.771 150.685 54.615 150.009 54.615C149.333 54.615 148.726 54.771 148.189 55.083C147.652 55.395 147.227 55.8413 146.915 56.422C146.603 57.0027 146.447 57.6787 146.447 58.45C146.447 59.2213 146.603 59.9017 146.915 60.491C147.227 61.0717 147.652 61.518 148.189 61.83C148.726 62.142 149.333 62.298 150.009 62.298ZM162.633 63H161.723L156.692 55.356V63H155.782V53.913H156.692L161.723 61.544V53.913H162.633V63ZM166.995 53.913C168.001 53.913 168.863 54.095 169.582 54.459C170.302 54.823 170.852 55.3473 171.233 56.032C171.615 56.7167 171.805 57.5313 171.805 58.476C171.805 59.412 171.615 60.2223 171.233 60.907C170.852 61.583 170.302 62.103 169.582 62.467C168.863 62.8223 168.001 63 166.995 63H164.304V53.913H166.995ZM166.995 62.246C168.261 62.246 169.223 61.9167 169.881 61.258C170.549 60.5907 170.882 59.6633 170.882 58.476C170.882 57.28 170.549 56.3483 169.881 55.681C169.223 55.005 168.261 54.667 166.995 54.667H165.214V62.246H166.995ZM178.358 60.842H174.224L173.431 63H172.469L175.784 54.03H176.811L180.113 63H179.151L178.358 60.842ZM178.085 60.088L176.291 55.174L174.497 60.088H178.085ZM186.124 52.73C186.007 53.237 185.864 53.952 185.526 54.823C185.201 55.616 184.72 56.487 184.2 57.163C184.707 56.864 185.448 56.682 186.02 56.682C187.021 56.682 187.801 57.28 187.801 58.333C187.801 59.009 187.827 60.504 187.84 61.31H186.839C186.891 60.621 186.904 59.282 186.891 58.606C186.878 57.852 186.358 57.501 185.682 57.501C184.85 57.501 184.031 57.917 183.433 58.45C183.056 58.814 182.692 59.282 182.263 59.815L181.366 59.152C183.238 57.358 184.109 55.85 184.551 54.745C184.837 54.03 185.019 53.25 185.058 52.639L186.124 52.73ZM181.665 54.134C182.367 54.225 183.264 54.264 183.862 54.264C185.617 54.264 187.866 54.16 189.699 53.835V54.797C187.879 55.07 185.461 55.187 183.81 55.187C183.251 55.187 182.393 55.161 181.665 55.109V54.134ZM191.597 57.267C191.272 57.371 190.804 57.553 190.453 57.683C189.53 58.047 188.295 58.541 187.034 59.191C185.747 59.867 184.837 60.569 184.837 61.466C184.837 62.48 185.838 62.636 187.177 62.636C188.191 62.636 189.595 62.519 190.739 62.311L190.7 63.364C189.712 63.481 188.269 63.585 187.138 63.585C185.292 63.585 183.797 63.182 183.797 61.609C183.797 60.023 185.409 59.048 186.956 58.255C188.191 57.618 189.244 57.215 190.102 56.812C190.492 56.63 190.817 56.487 191.181 56.305L191.597 57.267ZM199.624 57.319H200.586V62.376C200.586 62.831 200.69 62.896 201.197 62.896C201.431 62.896 202.601 62.896 202.913 62.896C203.433 62.896 203.511 62.558 203.576 60.647C203.797 60.829 204.187 60.985 204.447 61.063C204.343 63.208 204.083 63.793 202.978 63.793C202.744 63.793 201.314 63.793 201.08 63.793C199.923 63.793 199.624 63.468 199.624 62.363V57.319ZM197.843 58.437L198.727 58.632C198.558 60.049 198.233 61.765 197.557 62.805L196.699 62.415C197.336 61.414 197.687 59.815 197.843 58.437ZM199.832 55.772L200.495 55.135C201.535 55.655 202.861 56.461 203.537 57.059L202.835 57.787C202.198 57.189 200.885 56.331 199.832 55.772ZM203.966 58.502L204.837 58.151C205.708 59.49 206.527 61.245 206.761 62.415L205.812 62.805C205.604 61.648 204.824 59.854 203.966 58.502ZM200.521 52.093H201.522V54.303H200.521V52.093ZM196.179 53.77H206.514V54.706H196.179V53.77ZM195.711 53.77H196.686V57.137C196.686 59.139 196.504 62.077 195.386 64.053C195.217 63.884 194.788 63.611 194.554 63.507C195.62 61.635 195.711 59.009 195.711 57.137V53.77ZM212.994 55.603H220.144V56.409H212.994V55.603ZM212.695 57.436H220.534V58.255H212.695V57.436ZM214.489 59.139H218.948V59.893H214.489V59.139ZM213.384 53.939L214.138 53.731C214.385 54.238 214.671 54.927 214.788 55.33L213.995 55.603C213.878 55.161 213.618 54.459 213.384 53.939ZM215.711 53.666L216.504 53.536C216.66 54.095 216.829 54.823 216.894 55.252L216.062 55.447C216.01 54.992 215.867 54.238 215.711 53.666ZM219.351 52.171L219.923 52.899C218.155 53.302 215.321 53.51 213.033 53.562C213.007 53.341 212.89 53.016 212.799 52.821C215.061 52.73 217.83 52.509 219.351 52.171ZM215.23 59.659C216.153 61.505 218.168 62.792 220.755 63.247C220.547 63.455 220.287 63.832 220.157 64.079C217.479 63.494 215.477 62.064 214.411 59.906L215.23 59.659ZM218.844 53.406L219.767 53.705C219.299 54.498 218.727 55.421 218.259 56.032L217.531 55.746C217.986 55.109 218.545 54.108 218.844 53.406ZM218.727 59.139H218.922L219.091 59.113L219.637 59.347C218.779 62.103 216.751 63.429 214.255 64.079C214.151 63.858 213.891 63.507 213.709 63.338C216.114 62.805 218.012 61.635 218.727 59.295V59.139ZM214.736 56.123H215.685C215.451 58.71 215.009 62.233 212.253 64.04C212.11 63.819 211.824 63.507 211.59 63.351C214.203 61.726 214.554 58.372 214.736 56.123ZM208.587 59.282C209.601 59.009 211.109 58.528 212.604 58.06L212.734 58.957C211.343 59.425 209.887 59.893 208.756 60.244L208.587 59.282ZM208.691 54.706H212.643V55.616H208.691V54.706ZM210.329 52.093H211.239V62.909C211.239 63.455 211.109 63.715 210.784 63.871C210.485 64.027 209.978 64.053 209.159 64.053C209.12 63.819 209.003 63.416 208.873 63.143C209.445 63.156 209.939 63.156 210.095 63.143C210.251 63.143 210.329 63.104 210.329 62.909V52.093ZM37.42 71.873C37.355 72.302 37.316 72.757 37.29 73.186C37.238 74.655 37.134 77.736 37.134 79.673C37.134 81.103 38.031 81.597 39.266 81.597C41.645 81.597 42.997 80.271 43.933 78.919L44.661 79.803C43.777 81.038 42.087 82.663 39.24 82.663C37.368 82.663 36.081 81.896 36.081 79.764C36.081 77.84 36.211 74.551 36.211 73.186C36.211 72.705 36.172 72.25 36.094 71.873H37.42ZM46.3084 73.368C46.8024 73.355 47.2184 73.329 47.4784 73.303C48.3234 73.212 50.7674 72.978 53.1724 72.77C54.5894 72.653 55.7984 72.575 56.6694 72.549L56.6824 73.589C55.9284 73.576 54.7974 73.602 54.1344 73.784C52.2754 74.382 51.1444 76.371 51.1444 77.905C51.1444 80.44 53.5234 81.246 55.6294 81.337L55.2654 82.403C52.8474 82.312 50.1174 81.038 50.1174 78.126C50.1174 76.098 51.3524 74.447 52.5484 73.745C51.1444 73.888 47.8424 74.213 46.4254 74.512L46.3084 73.368ZM60.7254 72.939C60.6604 73.238 60.6214 73.862 60.6084 74.2C60.5954 75.006 60.6084 76.202 60.6994 77.268C60.9204 79.439 61.5444 80.882 62.4804 80.882C63.1434 80.882 63.7544 79.543 64.0924 78.243L64.9114 79.166C64.1184 81.363 63.3384 82.117 62.4544 82.117C61.2194 82.117 60.0494 80.895 59.6854 77.528C59.5684 76.41 59.5424 74.824 59.5424 74.07C59.5424 73.771 59.5424 73.212 59.4644 72.913L60.7254 72.939ZM67.4854 73.29C68.6554 74.798 69.5914 77.567 69.7864 79.764L68.7334 80.18C68.5124 77.84 67.7194 75.162 66.4844 73.641L67.4854 73.29ZM77.8724 71.691C77.8464 71.912 77.8204 72.172 77.8074 72.562C77.7814 73.082 77.7814 74.824 77.7814 75.916C77.7814 77.632 77.9764 79.907 77.9764 80.778C77.9764 81.688 77.3784 82.611 75.6884 82.611C73.8164 82.611 72.7894 81.948 72.7894 80.687C72.7894 79.504 73.9204 78.711 75.7924 78.711C78.5354 78.711 80.6804 80.193 81.6814 81.012L81.0834 81.935C79.9134 80.856 77.9894 79.556 75.6754 79.556C74.4274 79.556 73.7644 80.037 73.7644 80.635C73.7644 81.246 74.2714 81.688 75.5584 81.688C76.3124 81.688 76.9494 81.467 76.9494 80.557C76.9494 79.556 76.8194 77.06 76.8194 75.916C76.8194 74.746 76.8194 73.381 76.8194 72.471C76.8194 72.25 76.8064 71.86 76.7674 71.691H77.8724ZM72.9064 73.095C73.7384 73.251 75.3634 73.381 76.2214 73.381C77.8724 73.381 79.6144 73.264 81.3044 72.991V73.94C79.8354 74.109 77.9764 74.278 76.2344 74.278C75.3374 74.278 73.7384 74.161 72.9194 74.057L72.9064 73.095ZM72.8414 75.864C73.7644 76.007 75.2464 76.098 76.1044 76.098C77.9894 76.098 79.7184 75.968 81.4084 75.721V76.696C79.6404 76.917 78.0544 77.008 76.1044 77.008C75.2074 77.008 73.7774 76.943 72.8544 76.839L72.8414 75.864ZM91.1974 71.704C91.1714 71.86 91.1324 72.367 91.1324 72.523C91.0934 73.368 91.1194 75.877 91.1324 76.917L90.1444 76.41C90.1444 75.838 90.1314 73.251 90.0924 72.536C90.0664 72.185 90.0274 71.821 90.0014 71.704H91.1974ZM84.2814 73.524C86.0494 73.498 89.2994 73.381 91.3014 73.381C92.8874 73.381 94.4994 73.381 95.1104 73.394L95.0974 74.356C94.3694 74.317 93.1994 74.291 91.2884 74.291C89.0524 74.291 86.2704 74.382 84.3074 74.525L84.2814 73.524ZM91.1064 77.294C91.1064 79.036 90.3004 79.907 89.1174 79.907C88.0254 79.907 86.9724 79.14 86.9724 77.723C86.9724 76.436 88.0384 75.474 89.2734 75.474C90.7814 75.474 91.5484 76.592 91.5484 78.087C91.5484 79.855 90.6904 81.805 87.6744 82.702L86.8034 81.857C89.1694 81.298 90.5474 80.141 90.5474 77.996C90.5474 76.826 89.9754 76.332 89.2734 76.332C88.5844 76.332 87.9474 76.865 87.9474 77.71C87.9474 78.529 88.5584 78.997 89.2734 78.997C90.0794 78.997 90.5994 78.321 90.3914 76.93L91.1064 77.294ZM96.8835 78.841C97.9755 78.841 98.8595 79.725 98.8595 80.817C98.8595 81.909 97.9755 82.793 96.8835 82.793C95.7915 82.793 94.8945 81.909 94.8945 80.817C94.8945 79.725 95.7915 78.841 96.8835 78.841ZM96.8835 82.13C97.6115 82.13 98.1965 81.545 98.1965 80.817C98.1965 80.089 97.6115 79.504 96.8835 79.504C96.1555 79.504 95.5575 80.089 95.5575 80.817C95.5575 81.545 96.1555 82.13 96.8835 82.13Z" fill="white"/>
<path d="M5 0.4L250 0.4C252.541 0.4 254.6 2.45949 254.6 5V93C254.6 95.5405 252.541 97.6 250 97.6H5C2.45949 97.6 0.4 95.5405 0.4 93L0.4 5C0.4 2.45949 2.45949 0.4 5 0.4Z" stroke="white" stroke-width="0.8"/>
</svg>
