<svg width="255" height="98" viewBox="0 0 255 98" fill="none" xmlns="http://www.w3.org/2000/svg">
<path d="M34.898 18.095C35.405 18.121 35.743 18.121 36.055 18.121C36.744 18.121 42.399 18.121 43.036 18.121C43.309 18.121 43.777 18.121 44.18 18.108C44.154 18.42 44.154 18.784 44.154 19.109C44.154 19.72 44.154 25.024 44.154 25.518C44.154 25.934 44.167 26.948 44.18 27.091H43.049C43.062 26.948 43.075 26.207 43.075 25.661C43.075 25.18 43.075 19.148 43.075 19.148H35.977C35.977 19.148 35.977 25.128 35.977 25.661C35.977 26.09 35.99 26.922 35.99 27.091H34.885C34.885 26.922 34.911 25.973 34.911 25.518C34.911 24.985 34.911 19.616 34.911 19.109C34.911 18.81 34.911 18.42 34.898 18.095ZM43.504 25.336V26.35H35.457V25.336H43.504ZM46.8243 21.371C47.2273 21.41 47.9033 21.449 48.6443 21.449C49.5933 21.449 54.8063 21.449 55.7683 21.449C56.4183 21.449 56.8733 21.397 57.1723 21.371V22.645C56.8993 22.632 56.3533 22.593 55.7813 22.593C54.7933 22.593 49.6063 22.593 48.6443 22.593C47.9293 22.593 47.2403 22.619 46.8243 22.645V21.371ZM63.4175 21.046C65.0815 22.021 67.2135 23.516 68.5005 24.556L67.7335 25.466C66.5375 24.374 64.3145 22.775 62.7025 21.774L63.4175 21.046ZM69.3585 18.68C69.2545 18.862 69.1245 19.161 69.0595 19.369C68.6695 20.695 67.8505 22.424 66.7065 23.828C65.5235 25.284 63.8335 26.675 61.3635 27.585L60.4405 26.766C62.8585 26.038 64.6265 24.66 65.7965 23.269C66.7975 22.073 67.6165 20.422 67.9155 19.213H63.1055L63.5215 18.277H67.6555C68.0065 18.277 68.2925 18.238 68.5005 18.16L69.3585 18.68ZM64.9775 16.795C64.7565 17.133 64.5225 17.575 64.3925 17.822C63.6255 19.252 62.1565 21.215 60.0765 22.645L59.2185 21.982C61.4415 20.591 62.7805 18.641 63.3785 17.445C63.5085 17.224 63.7165 16.756 63.7945 16.418L64.9775 16.795ZM80.6088 17.146C80.5828 17.458 80.5698 17.835 80.5698 18.277C80.5698 18.784 80.5698 19.889 80.5698 20.37C80.5698 23.503 80.1538 24.53 79.2048 25.635C78.3728 26.649 77.0728 27.221 76.1238 27.546L75.2658 26.649C76.4618 26.337 77.5668 25.83 78.3728 24.907C79.2958 23.841 79.4648 22.775 79.4648 20.331C79.4648 19.824 79.4648 18.732 79.4648 18.277C79.4648 17.835 79.4258 17.458 79.3868 17.146H80.6088ZM74.5768 17.25C74.5508 17.497 74.5378 17.874 74.5378 18.173C74.5378 18.563 74.5378 21.969 74.5378 22.515C74.5378 22.853 74.5508 23.282 74.5768 23.516H73.3938C73.4198 23.308 73.4458 22.892 73.4458 22.515C73.4458 21.956 73.4458 18.563 73.4458 18.173C73.4458 17.952 73.4328 17.497 73.3938 17.25H74.5768ZM84.358 21.371C84.761 21.41 85.437 21.449 86.178 21.449C87.127 21.449 92.34 21.449 93.302 21.449C93.952 21.449 94.407 21.397 94.706 21.371V22.645C94.433 22.632 93.887 22.593 93.315 22.593C92.327 22.593 87.14 22.593 86.178 22.593C85.463 22.593 84.774 22.619 84.358 22.645V21.371ZM97.4413 18.316C97.7793 18.355 98.2603 18.381 98.5333 18.381H105.67C106.073 18.381 106.476 18.355 106.788 18.316V19.447C106.463 19.421 106.047 19.395 105.67 19.395H98.5333C98.2733 19.395 97.7663 19.421 97.4413 19.447V18.316ZM101.458 25.947V18.966H102.563V25.947H101.458ZM96.6483 25.31C97.0253 25.362 97.4283 25.388 97.7923 25.388H106.385C106.775 25.388 107.126 25.336 107.451 25.31V26.48C107.113 26.441 106.632 26.441 106.385 26.441H97.7923C97.4413 26.441 97.0383 26.454 96.6483 26.48V25.31ZM111.019 17.484C111.929 18.095 113.606 19.447 114.321 20.162L113.515 20.994C112.852 20.318 111.24 18.914 110.265 18.277L111.019 17.484ZM109.901 26.194C112.163 25.856 113.853 25.063 115.088 24.296C117.103 23.035 118.676 21.111 119.43 19.499L120.054 20.617C119.17 22.229 117.662 23.997 115.699 25.232C114.386 26.051 112.748 26.857 110.577 27.26L109.901 26.194ZM129.887 17.302C130.212 17.783 130.797 18.706 131.096 19.33L130.355 19.668C130.03 18.979 129.588 18.199 129.159 17.614L129.887 17.302ZM131.577 16.678C131.928 17.133 132.513 18.069 132.825 18.667L132.084 19.005C131.746 18.329 131.291 17.575 130.862 17.003L131.577 16.678ZM124.323 17.107C125.09 17.536 126.585 18.537 127.157 18.953L126.533 19.837C125.922 19.369 124.505 18.42 123.738 17.991L124.323 17.107ZM122.373 26.402C123.803 26.155 125.415 25.648 126.741 24.894C128.899 23.659 130.602 21.969 131.655 20.136L132.292 21.202C131.161 22.944 129.367 24.634 127.287 25.843C125.974 26.61 124.18 27.221 122.984 27.468L122.373 26.402ZM122.373 20.032C123.14 20.448 124.661 21.384 125.22 21.787L124.622 22.697C123.985 22.242 122.581 21.332 121.788 20.929L122.373 20.032ZM136.041 17.484C136.951 18.095 138.628 19.447 139.343 20.162L138.537 20.994C137.874 20.318 136.262 18.914 135.287 18.277L136.041 17.484ZM134.923 26.194C137.185 25.856 138.875 25.063 140.11 24.296C142.125 23.035 143.698 21.111 144.452 19.499L145.076 20.617C144.192 22.229 142.684 23.997 140.721 25.232C139.408 26.051 137.77 26.857 135.599 27.26L134.923 26.194ZM146.615 18.446C147.109 18.433 147.525 18.407 147.785 18.381C148.617 18.29 151.074 18.056 153.466 17.848C154.896 17.731 156.105 17.653 156.976 17.627L156.989 18.667C156.235 18.654 155.104 18.68 154.441 18.862C152.582 19.46 151.451 21.449 151.451 22.983C151.451 25.518 153.83 26.337 155.936 26.415L155.559 27.481C153.154 27.39 150.424 26.116 150.424 23.204C150.424 21.189 151.659 19.525 152.842 18.823C151.451 18.966 148.136 19.291 146.732 19.59L146.615 18.446ZM155.104 20.253C155.403 20.682 155.897 21.488 156.183 22.073L155.507 22.372C155.208 21.748 154.844 21.085 154.454 20.539L155.104 20.253ZM156.521 19.707C156.846 20.136 157.353 20.929 157.652 21.501L156.989 21.826C156.677 21.202 156.287 20.552 155.884 20.006L156.521 19.707ZM158.932 17.77H170.32V18.693H158.932V17.77ZM162.104 22.411H168.214V23.256H162.104V22.411ZM161.415 20.201H168.058V21.072H162.377V28.04H161.415V20.201ZM167.837 20.201H168.786V26.831C168.786 27.403 168.669 27.702 168.227 27.858C167.811 28.014 167.083 28.014 165.965 28.014C165.926 27.741 165.783 27.338 165.64 27.065C166.511 27.104 167.304 27.091 167.538 27.091C167.759 27.078 167.837 27.013 167.837 26.818V20.201ZM163.183 16.08L164.171 16.314C163.287 19.174 161.727 22.06 159.244 23.802C159.114 23.581 158.815 23.243 158.62 23.048C160.947 21.449 162.481 18.693 163.183 16.08ZM162.104 24.608H168.214V25.453H162.104V24.608ZM175.356 26.623H181.635V27.52H175.356V26.623ZM174.914 17.393H179.685V18.264H174.914V17.393ZM175.499 16.041L176.591 16.262C175.616 17.952 174.056 19.72 171.794 21.059C171.651 20.812 171.326 20.474 171.105 20.305C173.25 19.135 174.745 17.458 175.499 16.041ZM179.36 17.393H179.542L179.724 17.341L180.374 17.692C178.814 21.618 175.148 24.231 171.612 25.375C171.495 25.115 171.248 24.712 171.04 24.504C174.407 23.529 178.008 20.981 179.36 17.562V17.393ZM173.289 19.707L174.017 19.083C175.044 19.785 176.292 20.825 176.89 21.566L176.097 22.268C175.551 21.527 174.316 20.435 173.289 19.707ZM181.154 22.515H182.155V28.066H181.154V22.515ZM175.798 22.515H181.648V23.412H175.798V28.04H174.823V23.282L175.603 22.515H175.798ZM184.383 18.81C184.864 18.862 185.423 18.888 185.982 18.888C187.386 18.888 189.024 18.719 190.519 18.225L190.545 19.187C189.271 19.538 187.568 19.824 185.982 19.811C185.501 19.811 184.942 19.798 184.461 19.785L184.383 18.81ZM188.998 16.691C188.829 17.328 188.556 18.55 188.244 19.473C187.62 21.345 186.424 23.711 185.345 25.167L184.344 24.647C185.501 23.295 186.71 20.981 187.243 19.447C187.529 18.628 187.815 17.484 187.854 16.574L188.998 16.691ZM192.066 20.708C192.027 21.241 192.027 21.631 192.04 22.099C192.066 22.944 192.183 24.92 192.183 25.778C192.183 26.818 191.52 27.663 189.908 27.663C188.478 27.663 187.321 27.091 187.321 25.791C187.321 24.595 188.452 23.841 189.908 23.841C192.092 23.841 193.769 24.933 194.835 25.856L194.289 26.74C193.288 25.83 191.793 24.673 189.882 24.673C188.92 24.673 188.27 25.115 188.27 25.713C188.27 26.311 188.777 26.727 189.791 26.727C190.87 26.727 191.234 26.155 191.234 25.453C191.234 24.465 191.091 22.138 191.039 20.708H192.066ZM194.666 21.046C193.964 20.448 192.547 19.655 191.689 19.252L192.209 18.472C193.158 18.875 194.627 19.72 195.251 20.188L194.666 21.046ZM198.324 26.363C200.443 26.298 203.823 26.155 207.008 25.986L206.982 26.87C203.901 27.078 200.625 27.273 198.428 27.377L198.324 26.363ZM201.964 19.642L203.056 19.889C202.419 22.19 201.47 25.076 200.69 26.857L199.78 26.597C200.56 24.803 201.483 21.813 201.964 19.642ZM204.356 23.282L205.24 22.879C206.41 24.348 207.697 26.324 208.204 27.624L207.229 28.092C206.748 26.805 205.526 24.777 204.356 23.282ZM197.804 17.887H208.009V18.823H197.804V17.887ZM197.297 17.887H198.272V21.332C198.272 23.295 198.09 26.168 196.868 28.066C196.699 27.897 196.283 27.611 196.036 27.52C197.193 25.713 197.297 23.165 197.297 21.332V17.887ZM202.003 16.093H203.004V18.342H202.003V16.093ZM210.498 23.828H219.39V24.582H210.498V23.828ZM211.031 22.125H220.456V22.892H211.031V22.125ZM211.031 18.836H217.843V19.512H211.031V18.836ZM219.026 23.828H220.001C220.001 23.828 219.988 24.088 219.962 24.218C219.767 26.454 219.598 27.351 219.247 27.715C219.026 27.936 218.792 28.014 218.441 28.04C218.129 28.066 217.466 28.066 216.79 28.014C216.777 27.767 216.673 27.403 216.53 27.169C217.18 27.234 217.791 27.234 217.999 27.234C218.233 27.234 218.35 27.221 218.467 27.117C218.701 26.883 218.87 26.064 219.026 23.958V23.828ZM213.93 16.041L215.048 16.184C214.788 16.73 214.463 17.289 214.203 17.666L213.371 17.471C213.566 17.055 213.813 16.444 213.93 16.041ZM211.057 17.133H218.519V21.228H211.057V20.513H217.544V17.861H211.057V17.133ZM210.498 17.133H211.473V24.101H210.498V17.133ZM215.633 24.959H216.53V27.182H209.9V26.402H215.633V24.959ZM212.513 24.465H213.423V26.714H212.513V24.465ZM209.406 25.011H210.29V27.819H209.406V25.011ZM37.615 37.031V38.071H42.841V37.031H37.615ZM37.615 38.76V39.813H42.841V38.76H37.615ZM37.615 35.302V36.329H42.841V35.302H37.615ZM36.692 34.587H43.803V40.528H36.692V34.587ZM41.411 43.401L42.217 42.881C43.257 43.583 44.622 44.61 45.324 45.286L44.466 45.897C43.816 45.234 42.477 44.155 41.411 43.401ZM38.98 41.867H40.007V46.04H38.98V41.867ZM34.976 41.503H45.311V42.374H34.976V41.503ZM34.391 35.25H35.366V42.738H34.391V35.25ZM36.562 42.907L37.576 43.284C36.77 44.233 35.509 45.247 34.417 45.884C34.222 45.689 33.871 45.39 33.637 45.234C34.716 44.649 35.951 43.713 36.562 42.907ZM53.8024 36.134C53.6334 37.486 53.3734 39.007 52.9704 40.398C52.1774 43.063 51.1374 44.441 49.9414 44.441C48.7714 44.441 47.6144 43.115 47.6144 40.957C47.6144 38.136 50.1234 35.679 53.3084 35.679C56.3504 35.679 58.2874 37.824 58.2874 40.463C58.2874 43.18 56.4934 45 53.3994 45.403L52.8014 44.441C53.2174 44.402 53.6074 44.35 53.9194 44.285C55.5834 43.908 57.2214 42.66 57.2214 40.411C57.2214 38.331 55.7784 36.615 53.2824 36.615C50.4224 36.615 48.6414 38.968 48.6414 40.879C48.6414 42.517 49.3824 43.245 49.9674 43.245C50.5784 43.245 51.2804 42.361 51.9434 40.164C52.3204 38.929 52.5934 37.46 52.7234 36.108L53.8024 36.134ZM62.7359 38.747H70.2889V39.657H62.7359V38.747ZM62.7359 41.568H70.2889V42.478H62.7359V41.568ZM62.7359 44.415H70.2889V45.325H62.7359V44.415ZM62.0729 35.861H71.0429V45.988H70.0289V36.797H63.0609V46.053H62.0729V35.861ZM65.8819 34.067L67.0129 34.21C66.7269 34.99 66.3889 35.835 66.1029 36.394L65.2319 36.225C65.4659 35.614 65.7519 34.704 65.8819 34.067ZM74.3473 42.582H80.2753V43.323H74.3473V42.582ZM73.9963 36.316H80.4833V37.07H73.9963V36.316ZM76.8173 35.133H77.7143V44.701H76.8173V35.133ZM73.9833 44.727C75.5693 44.584 78.0003 44.35 80.3273 44.103L80.3403 44.87C78.1303 45.13 75.7773 45.403 74.1263 45.572L73.9833 44.727ZM75.1923 40.151V41.113H79.4043V40.151H75.1923ZM75.1923 38.565V39.501H79.4043V38.565H75.1923ZM74.3733 37.889H80.2363V41.789H74.3733V37.889ZM79.7683 34.21L80.2623 34.964C78.7283 35.302 76.3103 35.523 74.3603 35.588C74.3213 35.38 74.2303 35.055 74.1263 34.86C76.0633 34.756 78.4293 34.522 79.7683 34.21ZM80.3923 37.122H85.0853V38.032H80.3923V37.122ZM84.7083 37.122H85.6443C85.6443 37.122 85.6313 37.486 85.6313 37.616C85.4883 43.102 85.3583 44.922 84.9293 45.481C84.6953 45.819 84.4353 45.936 84.0453 45.975C83.6813 46.014 83.0573 46.014 82.4593 45.975C82.4333 45.702 82.3293 45.299 82.1733 45.039C82.8103 45.091 83.3823 45.104 83.6423 45.104C83.8503 45.104 83.9803 45.065 84.0973 44.896C84.4223 44.493 84.5653 42.621 84.7083 37.356V37.122ZM81.9653 34.249H82.9013C82.8883 39.423 82.8753 43.791 79.7683 46.118C79.6123 45.884 79.2743 45.572 79.0403 45.416C82.0173 43.284 81.9523 39.163 81.9653 34.249ZM88.0127 35.276H98.8547V36.173H88.0127V35.276ZM87.6097 43.258H99.2967V44.155H87.6097V43.258ZM92.9007 34.093H93.9017V46.079H92.9007V34.093ZM89.9107 40.034V41.386H96.9437V40.034H89.9107ZM89.9107 37.941V39.267H96.9437V37.941H89.9107ZM88.9747 37.122H97.9187V42.192H88.9747V37.122ZM110.934 35.536C110.804 35.783 110.622 36.225 110.518 36.498C110.024 37.785 109.244 39.475 108.178 40.827C106.93 42.413 105.24 44.129 102.783 45.403L101.899 44.597C104.317 43.44 105.981 41.893 107.32 40.19C108.386 38.812 109.036 37.369 109.478 36.095C109.569 35.835 109.686 35.406 109.751 35.133L110.934 35.536ZM104.07 37.07C105.357 37.889 107.164 39.189 108.152 39.982C109.452 41.048 110.739 42.179 111.766 43.297L110.947 44.194C109.868 42.946 108.737 41.919 107.437 40.827C106.501 40.047 104.811 38.76 103.381 37.889L104.07 37.07ZM115.214 39.371C115.617 39.41 116.293 39.449 117.034 39.449C117.983 39.449 123.196 39.449 124.158 39.449C124.808 39.449 125.263 39.397 125.562 39.371V40.645C125.289 40.632 124.743 40.593 124.171 40.593C123.183 40.593 117.996 40.593 117.034 40.593C116.319 40.593 115.63 40.619 115.214 40.645V39.371ZM133.975 34.782C133.949 35.081 133.923 35.523 133.91 35.835C133.741 41.139 132.311 43.57 129.75 45.351L128.801 44.584C129.217 44.363 129.737 43.999 130.127 43.635C131.752 42.166 132.818 39.969 132.844 35.861C132.844 35.562 132.818 35.081 132.766 34.782H133.975ZM138.499 37.486C138.46 37.707 138.434 37.941 138.421 38.11C138.382 39.371 138.213 43.141 137.628 44.389C137.368 44.948 136.952 45.182 136.237 45.182C135.587 45.182 134.833 45.143 134.157 45.091L134.027 44.012C134.729 44.103 135.405 44.168 135.964 44.168C136.328 44.168 136.575 44.051 136.718 43.739C137.212 42.738 137.381 39.54 137.381 38.149H130.53C130.01 38.149 129.49 38.162 129.022 38.201V37.109C129.477 37.148 130.01 37.174 130.517 37.174H136.939C137.29 37.174 137.537 37.148 137.758 37.109L138.499 37.486ZM142.18 39.371C142.583 39.41 143.259 39.449 144 39.449C144.949 39.449 150.162 39.449 151.124 39.449C151.774 39.449 152.229 39.397 152.528 39.371V40.645C152.255 40.632 151.709 40.593 151.137 40.593C150.149 40.593 144.962 40.593 144 40.593C143.285 40.593 142.596 40.619 142.18 40.645V39.371ZM156.746 41.841C157.838 41.841 158.722 42.725 158.722 43.817C158.722 44.909 157.838 45.793 156.746 45.793C155.654 45.793 154.757 44.909 154.757 43.817C154.757 42.725 155.654 41.841 156.746 41.841ZM156.746 45.13C157.474 45.13 158.059 44.545 158.059 43.817C158.059 43.089 157.474 42.504 156.746 42.504C156.018 42.504 155.42 43.089 155.42 43.817C155.42 44.545 156.018 45.13 156.746 45.13ZM175.754 34.106H176.677V43.141H175.754V34.106ZM171.23 39.462L179.043 36.433L179.42 37.278L171.594 40.32L171.23 39.462ZM172.868 35.38H173.83V44.077C173.83 44.818 174.012 44.987 174.935 44.987C175.377 44.987 177.704 44.987 178.276 44.987C179.069 44.987 179.212 44.623 179.316 43.089C179.55 43.258 179.94 43.427 180.226 43.492C180.057 45.286 179.745 45.871 178.302 45.871C177.925 45.871 175.247 45.871 174.896 45.871C173.323 45.871 172.868 45.507 172.868 44.064V35.38ZM178.718 36.654H178.601L178.835 36.459L179.004 36.303L179.68 36.589L179.641 36.745C179.628 39.111 179.602 40.983 179.472 41.542C179.368 42.14 179.095 42.387 178.692 42.491C178.341 42.582 177.769 42.595 177.379 42.582C177.353 42.309 177.249 41.906 177.132 41.685C177.496 41.698 177.964 41.698 178.133 41.698C178.354 41.698 178.497 41.646 178.588 41.308C178.692 40.892 178.718 39.189 178.718 36.654ZM171.165 34.132L172.062 34.418C171.217 36.602 169.878 38.812 168.487 40.268C168.383 40.047 168.11 39.54 167.941 39.319C169.228 38.058 170.437 36.108 171.165 34.132ZM169.787 37.486L170.723 36.537L170.736 36.55V46.027H169.787V37.486ZM188.51 36.134C188.341 37.486 188.081 39.007 187.678 40.398C186.885 43.063 185.845 44.441 184.649 44.441C183.479 44.441 182.322 43.115 182.322 40.957C182.322 38.136 184.831 35.679 188.016 35.679C191.058 35.679 192.995 37.824 192.995 40.463C192.995 43.18 191.201 45 188.107 45.403L187.509 44.441C187.925 44.402 188.315 44.35 188.627 44.285C190.291 43.908 191.929 42.66 191.929 40.411C191.929 38.331 190.486 36.615 187.99 36.615C185.13 36.615 183.349 38.968 183.349 40.879C183.349 42.517 184.09 43.245 184.675 43.245C185.286 43.245 185.988 42.361 186.651 40.164C187.028 38.929 187.301 37.46 187.431 36.108L188.51 36.134ZM197.82 36.693H204.489V37.564H197.82V36.693ZM198.184 39.41H204.177V40.268H198.184V39.41ZM197.625 42.465H204.775V43.297H197.625V42.465ZM200.641 36.966H201.551V42.907H200.641V36.966ZM202.37 40.84L202.994 40.489C203.488 40.918 204.06 41.516 204.32 41.919L203.657 42.322C203.397 41.919 202.838 41.282 202.37 40.84ZM195.779 34.678H206.556V46.053H205.516V35.575H196.767V46.053H195.779V34.678ZM196.312 44.493H205.997V45.39H196.312V44.493ZM214.021 39.358L214.749 38.838C216.075 39.982 217.765 41.607 218.597 42.621L217.791 43.245C217.011 42.218 215.347 40.554 214.021 39.358ZM214.164 34.08H215.165V36.628C215.165 38.708 214.788 41.451 211.434 43.414C211.304 43.206 210.966 42.855 210.745 42.686C213.995 40.931 214.164 38.422 214.164 36.628V34.08ZM209.432 36.303H219.377V37.265H210.407V46.066H209.432V36.303ZM218.935 36.303H219.897V44.753C219.897 45.39 219.741 45.702 219.299 45.871C218.844 46.027 218.038 46.04 216.868 46.04C216.829 45.767 216.673 45.312 216.543 45.039C217.466 45.078 218.35 45.078 218.61 45.065C218.857 45.052 218.935 44.974 218.935 44.753V36.303ZM43.517 53.536C43.387 53.783 43.205 54.225 43.101 54.498C42.607 55.785 41.827 57.475 40.761 58.827C39.513 60.413 37.823 62.129 35.366 63.403L34.482 62.597C36.9 61.44 38.564 59.893 39.903 58.19C40.969 56.812 41.619 55.369 42.061 54.095C42.152 53.835 42.269 53.406 42.334 53.133L43.517 53.536ZM36.653 55.07C37.94 55.889 39.747 57.189 40.735 57.982C42.035 59.048 43.322 60.179 44.349 61.297L43.53 62.194C42.451 60.946 41.32 59.919 40.02 58.827C39.084 58.047 37.394 56.76 35.964 55.889L36.653 55.07ZM46.8243 57.371C47.2273 57.41 47.9033 57.449 48.6443 57.449C49.5933 57.449 54.8063 57.449 55.7683 57.449C56.4183 57.449 56.8733 57.397 57.1723 57.371V58.645C56.8993 58.632 56.3533 58.593 55.7813 58.593C54.7933 58.593 49.6063 58.593 48.6443 58.593C47.9293 58.593 47.2403 58.619 46.8243 58.645V57.371ZM64.6135 52.782C64.5875 53.081 64.5615 53.523 64.5485 53.835C64.3795 59.139 62.9495 61.57 60.3885 63.351L59.4395 62.584C59.8555 62.363 60.3755 61.999 60.7655 61.635C62.3905 60.166 63.4565 57.969 63.4825 53.861C63.4825 53.562 63.4565 53.081 63.4045 52.782H64.6135ZM69.1375 55.486C69.0985 55.707 69.0725 55.941 69.0595 56.11C69.0205 57.371 68.8515 61.141 68.2665 62.389C68.0065 62.948 67.5905 63.182 66.8755 63.182C66.2255 63.182 65.4715 63.143 64.7955 63.091L64.6655 62.012C65.3675 62.103 66.0435 62.168 66.6025 62.168C66.9665 62.168 67.2135 62.051 67.3565 61.739C67.8505 60.738 68.0195 57.54 68.0195 56.149H61.1685C60.6485 56.149 60.1285 56.162 59.6605 56.201V55.109C60.1155 55.148 60.6485 55.174 61.1555 55.174H67.5775C67.9285 55.174 68.1755 55.148 68.3965 55.109L69.1375 55.486ZM71.8468 57.371C72.2498 57.41 72.9258 57.449 73.6668 57.449C74.6158 57.449 79.8288 57.449 80.7908 57.449C81.4408 57.449 81.8958 57.397 82.1948 57.371V58.645C81.9218 58.632 81.3758 58.593 80.8038 58.593C79.8158 58.593 74.6288 58.593 73.6668 58.593C72.9518 58.593 72.2628 58.619 71.8468 58.645V57.371ZM93.614 55.252C93.328 55.421 93.003 55.603 92.613 55.798C91.742 56.253 89.935 57.111 88.661 57.943C87.452 58.736 86.724 59.594 86.724 60.569C86.724 61.648 87.764 62.324 89.818 62.324C91.222 62.324 92.964 62.142 93.978 61.882L93.965 63.052C92.99 63.221 91.482 63.364 89.857 63.364C87.413 63.364 85.645 62.636 85.645 60.686C85.645 59.282 86.594 58.177 88.128 57.163C89.454 56.279 91.274 55.408 92.119 54.927C92.496 54.706 92.782 54.537 93.055 54.316L93.614 55.252ZM87.036 52.886C87.634 54.55 88.44 56.175 89.038 57.228L88.154 57.761C87.491 56.695 86.711 54.94 86.009 53.328L87.036 52.886ZM98.7413 57.215V61.817H97.8053V58.125H96.1543V57.215H98.7413ZM98.7413 61.427C99.3523 62.389 100.496 62.831 102.043 62.883C103.486 62.948 106.489 62.909 108.062 62.805C107.945 63.026 107.789 63.481 107.75 63.767C106.281 63.832 103.499 63.858 102.043 63.793C100.327 63.728 99.1443 63.273 98.3383 62.246C97.7663 62.805 97.1683 63.364 96.5183 63.936L96.0113 62.987C96.5833 62.571 97.2853 61.986 97.8963 61.427H98.7413ZM96.2713 52.951L97.0253 52.431C97.7533 53.016 98.5983 53.861 98.9753 54.472L98.1693 55.057C97.8053 54.446 96.9993 53.562 96.2713 52.951ZM99.3133 60.686H107.828V61.401H99.3133V60.686ZM99.6903 59.009H107.477V59.724H99.6903V59.009ZM99.3003 54.667H107.841V55.395H99.3003V54.667ZM103.889 58.242H104.812V62.493H103.889V58.242ZM100.912 59.282H101.809V60.959H100.912V59.282ZM102.602 52.08L103.538 52.197C103.278 53.133 102.888 54.316 102.602 55.057H101.64C101.939 54.251 102.342 53.029 102.602 52.08ZM100.145 53.068H106.281V55.044H105.371V53.77H100.145V53.068ZM101.237 56.669V57.67H105.592V56.669H101.237ZM100.34 56.045H106.541V58.307H100.34V56.045ZM110.967 53.939C110.902 54.238 110.863 54.862 110.85 55.2C110.837 56.006 110.85 57.202 110.941 58.268C111.162 60.439 111.786 61.882 112.722 61.882C113.385 61.882 113.996 60.543 114.334 59.243L115.153 60.166C114.36 62.363 113.58 63.117 112.696 63.117C111.461 63.117 110.291 61.895 109.927 58.528C109.81 57.41 109.784 55.824 109.784 55.07C109.784 54.771 109.784 54.212 109.706 53.913L110.967 53.939ZM117.727 54.29C118.897 55.798 119.833 58.567 120.028 60.764L118.975 61.18C118.754 58.84 117.961 56.162 116.726 54.641L117.727 54.29ZM121.151 57.397H133.046V58.463H121.151V57.397ZM136.821 53.211L136.509 55.46H142.567L142.749 53.211H136.821ZM135.963 52.561H143.776L143.477 56.11H135.495L135.963 52.561ZM139.317 52.873H140.214C140.136 53.835 140.006 55.018 139.889 55.759H138.979C139.109 54.992 139.252 53.796 139.317 52.873ZM133.753 53.913H136.171V53.978H142.944V53.913H145.427V54.719H142.944V54.654H136.171V54.719H133.753V53.913ZM136.379 58.879V59.763H142.931V58.879H136.379ZM136.379 60.4V61.31H142.931V60.4H136.379ZM136.379 57.358V58.242H142.931V57.358H136.379ZM135.43 56.708H143.906V61.96H135.43V56.708ZM140.669 62.623L141.423 62.116C142.866 62.558 144.439 63.117 145.388 63.546L144.374 64.066C143.542 63.65 142.112 63.091 140.669 62.623ZM137.614 62.103L138.498 62.506C137.445 63.13 135.794 63.728 134.494 64.092C134.338 63.897 134 63.52 133.779 63.351C135.118 63.065 136.678 62.61 137.614 62.103ZM147.824 52.08H148.812V64.027H147.824V52.08ZM146.628 54.55L147.369 54.667C147.304 55.72 147.07 57.228 146.719 58.164L145.952 57.904C146.303 57.033 146.537 55.603 146.628 54.55ZM148.903 54.472L149.579 54.173C149.982 54.875 150.385 55.798 150.528 56.357L149.8 56.721C149.657 56.149 149.267 55.2 148.903 54.472ZM151.555 52.691L152.504 52.847C152.166 54.745 151.594 56.591 150.866 57.813C150.671 57.67 150.229 57.462 149.982 57.358C150.749 56.214 151.269 54.446 151.555 52.691ZM151.568 54.836H157.613V55.772H151.269L151.568 54.836ZM153.674 52.132H154.649V63.182H153.674V52.132ZM150.905 58.476H157.327V59.399H150.905V58.476ZM149.93 62.649H157.925V63.585H149.93V62.649ZM165.432 54.134C165.263 55.486 165.003 57.007 164.6 58.398C163.807 61.063 162.767 62.441 161.571 62.441C160.401 62.441 159.244 61.115 159.244 58.957C159.244 56.136 161.753 53.679 164.938 53.679C167.98 53.679 169.917 55.824 169.917 58.463C169.917 61.18 168.123 63 165.029 63.403L164.431 62.441C164.847 62.402 165.237 62.35 165.549 62.285C167.213 61.908 168.851 60.66 168.851 58.411C168.851 56.331 167.408 54.615 164.912 54.615C162.052 54.615 160.271 56.968 160.271 58.879C160.271 60.517 161.012 61.245 161.597 61.245C162.208 61.245 162.91 60.361 163.573 58.164C163.95 56.929 164.223 55.46 164.353 54.108L165.432 54.134ZM176.747 52.717C176.695 52.873 176.643 53.107 176.604 53.289C176.383 54.381 176.162 56.435 176.162 58.216C176.162 59.906 176.526 61.466 176.929 62.688L175.98 62.974C175.603 61.817 175.252 59.971 175.252 58.32C175.252 56.539 175.512 54.433 175.629 53.315C175.655 53.081 175.668 52.847 175.668 52.678L176.747 52.717ZM174.654 54.316C176.942 54.316 179.204 54.134 180.998 53.731L181.011 54.693C179.139 55.018 176.578 55.213 174.641 55.213C174.082 55.213 173.068 55.161 172.535 55.135L172.509 54.16C172.964 54.238 174.095 54.316 174.654 54.316ZM180.075 55.85C179.997 56.019 179.88 56.37 179.802 56.578C179.035 58.983 177.735 60.79 176.37 61.843C175.538 62.48 174.498 62.961 173.575 62.961C172.717 62.961 172.041 62.441 172.041 61.336C172.041 59.555 173.692 57.722 175.616 56.981C176.487 56.643 177.54 56.448 178.385 56.448C180.842 56.448 182.389 57.878 182.389 59.698C182.389 61.557 181.154 63.182 178.138 63.663L177.579 62.792C179.919 62.532 181.375 61.323 181.375 59.646C181.375 58.385 180.309 57.28 178.372 57.28C177.28 57.28 176.318 57.592 175.655 57.891C174.186 58.541 173.016 59.971 173.016 61.167C173.016 61.7 173.276 61.96 173.757 61.96C174.407 61.96 175.252 61.596 176.084 60.868C177.241 59.854 178.307 58.45 178.905 56.344C178.957 56.149 179.022 55.798 179.035 55.59L180.075 55.85ZM186.229 53.432C186.515 53.458 186.879 53.471 187.139 53.471C187.828 53.471 190.909 53.38 191.598 53.315C191.988 53.276 192.17 53.25 192.313 53.198L192.911 53.965C192.677 54.121 192.417 54.29 192.17 54.485C191.533 54.979 189.765 56.5 188.751 57.332C189.349 57.137 189.973 57.072 190.558 57.072C192.716 57.072 194.263 58.359 194.263 60.114C194.263 62.207 192.534 63.572 189.778 63.572C188.01 63.572 186.931 62.805 186.931 61.713C186.931 60.829 187.737 60.023 188.933 60.023C190.662 60.023 191.533 61.245 191.624 62.558L190.688 62.714C190.61 61.609 189.973 60.816 188.933 60.816C188.335 60.816 187.88 61.18 187.88 61.635C187.88 62.272 188.595 62.649 189.622 62.649C191.832 62.649 193.223 61.739 193.223 60.114C193.223 58.827 192.001 57.878 190.298 57.878C188.14 57.878 186.97 58.788 185.332 60.465L184.578 59.711C185.657 58.827 187.334 57.423 188.075 56.786C188.803 56.188 190.441 54.823 191.091 54.238C190.402 54.277 187.802 54.381 187.126 54.42C186.827 54.446 186.541 54.459 186.255 54.498L186.229 53.432ZM198.285 53.51C198.649 53.549 199.039 53.575 199.455 53.575C200.209 53.575 203.238 53.575 203.966 53.575C204.33 53.575 204.798 53.549 205.175 53.51V54.589C204.785 54.563 204.33 54.537 203.966 54.537C203.238 54.537 200.209 54.537 199.481 54.537C199.039 54.537 198.623 54.563 198.285 54.589V53.51ZM196.738 56.773C197.089 56.812 197.466 56.838 197.869 56.838C198.623 56.838 205.682 56.838 206.371 56.838C206.644 56.838 207.073 56.812 207.398 56.773V57.852C207.112 57.826 206.696 57.813 206.371 57.813C205.682 57.813 198.623 57.813 197.869 57.813C197.479 57.813 197.089 57.826 196.738 57.852V56.773ZM202.861 57.293C202.861 58.931 202.653 60.283 202.081 61.375C201.6 62.246 200.625 63.182 199.52 63.741L198.558 63.039C199.559 62.61 200.495 61.869 201.015 61.037C201.665 60.01 201.756 58.736 201.769 57.306L202.861 57.293ZM205.851 52.444C206.176 52.912 206.644 53.705 206.904 54.225L206.202 54.537C205.955 54.017 205.513 53.237 205.162 52.743L205.851 52.444ZM207.268 51.924C207.619 52.405 208.113 53.211 208.36 53.692L207.671 54.004C207.385 53.445 206.956 52.704 206.592 52.223L207.268 51.924ZM218.506 53.094C218.753 53.562 219.091 54.368 219.273 54.888L218.623 55.109C218.441 54.563 218.142 53.783 217.882 53.289L218.506 53.094ZM219.806 52.691C220.053 53.172 220.391 53.965 220.586 54.485L219.936 54.706C219.728 54.121 219.442 53.38 219.169 52.886L219.806 52.691ZM217.271 57.267C217.271 60.725 216.53 62.506 213.566 63.832L212.682 63.013C215.048 62.103 216.231 60.985 216.231 57.345V54.186C216.231 53.679 216.192 53.25 216.166 53.12H217.336C217.323 53.25 217.271 53.679 217.271 54.186V57.267ZM212.591 53.211C212.578 53.328 212.526 53.692 212.526 54.147V58.918C212.526 59.386 212.565 59.958 212.578 60.088H211.434C211.447 59.958 211.486 59.412 211.486 58.918V54.147C211.486 53.874 211.473 53.497 211.434 53.211H212.591ZM208.782 55.733C208.899 55.746 209.536 55.811 210.095 55.811H218.701C219.273 55.811 219.715 55.772 219.897 55.746V56.851C219.754 56.825 219.273 56.812 218.701 56.812H210.095C209.523 56.812 208.938 56.838 208.782 56.851V55.733ZM34.118 77.307C36.367 76.709 38.343 75.786 39.786 74.889C41.151 74.031 42.451 72.913 43.348 71.821L44.219 72.64C43.101 73.797 41.736 74.889 40.215 75.838C38.785 76.722 36.718 77.671 34.625 78.321L34.118 77.307ZM39.578 75.422L40.696 75.084V81.025C40.696 81.506 40.722 82.156 40.787 82.403H39.5C39.539 82.156 39.578 81.506 39.578 81.025V75.422ZM48.431 72.484C49.341 73.095 51.018 74.447 51.733 75.162L50.927 75.994C50.264 75.318 48.652 73.914 47.677 73.277L48.431 72.484ZM47.313 81.194C49.575 80.856 51.265 80.063 52.5 79.296C54.515 78.035 56.088 76.111 56.842 74.499L57.466 75.617C56.582 77.229 55.074 78.997 53.111 80.232C51.798 81.051 50.16 81.857 47.989 82.26L47.313 81.194ZM63.472 71.912C63.42 72.146 63.368 72.432 63.316 72.679C63.225 73.147 63.056 74.213 62.874 75.019C62.432 76.852 61.509 80.089 60.04 82.455L58.974 82.039C60.456 80.05 61.496 76.579 61.847 74.993C62.094 73.953 62.263 72.783 62.263 71.782L63.472 71.912ZM67.944 73.407C68.75 74.46 69.881 76.826 70.323 78.022L69.309 78.503C68.932 77.177 67.905 74.915 66.995 73.836L67.944 73.407ZM58.792 74.759C59.195 74.785 59.533 74.772 59.949 74.759C60.924 74.733 63.563 74.447 64.447 74.447C65.604 74.447 66.553 74.889 66.553 76.644C66.553 78.191 66.345 80.258 65.799 81.337C65.396 82.208 64.746 82.429 63.901 82.429C63.407 82.429 62.783 82.338 62.38 82.234L62.198 81.155C62.744 81.324 63.433 81.415 63.797 81.415C64.278 81.415 64.668 81.311 64.928 80.752C65.344 79.868 65.552 78.178 65.552 76.774C65.552 75.578 65.006 75.357 64.174 75.357C63.303 75.357 60.859 75.656 60.066 75.734C59.767 75.773 59.234 75.838 58.896 75.89L58.792 74.759ZM68.087 71.522C68.412 71.99 68.88 72.783 69.153 73.316L68.451 73.628C68.191 73.095 67.749 72.315 67.385 71.821L68.087 71.522ZM69.517 71.002C69.868 71.483 70.362 72.302 70.622 72.783L69.907 73.095C69.634 72.523 69.205 71.782 68.828 71.301L69.517 71.002ZM76.251 71.756H81.958V72.666H76.251V71.756ZM75.809 76.319H82.959V77.255H75.809V76.319ZM78.877 74.59H79.852V81.818C79.852 82.403 79.709 82.689 79.306 82.845C78.877 83.001 78.201 83.027 77.161 83.014C77.109 82.754 76.94 82.325 76.81 82.065C77.629 82.091 78.357 82.091 78.591 82.078C78.812 82.065 78.877 82 78.877 81.805V74.59ZM81.607 71.756H81.841L82.049 71.704L82.686 72.172C81.906 73.277 80.697 74.538 79.657 75.318C79.514 75.136 79.241 74.876 79.072 74.746C80.008 74.044 81.087 72.822 81.607 71.977V71.756ZM70.999 73.771H75.276V74.681H70.999V73.771ZM72.962 71.093L73.885 71.197C73.391 73.797 72.572 77.307 71.987 79.465L71.168 79.036C71.74 77.047 72.52 73.563 72.962 71.093ZM71.649 78.62L72.195 77.944C73.651 78.763 75.367 80.011 76.147 80.973L75.562 81.766C74.782 80.791 73.105 79.465 71.649 78.62ZM74.951 73.771H75.107L75.289 73.732L75.874 73.849C75.523 78.88 74.106 81.636 71.714 83.066C71.584 82.832 71.311 82.481 71.103 82.286C73.274 81.142 74.626 78.386 74.951 73.966V73.771ZM85.247 73.095C87.054 73.316 88.757 73.342 90.083 73.212C91.149 73.121 92.215 72.9 93.151 72.588L93.294 73.537C92.449 73.784 91.344 74.005 90.304 74.096C88.991 74.226 87.171 74.226 85.312 74.044L85.247 73.095ZM84.987 75.76C87.21 75.994 89.42 75.955 90.941 75.773C92.176 75.643 93.229 75.383 93.918 75.175L94.087 76.137C93.372 76.332 92.384 76.527 91.292 76.657C89.693 76.865 87.288 76.904 85.052 76.735L84.987 75.76ZM89.433 72.926C89.329 72.549 89.212 72.146 89.069 71.769L90.174 71.626C90.304 72.718 90.707 74.031 91.032 74.954C91.383 75.968 91.955 77.216 92.631 78.217C92.774 78.425 92.93 78.607 93.125 78.776L92.579 79.569C91.851 79.387 90.642 79.257 89.745 79.166L89.823 78.373C90.525 78.438 91.37 78.529 91.773 78.581C91.058 77.463 90.512 76.215 90.135 75.162C89.81 74.265 89.615 73.576 89.433 72.926ZM86.885 78.568C86.573 79.01 86.339 79.452 86.339 80.037C86.339 81.103 87.288 81.649 89.329 81.649C90.538 81.649 91.487 81.558 92.436 81.376L92.384 82.403C91.474 82.559 90.46 82.637 89.342 82.637C86.807 82.637 85.377 81.883 85.351 80.206C85.351 79.465 85.572 78.919 85.871 78.347L86.885 78.568ZM96.414 73.446C96.908 73.433 97.324 73.407 97.584 73.381C98.416 73.29 100.873 73.056 103.265 72.848C104.695 72.731 105.904 72.653 106.775 72.627L106.788 73.667C106.034 73.654 104.903 73.68 104.24 73.862C102.381 74.46 101.25 76.449 101.25 77.983C101.25 80.518 103.629 81.337 105.735 81.415L105.358 82.481C102.953 82.39 100.223 81.116 100.223 78.204C100.223 76.189 101.458 74.525 102.641 73.823C101.25 73.966 97.935 74.291 96.531 74.59L96.414 73.446ZM104.903 75.253C105.202 75.682 105.696 76.488 105.982 77.073L105.306 77.372C105.007 76.748 104.643 76.085 104.253 75.539L104.903 75.253ZM106.32 74.707C106.645 75.136 107.152 75.929 107.451 76.501L106.788 76.826C106.476 76.202 106.086 75.552 105.683 75.006L106.32 74.707ZM116.031 71.704C116.005 71.86 115.966 72.367 115.966 72.523C115.927 73.368 115.953 75.877 115.966 76.917L114.978 76.41C114.978 75.838 114.965 73.251 114.926 72.536C114.9 72.185 114.861 71.821 114.835 71.704H116.031ZM109.115 73.524C110.883 73.498 114.133 73.381 116.135 73.381C117.721 73.381 119.333 73.381 119.944 73.394L119.931 74.356C119.203 74.317 118.033 74.291 116.122 74.291C113.886 74.291 111.104 74.382 109.141 74.525L109.115 73.524ZM115.94 77.294C115.94 79.036 115.134 79.907 113.951 79.907C112.859 79.907 111.806 79.14 111.806 77.723C111.806 76.436 112.872 75.474 114.107 75.474C115.615 75.474 116.382 76.592 116.382 78.087C116.382 79.855 115.524 81.805 112.508 82.702L111.637 81.857C114.003 81.298 115.381 80.141 115.381 77.996C115.381 76.826 114.809 76.332 114.107 76.332C113.418 76.332 112.781 76.865 112.781 77.71C112.781 78.529 113.392 78.997 114.107 78.997C114.913 78.997 115.433 78.321 115.225 76.93L115.94 77.294ZM121.587 78.841C122.679 78.841 123.563 79.725 123.563 80.817C123.563 81.909 122.679 82.793 121.587 82.793C120.495 82.793 119.598 81.909 119.598 80.817C119.598 79.725 120.495 78.841 121.587 78.841ZM121.587 82.13C122.315 82.13 122.9 81.545 122.9 80.817C122.9 80.089 122.315 79.504 121.587 79.504C120.859 79.504 120.261 80.089 120.261 80.817C120.261 81.545 120.859 82.13 121.587 82.13Z" fill="white"/>
<path d="M5 0.6L250 0.6C252.43 0.6 254.4 2.56995 254.4 5V93C254.4 95.4301 252.43 97.4 250 97.4H5C2.56995 97.4 0.6 95.4301 0.6 93L0.6 5C0.6 2.56995 2.56995 0.6 5 0.6Z" stroke="white" stroke-width="1.2"/>
</svg>
