<svg width="255" height="98" viewBox="0 0 255 98" fill="none" xmlns="http://www.w3.org/2000/svg">
<path d="M0.4 5C0.4 2.45949 2.45949 0.4 5 0.4L250 0.4C252.541 0.4 254.6 2.45949 254.6 5V93C254.6 95.5405 252.541 97.6 250 97.6H5C2.45949 97.6 0.4 95.5405 0.4 93L0.4 5Z" stroke="white" stroke-width="0.8"/>
<path d="M119.048 43.2401V57.1801H117.228V50.8601H110.128V57.1801H108.308V43.2401H110.128V49.3601H117.228V43.2401H119.048ZM129.495 57.1801L126.175 51.4801H123.975V57.1801H122.155V43.2401H126.655C127.709 43.2401 128.595 43.4201 129.315 43.7801C130.049 44.1401 130.595 44.6267 130.955 45.2401C131.315 45.8534 131.495 46.5534 131.495 47.3401C131.495 48.3001 131.215 49.1467 130.655 49.8801C130.109 50.6134 129.282 51.1001 128.175 51.3401L131.675 57.1801H129.495ZM123.975 50.0201H126.655C127.642 50.0201 128.382 49.7801 128.875 49.3001C129.369 48.8067 129.615 48.1534 129.615 47.3401C129.615 46.5134 129.369 45.8734 128.875 45.4201C128.395 44.9667 127.655 44.7401 126.655 44.7401H123.975V50.0201ZM133.643 50.2001C133.643 48.8401 133.95 47.6201 134.563 46.5401C135.177 45.4467 136.01 44.5934 137.063 43.9801C138.13 43.3667 139.31 43.0601 140.603 43.0601C142.123 43.0601 143.45 43.4267 144.583 44.1601C145.717 44.8934 146.543 45.9334 147.063 47.2801H144.883C144.497 46.4401 143.937 45.7934 143.203 45.3401C142.483 44.8867 141.617 44.6601 140.603 44.6601C139.63 44.6601 138.757 44.8867 137.983 45.3401C137.21 45.7934 136.603 46.4401 136.163 47.2801C135.723 48.1067 135.503 49.0801 135.503 50.2001C135.503 51.3067 135.723 52.2801 136.163 53.1201C136.603 53.9467 137.21 54.5867 137.983 55.0401C138.757 55.4934 139.63 55.7201 140.603 55.7201C141.617 55.7201 142.483 55.5001 143.203 55.0601C143.937 54.6067 144.497 53.9601 144.883 53.1201H147.063C146.543 54.4534 145.717 55.4867 144.583 56.2201C143.45 56.9401 142.123 57.3001 140.603 57.3001C139.31 57.3001 138.13 57.0001 137.063 56.4001C136.01 55.7867 135.177 54.9401 134.563 53.8601C133.95 52.7801 133.643 51.5601 133.643 50.2001Z" fill="white"/>
</svg>
