<svg width="255" height="98" viewBox="0 0 255 98" fill="none" xmlns="http://www.w3.org/2000/svg">
<path d="M34.17 17.276H44.869V27.572H43.842V18.225H35.145V27.676H34.17V17.276ZM34.69 25.804H44.401V26.753H34.69V25.804ZM40.241 17.9H41.19V22.047C41.19 22.307 41.216 22.45 41.294 22.489C41.385 22.528 41.502 22.554 41.645 22.554C41.775 22.554 42.074 22.554 42.256 22.554C42.425 22.554 42.607 22.541 42.685 22.502C42.776 22.463 42.854 22.372 42.88 22.19C42.932 21.995 42.945 21.566 42.958 20.994C43.14 21.15 43.465 21.319 43.712 21.397C43.686 21.93 43.647 22.541 43.556 22.775C43.478 23.009 43.335 23.152 43.114 23.256C42.919 23.334 42.581 23.373 42.321 23.373C42.126 23.373 41.606 23.373 41.437 23.373C41.138 23.373 40.787 23.308 40.566 23.139C40.332 22.97 40.241 22.749 40.241 21.956V17.9ZM37.589 17.874H38.551C38.421 20.799 38.057 22.957 35.964 24.192C35.847 23.958 35.561 23.633 35.34 23.477C37.225 22.424 37.498 20.474 37.589 17.874ZM53.2987 19.668H57.6407V20.5H53.2987V19.668ZM52.8567 24.192H58.0307V25.024H52.8567V24.192ZM54.2607 21.904H54.9237V27.858H54.2607V21.904ZM55.9637 21.904H56.6267V27.858H55.9637V21.904ZM55.4047 17.042C54.7677 18.147 53.5977 19.46 52.3367 20.318C52.2327 20.071 51.9987 19.733 51.8297 19.525C53.0907 18.732 54.3387 17.328 54.9367 16.132H55.8077C56.6267 17.432 57.9137 18.719 59.0967 19.421C58.9147 19.642 58.6937 19.98 58.5507 20.266C57.3937 19.46 56.1327 18.173 55.4047 17.042ZM52.4667 21.592H58.0437V22.424H53.2467V28.053H52.4667V21.592ZM57.6927 21.592H58.5377V27.13C58.5377 27.52 58.4857 27.754 58.2257 27.897C57.9787 28.027 57.6277 28.04 57.1077 28.04C57.0687 27.819 56.9647 27.481 56.8607 27.247C57.1727 27.26 57.4587 27.26 57.5627 27.26C57.6537 27.26 57.6927 27.221 57.6927 27.117V21.592ZM47.1367 17.497H52.0117V18.368H47.1367V17.497ZM46.9677 24.907H52.0767V25.778H46.9677V24.907ZM49.1647 16.093H49.9837V19.642H49.1647V16.093ZM49.2427 19.694H49.9317V23.477H49.9967V28.066H49.1647V23.477H49.2427V19.694ZM48.1117 21.93V23.126H51.0757V21.93H48.1117ZM48.1117 20.058V21.228H51.0757V20.058H48.1117ZM47.3837 19.33H51.8427V23.854H47.3837V19.33ZM61.0263 17.276H71.8683V18.173H61.0263V17.276ZM60.6233 25.258H72.3103V26.155H60.6233V25.258ZM65.9143 16.093H66.9153V28.079H65.9143V16.093ZM62.9243 22.034V23.386H69.9573V22.034H62.9243ZM62.9243 19.941V21.267H69.9573V19.941H62.9243ZM61.9883 19.122H70.9323V24.192H61.9883V19.122ZM76.97 27.728C76.125 26.701 75.007 25.596 74.084 24.842L74.929 24.101C75.865 24.855 77.035 26.025 77.854 26.974L76.97 27.728ZM88.7277 17.952H98.0617V18.992H88.7277V17.952ZM87.6227 25.661H99.1667V26.753H87.6227V25.661ZM107.193 19.668H111.535V20.5H107.193V19.668ZM106.751 24.192H111.925V25.024H106.751V24.192ZM108.155 21.904H108.818V27.858H108.155V21.904ZM109.858 21.904H110.521V27.858H109.858V21.904ZM109.299 17.042C108.662 18.147 107.492 19.46 106.231 20.318C106.127 20.071 105.893 19.733 105.724 19.525C106.985 18.732 108.233 17.328 108.831 16.132H109.702C110.521 17.432 111.808 18.719 112.991 19.421C112.809 19.642 112.588 19.98 112.445 20.266C111.288 19.46 110.027 18.173 109.299 17.042ZM106.361 21.592H111.938V22.424H107.141V28.053H106.361V21.592ZM111.587 21.592H112.432V27.13C112.432 27.52 112.38 27.754 112.12 27.897C111.873 28.027 111.522 28.04 111.002 28.04C110.963 27.819 110.859 27.481 110.755 27.247C111.067 27.26 111.353 27.26 111.457 27.26C111.548 27.26 111.587 27.221 111.587 27.117V21.592ZM101.031 17.497H105.906V18.368H101.031V17.497ZM100.862 24.907H105.971V25.778H100.862V24.907ZM103.059 16.093H103.878V19.642H103.059V16.093ZM103.137 19.694H103.826V23.477H103.891V28.066H103.059V23.477H103.137V19.694ZM102.006 21.93V23.126H104.97V21.93H102.006ZM102.006 20.058V21.228H104.97V20.058H102.006ZM101.278 19.33H105.737V23.854H101.278V19.33ZM114.921 17.276H125.763V18.173H114.921V17.276ZM114.518 25.258H126.205V26.155H114.518V25.258ZM119.809 16.093H120.81V28.079H119.809V16.093ZM116.819 22.034V23.386H123.852V22.034H116.819ZM116.819 19.941V21.267H123.852V19.941H116.819ZM115.883 19.122H124.827V24.192H115.883V19.122ZM130.865 27.728C130.02 26.701 128.902 25.596 127.979 24.842L128.824 24.101C129.76 24.855 130.93 26.025 131.749 26.974L130.865 27.728ZM149.317 16.106H150.253V18.589H149.317V16.106ZM146.496 18.16H153.243V19.031H146.496V18.16ZM148.108 20.448H151.241V21.319H148.108V20.448ZM147.614 20.448H148.537V23.36C148.537 24.829 148.329 26.766 147.055 28.027C146.886 27.871 146.509 27.585 146.301 27.481C147.484 26.298 147.614 24.647 147.614 23.334V20.448ZM143.727 22.944H144.364V26.038H143.727V22.944ZM142.583 17.848H145.521V18.641H142.583V17.848ZM145.248 17.848H146.067V27.013C146.067 27.481 145.963 27.728 145.677 27.871C145.365 28.001 144.897 28.014 144.104 28.014C144.078 27.793 143.948 27.442 143.831 27.221C144.39 27.234 144.897 27.234 145.04 27.221C145.196 27.221 145.248 27.169 145.248 27.013V17.848ZM142.206 17.848H143.012V22.58C143.012 24.27 142.869 26.571 141.933 28.04C141.79 27.897 141.439 27.689 141.244 27.598C142.128 26.181 142.206 24.166 142.206 22.58V17.848ZM141.27 21.956C142.661 21.878 144.767 21.735 146.821 21.592L146.834 22.372C144.858 22.528 142.817 22.684 141.374 22.788L141.27 21.956ZM143.415 19.447L144.026 19.2C144.39 19.746 144.702 20.487 144.806 20.981L144.143 21.254C144.039 20.76 143.74 20.006 143.415 19.447ZM143.792 16.08L144.819 16.275C144.585 16.977 144.312 17.744 144.104 18.238L143.246 18.056C143.454 17.51 143.688 16.652 143.792 16.08ZM150.721 20.448H151.644V26.363C151.644 26.688 151.67 26.883 151.709 26.935C151.761 26.974 151.826 27 151.917 27C151.995 27 152.151 27 152.255 27C152.359 27 152.463 26.974 152.515 26.922C152.58 26.883 152.606 26.766 152.632 26.558C152.671 26.324 152.684 25.83 152.684 25.167C152.866 25.323 153.152 25.466 153.373 25.544C153.373 26.129 153.334 26.87 153.269 27.117C153.204 27.39 153.087 27.559 152.918 27.676C152.775 27.78 152.528 27.832 152.294 27.832C152.138 27.832 151.826 27.832 151.683 27.832C151.436 27.832 151.163 27.767 150.968 27.598C150.786 27.416 150.721 27.195 150.721 26.311V20.448ZM160.23 16.08H161.231V18.03H160.23V16.08ZM160.23 23.659H161.231V27.26H160.23V23.659ZM158.787 18.199H159.788C159.541 20.591 158.8 21.982 155.654 22.684C155.563 22.45 155.329 22.06 155.121 21.865C157.981 21.306 158.579 20.188 158.787 18.199ZM161.673 18.16H162.635V20.916C162.635 21.228 162.726 21.28 163.207 21.28C163.428 21.28 164.585 21.28 164.884 21.28C165.261 21.28 165.326 21.15 165.378 20.24C165.573 20.383 165.963 20.526 166.236 20.591C166.119 21.826 165.846 22.138 164.975 22.138C164.728 22.138 163.337 22.138 163.103 22.138C161.959 22.138 161.673 21.878 161.673 20.916V18.16ZM155.277 17.432H166.275V19.772H165.287V18.329H156.239V20.058H155.277V17.432ZM156.395 23.243H165.352V24.127H156.395V23.243ZM155.03 26.766H166.483V27.65H155.03V26.766ZM172.261 22.736H180.152V23.529H172.261V22.736ZM173.288 24.79L173.808 24.192C174.484 24.582 175.355 25.167 175.784 25.57L175.238 26.246C174.822 25.83 173.964 25.206 173.288 24.79ZM177.5 21.969L177.981 21.501C178.462 21.761 179.06 22.151 179.359 22.45L178.852 22.957C178.566 22.671 177.981 22.242 177.5 21.969ZM173.223 23.1H174.107C173.964 25.115 173.574 26.948 172.118 28.014C171.988 27.819 171.728 27.52 171.52 27.377C172.807 26.467 173.119 24.803 173.223 23.1ZM175.563 16.093H176.434C176.369 22.567 177.318 27.221 179.086 27.221C179.463 27.221 179.593 26.922 179.658 25.739C179.84 25.921 180.139 26.09 180.347 26.168C180.178 27.637 179.892 28.066 179.021 28.066C176.408 28.053 175.589 22.736 175.563 16.093ZM178.475 23.737L179.307 24.049C178.462 25.843 176.863 27.208 174.861 28.04C174.744 27.871 174.497 27.572 174.315 27.416C176.265 26.662 177.747 25.349 178.475 23.737ZM176.499 18.355L176.902 17.822C177.474 18.212 178.124 18.81 178.423 19.226L178.007 19.837C177.708 19.408 177.058 18.784 176.499 18.355ZM178.93 19.928L179.528 19.694C179.892 20.292 180.243 21.072 180.347 21.566L179.71 21.865C179.593 21.358 179.268 20.539 178.93 19.928ZM176.668 20.838C177.474 20.786 178.553 20.721 179.697 20.643V21.319C178.657 21.423 177.669 21.514 176.811 21.592L176.668 20.838ZM178.007 16.21L178.761 16.509C178.397 17.237 177.955 18.082 177.591 18.615L177.032 18.355C177.357 17.783 177.786 16.847 178.007 16.21ZM179.073 17.51L179.801 17.861C179.138 18.979 178.254 20.37 177.552 21.254L177.006 20.942C177.695 20.045 178.579 18.563 179.073 17.51ZM172.092 18.355L172.508 17.822C173.067 18.212 173.73 18.81 174.016 19.226L173.6 19.837C173.301 19.408 172.651 18.784 172.092 18.355ZM174.354 20.006L174.952 19.785C175.29 20.383 175.602 21.176 175.68 21.67L175.043 21.943C174.952 21.436 174.666 20.63 174.354 20.006ZM172.144 20.981C172.963 20.942 174.029 20.864 175.186 20.773V21.475C174.146 21.579 173.145 21.67 172.287 21.748L172.144 20.981ZM173.613 16.21L174.367 16.522C173.99 17.237 173.548 18.095 173.197 18.628L172.638 18.381C172.963 17.796 173.379 16.847 173.613 16.21ZM174.679 17.51L175.394 17.861C174.718 19.018 173.808 20.461 173.067 21.358L172.508 21.059C173.236 20.136 174.159 18.602 174.679 17.51ZM168.4 18.901H172.339V19.811H168.4V18.901ZM170.051 16.08H170.935V28.027H170.051V16.08ZM170.012 19.447L170.597 19.629C170.233 21.683 169.466 24.244 168.608 25.544C168.504 25.31 168.283 24.946 168.127 24.738C168.92 23.568 169.7 21.293 170.012 19.447ZM170.87 20.305C171.13 20.656 172.144 22.281 172.352 22.658L171.858 23.373C171.598 22.723 170.779 21.189 170.467 20.682L170.87 20.305ZM182.224 18.446C182.718 18.433 183.134 18.407 183.394 18.381C184.226 18.29 186.683 18.056 189.075 17.848C190.505 17.731 191.714 17.653 192.585 17.627L192.598 18.667C191.844 18.654 190.713 18.68 190.05 18.862C188.191 19.46 187.06 21.449 187.06 22.983C187.06 25.518 189.439 26.337 191.545 26.415L191.168 27.481C188.763 27.39 186.033 26.116 186.033 23.204C186.033 21.189 187.268 19.525 188.451 18.823C187.06 18.966 183.745 19.291 182.341 19.59L182.224 18.446ZM190.713 20.253C191.012 20.682 191.506 21.488 191.792 22.073L191.116 22.372C190.817 21.748 190.453 21.085 190.063 20.539L190.713 20.253ZM192.13 19.707C192.455 20.136 192.962 20.929 193.261 21.501L192.598 21.826C192.286 21.202 191.896 20.552 191.493 20.006L192.13 19.707ZM195.503 17.77H206.891V18.693H195.503V17.77ZM198.675 22.411H204.785V23.256H198.675V22.411ZM197.986 20.201H204.629V21.072H198.948V28.04H197.986V20.201ZM204.408 20.201H205.357V26.831C205.357 27.403 205.24 27.702 204.798 27.858C204.382 28.014 203.654 28.014 202.536 28.014C202.497 27.741 202.354 27.338 202.211 27.065C203.082 27.104 203.875 27.091 204.109 27.091C204.33 27.078 204.408 27.013 204.408 26.818V20.201ZM199.754 16.08L200.742 16.314C199.858 19.174 198.298 22.06 195.815 23.802C195.685 23.581 195.386 23.243 195.191 23.048C197.518 21.449 199.052 18.693 199.754 16.08ZM198.675 24.608H204.785V25.453H198.675V24.608ZM212.89 26.623H219.169V27.52H212.89V26.623ZM212.448 17.393H217.219V18.264H212.448V17.393ZM213.033 16.041L214.125 16.262C213.15 17.952 211.59 19.72 209.328 21.059C209.185 20.812 208.86 20.474 208.639 20.305C210.784 19.135 212.279 17.458 213.033 16.041ZM216.894 17.393H217.076L217.258 17.341L217.908 17.692C216.348 21.618 212.682 24.231 209.146 25.375C209.029 25.115 208.782 24.712 208.574 24.504C211.941 23.529 215.542 20.981 216.894 17.562V17.393ZM210.823 19.707L211.551 19.083C212.578 19.785 213.826 20.825 214.424 21.566L213.631 22.268C213.085 21.527 211.85 20.435 210.823 19.707ZM218.688 22.515H219.689V28.066H218.688V22.515ZM213.332 22.515H219.182V23.412H213.332V28.04H212.357V23.282L213.137 22.515H213.332ZM34.248 36.81C34.729 36.862 35.288 36.888 35.847 36.888C37.251 36.888 38.889 36.719 40.384 36.225L40.41 37.187C39.136 37.538 37.433 37.824 35.847 37.811C35.366 37.811 34.807 37.798 34.326 37.785L34.248 36.81ZM38.863 34.691C38.694 35.328 38.421 36.55 38.109 37.473C37.485 39.345 36.289 41.711 35.21 43.167L34.209 42.647C35.366 41.295 36.575 38.981 37.108 37.447C37.394 36.628 37.68 35.484 37.719 34.574L38.863 34.691ZM41.931 38.708C41.892 39.241 41.892 39.631 41.905 40.099C41.931 40.944 42.048 42.92 42.048 43.778C42.048 44.818 41.385 45.663 39.773 45.663C38.343 45.663 37.186 45.091 37.186 43.791C37.186 42.595 38.317 41.841 39.773 41.841C41.957 41.841 43.634 42.933 44.7 43.856L44.154 44.74C43.153 43.83 41.658 42.673 39.747 42.673C38.785 42.673 38.135 43.115 38.135 43.713C38.135 44.311 38.642 44.727 39.656 44.727C40.735 44.727 41.099 44.155 41.099 43.453C41.099 42.465 40.956 40.138 40.904 38.708H41.931ZM44.531 39.046C43.829 38.448 42.412 37.655 41.554 37.252L42.074 36.472C43.023 36.875 44.492 37.72 45.116 38.188L44.531 39.046ZM54.0239 35.913V45H53.1139V40.749H48.1869V45H47.2769V35.913H48.1869V39.995H53.1139V35.913H54.0239ZM59.7922 45.091C58.9515 45.091 58.1888 44.896 57.5042 44.506C56.8195 44.1073 56.2778 43.557 55.8792 42.855C55.4892 42.1443 55.2942 41.3427 55.2942 40.45C55.2942 39.5573 55.4892 38.76 55.8792 38.058C56.2778 37.3473 56.8195 36.797 57.5042 36.407C58.1888 36.0083 58.9515 35.809 59.7922 35.809C60.6415 35.809 61.4085 36.0083 62.0932 36.407C62.7778 36.797 63.3152 37.3473 63.7052 38.058C64.0952 38.76 64.2902 39.5573 64.2902 40.45C64.2902 41.3427 64.0952 42.1443 63.7052 42.855C63.3152 43.557 62.7778 44.1073 62.0932 44.506C61.4085 44.896 60.6415 45.091 59.7922 45.091ZM59.7922 44.298C60.4682 44.298 61.0748 44.142 61.6122 43.83C62.1495 43.518 62.5742 43.0717 62.8862 42.491C63.1982 41.9017 63.3542 41.2213 63.3542 40.45C63.3542 39.6787 63.1982 39.0027 62.8862 38.422C62.5742 37.8413 62.1495 37.395 61.6122 37.083C61.0748 36.771 60.4682 36.615 59.7922 36.615C59.1162 36.615 58.5095 36.771 57.9722 37.083C57.4348 37.395 57.0102 37.8413 56.6982 38.422C56.3862 39.0027 56.2302 39.6787 56.2302 40.45C56.2302 41.2213 56.3862 41.9017 56.6982 42.491C57.0102 43.0717 57.4348 43.518 57.9722 43.83C58.5095 44.142 59.1162 44.298 59.7922 44.298ZM72.4163 45H71.5063L66.4753 37.356V45H65.5653V35.913H66.4753L71.5063 43.544V35.913H72.4163V45ZM76.7784 35.913C77.7837 35.913 78.6461 36.095 79.3654 36.459C80.0847 36.823 80.6351 37.3473 81.0164 38.032C81.3977 38.7167 81.5884 39.5313 81.5884 40.476C81.5884 41.412 81.3977 42.2223 81.0164 42.907C80.6351 43.583 80.0847 44.103 79.3654 44.467C78.6461 44.8223 77.7837 45 76.7784 45H74.0874V35.913H76.7784ZM76.7784 44.246C78.0437 44.246 79.0057 43.9167 79.6644 43.258C80.3317 42.5907 80.6654 41.6633 80.6654 40.476C80.6654 39.28 80.3317 38.3483 79.6644 37.681C79.0057 37.005 78.0437 36.667 76.7784 36.667H74.9974V44.246H76.7784ZM88.1411 42.842H84.0071L83.2141 45H82.2521L85.5671 36.03H86.5941L89.8961 45H88.9341L88.1411 42.842ZM87.8681 42.088L86.0741 37.174L84.2801 42.088H87.8681ZM97.2456 36.134C97.0766 37.486 96.8166 39.007 96.4136 40.398C95.6206 43.063 94.5806 44.441 93.3846 44.441C92.2146 44.441 91.0576 43.115 91.0576 40.957C91.0576 38.136 93.5666 35.679 96.7516 35.679C99.7936 35.679 101.731 37.824 101.731 40.463C101.731 43.18 99.9366 45 96.8426 45.403L96.2446 44.441C96.6606 44.402 97.0506 44.35 97.3626 44.285C99.0266 43.908 100.665 42.66 100.665 40.411C100.665 38.331 99.2216 36.615 96.7256 36.615C93.8656 36.615 92.0846 38.968 92.0846 40.879C92.0846 42.517 92.8256 43.245 93.4106 43.245C94.0216 43.245 94.7236 42.361 95.3866 40.164C95.7636 38.929 96.0366 37.46 96.1666 36.108L97.2456 36.134ZM105.517 35.783C105.855 35.809 106.245 35.822 106.687 35.822C107.61 35.822 111.913 35.822 112.862 35.822C113.291 35.822 113.642 35.809 113.928 35.783V36.81C113.616 36.797 113.317 36.784 112.862 36.784C111.913 36.784 107.363 36.784 106.687 36.784C106.245 36.784 105.855 36.797 105.517 36.81V35.783ZM109.495 39.956C109.495 40.918 109.495 42.66 109.495 43.115C109.495 43.765 109.937 44.168 111.146 44.168C112.368 44.168 113.434 44.116 114.552 43.986L114.487 45.078C113.486 45.143 112.225 45.195 110.99 45.195C109.027 45.195 108.403 44.506 108.403 43.453C108.403 42.504 108.403 40.944 108.403 39.917C108.403 39.384 108.403 37.018 108.403 36.485H109.495C109.495 37.005 109.495 39.592 109.495 39.956ZM104.659 39.462C105.01 39.501 105.53 39.527 105.881 39.527C106.817 39.527 113.057 39.527 113.863 39.527C114.136 39.527 114.656 39.501 114.955 39.475V40.541C114.656 40.515 114.175 40.515 113.889 40.515C113.044 40.515 106.817 40.515 105.881 40.515C105.543 40.515 105.01 40.528 104.659 40.554V39.462ZM117.713 39.371C118.116 39.41 118.792 39.449 119.533 39.449C120.482 39.449 125.695 39.449 126.657 39.449C127.307 39.449 127.762 39.397 128.061 39.371V40.645C127.788 40.632 127.242 40.593 126.67 40.593C125.682 40.593 120.495 40.593 119.533 40.593C118.818 40.593 118.129 40.619 117.713 40.645V39.371ZM135.032 39.046C136.696 40.021 138.828 41.516 140.115 42.556L139.348 43.466C138.152 42.374 135.929 40.775 134.317 39.774L135.032 39.046ZM140.973 36.68C140.869 36.862 140.739 37.161 140.674 37.369C140.284 38.695 139.465 40.424 138.321 41.828C137.138 43.284 135.448 44.675 132.978 45.585L132.055 44.766C134.473 44.038 136.241 42.66 137.411 41.269C138.412 40.073 139.231 38.422 139.53 37.213H134.72L135.136 36.277H139.27C139.621 36.277 139.907 36.238 140.115 36.16L140.973 36.68ZM136.592 34.795C136.371 35.133 136.137 35.575 136.007 35.822C135.24 37.252 133.771 39.215 131.691 40.645L130.833 39.982C133.056 38.591 134.395 36.641 134.993 35.445C135.123 35.224 135.331 34.756 135.409 34.418L136.592 34.795ZM144.187 39.371C144.59 39.41 145.266 39.449 146.007 39.449C146.956 39.449 152.169 39.449 153.131 39.449C153.781 39.449 154.236 39.397 154.535 39.371V40.645C154.262 40.632 153.716 40.593 153.144 40.593C152.156 40.593 146.969 40.593 146.007 40.593C145.292 40.593 144.603 40.619 144.187 40.645V39.371ZM165.851 36.316C165.773 36.42 165.604 36.706 165.539 36.875C165.019 38.162 164.031 39.982 162.952 41.178C161.496 42.803 159.637 44.35 157.583 45.286L156.751 44.415C158.857 43.609 160.768 42.049 162.107 40.567C162.991 39.566 163.94 38.019 164.278 36.94C163.81 36.94 159.65 36.94 159.208 36.94C158.74 36.94 158.038 36.992 157.895 37.005V35.835C158.064 35.861 158.805 35.913 159.208 35.913C159.715 35.913 163.732 35.913 164.226 35.913C164.642 35.913 164.993 35.874 165.201 35.809L165.851 36.316ZM163.121 40.502C164.525 41.672 166.254 43.492 167.138 44.571L166.241 45.364C165.305 44.129 163.784 42.465 162.38 41.23L163.121 40.502ZM178.503 35.406C178.503 35.861 178.867 36.225 179.335 36.225C179.79 36.225 180.167 35.861 180.167 35.406C180.167 34.938 179.79 34.561 179.335 34.561C178.867 34.561 178.503 34.938 178.503 35.406ZM177.918 35.406C177.918 34.613 178.542 33.976 179.335 33.976C180.115 33.976 180.765 34.613 180.765 35.406C180.765 36.186 180.115 36.823 179.335 36.823C178.542 36.823 177.918 36.186 177.918 35.406ZM175.734 34.99C175.708 35.172 175.656 35.64 175.656 35.913C175.656 36.602 175.656 37.694 175.656 38.331C175.656 39.384 175.656 43.596 175.656 44.532C175.656 45.208 175.331 45.559 174.538 45.559C173.992 45.559 173.225 45.533 172.692 45.468L172.601 44.441C173.173 44.545 173.758 44.584 174.109 44.584C174.46 44.584 174.603 44.441 174.603 44.09C174.616 43.388 174.616 38.942 174.616 38.331C174.616 37.889 174.616 36.602 174.616 35.913C174.616 35.627 174.564 35.185 174.525 34.99H175.734ZM169.897 37.174C170.261 37.226 170.586 37.252 170.989 37.252C171.756 37.252 178.321 37.252 179.101 37.252C179.4 37.252 179.829 37.226 180.154 37.187V38.266C179.816 38.24 179.426 38.227 179.114 38.227C178.334 38.227 171.795 38.227 171.002 38.227C170.599 38.227 170.235 38.24 169.897 38.279V37.174ZM172.887 40.242C172.328 41.347 171.119 43.011 170.378 43.804L169.481 43.193C170.352 42.4 171.457 40.853 171.964 39.8L172.887 40.242ZM178.308 39.8C179.01 40.632 180.037 42.257 180.557 43.206L179.608 43.739C179.088 42.712 178.113 41.1 177.424 40.281L178.308 39.8ZM183.251 39.371C183.654 39.41 184.33 39.449 185.071 39.449C186.02 39.449 191.233 39.449 192.195 39.449C192.845 39.449 193.3 39.397 193.599 39.371V40.645C193.326 40.632 192.78 40.593 192.208 40.593C191.22 40.593 186.033 40.593 185.071 40.593C184.356 40.593 183.667 40.619 183.251 40.645V39.371ZM200.836 35.237C201.122 35.848 201.915 37.915 202.136 38.643L201.122 38.994C200.901 38.253 200.173 36.251 199.848 35.562L200.836 35.237ZM206.621 36.069C206.53 36.277 206.439 36.602 206.387 36.797C205.984 38.422 205.295 40.268 204.216 41.672C202.877 43.44 200.966 44.779 199.12 45.429L198.236 44.532C200.082 43.986 202.019 42.738 203.332 41.074C204.359 39.761 205.165 37.681 205.412 35.718L206.621 36.069ZM197.209 36.017C197.56 36.745 198.366 38.721 198.678 39.579L197.638 39.956C197.391 39.15 196.494 36.953 196.195 36.381L197.209 36.017ZM208.821 42.114H220.495V42.959H208.821V42.114ZM209.146 35.133H220.196V35.965H209.146V35.133ZM216.582 40.957H217.544V45.013C217.544 45.559 217.414 45.806 216.985 45.949C216.556 46.079 215.841 46.079 214.723 46.079C214.684 45.819 214.541 45.481 214.411 45.221C215.256 45.247 216.062 45.247 216.296 45.234C216.517 45.221 216.582 45.169 216.582 44.987V40.957ZM214.125 34.106H215.1V40.736H214.125V34.106ZM210.81 43.622L211.525 43.102C212.292 43.596 213.189 44.337 213.605 44.87L212.838 45.468C212.435 44.935 211.551 44.155 210.81 43.622ZM211.018 39.319V40.385H218.298V39.319H211.018ZM211.018 37.577V38.63H218.298V37.577H211.018ZM210.108 36.849H219.247V41.113H210.108V36.849ZM34.651 54.667H38.265V55.408H34.651V54.667ZM40.631 54.667H44.31V55.408H40.631V54.667ZM43.894 52.704H44.869V62.714C44.869 63.377 44.713 63.689 44.271 63.845C43.816 64.014 43.049 64.027 41.866 64.027C41.814 63.754 41.645 63.299 41.502 63.013C42.399 63.065 43.296 63.052 43.556 63.039C43.816 63.026 43.894 62.961 43.894 62.714V52.704ZM34.729 52.704H38.837V57.475H34.729V56.656H37.914V53.523H34.729V52.704ZM44.401 52.704V53.523H40.995V56.669H44.401V57.488H40.059V52.704H44.401ZM34.183 52.704H35.145V64.04H34.183V52.704ZM48.2681 62.623C50.5301 62.571 54.1571 62.441 57.5371 62.285L57.4981 63.182C54.2221 63.351 50.6991 63.507 48.3981 63.585L48.2681 62.623ZM48.1511 58.606H58.9281V59.529H48.1511V58.606ZM50.3741 56.123H56.5881V57.033H50.3741V56.123ZM51.7131 59.191L52.8051 59.503C52.2071 60.751 51.4531 62.272 50.8161 63.247L49.9451 62.961C50.5561 61.947 51.3231 60.335 51.7131 59.191ZM54.8071 60.569L55.6391 60.127C56.8351 61.154 58.1091 62.558 58.7201 63.546L57.8361 64.079C57.2511 63.104 55.9641 61.609 54.8071 60.569ZM53.4551 53.042C52.3891 54.628 50.2571 56.409 48.0471 57.514C47.9301 57.28 47.6831 56.929 47.4751 56.721C49.7111 55.655 51.8821 53.77 52.8961 52.106H53.8971C55.2751 54.03 57.5501 55.733 59.6171 56.578C59.3831 56.812 59.1491 57.163 58.9801 57.449C56.9521 56.474 54.6641 54.732 53.4551 53.042ZM66.2791 62.714H73.6241V63.676H66.2791V62.714ZM66.7861 56.344H73.3511V57.28H66.7861V56.344ZM69.5811 52.184H70.5691V63.182H69.5811V52.184ZM61.7291 54.524H66.0451V55.421H61.7291V54.524ZM63.7831 58.424L64.7451 57.267V64.053H63.7831V58.424ZM63.7831 52.093H64.7451V54.966H63.7831V52.093ZM64.6671 57.527C65.1091 57.839 66.6171 59.165 66.9941 59.49L66.3961 60.283C65.9151 59.724 64.6411 58.489 64.1081 58.021L64.6671 57.527ZM65.6811 54.524H65.8761L66.0581 54.485L66.6171 54.849C65.6291 57.241 63.6401 59.399 61.7811 60.595C61.6771 60.348 61.4431 59.893 61.2741 59.724C63.0421 58.684 64.9011 56.708 65.6811 54.732V54.524ZM77.5432 59.841C78.6352 59.841 79.5192 60.725 79.5192 61.817C79.5192 62.909 78.6352 63.793 77.5432 63.793C76.4512 63.793 75.5542 62.909 75.5542 61.817C75.5542 60.725 76.4512 59.841 77.5432 59.841ZM77.5432 63.13C78.2712 63.13 78.8562 62.545 78.8562 61.817C78.8562 61.089 78.2712 60.504 77.5432 60.504C76.8152 60.504 76.2172 61.089 76.2172 61.817C76.2172 62.545 76.8152 63.13 77.5432 63.13ZM98.9472 54.03V63H98.0372V55.837L94.8392 63H94.1762L90.9782 55.863V63H90.0682V54.03H91.0302L94.5012 61.804L97.9722 54.03H98.9472ZM103.729 63.104C103.061 63.104 102.459 62.9567 101.922 62.662C101.393 62.3587 100.973 61.934 100.661 61.388C100.357 60.8333 100.206 60.1877 100.206 59.451C100.206 58.7143 100.362 58.073 100.674 57.527C100.986 56.9723 101.41 56.5477 101.948 56.253C102.485 55.9497 103.087 55.798 103.755 55.798C104.422 55.798 105.024 55.9497 105.562 56.253C106.108 56.5477 106.532 56.9723 106.836 57.527C107.148 58.073 107.304 58.7143 107.304 59.451C107.304 60.179 107.148 60.8203 106.836 61.375C106.524 61.9297 106.095 62.3587 105.549 62.662C105.003 62.9567 104.396 63.104 103.729 63.104ZM103.729 62.311C104.197 62.311 104.63 62.207 105.029 61.999C105.427 61.7823 105.748 61.4617 105.991 61.037C106.242 60.6037 106.368 60.075 106.368 59.451C106.368 58.827 106.246 58.3027 106.004 57.878C105.761 57.4447 105.44 57.124 105.042 56.916C104.643 56.6993 104.21 56.591 103.742 56.591C103.274 56.591 102.84 56.6993 102.442 56.916C102.043 57.124 101.722 57.4447 101.48 57.878C101.246 58.3027 101.129 58.827 101.129 59.451C101.129 60.075 101.246 60.6037 101.48 61.037C101.722 61.4617 102.039 61.7823 102.429 61.999C102.827 62.207 103.261 62.311 103.729 62.311ZM109.755 56.669V61.076C109.755 61.5093 109.838 61.8083 110.002 61.973C110.167 62.1377 110.457 62.22 110.873 62.22H111.705V63H110.73C110.089 63 109.612 62.8527 109.3 62.558C108.988 62.2547 108.832 61.7607 108.832 61.076V56.669H107.844V55.902H108.832V54.121H109.755V55.902H111.705V56.669H109.755ZM115.923 63.104C115.256 63.104 114.654 62.9567 114.116 62.662C113.588 62.3587 113.167 61.934 112.855 61.388C112.552 60.8333 112.4 60.1877 112.4 59.451C112.4 58.7143 112.556 58.073 112.868 57.527C113.18 56.9723 113.605 56.5477 114.142 56.253C114.68 55.9497 115.282 55.798 115.949 55.798C116.617 55.798 117.219 55.9497 117.756 56.253C118.302 56.5477 118.727 56.9723 119.03 57.527C119.342 58.073 119.498 58.7143 119.498 59.451C119.498 60.179 119.342 60.8203 119.03 61.375C118.718 61.9297 118.289 62.3587 117.743 62.662C117.197 62.9567 116.591 63.104 115.923 63.104ZM115.923 62.311C116.391 62.311 116.825 62.207 117.223 61.999C117.622 61.7823 117.943 61.4617 118.185 61.037C118.437 60.6037 118.562 60.075 118.562 59.451C118.562 58.827 118.441 58.3027 118.198 57.878C117.956 57.4447 117.635 57.124 117.236 56.916C116.838 56.6993 116.404 56.591 115.936 56.591C115.468 56.591 115.035 56.6993 114.636 56.916C114.238 57.124 113.917 57.4447 113.674 57.878C113.44 58.3027 113.323 58.827 113.323 59.451C113.323 60.075 113.44 60.6037 113.674 61.037C113.917 61.4617 114.233 61.7823 114.623 61.999C115.022 62.207 115.455 62.311 115.923 62.311ZM127.917 56.565C127.657 55.967 127.258 55.499 126.721 55.161C126.192 54.8143 125.568 54.641 124.849 54.641C124.173 54.641 123.566 54.797 123.029 55.109C122.492 55.421 122.067 55.8673 121.755 56.448C121.443 57.02 121.287 57.6873 121.287 58.45C121.287 59.2127 121.443 59.8843 121.755 60.465C122.067 61.0457 122.492 61.492 123.029 61.804C123.566 62.116 124.173 62.272 124.849 62.272C125.482 62.272 126.049 62.1377 126.552 61.869C127.063 61.5917 127.471 61.2017 127.774 60.699C128.086 60.1877 128.264 59.594 128.307 58.918H124.485V58.177H129.269V58.84C129.226 59.6373 129.009 60.361 128.619 61.011C128.229 61.6523 127.705 62.1593 127.046 62.532C126.396 62.9047 125.664 63.091 124.849 63.091C124.008 63.091 123.246 62.896 122.561 62.506C121.876 62.1073 121.335 61.557 120.936 60.855C120.546 60.1443 120.351 59.3427 120.351 58.45C120.351 57.5573 120.546 56.76 120.936 56.058C121.335 55.3473 121.876 54.797 122.561 54.407C123.246 54.0083 124.008 53.809 124.849 53.809C125.82 53.809 126.669 54.0517 127.397 54.537C128.125 55.0223 128.654 55.6983 128.983 56.565H127.917ZM136.357 56.526C136.357 57.306 136.101 57.9343 135.59 58.411C135.079 58.8877 134.312 59.126 133.289 59.126H131.456V63H130.546V53.913H133.289C134.303 53.913 135.066 54.1513 135.577 54.628C136.097 55.1047 136.357 55.7373 136.357 56.526ZM133.289 58.346C134.71 58.346 135.421 57.7393 135.421 56.526C135.421 55.9193 135.252 55.46 134.914 55.148C134.576 54.836 134.034 54.68 133.289 54.68H131.456V58.346H133.289ZM137.468 54.446C137.962 54.433 138.378 54.407 138.638 54.381C139.47 54.29 141.927 54.056 144.319 53.848C145.749 53.731 146.958 53.653 147.829 53.627L147.842 54.667C147.088 54.654 145.957 54.68 145.294 54.862C143.435 55.46 142.304 57.449 142.304 58.983C142.304 61.518 144.683 62.337 146.789 62.415L146.412 63.481C144.007 63.39 141.277 62.116 141.277 59.204C141.277 57.189 142.512 55.525 143.695 54.823C142.304 54.966 138.989 55.291 137.585 55.59L137.468 54.446ZM145.957 56.253C146.256 56.682 146.75 57.488 147.036 58.073L146.36 58.372C146.061 57.748 145.697 57.085 145.307 56.539L145.957 56.253ZM147.374 55.707C147.699 56.136 148.206 56.929 148.505 57.501L147.842 57.826C147.53 57.202 147.14 56.552 146.737 56.006L147.374 55.707ZM158.248 53.913V63H157.338V58.749H152.411V63H151.501V53.913H152.411V57.995H157.338V53.913H158.248ZM164.016 63.091C163.175 63.091 162.413 62.896 161.728 62.506C161.043 62.1073 160.502 61.557 160.103 60.855C159.713 60.1443 159.518 59.3427 159.518 58.45C159.518 57.5573 159.713 56.76 160.103 56.058C160.502 55.3473 161.043 54.797 161.728 54.407C162.413 54.0083 163.175 53.809 164.016 53.809C164.865 53.809 165.632 54.0083 166.317 54.407C167.002 54.797 167.539 55.3473 167.929 56.058C168.319 56.76 168.514 57.5573 168.514 58.45C168.514 59.3427 168.319 60.1443 167.929 60.855C167.539 61.557 167.002 62.1073 166.317 62.506C165.632 62.896 164.865 63.091 164.016 63.091ZM164.016 62.298C164.692 62.298 165.299 62.142 165.836 61.83C166.373 61.518 166.798 61.0717 167.11 60.491C167.422 59.9017 167.578 59.2213 167.578 58.45C167.578 57.6787 167.422 57.0027 167.11 56.422C166.798 55.8413 166.373 55.395 165.836 55.083C165.299 54.771 164.692 54.615 164.016 54.615C163.34 54.615 162.733 54.771 162.196 55.083C161.659 55.395 161.234 55.8413 160.922 56.422C160.61 57.0027 160.454 57.6787 160.454 58.45C160.454 59.2213 160.61 59.9017 160.922 60.491C161.234 61.0717 161.659 61.518 162.196 61.83C162.733 62.142 163.34 62.298 164.016 62.298ZM176.64 63H175.73L170.699 55.356V63H169.789V53.913H170.699L175.73 61.544V53.913H176.64V63ZM181.002 53.913C182.008 53.913 182.87 54.095 183.589 54.459C184.309 54.823 184.859 55.3473 185.24 56.032C185.622 56.7167 185.812 57.5313 185.812 58.476C185.812 59.412 185.622 60.2223 185.24 60.907C184.859 61.583 184.309 62.103 183.589 62.467C182.87 62.8223 182.008 63 181.002 63H178.311V53.913H181.002ZM181.002 62.246C182.268 62.246 183.23 61.9167 183.888 61.258C184.556 60.5907 184.889 59.6633 184.889 58.476C184.889 57.28 184.556 56.3483 183.888 55.681C183.23 55.005 182.268 54.667 181.002 54.667H179.221V62.246H181.002ZM192.365 60.842H188.231L187.438 63H186.476L189.791 54.03H190.818L194.12 63H193.158L192.365 60.842ZM192.092 60.088L190.298 55.174L188.504 60.088H192.092ZM200.131 52.73C200.014 53.237 199.871 53.952 199.533 54.823C199.208 55.616 198.727 56.487 198.207 57.163C198.714 56.864 199.455 56.682 200.027 56.682C201.028 56.682 201.808 57.28 201.808 58.333C201.808 59.009 201.834 60.504 201.847 61.31H200.846C200.898 60.621 200.911 59.282 200.898 58.606C200.885 57.852 200.365 57.501 199.689 57.501C198.857 57.501 198.038 57.917 197.44 58.45C197.063 58.814 196.699 59.282 196.27 59.815L195.373 59.152C197.245 57.358 198.116 55.85 198.558 54.745C198.844 54.03 199.026 53.25 199.065 52.639L200.131 52.73ZM195.672 54.134C196.374 54.225 197.271 54.264 197.869 54.264C199.624 54.264 201.873 54.16 203.706 53.835V54.797C201.886 55.07 199.468 55.187 197.817 55.187C197.258 55.187 196.4 55.161 195.672 55.109V54.134ZM205.604 57.267C205.279 57.371 204.811 57.553 204.46 57.683C203.537 58.047 202.302 58.541 201.041 59.191C199.754 59.867 198.844 60.569 198.844 61.466C198.844 62.48 199.845 62.636 201.184 62.636C202.198 62.636 203.602 62.519 204.746 62.311L204.707 63.364C203.719 63.481 202.276 63.585 201.145 63.585C199.299 63.585 197.804 63.182 197.804 61.609C197.804 60.023 199.416 59.048 200.963 58.255C202.198 57.618 203.251 57.215 204.109 56.812C204.499 56.63 204.824 56.487 205.188 56.305L205.604 57.267ZM213.631 57.319H214.593V62.376C214.593 62.831 214.697 62.896 215.204 62.896C215.438 62.896 216.608 62.896 216.92 62.896C217.44 62.896 217.518 62.558 217.583 60.647C217.804 60.829 218.194 60.985 218.454 61.063C218.35 63.208 218.09 63.793 216.985 63.793C216.751 63.793 215.321 63.793 215.087 63.793C213.93 63.793 213.631 63.468 213.631 62.363V57.319ZM211.85 58.437L212.734 58.632C212.565 60.049 212.24 61.765 211.564 62.805L210.706 62.415C211.343 61.414 211.694 59.815 211.85 58.437ZM213.839 55.772L214.502 55.135C215.542 55.655 216.868 56.461 217.544 57.059L216.842 57.787C216.205 57.189 214.892 56.331 213.839 55.772ZM217.973 58.502L218.844 58.151C219.715 59.49 220.534 61.245 220.768 62.415L219.819 62.805C219.611 61.648 218.831 59.854 217.973 58.502ZM214.528 52.093H215.529V54.303H214.528V52.093ZM210.186 53.77H220.521V54.706H210.186V53.77ZM209.718 53.77H210.693V57.137C210.693 59.139 210.511 62.077 209.393 64.053C209.224 63.884 208.795 63.611 208.561 63.507C209.627 61.635 209.718 59.009 209.718 57.137V53.77ZM37.836 74.603H44.986V75.409H37.836V74.603ZM37.537 76.436H45.376V77.255H37.537V76.436ZM39.331 78.139H43.79V78.893H39.331V78.139ZM38.226 72.939L38.98 72.731C39.227 73.238 39.513 73.927 39.63 74.33L38.837 74.603C38.72 74.161 38.46 73.459 38.226 72.939ZM40.553 72.666L41.346 72.536C41.502 73.095 41.671 73.823 41.736 74.252L40.904 74.447C40.852 73.992 40.709 73.238 40.553 72.666ZM44.193 71.171L44.765 71.899C42.997 72.302 40.163 72.51 37.875 72.562C37.849 72.341 37.732 72.016 37.641 71.821C39.903 71.73 42.672 71.509 44.193 71.171ZM40.072 78.659C40.995 80.505 43.01 81.792 45.597 82.247C45.389 82.455 45.129 82.832 44.999 83.079C42.321 82.494 40.319 81.064 39.253 78.906L40.072 78.659ZM43.686 72.406L44.609 72.705C44.141 73.498 43.569 74.421 43.101 75.032L42.373 74.746C42.828 74.109 43.387 73.108 43.686 72.406ZM43.569 78.139H43.764L43.933 78.113L44.479 78.347C43.621 81.103 41.593 82.429 39.097 83.079C38.993 82.858 38.733 82.507 38.551 82.338C40.956 81.805 42.854 80.635 43.569 78.295V78.139ZM39.578 75.123H40.527C40.293 77.71 39.851 81.233 37.095 83.04C36.952 82.819 36.666 82.507 36.432 82.351C39.045 80.726 39.396 77.372 39.578 75.123ZM33.429 78.282C34.443 78.009 35.951 77.528 37.446 77.06L37.576 77.957C36.185 78.425 34.729 78.893 33.598 79.244L33.429 78.282ZM33.533 73.706H37.485V74.616H33.533V73.706ZM35.171 71.093H36.081V81.909C36.081 82.455 35.951 82.715 35.626 82.871C35.327 83.027 34.82 83.053 34.001 83.053C33.962 82.819 33.845 82.416 33.715 82.143C34.287 82.156 34.781 82.156 34.937 82.143C35.093 82.143 35.171 82.104 35.171 81.909V71.093ZM50.03 71.873C49.965 72.302 49.926 72.757 49.9 73.186C49.848 74.655 49.744 77.736 49.744 79.673C49.744 81.103 50.641 81.597 51.876 81.597C54.255 81.597 55.607 80.271 56.543 78.919L57.271 79.803C56.387 81.038 54.697 82.663 51.85 82.663C49.978 82.663 48.691 81.896 48.691 79.764C48.691 77.84 48.821 74.551 48.821 73.186C48.821 72.705 48.782 72.25 48.704 71.873H50.03ZM58.9184 73.368C59.4124 73.355 59.8284 73.329 60.0884 73.303C60.9334 73.212 63.3774 72.978 65.7824 72.77C67.1994 72.653 68.4084 72.575 69.2794 72.549L69.2924 73.589C68.5384 73.576 67.4074 73.602 66.7444 73.784C64.8854 74.382 63.7544 76.371 63.7544 77.905C63.7544 80.44 66.1334 81.246 68.2394 81.337L67.8754 82.403C65.4574 82.312 62.7274 81.038 62.7274 78.126C62.7274 76.098 63.9624 74.447 65.1584 73.745C63.7544 73.888 60.4524 74.213 59.0354 74.512L58.9184 73.368ZM73.3354 72.939C73.2704 73.238 73.2314 73.862 73.2184 74.2C73.2054 75.006 73.2184 76.202 73.3094 77.268C73.5304 79.439 74.1544 80.882 75.0904 80.882C75.7534 80.882 76.3644 79.543 76.7024 78.243L77.5214 79.166C76.7284 81.363 75.9484 82.117 75.0644 82.117C73.8294 82.117 72.6594 80.895 72.2954 77.528C72.1784 76.41 72.1524 74.824 72.1524 74.07C72.1524 73.771 72.1524 73.212 72.0744 72.913L73.3354 72.939ZM80.0954 73.29C81.2654 74.798 82.2014 77.567 82.3964 79.764L81.3434 80.18C81.1224 77.84 80.3294 75.162 79.0944 73.641L80.0954 73.29ZM90.4824 71.691C90.4564 71.912 90.4304 72.172 90.4174 72.562C90.3914 73.082 90.3914 74.824 90.3914 75.916C90.3914 77.632 90.5864 79.907 90.5864 80.778C90.5864 81.688 89.9884 82.611 88.2984 82.611C86.4264 82.611 85.3994 81.948 85.3994 80.687C85.3994 79.504 86.5304 78.711 88.4024 78.711C91.1454 78.711 93.2904 80.193 94.2914 81.012L93.6934 81.935C92.5234 80.856 90.5994 79.556 88.2854 79.556C87.0374 79.556 86.3744 80.037 86.3744 80.635C86.3744 81.246 86.8814 81.688 88.1684 81.688C88.9224 81.688 89.5594 81.467 89.5594 80.557C89.5594 79.556 89.4294 77.06 89.4294 75.916C89.4294 74.746 89.4294 73.381 89.4294 72.471C89.4294 72.25 89.4164 71.86 89.3774 71.691H90.4824ZM85.5164 73.095C86.3484 73.251 87.9734 73.381 88.8314 73.381C90.4824 73.381 92.2244 73.264 93.9144 72.991V73.94C92.4454 74.109 90.5864 74.278 88.8444 74.278C87.9474 74.278 86.3484 74.161 85.5294 74.057L85.5164 73.095ZM85.4514 75.864C86.3744 76.007 87.8564 76.098 88.7144 76.098C90.5994 76.098 92.3284 75.968 94.0184 75.721V76.696C92.2504 76.917 90.6644 77.008 88.7144 77.008C87.8174 77.008 86.3874 76.943 85.4644 76.839L85.4514 75.864ZM103.807 71.704C103.781 71.86 103.742 72.367 103.742 72.523C103.703 73.368 103.729 75.877 103.742 76.917L102.754 76.41C102.754 75.838 102.741 73.251 102.702 72.536C102.676 72.185 102.637 71.821 102.611 71.704H103.807ZM96.8914 73.524C98.6594 73.498 101.909 73.381 103.911 73.381C105.497 73.381 107.109 73.381 107.72 73.394L107.707 74.356C106.979 74.317 105.809 74.291 103.898 74.291C101.662 74.291 98.8804 74.382 96.9174 74.525L96.8914 73.524ZM103.716 77.294C103.716 79.036 102.91 79.907 101.727 79.907C100.635 79.907 99.5824 79.14 99.5824 77.723C99.5824 76.436 100.648 75.474 101.883 75.474C103.391 75.474 104.158 76.592 104.158 78.087C104.158 79.855 103.3 81.805 100.284 82.702L99.4134 81.857C101.779 81.298 103.157 80.141 103.157 77.996C103.157 76.826 102.585 76.332 101.883 76.332C101.194 76.332 100.557 76.865 100.557 77.71C100.557 78.529 101.168 78.997 101.883 78.997C102.689 78.997 103.209 78.321 103.001 76.93L103.716 77.294ZM109.494 78.841C110.586 78.841 111.47 79.725 111.47 80.817C111.47 81.909 110.586 82.793 109.494 82.793C108.402 82.793 107.505 81.909 107.505 80.817C107.505 79.725 108.402 78.841 109.494 78.841ZM109.494 82.13C110.222 82.13 110.807 81.545 110.807 80.817C110.807 80.089 110.222 79.504 109.494 79.504C108.766 79.504 108.168 80.089 108.168 80.817C108.168 81.545 108.766 82.13 109.494 82.13Z" fill="white"/>
<path d="M5 0.6L250 0.6C252.43 0.6 254.4 2.56995 254.4 5V93C254.4 95.4301 252.43 97.4 250 97.4H5C2.56995 97.4 0.6 95.4301 0.6 93L0.6 5C0.6 2.56995 2.56995 0.6 5 0.6Z" stroke="white" stroke-width="1.2"/>
</svg>
