<svg width="255" height="98" viewBox="0 0 255 98" fill="none" xmlns="http://www.w3.org/2000/svg">
<path d="M33.832 18.823H45.181V19.811H33.832V18.823ZM36.432 24.621H42.49V25.609H36.432V24.621ZM38.967 16.093H39.994V28.04H38.967V16.093ZM38.668 19.148L39.539 19.447C38.382 22.203 36.341 24.686 34.092 25.999C33.936 25.752 33.611 25.388 33.39 25.193C35.561 24.062 37.628 21.644 38.668 19.148ZM40.319 19.187C41.346 21.657 43.387 24.023 45.636 25.102C45.389 25.31 45.051 25.7 44.895 25.973C42.594 24.699 40.592 22.216 39.448 19.486L40.319 19.187ZM49.8375 21.423H58.0275V22.281H49.8375V21.423ZM51.3065 23.191H56.9745V23.984H51.3065V23.191ZM51.9435 21.748L52.7885 21.969C52.1255 23.412 50.9425 24.686 49.7335 25.492C49.6035 25.323 49.2655 25.024 49.0705 24.881C50.2665 24.166 51.3455 23.035 51.9435 21.748ZM56.7925 23.191H57.7155C57.7155 23.191 57.7025 23.438 57.6765 23.581C57.4815 26.272 57.2735 27.299 56.9225 27.676C56.7145 27.897 56.4805 27.975 56.1685 28.001C55.8825 28.014 55.3885 28.027 54.8685 28.001C54.8685 27.754 54.7775 27.403 54.6475 27.195C55.1415 27.234 55.5705 27.247 55.7525 27.247C55.9475 27.247 56.0515 27.234 56.1555 27.104C56.4025 26.857 56.6105 25.882 56.7925 23.334V23.191ZM52.0085 18.927V19.967H56.1945V18.927H52.0085ZM52.0085 17.198V18.225H56.1945V17.198H52.0085ZM51.1245 16.47H57.1045V20.695H51.1245V16.47ZM46.2235 18.901H50.0845V19.837H46.2235V18.901ZM47.7445 16.184H48.6675V24.179H47.7445V16.184ZM45.9765 24.699C46.9775 24.283 48.5115 23.594 49.9935 22.905L50.2015 23.763C48.8755 24.439 47.4585 25.141 46.3535 25.674L45.9765 24.699ZM55.1285 23.334L55.8175 23.698C55.3235 25.349 54.2445 27.195 53.0615 28.092C52.8925 27.897 52.5935 27.676 52.3465 27.533C53.5685 26.714 54.6605 24.946 55.1285 23.334ZM53.1005 23.373L53.7635 23.763C53.1005 25.18 51.7355 26.727 50.4745 27.533C50.3185 27.325 50.0455 27.078 49.8115 26.935C51.0985 26.233 52.4635 24.738 53.1005 23.373ZM60.7471 22.905H68.6251V28.027H67.6111V23.685H61.7221V28.04H60.7471V22.905ZM61.3321 24.855H67.9491V25.583H61.3321V24.855ZM61.3321 26.805H68.0531V27.585H61.3321V26.805ZM58.8361 19.083H70.3671V19.967H58.8361V19.083ZM64.0751 17.289H65.0761V22.554H64.0751V17.289ZM63.5941 19.291L64.3741 19.616C63.1911 21.306 61.1111 22.866 59.2261 23.62C59.0831 23.386 58.7971 23.035 58.5761 22.84C60.4481 22.177 62.5281 20.76 63.5941 19.291ZM65.5441 19.317C66.6491 20.682 68.7941 22.06 70.6401 22.684C70.4191 22.879 70.1331 23.23 69.9901 23.477C68.1441 22.736 66.0121 21.215 64.7771 19.655L65.5441 19.317ZM68.2091 16.184L68.9501 16.964C66.6751 17.536 63.1261 17.874 60.1361 17.991C60.1101 17.757 59.9931 17.393 59.8891 17.159C62.8271 17.016 66.3111 16.691 68.2091 16.184ZM72.7096 16.795H73.6976V21.228C73.6976 23.711 73.5156 26.207 71.8126 28.144C71.6306 27.936 71.2406 27.624 70.9936 27.468C72.5276 25.713 72.7096 23.464 72.7096 21.215V16.795ZM76.8436 17.328H77.8186V26.896H76.8436V17.328ZM81.2116 16.756H82.2256V28.027H81.2116V16.756ZM90.5091 18.134C90.3401 19.486 90.0801 21.007 89.6771 22.398C88.8841 25.063 87.8441 26.441 86.6481 26.441C85.4781 26.441 84.3211 25.115 84.3211 22.957C84.3211 20.136 86.8301 17.679 90.0151 17.679C93.0571 17.679 94.9941 19.824 94.9941 22.463C94.9941 25.18 93.2001 27 90.1061 27.403L89.5081 26.441C89.9241 26.402 90.3141 26.35 90.6261 26.285C92.2901 25.908 93.9281 24.66 93.9281 22.411C93.9281 20.331 92.4851 18.615 89.9891 18.615C87.1291 18.615 85.3481 20.968 85.3481 22.879C85.3481 24.517 86.0891 25.245 86.6741 25.245C87.2851 25.245 87.9871 24.361 88.6501 22.164C89.0271 20.929 89.3001 19.46 89.4301 18.108L90.5091 18.134ZM102.537 17.796C102.459 17.51 102.342 17.12 102.212 16.769L103.33 16.639C103.447 17.393 103.785 18.511 104.084 19.356C104.487 20.474 105.15 21.683 105.709 22.437C105.878 22.697 106.073 22.918 106.268 23.126L105.748 23.867C105.124 23.711 103.538 23.568 102.602 23.503L102.68 22.645C103.408 22.71 104.37 22.788 104.838 22.84C104.292 22.008 103.577 20.721 103.148 19.538C102.862 18.797 102.68 18.199 102.537 17.796ZM97.7787 18.81C99.9497 19.057 102.004 19.07 103.486 18.914C104.513 18.797 105.8 18.563 106.814 18.212L106.931 19.239C106.008 19.499 104.773 19.707 103.824 19.824C102.173 20.019 100.106 20.032 97.8047 19.837L97.7787 18.81ZM99.7937 22.944C99.4037 23.581 99.1697 24.14 99.1697 24.751C99.1697 25.999 100.301 26.532 102.238 26.558C103.551 26.558 104.682 26.428 105.579 26.233L105.54 27.273C104.721 27.416 103.629 27.559 102.173 27.546C99.7027 27.533 98.1427 26.649 98.1427 24.881C98.1427 24.153 98.4027 23.477 98.7797 22.71L99.7937 22.944ZM115.942 16.86C115.89 17.185 115.838 17.64 115.812 17.9C115.643 19.265 115.448 20.877 114.941 22.307C114.109 24.66 112.601 26.87 110.911 26.87C109.975 26.87 109.247 26.116 109.247 24.855C109.247 23.516 109.715 22.398 110.339 21.527C111.314 20.136 113.173 18.602 115.877 18.602C117.983 18.602 119.777 20.019 119.777 22.424C119.777 25.18 118.815 27.195 116.657 27.195C115.422 27.195 114.629 26.558 114.629 25.505C114.629 24.608 115.461 23.776 116.657 23.776C118.633 23.776 120.037 25.115 120.83 26.025L120.206 26.831C119.517 25.999 118.282 24.569 116.696 24.569C115.916 24.569 115.513 24.998 115.513 25.427C115.513 25.947 115.929 26.298 116.618 26.298C118.191 26.298 118.789 24.387 118.789 22.463C118.789 20.786 117.723 19.473 115.799 19.473C113.68 19.486 112.094 20.591 111.119 22.034C110.534 22.892 110.183 23.789 110.183 24.712C110.183 25.362 110.547 25.83 110.95 25.83C112.016 25.83 113.29 24.101 114.044 22.008C114.486 20.734 114.733 19.005 114.811 17.913C114.824 17.458 114.837 17.211 114.798 16.834L115.942 16.86ZM110.963 18.004C111.275 19.499 112.029 21.371 112.458 22.281C112.822 23.074 113.264 23.789 113.732 24.374L113.108 25.167C112.679 24.686 112.172 23.893 111.769 23.061C111.353 22.216 110.794 20.708 110.469 19.746C110.326 19.278 110.209 18.914 109.988 18.394L110.963 18.004ZM122.906 18.095C124.713 18.316 126.416 18.342 127.742 18.212C128.808 18.121 129.874 17.9 130.81 17.588L130.953 18.537C130.108 18.784 129.003 19.005 127.963 19.096C126.65 19.226 124.83 19.226 122.971 19.044L122.906 18.095ZM122.646 20.76C124.869 20.994 127.079 20.955 128.6 20.773C129.835 20.643 130.888 20.383 131.577 20.175L131.746 21.137C131.031 21.332 130.043 21.527 128.951 21.657C127.352 21.865 124.947 21.904 122.711 21.735L122.646 20.76ZM127.092 17.926C126.988 17.549 126.871 17.146 126.728 16.769L127.833 16.626C127.963 17.718 128.366 19.031 128.691 19.954C129.042 20.968 129.614 22.216 130.29 23.217C130.433 23.425 130.589 23.607 130.784 23.776L130.238 24.569C129.51 24.387 128.301 24.257 127.404 24.166L127.482 23.373C128.184 23.438 129.029 23.529 129.432 23.581C128.717 22.463 128.171 21.215 127.794 20.162C127.469 19.265 127.274 18.576 127.092 17.926ZM124.544 23.568C124.232 24.01 123.998 24.452 123.998 25.037C123.998 26.103 124.947 26.649 126.988 26.649C128.197 26.649 129.146 26.558 130.095 26.376L130.043 27.403C129.133 27.559 128.119 27.637 127.001 27.637C124.466 27.637 123.036 26.883 123.01 25.206C123.01 24.465 123.231 23.919 123.53 23.347L124.544 23.568ZM142.219 22.684C142.219 21.579 141.335 20.812 139.996 20.812C138.501 20.812 137.214 21.241 136.46 21.462C136.057 21.579 135.667 21.722 135.355 21.852L135.03 20.656C135.394 20.63 135.823 20.539 136.226 20.461C137.136 20.253 138.605 19.837 140.113 19.837C141.959 19.837 143.324 20.864 143.324 22.723C143.324 25.544 140.802 27.117 137.435 27.637L136.837 26.649C139.996 26.246 142.219 25.011 142.219 22.684ZM136.759 16.821C138.202 17.146 141.023 17.419 142.284 17.432L142.128 18.433C140.685 18.329 138.072 18.069 136.603 17.809L136.759 16.821ZM155.3 19.59C155.001 19.772 154.676 19.941 154.299 20.136C153.415 20.591 151.972 21.267 150.698 22.112C149.489 22.905 148.761 23.763 148.761 24.738C148.761 25.817 149.788 26.493 151.842 26.493C153.259 26.493 155.001 26.311 156.015 26.051L156.002 27.221C155.027 27.39 153.519 27.533 151.894 27.533C149.45 27.533 147.682 26.805 147.682 24.855C147.682 23.451 148.631 22.346 150.152 21.332C151.478 20.448 152.999 19.733 153.844 19.265C154.221 19.044 154.507 18.875 154.78 18.641L155.3 19.59ZM149.073 17.055C149.671 18.719 150.464 20.344 151.075 21.384L150.178 21.93C149.528 20.864 148.748 19.109 148.046 17.497L149.073 17.055ZM155.521 16.925C155.846 17.406 156.314 18.186 156.574 18.719L155.872 19.044C155.612 18.511 155.183 17.718 154.819 17.224L155.521 16.925ZM156.951 16.405C157.289 16.886 157.796 17.705 158.043 18.186L157.341 18.498C157.055 17.939 156.639 17.185 156.262 16.704L156.951 16.405ZM165.078 17.354C164.961 17.51 164.805 17.744 164.662 17.991C164.077 18.888 162.881 21.046 162.218 22.307C162.842 21.748 163.518 21.501 164.142 21.501C165.013 21.501 165.637 22.06 165.676 23.087C165.702 23.854 165.676 24.842 165.728 25.479C165.767 26.129 166.209 26.415 166.768 26.415C168.224 26.415 169.082 24.621 169.407 23.23L170.278 23.932C169.589 26.025 168.497 27.481 166.612 27.481C165.221 27.481 164.766 26.61 164.727 25.843C164.688 25.076 164.701 24.075 164.662 23.36C164.636 22.801 164.298 22.45 163.713 22.45C162.673 22.45 161.685 23.516 161.191 24.543C160.788 25.31 160.242 26.857 160.06 27.494L158.942 27.104C159.891 24.478 162.738 19.148 163.453 17.9C163.596 17.588 163.765 17.276 163.921 16.886L165.078 17.354ZM177.808 20.539H182.709V21.41H177.808V20.539ZM174.753 26.675H181.305V27.546H174.753V26.675ZM177.34 18.992H178.328V23.75H177.34V18.992ZM174.233 23.282H181.838V28.04H180.837V24.166H175.182V28.066H174.233V23.282ZM176.885 16.093H177.886V18.303H176.885V16.093ZM172.556 17.77H182.891V18.706H172.556V17.77ZM172.075 17.77H173.05V21.137C173.05 23.139 172.868 26.077 171.75 28.053C171.581 27.884 171.152 27.611 170.918 27.507C171.984 25.635 172.075 23.009 172.075 21.137V17.77ZM188.978 18.225C190.395 18.472 193.034 18.42 194.321 18.225V19.278C192.93 19.434 190.408 19.434 188.991 19.278L188.978 18.225ZM189.485 23.529C189.368 23.997 189.303 24.361 189.303 24.712C189.303 25.31 189.719 25.895 191.5 25.895C192.657 25.895 193.671 25.791 194.711 25.544L194.737 26.636C193.931 26.805 192.839 26.909 191.487 26.909C189.316 26.909 188.341 26.181 188.341 24.959C188.341 24.53 188.406 24.062 188.549 23.438L189.485 23.529ZM186.508 17.224C186.43 17.445 186.326 17.861 186.274 18.095C186.027 19.304 185.624 21.618 185.624 23.087C185.624 23.711 185.663 24.257 185.741 24.894C185.962 24.309 186.261 23.529 186.482 22.996L187.028 23.425C186.703 24.348 186.222 25.713 186.105 26.337C186.066 26.519 186.04 26.766 186.04 26.922C186.053 27.052 186.066 27.234 186.079 27.377L185.156 27.442C184.896 26.519 184.675 25.024 184.675 23.256C184.675 21.345 185.104 19.122 185.26 18.043C185.299 17.744 185.338 17.419 185.351 17.133L186.508 17.224ZM201.343 18.576H207.934V19.473H201.343V18.576ZM201.59 21.176H207.661V22.06H201.59V21.176ZM200.94 23.906H208.116V24.816H200.94V23.906ZM204.086 18.888H205.035V28.04H204.086V18.888ZM206.413 16.067L207.362 16.379C206.972 17.172 206.53 18.082 206.153 18.667L205.399 18.394C205.737 17.77 206.179 16.756 206.413 16.067ZM201.902 16.444L202.695 16.158C203.137 16.847 203.566 17.77 203.722 18.368L202.877 18.706C202.734 18.095 202.318 17.146 201.902 16.444ZM196.715 20.019H200.589V20.799H196.715V20.019ZM196.78 16.548H200.563V17.328H196.78V16.548ZM196.715 21.761H200.589V22.541H196.715V21.761ZM196.104 18.251H201.044V19.057H196.104V18.251ZM197.183 23.516H200.589V27.312H197.183V26.493H199.731V24.322H197.183V23.516ZM196.702 23.516H197.547V27.91H196.702V23.516ZM212.578 16.873C212.513 17.302 212.474 17.757 212.448 18.186C212.396 19.655 212.292 22.736 212.292 24.673C212.292 26.103 213.189 26.597 214.424 26.597C216.803 26.597 218.155 25.271 219.091 23.919L219.819 24.803C218.935 26.038 217.245 27.663 214.398 27.663C212.526 27.663 211.239 26.896 211.239 24.764C211.239 22.84 211.369 19.551 211.369 18.186C211.369 17.705 211.33 17.25 211.252 16.873H212.578ZM42.152 35.419C41.866 35.627 41.463 35.978 41.255 36.16C40.358 36.94 38.486 38.409 37.524 39.215C36.744 39.891 36.731 40.086 37.576 40.788C38.759 41.763 41.06 43.609 42.438 45L41.515 45.845C41.242 45.533 40.93 45.221 40.618 44.896C39.695 43.96 37.732 42.27 36.51 41.269C35.288 40.242 35.431 39.683 36.601 38.695C37.589 37.876 39.565 36.316 40.436 35.432C40.696 35.172 41.034 34.795 41.177 34.561L42.152 35.419ZM46.7774 36.81C47.2584 36.862 47.8174 36.888 48.3764 36.888C49.7804 36.888 51.4184 36.719 52.9134 36.225L52.9394 37.187C51.6654 37.538 49.9624 37.824 48.3764 37.811C47.8954 37.811 47.3364 37.798 46.8554 37.785L46.7774 36.81ZM51.3924 34.691C51.2234 35.328 50.9504 36.55 50.6384 37.473C50.0144 39.345 48.8184 41.711 47.7394 43.167L46.7384 42.647C47.8954 41.295 49.1044 38.981 49.6374 37.447C49.9234 36.628 50.2094 35.484 50.2484 34.574L51.3924 34.691ZM54.4604 38.708C54.4214 39.241 54.4214 39.631 54.4344 40.099C54.4604 40.944 54.5774 42.92 54.5774 43.778C54.5774 44.818 53.9144 45.663 52.3024 45.663C50.8724 45.663 49.7154 45.091 49.7154 43.791C49.7154 42.595 50.8464 41.841 52.3024 41.841C54.4864 41.841 56.1634 42.933 57.2294 43.856L56.6834 44.74C55.6824 43.83 54.1874 42.673 52.2764 42.673C51.3144 42.673 50.6644 43.115 50.6644 43.713C50.6644 44.311 51.1714 44.727 52.1854 44.727C53.2644 44.727 53.6284 44.155 53.6284 43.453C53.6284 42.465 53.4854 40.138 53.4334 38.708H54.4604ZM57.0604 39.046C56.3584 38.448 54.9414 37.655 54.0834 37.252L54.6034 36.472C55.5524 36.875 57.0214 37.72 57.6454 38.188L57.0604 39.046ZM61.1528 35.432C61.4388 35.458 61.8028 35.471 62.0628 35.471C62.7518 35.471 65.8328 35.38 66.5218 35.315C66.9118 35.276 67.0938 35.25 67.2368 35.198L67.8348 35.965C67.6008 36.121 67.3408 36.29 67.0938 36.485C66.4568 36.979 64.6888 38.5 63.6748 39.332C64.2728 39.137 64.8968 39.072 65.4818 39.072C67.6398 39.072 69.1868 40.359 69.1868 42.114C69.1868 44.207 67.4578 45.572 64.7018 45.572C62.9338 45.572 61.8548 44.805 61.8548 43.713C61.8548 42.829 62.6608 42.023 63.8568 42.023C65.5858 42.023 66.4568 43.245 66.5478 44.558L65.6118 44.714C65.5338 43.609 64.8968 42.816 63.8568 42.816C63.2588 42.816 62.8038 43.18 62.8038 43.635C62.8038 44.272 63.5188 44.649 64.5458 44.649C66.7558 44.649 68.1468 43.739 68.1468 42.114C68.1468 40.827 66.9248 39.878 65.2218 39.878C63.0638 39.878 61.8938 40.788 60.2558 42.465L59.5018 41.711C60.5808 40.827 62.2578 39.423 62.9988 38.786C63.7268 38.188 65.3648 36.823 66.0148 36.238C65.3258 36.277 62.7258 36.381 62.0498 36.42C61.7508 36.446 61.4648 36.459 61.1788 36.498L61.1528 35.432ZM79.9482 39.033C79.9482 42.491 79.1942 44.272 76.2302 45.611L75.3592 44.779C77.7252 43.882 78.8952 42.764 78.8952 39.111V35.952C78.8952 35.445 78.8562 35.016 78.8302 34.899H80.0132C80.0002 35.029 79.9482 35.445 79.9482 35.952V39.033ZM75.2552 34.977C75.2422 35.094 75.2032 35.471 75.2032 35.913V40.684C75.2032 41.165 75.2422 41.737 75.2552 41.854H74.0982C74.1112 41.737 74.1632 41.178 74.1632 40.684V35.913C74.1632 35.64 74.1372 35.276 74.0982 34.977H75.2552ZM71.4592 37.499C71.5762 37.512 72.2132 37.59 72.7592 37.59H81.3652C81.9502 37.59 82.3792 37.538 82.5612 37.512V38.617C82.4182 38.604 81.9502 38.578 81.3782 38.578H72.7592C72.1872 38.578 71.6022 38.617 71.4592 38.617V37.499ZM84.2356 40.307C86.4846 39.709 88.4606 38.786 89.9036 37.889C91.2686 37.031 92.5686 35.913 93.4656 34.821L94.3366 35.64C93.2186 36.797 91.8536 37.889 90.3326 38.838C88.9026 39.722 86.8356 40.671 84.7426 41.321L84.2356 40.307ZM89.6956 38.422L90.8136 38.084V44.025C90.8136 44.506 90.8396 45.156 90.9046 45.403H89.6176C89.6566 45.156 89.6956 44.506 89.6956 44.025V38.422ZM100.015 43.856C100.015 43.128 100.015 37.382 100.015 36.303C100.015 35.926 99.989 35.354 99.924 34.938H101.198C101.146 35.341 101.107 35.9 101.107 36.303C101.107 38.318 101.12 43.245 101.12 43.856C101.12 44.272 101.146 44.974 101.198 45.403H99.937C100.002 44.987 100.015 44.337 100.015 43.856ZM100.873 38.357C102.589 38.851 105.215 39.852 106.658 40.554L106.203 41.659C104.721 40.866 102.29 39.943 100.873 39.501V38.357ZM110.444 41.841C111.536 41.841 112.42 42.725 112.42 43.817C112.42 44.909 111.536 45.793 110.444 45.793C109.352 45.793 108.455 44.909 108.455 43.817C108.455 42.725 109.352 41.841 110.444 41.841ZM110.444 45.13C111.172 45.13 111.757 44.545 111.757 43.817C111.757 43.089 111.172 42.504 110.444 42.504C109.716 42.504 109.118 43.089 109.118 43.817C109.118 44.545 109.716 45.13 110.444 45.13ZM120.959 41.022H127.342V41.841H120.959V41.022ZM121.037 36.485H127.303V37.278H121.037V36.485ZM123.377 39.904L124.287 40.099C123.702 41.373 122.883 42.959 122.285 43.986L121.427 43.687C122.012 42.699 122.831 41.1 123.377 39.904ZM125.327 41.503L126.237 41.62C125.795 44.155 124.43 45.403 121.427 46.04C121.362 45.78 121.167 45.429 120.985 45.234C123.702 44.779 124.924 43.713 125.327 41.503ZM126.146 34.34L126.978 34.704C126.601 35.302 126.172 35.952 125.808 36.394L125.158 36.069C125.483 35.601 125.912 34.847 126.146 34.34ZM123.728 34.08H124.625V40.06H123.728V34.08ZM121.518 34.704L122.259 34.392C122.623 34.912 122.974 35.601 123.104 36.069L122.337 36.42C122.22 35.952 121.882 35.237 121.518 34.704ZM123.741 36.836L124.404 37.226C123.767 38.318 122.545 39.475 121.427 40.086C121.31 39.865 121.076 39.54 120.894 39.345C121.973 38.877 123.169 37.837 123.741 36.836ZM124.521 37.291C124.989 37.538 126.575 38.539 126.952 38.812L126.419 39.527C125.951 39.085 124.599 38.071 124.053 37.707L124.521 37.291ZM128.291 36.485H132.919V37.395H128.291V36.485ZM128.616 34.08L129.604 34.223C129.175 36.771 128.408 39.098 127.264 40.619C127.108 40.437 126.705 40.112 126.471 39.956C127.576 38.578 128.252 36.381 128.616 34.08ZM131.177 37.005L132.165 37.109C131.541 41.594 130.163 44.389 126.887 46.079C126.783 45.845 126.497 45.416 126.302 45.208C129.396 43.752 130.644 41.126 131.177 37.005ZM128.811 37.291C129.383 40.866 130.631 43.934 133.049 45.208C132.815 45.403 132.503 45.78 132.36 46.04C129.812 44.545 128.577 41.373 127.927 37.434L128.811 37.291ZM122.207 43.505L122.727 42.842C124.287 43.44 125.899 44.298 126.835 45.013L126.159 45.715C125.262 44.987 123.715 44.116 122.207 43.505ZM138.493 34.912C138.441 35.146 138.389 35.432 138.337 35.679C138.246 36.147 138.077 37.213 137.895 38.019C137.453 39.852 136.53 43.089 135.061 45.455L133.995 45.039C135.477 43.05 136.517 39.579 136.868 37.993C137.115 36.953 137.284 35.783 137.284 34.782L138.493 34.912ZM142.965 36.407C143.771 37.46 144.902 39.826 145.344 41.022L144.33 41.503C143.953 40.177 142.926 37.915 142.016 36.836L142.965 36.407ZM133.813 37.759C134.216 37.785 134.554 37.772 134.97 37.759C135.945 37.733 138.584 37.447 139.468 37.447C140.625 37.447 141.574 37.889 141.574 39.644C141.574 41.191 141.366 43.258 140.82 44.337C140.417 45.208 139.767 45.429 138.922 45.429C138.428 45.429 137.804 45.338 137.401 45.234L137.219 44.155C137.765 44.324 138.454 44.415 138.818 44.415C139.299 44.415 139.689 44.311 139.949 43.752C140.365 42.868 140.573 41.178 140.573 39.774C140.573 38.578 140.027 38.357 139.195 38.357C138.324 38.357 135.88 38.656 135.087 38.734C134.788 38.773 134.255 38.838 133.917 38.89L133.813 37.759ZM143.108 34.522C143.433 34.99 143.901 35.783 144.174 36.316L143.472 36.628C143.212 36.095 142.77 35.315 142.406 34.821L143.108 34.522ZM144.538 34.002C144.889 34.483 145.383 35.302 145.643 35.783L144.928 36.095C144.655 35.523 144.226 34.782 143.849 34.301L144.538 34.002ZM148.774 36.953L149.424 36.381C150.399 36.836 151.595 37.564 152.18 38.11L151.491 38.747C150.932 38.201 149.749 37.434 148.774 36.953ZM154.78 35.185H154.975L155.144 35.133L155.781 35.523C154.091 38.552 150.243 40.372 146.811 41.126C146.72 40.879 146.525 40.476 146.343 40.268C149.619 39.657 153.363 37.902 154.78 35.341V35.185ZM150.438 35.185H155.027V36.004H150.438V35.185ZM151.4 34.067L152.492 34.301C151.296 35.679 149.528 36.966 147.11 37.928C146.967 37.694 146.668 37.369 146.447 37.2C148.787 36.381 150.503 35.159 151.4 34.067ZM150.438 41.724L151.153 41.165C152.18 41.698 153.428 42.517 154.052 43.141L153.285 43.765C152.7 43.154 151.465 42.283 150.438 41.724ZM156.678 39.735H156.873L157.055 39.683L157.692 40.034C156.054 43.83 151.998 45.455 147.747 46.079C147.682 45.806 147.487 45.403 147.331 45.182C151.348 44.701 155.274 43.154 156.678 39.878V39.735ZM152.453 39.735H156.938V40.567H152.453V39.735ZM153.506 38.513L154.585 38.76C153.272 40.294 151.218 41.711 148.371 42.712C148.254 42.491 147.968 42.14 147.76 41.958C150.516 41.1 152.492 39.748 153.506 38.513ZM166.191 34.704C166.165 34.86 166.126 35.367 166.126 35.523C166.087 36.368 166.113 38.877 166.126 39.917L165.138 39.41C165.138 38.838 165.125 36.251 165.086 35.536C165.06 35.185 165.021 34.821 164.995 34.704H166.191ZM159.275 36.524C161.043 36.498 164.293 36.381 166.295 36.381C167.881 36.381 169.493 36.381 170.104 36.394L170.091 37.356C169.363 37.317 168.193 37.291 166.282 37.291C164.046 37.291 161.264 37.382 159.301 37.525L159.275 36.524ZM166.1 40.294C166.1 42.036 165.294 42.907 164.111 42.907C163.019 42.907 161.966 42.14 161.966 40.723C161.966 39.436 163.032 38.474 164.267 38.474C165.775 38.474 166.542 39.592 166.542 41.087C166.542 42.855 165.684 44.805 162.668 45.702L161.797 44.857C164.163 44.298 165.541 43.141 165.541 40.996C165.541 39.826 164.969 39.332 164.267 39.332C163.578 39.332 162.941 39.865 162.941 40.71C162.941 41.529 163.552 41.997 164.267 41.997C165.073 41.997 165.593 41.321 165.385 39.93L166.1 40.294ZM180.423 34.6C180.735 35.029 181.216 35.822 181.489 36.394L180.813 36.719C180.527 36.082 180.163 35.419 179.773 34.873L180.423 34.6ZM181.788 34.067C182.113 34.496 182.607 35.289 182.906 35.848L182.243 36.173C181.931 35.549 181.554 34.912 181.151 34.379L181.788 34.067ZM172.376 36.134C174.183 36.355 175.886 36.381 177.225 36.264C178.291 36.16 179.266 35.952 180.007 35.705L180.15 36.641C179.435 36.849 178.486 37.044 177.446 37.148C176.12 37.265 174.3 37.265 172.441 37.096L172.376 36.134ZM172.129 38.812C174.339 39.033 176.562 39.007 178.07 38.825C179.305 38.682 180.371 38.422 181.06 38.214L181.216 39.189C180.501 39.384 179.513 39.566 178.434 39.709C176.822 39.904 174.417 39.943 172.181 39.774L172.129 38.812ZM176.562 35.965C176.458 35.588 176.341 35.185 176.211 34.808L177.316 34.678C177.446 35.757 177.836 37.07 178.161 37.993C178.512 39.007 179.097 40.255 179.773 41.256C179.903 41.464 180.072 41.646 180.254 41.815L179.708 42.608C178.98 42.426 177.771 42.296 176.874 42.205L176.965 41.412C177.654 41.49 178.499 41.581 178.915 41.62C178.187 40.502 177.641 39.254 177.264 38.201C176.939 37.317 176.744 36.615 176.562 35.965ZM174.014 41.607C173.702 42.049 173.468 42.504 173.468 43.076C173.468 44.142 174.43 44.688 176.471 44.688C177.68 44.688 178.629 44.597 179.565 44.415L179.526 45.442C178.616 45.598 177.589 45.676 176.484 45.676C173.936 45.676 172.506 44.922 172.493 43.245C172.48 42.504 172.714 41.958 173 41.386L174.014 41.607ZM184.191 36.368C184.685 36.355 185.101 36.329 185.361 36.303C186.206 36.212 188.65 35.978 191.055 35.77C192.472 35.653 193.681 35.575 194.552 35.549L194.565 36.589C193.811 36.576 192.68 36.602 192.017 36.784C190.158 37.382 189.027 39.371 189.027 40.905C189.027 43.44 191.406 44.246 193.512 44.337L193.148 45.403C190.73 45.312 188 44.038 188 41.126C188 39.098 189.235 37.447 190.431 36.745C189.027 36.888 185.725 37.213 184.308 37.512L184.191 36.368ZM198.462 37.915H205.872V38.747H198.462V37.915ZM202.778 38.266C203.415 39.93 204.689 41.581 206.067 42.335C205.859 42.504 205.573 42.829 205.417 43.063C204.039 42.153 202.791 40.333 202.128 38.474L202.778 38.266ZM201.621 36.095H202.544V43.843H201.621V36.095ZM201.4 38.201L202.089 38.422C201.413 40.32 200.165 42.153 198.813 43.102C198.657 42.881 198.384 42.582 198.189 42.413C199.515 41.62 200.763 39.917 201.4 38.201ZM196.72 34.704H207.562V46.079H206.548V35.614H197.682V46.079H196.72V34.704ZM197.266 44.545H206.951V45.455H197.266V44.545ZM211.252 35.432C211.538 35.458 211.902 35.471 212.162 35.471C212.851 35.471 215.932 35.38 216.621 35.315C217.011 35.276 217.193 35.25 217.336 35.198L217.934 35.965C217.7 36.121 217.44 36.29 217.193 36.485C216.556 36.979 214.788 38.5 213.774 39.332C214.372 39.137 214.996 39.072 215.581 39.072C217.739 39.072 219.286 40.359 219.286 42.114C219.286 44.207 217.557 45.572 214.801 45.572C213.033 45.572 211.954 44.805 211.954 43.713C211.954 42.829 212.76 42.023 213.956 42.023C215.685 42.023 216.556 43.245 216.647 44.558L215.711 44.714C215.633 43.609 214.996 42.816 213.956 42.816C213.358 42.816 212.903 43.18 212.903 43.635C212.903 44.272 213.618 44.649 214.645 44.649C216.855 44.649 218.246 43.739 218.246 42.114C218.246 40.827 217.024 39.878 215.321 39.878C213.163 39.878 211.993 40.788 210.355 42.465L209.601 41.711C210.68 40.827 212.357 39.423 213.098 38.786C213.826 38.188 215.464 36.823 216.114 36.238C215.425 36.277 212.825 36.381 212.149 36.42C211.85 36.446 211.564 36.459 211.278 36.498L211.252 35.432ZM38.681 52.86C38.629 53.107 38.577 53.38 38.525 53.64C38.447 54.108 38.265 55.174 38.096 55.98C37.654 57.8 36.718 61.037 35.249 63.416L34.196 62.987C35.678 61.011 36.718 57.54 37.069 55.941C37.303 54.914 37.485 53.744 37.485 52.743L38.681 52.86ZM43.166 54.251C43.972 55.304 45.103 57.696 45.532 58.905L44.531 59.386C44.141 58.047 43.127 55.746 42.217 54.68L43.166 54.251ZM34.001 55.72C34.417 55.733 34.755 55.733 35.171 55.72C36.133 55.694 38.772 55.395 39.656 55.395C40.813 55.395 41.762 55.837 41.762 57.605C41.762 59.152 41.554 61.219 41.021 62.298C40.605 63.169 39.955 63.377 39.123 63.377C38.616 63.377 38.005 63.286 37.589 63.195L37.42 62.103C37.966 62.272 38.642 62.376 39.006 62.376C39.487 62.376 39.877 62.272 40.15 61.7C40.566 60.829 40.761 59.126 40.761 57.722C40.761 56.539 40.215 56.318 39.383 56.318C38.512 56.318 36.081 56.604 35.288 56.682C34.989 56.721 34.443 56.786 34.118 56.838L34.001 55.72ZM51.2573 52.782C51.1793 53.133 51.1403 53.406 51.0883 53.692C50.9193 55.148 50.3343 59.152 50.3343 60.556C50.3343 61.817 51.0493 62.584 52.5313 62.584C54.5073 62.584 55.7683 61.726 55.7683 60.374C55.7683 59.503 55.3003 58.541 54.3383 57.735L55.4823 57.488C56.3793 58.476 56.8213 59.386 56.8213 60.491C56.8213 62.428 55.0923 63.611 52.5183 63.611C50.7633 63.611 49.3333 62.831 49.3333 60.712C49.3333 59.321 49.9443 55.434 50.0873 53.64C50.1263 53.185 50.1263 52.951 50.1003 52.717L51.2573 52.782ZM47.0973 54.511C48.1893 54.862 49.7493 55.031 50.9063 55.031C51.8943 55.031 52.7913 54.979 53.5583 54.862L53.5323 55.85C52.7003 55.928 51.9333 55.967 50.8803 55.967C49.7363 55.967 48.1763 55.772 47.0323 55.46L47.0973 54.511ZM46.7723 57.748C48.0333 58.19 49.5543 58.307 50.7503 58.307C51.6473 58.307 52.5443 58.281 53.4543 58.151L53.4413 59.139C52.5703 59.23 51.7643 59.256 50.8933 59.256C49.4763 59.256 47.9033 59.1 46.7203 58.736L46.7723 57.748ZM60.5445 59.841C61.6365 59.841 62.5205 60.725 62.5205 61.817C62.5205 62.909 61.6365 63.793 60.5445 63.793C59.4525 63.793 58.5555 62.909 58.5555 61.817C58.5555 60.725 59.4525 59.841 60.5445 59.841ZM60.5445 63.13C61.2725 63.13 61.8575 62.545 61.8575 61.817C61.8575 61.089 61.2725 60.504 60.5445 60.504C59.8165 60.504 59.2185 61.089 59.2185 61.817C59.2185 62.545 59.8165 63.13 60.5445 63.13ZM71.3788 53.328H82.6758V54.173H71.3788V53.328ZM76.4618 52.08H77.4628V53.731H76.4618V52.08ZM71.9508 58.411H81.6098V59.243H72.8998V64.053H71.9508V58.411ZM81.2068 58.411H82.1818V62.883C82.1818 63.416 82.0648 63.702 81.6488 63.871C81.2328 64.014 80.5308 64.027 79.4518 64.027C79.4128 63.754 79.2698 63.364 79.1268 63.104C79.9848 63.13 80.7128 63.13 80.9338 63.104C81.1548 63.104 81.2068 63.039 81.2068 62.857V58.411ZM74.5508 60.088H75.4218V63.494H74.5508V60.088ZM75.0188 60.088H79.5168V62.831H75.0188V62.129H78.6328V60.79H75.0188V60.088ZM74.4728 55.616V56.877H79.5558V55.616H74.4728ZM73.5368 54.901H80.5438V57.592H73.5368V54.901ZM91.066 57.137L92.184 57.41C91.586 59.243 90.741 61.57 90.052 63.013L89.194 62.74C89.87 61.258 90.663 58.853 91.066 57.137ZM87.985 62.545C89.61 62.467 92.197 62.324 94.693 62.181L94.68 63.078C92.34 63.247 89.857 63.429 88.154 63.533L87.985 62.545ZM92.613 59.932L93.445 59.529C94.316 60.816 95.278 62.519 95.668 63.598L94.758 64.066C94.394 62.987 93.471 61.245 92.613 59.932ZM90.13 52.34L91.144 52.535C90.65 54.615 89.844 56.578 88.83 57.852C88.648 57.683 88.232 57.371 87.985 57.228C88.999 56.071 89.727 54.251 90.13 52.34ZM93.458 52.301C93.939 54.017 94.862 55.98 95.668 57.02C95.421 57.202 95.057 57.553 94.875 57.813C94.017 56.604 93.12 54.459 92.587 52.587L93.458 52.301ZM83.708 54.875H88.284V55.798H83.708V54.875ZM85.671 52.08H86.594V64.027H85.671V52.08ZM85.619 55.447L86.243 55.668C85.814 57.748 84.878 60.296 83.903 61.609C83.799 61.349 83.565 60.959 83.396 60.738C84.319 59.568 85.229 57.319 85.619 55.447ZM86.529 56.851C86.867 57.215 88.115 58.801 88.375 59.191L87.777 59.958C87.452 59.308 86.438 57.826 86.048 57.306L86.529 56.851ZM101.497 52.028H102.524V54.459H101.497V52.028ZM101.51 54.771H102.511V64.079H101.51V54.771ZM96.2063 53.887H107.919V54.836H96.2063V53.887ZM97.5453 56.617H106.086V57.566H98.5203V62.428H97.5453V56.617ZM105.709 56.617H106.71V61.193C106.71 61.752 106.58 62.051 106.151 62.22C105.696 62.376 104.968 62.389 103.85 62.389C103.811 62.09 103.655 61.7 103.512 61.427C104.396 61.453 105.189 61.453 105.41 61.44C105.644 61.427 105.709 61.375 105.709 61.193V56.617ZM113.983 54.225C115.4 54.472 118.039 54.42 119.326 54.225V55.278C117.935 55.434 115.413 55.434 113.996 55.278L113.983 54.225ZM114.49 59.529C114.373 59.997 114.308 60.361 114.308 60.712C114.308 61.31 114.724 61.895 116.505 61.895C117.662 61.895 118.676 61.791 119.716 61.544L119.742 62.636C118.936 62.805 117.844 62.909 116.492 62.909C114.321 62.909 113.346 62.181 113.346 60.959C113.346 60.53 113.411 60.062 113.554 59.438L114.49 59.529ZM111.513 53.224C111.435 53.445 111.331 53.861 111.279 54.095C111.032 55.304 110.629 57.618 110.629 59.087C110.629 59.711 110.668 60.257 110.746 60.894C110.967 60.309 111.266 59.529 111.487 58.996L112.033 59.425C111.708 60.348 111.227 61.713 111.11 62.337C111.071 62.519 111.045 62.766 111.045 62.922C111.058 63.052 111.071 63.234 111.084 63.377L110.161 63.442C109.901 62.519 109.68 61.024 109.68 59.256C109.68 57.345 110.109 55.122 110.265 54.043C110.304 53.744 110.343 53.419 110.356 53.133L111.513 53.224ZM126.702 52.717C126.65 52.873 126.598 53.107 126.559 53.289C126.338 54.381 126.117 56.435 126.117 58.216C126.117 59.906 126.481 61.466 126.884 62.688L125.935 62.974C125.558 61.817 125.207 59.971 125.207 58.32C125.207 56.539 125.467 54.433 125.584 53.315C125.61 53.081 125.623 52.847 125.623 52.678L126.702 52.717ZM124.609 54.316C126.897 54.316 129.159 54.134 130.953 53.731L130.966 54.693C129.094 55.018 126.533 55.213 124.596 55.213C124.037 55.213 123.023 55.161 122.49 55.135L122.464 54.16C122.919 54.238 124.05 54.316 124.609 54.316ZM130.03 55.85C129.952 56.019 129.835 56.37 129.757 56.578C128.99 58.983 127.69 60.79 126.325 61.843C125.493 62.48 124.453 62.961 123.53 62.961C122.672 62.961 121.996 62.441 121.996 61.336C121.996 59.555 123.647 57.722 125.571 56.981C126.442 56.643 127.495 56.448 128.34 56.448C130.797 56.448 132.344 57.878 132.344 59.698C132.344 61.557 131.109 63.182 128.093 63.663L127.534 62.792C129.874 62.532 131.33 61.323 131.33 59.646C131.33 58.385 130.264 57.28 128.327 57.28C127.235 57.28 126.273 57.592 125.61 57.891C124.141 58.541 122.971 59.971 122.971 61.167C122.971 61.7 123.231 61.96 123.712 61.96C124.362 61.96 125.207 61.596 126.039 60.868C127.196 59.854 128.262 58.45 128.86 56.344C128.912 56.149 128.977 55.798 128.99 55.59L130.03 55.85ZM136.184 53.432C136.47 53.458 136.834 53.471 137.094 53.471C137.783 53.471 140.864 53.38 141.553 53.315C141.943 53.276 142.125 53.25 142.268 53.198L142.866 53.965C142.632 54.121 142.372 54.29 142.125 54.485C141.488 54.979 139.72 56.5 138.706 57.332C139.304 57.137 139.928 57.072 140.513 57.072C142.671 57.072 144.218 58.359 144.218 60.114C144.218 62.207 142.489 63.572 139.733 63.572C137.965 63.572 136.886 62.805 136.886 61.713C136.886 60.829 137.692 60.023 138.888 60.023C140.617 60.023 141.488 61.245 141.579 62.558L140.643 62.714C140.565 61.609 139.928 60.816 138.888 60.816C138.29 60.816 137.835 61.18 137.835 61.635C137.835 62.272 138.55 62.649 139.577 62.649C141.787 62.649 143.178 61.739 143.178 60.114C143.178 58.827 141.956 57.878 140.253 57.878C138.095 57.878 136.925 58.788 135.287 60.465L134.533 59.711C135.612 58.827 137.289 57.423 138.03 56.786C138.758 56.188 140.396 54.823 141.046 54.238C140.357 54.277 137.757 54.381 137.081 54.42C136.782 54.446 136.496 54.459 136.21 54.498L136.184 53.432ZM154.051 52.015H158.146V52.912H155.013V60.413H154.051V52.015ZM161.051 62.818H168.214V63.598H161.051V62.818ZM160.596 60.491H168.708V64.001H167.707V61.271H161.545V64.04H160.596V60.491ZM159.53 53.523H169.709V54.29H159.53V53.523ZM159.179 56.786H170.112V57.553H159.179V56.786ZM160.323 55.161H168.903V55.889H160.323V55.161ZM158.789 58.944H170.45V59.724H158.789V58.944ZM164.08 53.861H165.081V59.282H164.08V53.861ZM161.324 52.353L162.195 52.093C162.559 52.509 162.91 53.094 163.079 53.484L162.156 53.796C162.026 53.406 161.662 52.795 161.324 52.353ZM160.752 57.748L161.623 57.501C161.961 57.891 162.286 58.424 162.429 58.788L161.493 59.074C161.376 58.697 161.051 58.138 160.752 57.748ZM166.901 52.067L167.902 52.288C167.59 52.834 167.226 53.38 166.94 53.744L166.082 53.536C166.355 53.12 166.719 52.496 166.901 52.067ZM167.499 57.514L168.474 57.722C168.175 58.216 167.863 58.697 167.577 59.022L166.706 58.827C166.966 58.463 167.317 57.891 167.499 57.514ZM177.826 54.758C177.332 54.251 176.474 53.458 175.928 53.042L176.669 52.509C177.098 52.847 178.086 53.666 178.567 54.173L177.826 54.758ZM173.692 53.627C173.796 53.848 174.017 54.264 174.147 54.511C174.654 55.421 175.278 56.734 175.811 57.917C176.513 59.542 177.345 61.947 177.787 63.39L176.669 63.689C176.266 62.142 175.642 60.062 174.901 58.359C174.29 56.994 173.705 55.733 173.263 54.992C173.107 54.732 172.847 54.316 172.639 54.056L173.692 53.627ZM171.391 57.423C171.768 57.332 172.223 57.176 172.457 57.072C174.264 56.383 177.423 54.615 179.581 54.615C181.388 54.615 182.48 55.629 182.48 57.046C182.48 58.554 181.531 59.685 179.503 59.685C178.775 59.685 178.034 59.503 177.553 59.321L177.579 58.294C178.086 58.528 178.736 58.723 179.425 58.723C180.855 58.723 181.44 57.93 181.44 57.007C181.44 56.24 180.829 55.525 179.555 55.525C177.384 55.525 173.536 57.774 171.898 58.489L171.391 57.423ZM187.672 64.118H183.577V63.221H186.71V55.72H187.672V64.118ZM201.158 52.912C201.106 53.146 201.054 53.432 201.002 53.679C200.911 54.147 200.742 55.213 200.56 56.019C200.118 57.852 199.195 61.089 197.726 63.455L196.66 63.039C198.142 61.05 199.182 57.579 199.533 55.993C199.78 54.953 199.949 53.783 199.949 52.782L201.158 52.912ZM205.63 54.407C206.436 55.46 207.567 57.826 208.009 59.022L206.995 59.503C206.618 58.177 205.591 55.915 204.681 54.836L205.63 54.407ZM196.478 55.759C196.881 55.785 197.219 55.772 197.635 55.759C198.61 55.733 201.249 55.447 202.133 55.447C203.29 55.447 204.239 55.889 204.239 57.644C204.239 59.191 204.031 61.258 203.485 62.337C203.082 63.208 202.432 63.429 201.587 63.429C201.093 63.429 200.469 63.338 200.066 63.234L199.884 62.155C200.43 62.324 201.119 62.415 201.483 62.415C201.964 62.415 202.354 62.311 202.614 61.752C203.03 60.868 203.238 59.178 203.238 57.774C203.238 56.578 202.692 56.357 201.86 56.357C200.989 56.357 198.545 56.656 197.752 56.734C197.453 56.773 196.92 56.838 196.582 56.89L196.478 55.759ZM205.773 52.522C206.098 52.99 206.566 53.783 206.839 54.316L206.137 54.628C205.877 54.095 205.435 53.315 205.071 52.821L205.773 52.522ZM207.203 52.002C207.554 52.483 208.048 53.302 208.308 53.783L207.593 54.095C207.32 53.523 206.891 52.782 206.514 52.301L207.203 52.002ZM212.591 52.873H220.196V63.936H219.26V53.744H213.501V64.04H212.591V52.873ZM214.034 55.629H218.818V56.396H214.034V55.629ZM213.085 62.389H219.78V63.26H213.085V62.389ZM216.01 54.16H216.803V58.281H216.01V54.16ZM215.334 58.554V60.569H217.531V58.554H215.334ZM214.58 57.826H218.311V61.31H214.58V57.826ZM211.239 52.145L212.136 52.405C211.395 54.628 210.186 56.864 208.886 58.359C208.808 58.125 208.535 57.592 208.366 57.358C209.536 56.084 210.602 54.121 211.239 52.145ZM210.16 55.33L211.07 54.407L211.083 54.42V64.066H210.16V55.33ZM38.824 71.483H39.903C39.799 73.524 39.604 80.011 34.222 82.936C34.053 82.689 33.728 82.39 33.429 82.169C38.733 79.465 38.733 73.212 38.824 71.483ZM39.864 71.743C39.903 72.757 40.28 79.66 45.636 82.117C45.35 82.338 45.051 82.663 44.895 82.936C39.383 80.297 39.019 73.03 38.928 71.834L39.864 71.743ZM47.183 73.173H51.135V81.675H47.183V80.791H50.225V74.044H47.183V73.173ZM46.598 73.173H47.508V82.715H46.598V73.173ZM47.118 76.787H50.706V77.658H47.118V76.787ZM48.587 71.054L49.64 71.249C49.38 72.055 49.055 72.952 48.795 73.537L48.015 73.342C48.236 72.718 48.483 71.73 48.587 71.054ZM52.981 73.134H56.972V74.044H52.981V73.134ZM56.634 73.134H57.544C57.544 73.134 57.544 73.498 57.544 73.641C57.336 79.608 57.154 81.623 56.634 82.26C56.348 82.637 56.049 82.754 55.594 82.793C55.152 82.845 54.385 82.819 53.657 82.78C53.631 82.494 53.514 82.091 53.332 81.831C54.177 81.896 54.957 81.909 55.256 81.909C55.516 81.909 55.672 81.87 55.815 81.701C56.244 81.233 56.452 79.075 56.634 73.342V73.134ZM53.254 71.028L54.19 71.249C53.709 73.186 52.942 75.097 52.045 76.332C51.876 76.176 51.473 75.903 51.239 75.773C52.123 74.629 52.838 72.835 53.254 71.028ZM52.656 76.514L53.41 76.072C54.151 76.995 55.048 78.256 55.464 79.023L54.632 79.543C54.242 78.75 53.371 77.463 52.656 76.514ZM63.875 73.225C65.292 73.472 67.931 73.42 69.218 73.225V74.278C67.827 74.434 65.305 74.434 63.888 74.278L63.875 73.225ZM64.382 78.529C64.265 78.997 64.2 79.361 64.2 79.712C64.2 80.31 64.616 80.895 66.397 80.895C67.554 80.895 68.568 80.791 69.608 80.544L69.634 81.636C68.828 81.805 67.736 81.909 66.384 81.909C64.213 81.909 63.238 81.181 63.238 79.959C63.238 79.53 63.303 79.062 63.446 78.438L64.382 78.529ZM61.405 72.224C61.327 72.445 61.223 72.861 61.171 73.095C60.924 74.304 60.521 76.618 60.521 78.087C60.521 78.711 60.56 79.257 60.638 79.894C60.859 79.309 61.158 78.529 61.379 77.996L61.925 78.425C61.6 79.348 61.119 80.713 61.002 81.337C60.963 81.519 60.937 81.766 60.937 81.922C60.95 82.052 60.963 82.234 60.976 82.377L60.053 82.442C59.793 81.519 59.572 80.024 59.572 78.256C59.572 76.345 60.001 74.122 60.157 73.043C60.196 72.744 60.235 72.419 60.248 72.133L61.405 72.224ZM71.558 77.307C73.807 76.709 75.783 75.786 77.226 74.889C78.591 74.031 79.891 72.913 80.788 71.821L81.659 72.64C80.541 73.797 79.176 74.889 77.655 75.838C76.225 76.722 74.158 77.671 72.065 78.321L71.558 77.307ZM77.018 75.422L78.136 75.084V81.025C78.136 81.506 78.162 82.156 78.227 82.403H76.94C76.979 82.156 77.018 81.506 77.018 81.025V75.422ZM85.078 72.965C86.053 73.017 88.029 72.965 89.446 72.77C90.629 72.614 92.15 72.302 92.787 72.016L93.476 72.926C93.19 73.004 92.943 73.069 92.748 73.121C91.994 73.303 90.785 73.537 89.745 73.68C88.289 73.875 86.495 73.914 85.338 73.94L85.078 72.965ZM85.806 81.831C88.016 80.791 89.121 79.166 89.121 76.488C89.121 76.488 89.121 75.318 89.121 73.537L90.161 73.394C90.161 74.408 90.161 76.462 90.161 76.462C90.161 79.231 89.251 81.142 86.82 82.533L85.806 81.831ZM84.064 76.059C84.35 76.085 84.805 76.124 85.208 76.124C86.04 76.124 92.956 76.124 93.762 76.124C94.035 76.124 94.516 76.098 94.789 76.072V77.138C94.503 77.112 94.1 77.099 93.775 77.099C92.995 77.099 86.027 77.099 85.221 77.099C84.805 77.099 84.376 77.112 84.064 77.138V76.059ZM100.652 71.873H107.477V79.231H106.502V72.783H101.588V79.27H100.652V71.873ZM101.211 74.746H106.892V75.63H101.211V74.746ZM101.211 77.645H106.892V78.542H101.211V77.645ZM103.577 72.211H104.5V83.027H103.577V72.211ZM95.894 77.97C96.96 77.697 98.494 77.281 99.989 76.839L100.106 77.736C98.741 78.152 97.298 78.581 96.18 78.906L95.894 77.97ZM96.05 73.706H100.041V74.629H96.05V73.706ZM97.662 71.093H98.598V81.857C98.598 82.39 98.481 82.637 98.156 82.793C97.818 82.936 97.324 82.962 96.492 82.962C96.453 82.728 96.336 82.325 96.219 82.091C96.765 82.104 97.272 82.091 97.428 82.091C97.597 82.078 97.662 82.026 97.662 81.857V71.093ZM112.3 71.873C112.235 72.302 112.196 72.757 112.17 73.186C112.118 74.655 112.014 77.736 112.014 79.673C112.014 81.103 112.911 81.597 114.146 81.597C116.525 81.597 117.877 80.271 118.813 78.919L119.541 79.803C118.657 81.038 116.967 82.663 114.12 82.663C112.248 82.663 110.961 81.896 110.961 79.764C110.961 77.84 111.091 74.551 111.091 73.186C111.091 72.705 111.052 72.25 110.974 71.873H112.3ZM122.882 78.841C123.974 78.841 124.858 79.725 124.858 80.817C124.858 81.909 123.974 82.793 122.882 82.793C121.79 82.793 120.893 81.909 120.893 80.817C120.893 79.725 121.79 78.841 122.882 78.841ZM122.882 82.13C123.61 82.13 124.195 81.545 124.195 80.817C124.195 80.089 123.61 79.504 122.882 79.504C122.154 79.504 121.556 80.089 121.556 80.817C121.556 81.545 122.154 82.13 122.882 82.13Z" fill="white"/>
<path d="M5 0.6L250 0.6C252.43 0.6 254.4 2.56995 254.4 5V93C254.4 95.4301 252.43 97.4 250 97.4H5C2.56995 97.4 0.6 95.4301 0.6 93L0.6 5C0.6 2.56995 2.56995 0.6 5 0.6Z" stroke="white" stroke-width="1.2"/>
</svg>
