<svg width="255" height="98" viewBox="0 0 255 98" fill="none" xmlns="http://www.w3.org/2000/svg">
<path d="M0.4 5C0.4 2.45949 2.45949 0.4 5 0.4L250 0.4C252.541 0.4 254.6 2.45949 254.6 5V93C254.6 95.5405 252.541 97.6 250 97.6H5C2.45949 97.6 0.4 95.5405 0.4 93L0.4 5Z" stroke="white" stroke-width="0.8"/>
<path d="M108.969 46.1002C109.749 46.1002 110.445 46.2622 111.057 46.5862C111.681 46.9102 112.167 47.3902 112.515 48.0262C112.875 48.6622 113.055 49.4302 113.055 50.3302V56.1802H111.021V50.6362C111.021 49.7482 110.799 49.0702 110.355 48.6022C109.911 48.1222 109.305 47.8822 108.537 47.8822C107.769 47.8822 107.157 48.1222 106.701 48.6022C106.257 49.0702 106.035 49.7482 106.035 50.6362V56.1802H104.001V50.6362C104.001 49.7482 103.779 49.0702 103.335 48.6022C102.891 48.1222 102.285 47.8822 101.517 47.8822C100.749 47.8822 100.137 48.1222 99.6813 48.6022C99.2373 49.0702 99.0153 49.7482 99.0153 50.6362V56.1802H96.9633V46.2622H99.0153V47.3962C99.3513 46.9882 99.7773 46.6702 100.293 46.4422C100.809 46.2142 101.361 46.1002 101.949 46.1002C102.741 46.1002 103.449 46.2682 104.073 46.6042C104.697 46.9402 105.177 47.4262 105.513 48.0622C105.813 47.4622 106.281 46.9882 106.917 46.6402C107.553 46.2802 108.237 46.1002 108.969 46.1002ZM114.982 51.1762C114.982 50.1802 115.186 49.2982 115.594 48.5302C116.014 47.7622 116.578 47.1682 117.286 46.7482C118.006 46.3162 118.798 46.1002 119.662 46.1002C120.442 46.1002 121.12 46.2562 121.696 46.5682C122.284 46.8682 122.752 47.2462 123.1 47.7022V46.2622H125.17V56.1802H123.1V54.7042C122.752 55.1722 122.278 55.5622 121.678 55.8742C121.078 56.1862 120.394 56.3422 119.626 56.3422C118.774 56.3422 117.994 56.1262 117.286 55.6942C116.578 55.2502 116.014 54.6382 115.594 53.8582C115.186 53.0662 114.982 52.1722 114.982 51.1762ZM123.1 51.2122C123.1 50.5282 122.956 49.9342 122.668 49.4302C122.392 48.9262 122.026 48.5422 121.57 48.2782C121.114 48.0142 120.622 47.8822 120.094 47.8822C119.566 47.8822 119.074 48.0142 118.618 48.2782C118.162 48.5302 117.79 48.9082 117.502 49.4122C117.226 49.9042 117.088 50.4922 117.088 51.1762C117.088 51.8602 117.226 52.4602 117.502 52.9762C117.79 53.4922 118.162 53.8882 118.618 54.1642C119.086 54.4282 119.578 54.5602 120.094 54.5602C120.622 54.5602 121.114 54.4282 121.57 54.1642C122.026 53.9002 122.392 53.5162 122.668 53.0122C122.956 52.4962 123.1 51.8962 123.1 51.2122ZM129.684 54.5062H134.184V56.1802H127.308V54.5062L131.826 47.9362H127.308V46.2622H134.184V47.9362L129.684 54.5062ZM135.654 51.1762C135.654 50.1802 135.858 49.2982 136.266 48.5302C136.686 47.7622 137.25 47.1682 137.958 46.7482C138.678 46.3162 139.476 46.1002 140.352 46.1002C141 46.1002 141.636 46.2442 142.26 46.5322C142.896 46.8082 143.4 47.1802 143.772 47.6482V42.8602H145.842V56.1802H143.772V54.6862C143.436 55.1662 142.968 55.5622 142.368 55.8742C141.78 56.1862 141.102 56.3422 140.334 56.3422C139.47 56.3422 138.678 56.1262 137.958 55.6942C137.25 55.2502 136.686 54.6382 136.266 53.8582C135.858 53.0662 135.654 52.1722 135.654 51.1762ZM143.772 51.2122C143.772 50.5282 143.628 49.9342 143.34 49.4302C143.064 48.9262 142.698 48.5422 142.242 48.2782C141.786 48.0142 141.294 47.8822 140.766 47.8822C140.238 47.8822 139.746 48.0142 139.29 48.2782C138.834 48.5302 138.462 48.9082 138.174 49.4122C137.898 49.9042 137.76 50.4922 137.76 51.1762C137.76 51.8602 137.898 52.4602 138.174 52.9762C138.462 53.4922 138.834 53.8882 139.29 54.1642C139.758 54.4282 140.25 54.5602 140.766 54.5602C141.294 54.5602 141.786 54.4282 142.242 54.1642C142.698 53.9002 143.064 53.5162 143.34 53.0122C143.628 52.4962 143.772 51.8962 143.772 51.2122ZM147.854 51.1762C147.854 50.1802 148.058 49.2982 148.466 48.5302C148.886 47.7622 149.45 47.1682 150.158 46.7482C150.878 46.3162 151.67 46.1002 152.534 46.1002C153.314 46.1002 153.992 46.2562 154.568 46.5682C155.156 46.8682 155.624 47.2462 155.972 47.7022V46.2622H158.042V56.1802H155.972V54.7042C155.624 55.1722 155.15 55.5622 154.55 55.8742C153.95 56.1862 153.266 56.3422 152.498 56.3422C151.646 56.3422 150.866 56.1262 150.158 55.6942C149.45 55.2502 148.886 54.6382 148.466 53.8582C148.058 53.0662 147.854 52.1722 147.854 51.1762ZM155.972 51.2122C155.972 50.5282 155.828 49.9342 155.54 49.4302C155.264 48.9262 154.898 48.5422 154.442 48.2782C153.986 48.0142 153.494 47.8822 152.966 47.8822C152.438 47.8822 151.946 48.0142 151.49 48.2782C151.034 48.5302 150.662 48.9082 150.374 49.4122C150.098 49.9042 149.96 50.4922 149.96 51.1762C149.96 51.8602 150.098 52.4602 150.374 52.9762C150.662 53.4922 151.034 53.8882 151.49 54.1642C151.958 54.4282 152.45 54.5602 152.966 54.5602C153.494 54.5602 153.986 54.4282 154.442 54.1642C154.898 53.9002 155.264 53.5162 155.54 53.0122C155.828 52.4962 155.972 51.8962 155.972 51.2122Z" fill="white"/>
</svg>
