<svg width="255" height="98" viewBox="0 0 255 98" fill="none" xmlns="http://www.w3.org/2000/svg">
<path d="M0.4 5C0.4 2.45949 2.45949 0.4 5 0.4L250 0.4C252.541 0.4 254.6 2.45949 254.6 5V93C254.6 95.5405 252.541 97.6 250 97.6H5C2.45949 97.6 0.4 95.5405 0.4 93L0.4 5Z" stroke="white" stroke-width="0.8"/>
<path d="M111.606 48.0622L113.154 48.4402C112.326 50.9782 111.156 54.2002 110.202 56.1982L109.014 55.8202C109.95 53.7682 111.048 50.4382 111.606 48.0622ZM107.34 55.5502C109.59 55.4422 113.172 55.2442 116.628 55.0462L116.61 56.2882C113.37 56.5222 109.932 56.7742 107.574 56.9182L107.34 55.5502ZM113.748 51.9322L114.9 51.3742C116.106 53.1562 117.438 55.5142 117.978 57.0082L116.718 57.6562C116.214 56.1622 114.936 53.7502 113.748 51.9322ZM110.31 41.4202L111.714 41.6902C111.03 44.5702 109.914 47.2882 108.51 49.0522C108.258 48.8182 107.682 48.3862 107.34 48.1882C108.744 46.5862 109.752 44.0662 110.31 41.4202ZM114.918 41.3662C115.584 43.7422 116.862 46.4602 117.978 47.9002C117.636 48.1522 117.132 48.6382 116.88 48.9982C115.692 47.3242 114.45 44.3542 113.712 41.7622L114.918 41.3662ZM101.418 44.9302H107.754V46.2082H101.418V44.9302ZM104.136 41.0602H105.414V57.6022H104.136V41.0602ZM104.064 45.7222L104.928 46.0282C104.334 48.9082 103.038 52.4362 101.688 54.2542C101.544 53.8942 101.22 53.3542 100.986 53.0482C102.264 51.4282 103.524 48.3142 104.064 45.7222ZM105.324 47.6662C105.792 48.1702 107.52 50.3662 107.88 50.9062L107.052 51.9682C106.602 51.0682 105.198 49.0162 104.658 48.2962L105.324 47.6662ZM119.724 42.1402H135.312V43.4542H119.724V42.1402ZM122.262 50.5102H133.152V51.7702H122.262V50.5102ZM122.37 45.4162H133.944V52.7602H132.576V46.6762H122.37V45.4162ZM121.47 45.4162H122.838V49.5022C122.838 52.0042 122.442 55.4602 120.156 57.7102C119.958 57.4222 119.4 56.9542 119.094 56.7742C121.236 54.6682 121.47 51.7522 121.47 49.4842V45.4162ZM144.726 40.9882H146.148V44.3542H144.726V40.9882ZM144.744 44.7862H146.13V57.6742H144.744V44.7862ZM137.4 43.5622H153.618V44.8762H137.4V43.5622ZM139.254 47.3422H151.08V48.6562H140.604V55.3882H139.254V47.3422ZM150.558 47.3422H151.944V53.6782C151.944 54.4522 151.764 54.8662 151.17 55.1002C150.54 55.3162 149.532 55.3342 147.984 55.3342C147.93 54.9202 147.714 54.3802 147.516 54.0022C148.74 54.0382 149.838 54.0382 150.144 54.0202C150.468 54.0022 150.558 53.9302 150.558 53.6782V47.3422Z" fill="white"/>
</svg>
