<svg width="255" height="98" viewBox="0 0 255 98" fill="none" xmlns="http://www.w3.org/2000/svg">
<path d="M41.021 21.137L42.139 21.41C41.541 23.243 40.696 25.57 40.007 27.013L39.149 26.74C39.825 25.258 40.618 22.853 41.021 21.137ZM37.94 26.545C39.565 26.467 42.152 26.324 44.648 26.181L44.635 27.078C42.295 27.247 39.812 27.429 38.109 27.533L37.94 26.545ZM42.568 23.932L43.4 23.529C44.271 24.816 45.233 26.519 45.623 27.598L44.713 28.066C44.349 26.987 43.426 25.245 42.568 23.932ZM40.085 16.34L41.099 16.535C40.605 18.615 39.799 20.578 38.785 21.852C38.603 21.683 38.187 21.371 37.94 21.228C38.954 20.071 39.682 18.251 40.085 16.34ZM43.413 16.301C43.894 18.017 44.817 19.98 45.623 21.02C45.376 21.202 45.012 21.553 44.83 21.813C43.972 20.604 43.075 18.459 42.542 16.587L43.413 16.301ZM33.663 18.875H38.239V19.798H33.663V18.875ZM35.626 16.08H36.549V28.027H35.626V16.08ZM35.574 19.447L36.198 19.668C35.769 21.748 34.833 24.296 33.858 25.609C33.754 25.349 33.52 24.959 33.351 24.738C34.274 23.568 35.184 21.319 35.574 19.447ZM36.484 20.851C36.822 21.215 38.07 22.801 38.33 23.191L37.732 23.958C37.407 23.308 36.393 21.826 36.003 21.306L36.484 20.851ZM46.3953 16.86H57.6533V17.809H46.3953V16.86ZM48.2283 22.905H56.0933V23.815H48.2283V22.905ZM48.3063 19.226H56.6653V24.53H55.6773V20.136H48.3063V19.226ZM47.6563 19.226H48.6443V22.177C48.6443 23.984 48.3583 26.48 46.7073 28.105C46.5643 27.897 46.1613 27.559 45.9403 27.429C47.4873 25.908 47.6563 23.802 47.6563 22.164V19.226ZM63.9635 16.028H64.9905V18.459H63.9635V16.028ZM63.9765 18.771H64.9775V28.079H63.9765V18.771ZM58.6725 17.887H70.3855V18.836H58.6725V17.887ZM60.0115 20.617H68.5525V21.566H60.9865V26.428H60.0115V20.617ZM68.1755 20.617H69.1765V25.193C69.1765 25.752 69.0465 26.051 68.6175 26.22C68.1625 26.376 67.4345 26.389 66.3165 26.389C66.2775 26.09 66.1215 25.7 65.9785 25.427C66.8625 25.453 67.6555 25.453 67.8765 25.44C68.1105 25.427 68.1755 25.375 68.1755 25.193V20.617ZM78.1648 20.474H83.0008V21.384H78.1648V20.474ZM71.3268 17.445H77.0598V18.277H71.3268V17.445ZM71.1838 22.606H77.1248V23.451H71.1838V22.606ZM71.1448 20.422H77.2158V21.254H71.1448V20.422ZM80.5828 20.838H81.5318V27.975H80.5828V20.838ZM73.7318 16.132H74.6808V17.874H73.7318V16.132ZM73.7318 21.098H74.6808V28.027H73.7318V21.098ZM77.6968 17.146L78.8928 17.51C78.8798 17.614 78.8018 17.666 78.6198 17.692V21.709C78.6198 23.659 78.3858 26.298 76.5528 28.105C76.4358 27.884 76.0848 27.559 75.8508 27.429C77.5148 25.791 77.6968 23.542 77.6968 21.696V17.146ZM82.0518 16.236L82.8318 16.951C81.6098 17.497 79.7898 17.939 78.2298 18.212C78.1778 18.004 78.0478 17.666 77.9308 17.471C79.3868 17.159 81.1028 16.704 82.0518 16.236ZM74.5898 23.698C75.0058 23.984 76.4228 25.141 76.7478 25.44L76.1758 26.168C75.7598 25.687 74.5378 24.543 74.0568 24.14L74.5898 23.698ZM72.1068 18.511L72.8738 18.342C73.1468 18.914 73.3678 19.681 73.4328 20.175L72.6138 20.396C72.5748 19.889 72.3668 19.109 72.1068 18.511ZM75.4348 18.316L76.3188 18.511C76.0718 19.161 75.7988 19.889 75.5648 20.37L74.7848 20.188C75.0188 19.668 75.2918 18.862 75.4348 18.316ZM73.7448 23.035L74.4468 23.308C73.7838 24.751 72.5878 26.285 71.5478 27.091C71.3918 26.87 71.1058 26.558 70.8848 26.402C71.9378 25.713 73.1208 24.309 73.7448 23.035ZM91.066 21.137L92.184 21.41C91.586 23.243 90.741 25.57 90.052 27.013L89.194 26.74C89.87 25.258 90.663 22.853 91.066 21.137ZM87.985 26.545C89.61 26.467 92.197 26.324 94.693 26.181L94.68 27.078C92.34 27.247 89.857 27.429 88.154 27.533L87.985 26.545ZM92.613 23.932L93.445 23.529C94.316 24.816 95.278 26.519 95.668 27.598L94.758 28.066C94.394 26.987 93.471 25.245 92.613 23.932ZM90.13 16.34L91.144 16.535C90.65 18.615 89.844 20.578 88.83 21.852C88.648 21.683 88.232 21.371 87.985 21.228C88.999 20.071 89.727 18.251 90.13 16.34ZM93.458 16.301C93.939 18.017 94.862 19.98 95.668 21.02C95.421 21.202 95.057 21.553 94.875 21.813C94.017 20.604 93.12 18.459 92.587 16.587L93.458 16.301ZM83.708 18.875H88.284V19.798H83.708V18.875ZM85.671 16.08H86.594V28.027H85.671V16.08ZM85.619 19.447L86.243 19.668C85.814 21.748 84.878 24.296 83.903 25.609C83.799 25.349 83.565 24.959 83.396 24.738C84.319 23.568 85.229 21.319 85.619 19.447ZM86.529 20.851C86.867 21.215 88.115 22.801 88.375 23.191L87.777 23.958C87.452 23.308 86.438 21.826 86.048 21.306L86.529 20.851ZM96.4403 16.86H107.698V17.809H96.4403V16.86ZM98.2733 22.905H106.138V23.815H98.2733V22.905ZM98.3513 19.226H106.71V24.53H105.722V20.136H98.3513V19.226ZM97.7013 19.226H98.6893V22.177C98.6893 23.984 98.4033 26.48 96.7523 28.105C96.6093 27.897 96.2063 27.559 95.9853 27.429C97.5323 25.908 97.7013 23.802 97.7013 22.164V19.226ZM115.023 16.613H115.933V21.566C115.933 23.568 115.764 26.298 114.477 28.066C114.321 27.91 113.918 27.663 113.697 27.572C114.919 25.869 115.023 23.451 115.023 21.566V16.613ZM117.922 21.449C118.286 24.075 119.079 26.272 120.678 27.299C120.457 27.494 120.158 27.832 120.015 28.092C118.299 26.857 117.48 24.543 117.077 21.592L117.922 21.449ZM115.504 16.613H120.093V21.943H115.504V21.046H119.196V17.523H115.504V16.613ZM109.68 18.589H113.762V19.369H109.68V18.589ZM109.68 20.552H113.762V21.332H109.68V20.552ZM109.199 22.528H113.632V23.321H109.199V22.528ZM111.305 17.068H112.111V22.957H111.305V17.068ZM111.929 23.971L112.384 23.802C112.722 24.322 113.034 25.024 113.164 25.479L112.67 25.687C112.566 25.219 112.241 24.504 111.929 23.971ZM110.993 24.192L111.487 24.101C111.76 24.751 111.981 25.609 112.033 26.181L111.513 26.298C111.461 25.739 111.24 24.855 110.993 24.192ZM110.031 24.335L110.538 24.27C110.681 25.024 110.772 26.012 110.759 26.649L110.213 26.727C110.239 26.077 110.161 25.102 110.031 24.335ZM109.108 24.062L109.719 24.179C109.641 25.375 109.511 26.649 108.991 27.364L108.432 27.052C108.913 26.376 109.056 25.206 109.108 24.062ZM109.199 16.613H114.009V17.432H110.044V22.918H109.199V16.613ZM113.281 22.528H114.126C114.126 22.528 114.126 22.801 114.113 22.918C113.944 26.142 113.801 27.299 113.476 27.689C113.268 27.923 113.073 28.014 112.761 28.04C112.501 28.066 112.033 28.053 111.552 28.027C111.539 27.793 111.461 27.455 111.331 27.234C111.799 27.273 112.202 27.286 112.384 27.286C112.553 27.286 112.67 27.26 112.748 27.143C112.995 26.87 113.151 25.765 113.281 22.684V22.528ZM126.481 19.915H132.955V20.838H126.481V19.915ZM129.562 20.331H130.524V26.207H129.562V20.331ZM125.961 16.964L127.196 17.237C127.183 17.328 127.105 17.38 126.923 17.419V20.006C126.923 21.735 126.676 24.166 125.077 25.882C124.96 25.661 124.609 25.336 124.375 25.206C125.792 23.659 125.961 21.605 125.961 19.98V16.964ZM131.408 16.132L132.24 16.873C130.732 17.38 128.535 17.757 126.637 17.978C126.585 17.757 126.442 17.406 126.325 17.198C128.145 16.951 130.238 16.561 131.408 16.132ZM123.972 21.215V25.817H123.023V22.125H121.203V21.215H123.972ZM123.972 25.388C124.583 26.35 125.74 26.792 127.235 26.857C128.652 26.909 131.577 26.87 133.111 26.766C133.007 27 132.838 27.468 132.799 27.767C131.369 27.819 128.678 27.845 127.235 27.793C125.545 27.728 124.375 27.273 123.543 26.246C122.919 26.805 122.256 27.364 121.554 27.936L121.034 26.935C121.658 26.519 122.425 25.947 123.088 25.388H123.972ZM121.346 16.99L122.061 16.405C122.919 16.951 123.894 17.796 124.349 18.433L123.582 19.07C123.166 18.446 122.191 17.562 121.346 16.99ZM142.242 17.419C141.956 17.627 141.553 17.978 141.345 18.16C140.448 18.94 138.576 20.409 137.614 21.215C136.834 21.891 136.821 22.086 137.666 22.788C138.849 23.763 141.15 25.609 142.528 27L141.605 27.845C141.332 27.533 141.02 27.221 140.708 26.896C139.785 25.96 137.822 24.27 136.6 23.269C135.378 22.242 135.521 21.683 136.691 20.695C137.679 19.876 139.655 18.316 140.526 17.432C140.786 17.172 141.124 16.795 141.267 16.561L142.242 17.419ZM152.92 18.134C152.751 19.486 152.491 21.007 152.088 22.398C151.295 25.063 150.255 26.441 149.059 26.441C147.889 26.441 146.732 25.115 146.732 22.957C146.732 20.136 149.241 17.679 152.426 17.679C155.468 17.679 157.405 19.824 157.405 22.463C157.405 25.18 155.611 27 152.517 27.403L151.919 26.441C152.335 26.402 152.725 26.35 153.037 26.285C154.701 25.908 156.339 24.66 156.339 22.411C156.339 20.331 154.896 18.615 152.4 18.615C149.54 18.615 147.759 20.968 147.759 22.879C147.759 24.517 148.5 25.245 149.085 25.245C149.696 25.245 150.398 24.361 151.061 22.164C151.438 20.929 151.711 19.46 151.841 18.108L152.92 18.134ZM163.534 20.799L164.678 21.085C163.859 23.048 162.728 25.479 161.766 27.052L160.869 26.766C161.792 25.167 162.923 22.632 163.534 20.799ZM159.27 26.467C161.649 26.389 165.432 26.233 168.916 26.064L168.89 27C165.484 27.195 161.844 27.39 159.4 27.494L159.27 26.467ZM166.03 23.646L166.966 23.217C168.149 24.582 169.488 26.389 170.138 27.572L169.15 28.105C168.539 26.922 167.187 25.024 166.03 23.646ZM162.221 16.47L163.3 16.769C162.429 18.862 161.064 20.851 159.686 22.138C159.478 21.943 159.023 21.592 158.75 21.436C160.18 20.266 161.467 18.394 162.221 16.47ZM166.875 16.457C167.733 18.16 169.371 20.214 170.567 21.293C170.307 21.501 169.943 21.878 169.748 22.125C168.539 20.89 166.914 18.68 165.913 16.86L166.875 16.457ZM174.264 16.197H175.265V23.477H174.264V16.197ZM178.97 16.197H179.984V23.477H178.97V16.197ZM171.248 22.866H183.052V23.815H171.248V22.866ZM171.768 18.836H182.584V19.772H171.768V18.836ZM178.255 25.05L179.1 24.556C180.309 25.414 181.934 26.662 182.766 27.442L181.843 28.04C181.063 27.26 179.49 25.973 178.255 25.05ZM174.888 24.569L175.902 24.959C174.979 26.103 173.497 27.299 172.184 28.053C171.989 27.845 171.651 27.546 171.417 27.364C172.704 26.675 174.16 25.544 174.888 24.569ZM188.829 23.672H191.468V24.374H188.829V23.672ZM188.101 17.38H192.196V18.147H188.101V17.38ZM187.724 20.227H195.628V21.033H187.724V20.227ZM188.998 21.813H191.91V26.272H188.998V25.544H191.117V22.541H188.998V21.813ZM188.426 21.813H189.206V27.091H188.426V21.813ZM189.674 16.106H190.532V17.926H189.674V16.106ZM194.445 21.696L195.264 21.865C194.536 24.608 193.171 26.701 191.26 28.04C191.143 27.884 190.844 27.546 190.649 27.39C192.547 26.207 193.808 24.218 194.445 21.696ZM188.491 18.381L189.167 18.225C189.414 18.797 189.583 19.551 189.609 20.058L188.894 20.227C188.881 19.733 188.712 18.966 188.491 18.381ZM193.587 16.925L194.263 16.574C194.835 17.211 195.394 18.095 195.641 18.693L194.926 19.083C194.692 18.485 194.133 17.575 193.587 16.925ZM190.974 18.199L191.767 18.381C191.559 19.005 191.351 19.733 191.169 20.201L190.519 20.045C190.688 19.525 190.896 18.732 190.974 18.199ZM183.785 16.652H188.127V17.523H183.785V16.652ZM184.799 19.382H187.139V20.201H184.799V19.382ZM184.799 22.06H187.139V22.892H184.799V22.06ZM184.396 17.094H185.215V25.414H184.396V17.094ZM186.645 17.081H187.49V28.053H186.645V17.081ZM183.564 25.284C184.461 25.128 185.761 24.868 187.087 24.595L187.152 25.453C185.93 25.713 184.708 25.986 183.733 26.194L183.564 25.284ZM192.495 16.106H193.379C193.379 21.904 193.795 26.857 194.64 26.896C194.835 26.896 194.991 26.168 195.069 24.946C195.225 25.141 195.576 25.375 195.732 25.453C195.485 27.494 195.017 28.027 194.601 28.014C192.898 27.988 192.599 22.801 192.495 16.106ZM196.465 24.114H207.853V24.933H196.465V24.114ZM196.517 18.407H207.801V19.239H196.517V18.407ZM197.037 20.63H207.333V21.436H197.037V20.63ZM197.7 22.385H206.696V23.139H197.7V22.385ZM201.639 21.007H202.601V28.053H201.639V21.007ZM200.443 16.08H201.366V18.797H200.443V16.08ZM202.9 16.08H203.836V18.758H202.9V16.08ZM201.327 24.439L202.107 24.803C200.898 26.155 198.701 27.286 196.764 27.832C196.621 27.585 196.335 27.208 196.127 27C198.051 26.571 200.222 25.57 201.327 24.439ZM202.913 24.413C204.018 25.583 206.202 26.584 208.178 27C207.957 27.208 207.658 27.598 207.515 27.871C205.539 27.325 203.368 26.142 202.146 24.738L202.913 24.413ZM205.916 16.236L206.917 16.509C206.54 17.224 206.072 17.991 205.708 18.498L204.915 18.238C205.266 17.692 205.695 16.834 205.916 16.236ZM204.174 18.992L205.188 19.239C204.863 19.824 204.525 20.422 204.239 20.838L203.42 20.591C203.68 20.136 204.018 19.46 204.174 18.992ZM197.57 16.509L198.402 16.21C198.844 16.795 199.325 17.614 199.507 18.147L198.636 18.472C198.454 17.952 197.986 17.12 197.57 16.509ZM199.26 19.33L200.183 19.148C200.482 19.577 200.781 20.162 200.898 20.552L199.936 20.76C199.832 20.37 199.546 19.759 199.26 19.33ZM216.738 17.055H217.609V26.688H216.738V17.055ZM219.208 16.431H220.144V28.027H219.208V16.431ZM214.346 16.535H215.23V21.241C215.23 23.698 215.087 26.168 213.8 28.079C213.631 27.884 213.28 27.611 213.046 27.481C214.203 25.726 214.346 23.477 214.346 21.241V16.535ZM209.263 20.019H213.137V20.799H209.263V20.019ZM209.328 16.548H213.111V17.328H209.328V16.548ZM209.263 21.761H213.137V22.541H209.263V21.761ZM208.652 18.251H213.592V19.057H208.652V18.251ZM209.731 23.516H213.137V27.312H209.731V26.493H212.279V24.322H209.731V23.516ZM209.25 23.516H210.095V27.91H209.25V23.516ZM41.268 41.49H42.191V46.04H41.268V41.49ZM38.148 35.393H45.285V36.251H38.148V35.393ZM39.435 39.943V41.087H44.089V39.943H39.435ZM39.435 38.084V39.228H44.089V38.084H39.435ZM38.551 37.343H44.999V41.828H38.551V37.343ZM42.334 41.36C43.075 42.647 44.505 44.064 45.753 44.753C45.519 44.922 45.233 45.247 45.077 45.494C43.829 44.675 42.412 43.102 41.619 41.646L42.334 41.36ZM41.086 41.399L41.853 41.672C41.034 43.271 39.552 44.805 38.135 45.598C37.979 45.364 37.68 45.026 37.472 44.844C38.863 44.181 40.332 42.79 41.086 41.399ZM41.268 34.093H42.191V37.772H42.152V41.581H41.307V37.772H41.268V34.093ZM35.548 34.093L36.406 34.418C35.912 35.38 35.301 36.55 34.794 37.265L34.131 36.979C34.599 36.225 35.21 34.951 35.548 34.093ZM37.004 35.575L37.823 35.952C36.926 37.395 35.665 39.241 34.69 40.372L34.092 40.034C35.067 38.877 36.289 36.94 37.004 35.575ZM33.468 36.797L33.988 36.173C34.69 36.81 35.483 37.681 35.821 38.279L35.262 39.007C34.937 38.383 34.157 37.46 33.468 36.797ZM36.497 38.552L37.199 38.253C37.745 39.111 38.278 40.229 38.46 40.944L37.693 41.295C37.524 40.567 37.017 39.41 36.497 38.552ZM33.364 39.839C34.495 39.787 36.12 39.709 37.758 39.618V40.437C36.211 40.541 34.651 40.632 33.468 40.71L33.364 39.839ZM36.861 41.685L37.576 41.464C37.901 42.192 38.174 43.141 38.252 43.752L37.498 43.999C37.433 43.375 37.16 42.4 36.861 41.685ZM34.144 41.516L34.963 41.659C34.794 42.894 34.495 44.142 34.079 44.974C33.923 44.87 33.533 44.701 33.338 44.61C33.754 43.817 34.001 42.647 34.144 41.516ZM35.522 40.216H36.38V46.04H35.522V40.216ZM51.6139 36.004H58.7639V36.914H51.6139V36.004ZM54.6949 34.08H55.6439V36.433H54.6949V34.08ZM53.3429 37.291L54.2269 37.668C53.6939 38.734 52.8749 39.852 51.9909 40.619C51.8479 40.437 51.5359 40.164 51.3149 40.008C52.1469 39.319 52.9269 38.227 53.3429 37.291ZM56.0599 37.694L56.8139 37.265C57.6589 38.097 58.5819 39.254 58.9979 40.034L58.1659 40.515C57.8019 39.735 56.8919 38.539 56.0599 37.694ZM53.7589 39.67C54.6689 42.205 56.5409 44.324 59.0109 45.221C58.7899 45.416 58.4779 45.806 58.3349 46.079C55.7739 45.013 53.9279 42.751 52.9139 39.917L53.7589 39.67ZM56.3849 39.605L57.3599 39.813C56.5019 42.621 54.7079 44.896 51.6139 46.092C51.5099 45.871 51.2759 45.507 51.1069 45.325C54.0059 44.246 55.7089 42.127 56.3849 39.605ZM47.0899 36.875H51.5099V37.798H47.0899V36.875ZM49.0139 34.08H49.9239V46.027H49.0139V34.08ZM48.9749 37.447L49.5859 37.655C49.1829 39.735 48.2859 42.283 47.3499 43.596C47.2459 43.336 47.0119 42.959 46.8429 42.738C47.7269 41.568 48.5979 39.319 48.9749 37.447ZM49.8589 38.708C50.1839 39.072 51.3669 40.775 51.6269 41.178L51.0679 41.932C50.7429 41.256 49.7679 39.67 49.3909 39.124L49.8589 38.708ZM62.3758 41.841C63.4678 41.841 64.3518 42.725 64.3518 43.817C64.3518 44.909 63.4678 45.793 62.3758 45.793C61.2838 45.793 60.3868 44.909 60.3868 43.817C60.3868 42.725 61.2838 41.841 62.3758 41.841ZM62.3758 45.13C63.1038 45.13 63.6888 44.545 63.6888 43.817C63.6888 43.089 63.1038 42.504 62.3758 42.504C61.6478 42.504 61.0498 43.089 61.0498 43.817C61.0498 44.545 61.6478 45.13 62.3758 45.13ZM85.3448 35.913L82.7708 45H81.7568L79.4688 37.252L77.1288 45L76.1408 45.013L73.6188 35.913H74.5938L76.6738 43.882L79.0008 35.913H80.0148L82.2768 43.882L84.3698 35.913H85.3448ZM92.6388 41.087C92.6388 41.399 92.6301 41.6373 92.6128 41.802H86.7238C86.7498 42.3393 86.8798 42.7987 87.1138 43.18C87.3478 43.5613 87.6554 43.8517 88.0368 44.051C88.4181 44.2417 88.8341 44.337 89.2848 44.337C89.8741 44.337 90.3681 44.194 90.7668 43.908C91.1741 43.622 91.4428 43.2363 91.5728 42.751H92.5348C92.3614 43.4443 91.9888 44.012 91.4168 44.454C90.8534 44.8873 90.1428 45.104 89.2848 45.104C88.6174 45.104 88.0194 44.9567 87.4908 44.662C86.9621 44.3587 86.5461 43.934 86.2428 43.388C85.9481 42.8333 85.8008 42.1877 85.8008 41.451C85.8008 40.7143 85.9481 40.0687 86.2428 39.514C86.5374 38.9593 86.9491 38.5347 87.4778 38.24C88.0064 37.9453 88.6088 37.798 89.2848 37.798C89.9608 37.798 90.5501 37.9453 91.0528 38.24C91.5641 38.5347 91.9541 38.9333 92.2228 39.436C92.5001 39.93 92.6388 40.4803 92.6388 41.087ZM91.7158 41.061C91.7244 40.5323 91.6161 40.0817 91.3908 39.709C91.1741 39.3363 90.8751 39.0547 90.4938 38.864C90.1124 38.6733 89.6964 38.578 89.2458 38.578C88.5698 38.578 87.9934 38.7947 87.5168 39.228C87.0401 39.6613 86.7758 40.2723 86.7238 41.061H91.7158ZM94.6807 39.475C94.9147 38.981 95.2744 38.578 95.7597 38.266C96.2537 37.954 96.8344 37.798 97.5017 37.798C98.1517 37.798 98.7324 37.9497 99.2437 38.253C99.755 38.5477 100.154 38.9723 100.44 39.527C100.734 40.073 100.882 40.71 100.882 41.438C100.882 42.166 100.734 42.8073 100.44 43.362C100.154 43.9167 99.7507 44.3457 99.2307 44.649C98.7194 44.9523 98.143 45.104 97.5017 45.104C96.8257 45.104 96.2407 44.9523 95.7467 44.649C95.2614 44.337 94.906 43.934 94.6807 43.44V45H93.7837V35.38H94.6807V39.475ZM99.9587 41.438C99.9587 40.8487 99.8417 40.3417 99.6077 39.917C99.3824 39.4837 99.0704 39.1543 98.6717 38.929C98.273 38.7037 97.8224 38.591 97.3197 38.591C96.8344 38.591 96.388 38.708 95.9807 38.942C95.582 39.176 95.2657 39.5097 95.0317 39.943C94.7977 40.3763 94.6807 40.879 94.6807 41.451C94.6807 42.023 94.7977 42.5257 95.0317 42.959C95.2657 43.3923 95.582 43.726 95.9807 43.96C96.388 44.194 96.8344 44.311 97.3197 44.311C97.8224 44.311 98.273 44.1983 98.6717 43.973C99.0704 43.739 99.3824 43.4053 99.6077 42.972C99.8417 42.53 99.9587 42.0187 99.9587 41.438ZM103.635 35.51C103.999 35.549 104.389 35.575 104.805 35.575C105.559 35.575 108.588 35.575 109.316 35.575C109.68 35.575 110.148 35.549 110.525 35.51V36.589C110.135 36.563 109.68 36.537 109.316 36.537C108.588 36.537 105.559 36.537 104.831 36.537C104.389 36.537 103.973 36.563 103.635 36.589V35.51ZM102.088 38.773C102.439 38.812 102.816 38.838 103.219 38.838C103.973 38.838 111.032 38.838 111.721 38.838C111.994 38.838 112.423 38.812 112.748 38.773V39.852C112.462 39.826 112.046 39.813 111.721 39.813C111.032 39.813 103.973 39.813 103.219 39.813C102.829 39.813 102.439 39.826 102.088 39.852V38.773ZM108.211 39.293C108.211 40.931 108.003 42.283 107.431 43.375C106.95 44.246 105.975 45.182 104.87 45.741L103.908 45.039C104.909 44.61 105.845 43.869 106.365 43.037C107.015 42.01 107.106 40.736 107.119 39.306L108.211 39.293ZM111.201 34.444C111.526 34.912 111.994 35.705 112.254 36.225L111.552 36.537C111.305 36.017 110.863 35.237 110.512 34.743L111.201 34.444ZM112.618 33.924C112.969 34.405 113.463 35.211 113.71 35.692L113.021 36.004C112.735 35.445 112.306 34.704 111.942 34.223L112.618 33.924ZM124.771 35.094C125.018 35.562 125.356 36.368 125.538 36.888L124.888 37.109C124.706 36.563 124.407 35.783 124.147 35.289L124.771 35.094ZM126.071 34.691C126.318 35.172 126.656 35.965 126.851 36.485L126.201 36.706C125.993 36.121 125.707 35.38 125.434 34.886L126.071 34.691ZM123.536 39.267C123.536 42.725 122.795 44.506 119.831 45.832L118.947 45.013C121.313 44.103 122.496 42.985 122.496 39.345V36.186C122.496 35.679 122.457 35.25 122.431 35.12H123.601C123.588 35.25 123.536 35.679 123.536 36.186V39.267ZM118.856 35.211C118.843 35.328 118.791 35.692 118.791 36.147V40.918C118.791 41.386 118.83 41.958 118.843 42.088H117.699C117.712 41.958 117.751 41.412 117.751 40.918V36.147C117.751 35.874 117.738 35.497 117.699 35.211H118.856ZM115.047 37.733C115.164 37.746 115.801 37.811 116.36 37.811H124.966C125.538 37.811 125.98 37.772 126.162 37.746V38.851C126.019 38.825 125.538 38.812 124.966 38.812H116.36C115.788 38.812 115.203 38.838 115.047 38.851V37.733ZM128.968 40.307C131.217 39.709 133.193 38.786 134.636 37.889C136.001 37.031 137.301 35.913 138.198 34.821L139.069 35.64C137.951 36.797 136.586 37.889 135.065 38.838C133.635 39.722 131.568 40.671 129.475 41.321L128.968 40.307ZM134.428 38.422L135.546 38.084V44.025C135.546 44.506 135.572 45.156 135.637 45.403H134.35C134.389 45.156 134.428 44.506 134.428 44.025V38.422ZM144.228 35.484C145.138 36.095 146.815 37.447 147.53 38.162L146.724 38.994C146.061 38.318 144.449 36.914 143.474 36.277L144.228 35.484ZM143.11 44.194C145.372 43.856 147.062 43.063 148.297 42.296C150.312 41.035 151.885 39.111 152.639 37.499L153.263 38.617C152.379 40.229 150.871 41.997 148.908 43.232C147.595 44.051 145.957 44.857 143.786 45.26L143.11 44.194ZM161.204 38.682C161.958 38.682 162.582 39.306 162.582 40.06C162.582 40.827 161.958 41.451 161.204 41.451C160.437 41.451 159.813 40.827 159.813 40.06C159.813 39.306 160.437 38.682 161.204 38.682ZM176.698 34.834C176.646 35.185 176.62 35.562 176.633 35.913C176.646 37.356 176.737 41.893 176.75 44.324C176.763 45.013 176.347 45.377 175.567 45.377C174.904 45.377 174.137 45.338 173.487 45.299L173.396 44.22C174.02 44.324 174.748 44.376 175.242 44.376C175.606 44.376 175.723 44.207 175.723 43.856C175.723 41.997 175.671 37.356 175.606 35.913C175.58 35.419 175.554 35.107 175.502 34.834H176.698ZM169.717 37.109C170.094 37.148 170.523 37.174 170.913 37.174C171.602 37.174 178.037 37.174 178.7 37.174C179.038 37.174 179.545 37.135 179.805 37.096V38.201C179.493 38.188 179.051 38.162 178.726 38.162C178.154 38.162 171.524 38.162 170.939 38.162C170.497 38.162 170.133 38.188 169.717 38.214V37.109ZM169.249 43.18C171.992 41.828 174.397 39.553 175.359 37.967H175.879L175.892 38.838C174.904 40.385 172.486 42.699 169.99 44.025L169.249 43.18ZM192.751 36.368C192.66 36.55 192.608 36.758 192.556 37.018C192.27 38.383 191.646 40.476 190.606 41.815C189.423 43.336 187.876 44.545 185.497 45.286L184.613 44.311C187.135 43.687 188.591 42.582 189.683 41.191C190.606 40.008 191.204 38.201 191.386 36.953C190.632 36.953 185.484 36.953 184.73 36.953C184.21 36.953 183.768 36.979 183.443 36.992V35.835C183.794 35.887 184.314 35.926 184.743 35.926C185.484 35.926 190.671 35.926 191.256 35.926C191.451 35.926 191.711 35.913 191.958 35.861L192.751 36.368ZM196.304 41.659C198.02 41.243 199.931 40.333 200.997 39.683C202.219 38.942 203.415 37.863 204.091 37.044L204.897 37.824C204.143 38.63 202.791 39.761 201.439 40.58C200.347 41.23 198.54 42.088 196.811 42.621L196.304 41.659ZM200.88 40.281L201.959 40.008V44.883C201.959 45.273 201.972 45.819 202.024 46.014H200.815C200.841 45.819 200.88 45.273 200.88 44.883V40.281ZM218.545 36.316C218.467 36.42 218.298 36.706 218.233 36.875C217.713 38.162 216.725 39.982 215.646 41.178C214.19 42.803 212.331 44.35 210.277 45.286L209.445 44.415C211.551 43.609 213.462 42.049 214.801 40.567C215.685 39.566 216.634 38.019 216.972 36.94C216.504 36.94 212.344 36.94 211.902 36.94C211.434 36.94 210.732 36.992 210.589 37.005V35.835C210.758 35.861 211.499 35.913 211.902 35.913C212.409 35.913 216.426 35.913 216.92 35.913C217.336 35.913 217.687 35.874 217.895 35.809L218.545 36.316ZM215.815 40.502C217.219 41.672 218.948 43.492 219.832 44.571L218.935 45.364C217.999 44.129 216.478 42.465 215.074 41.23L215.815 40.502ZM43.166 53.939C43.166 54.42 43.556 54.797 44.024 54.797C44.492 54.797 44.882 54.42 44.882 53.939C44.882 53.471 44.492 53.081 44.024 53.081C43.556 53.081 43.166 53.471 43.166 53.939ZM42.568 53.939C42.568 53.133 43.218 52.483 44.024 52.483C44.83 52.483 45.48 53.133 45.48 53.939C45.48 54.745 44.83 55.395 44.024 55.395C43.218 55.395 42.568 54.745 42.568 53.939ZM35.821 59.1C36.393 57.748 36.926 55.772 37.108 54.277L38.265 54.511C38.174 54.797 38.083 55.187 38.018 55.46C37.849 56.266 37.394 58.19 36.848 59.529C36.367 60.712 35.652 62.051 34.924 63.104L33.819 62.636C34.638 61.544 35.379 60.179 35.821 59.1ZM42.23 58.606C41.71 57.267 40.904 55.46 40.345 54.485L41.398 54.134C41.905 55.083 42.737 56.877 43.296 58.242C43.816 59.529 44.505 61.518 44.856 62.701L43.699 63.065C43.374 61.752 42.763 59.984 42.23 58.606ZM48.9433 62.532C51.1013 61.661 52.5573 60.257 53.5323 58.801C54.5333 57.319 54.9363 55.772 55.1573 54.563C55.2223 54.225 55.2613 53.744 55.2613 53.51L56.5483 53.679C56.4443 54.03 56.3403 54.472 56.3013 54.706C55.9893 56.253 55.4693 57.891 54.5203 59.347C53.4933 60.92 52.0373 62.376 49.9053 63.364L48.9433 62.532ZM48.1373 53.666C48.7223 54.511 49.8663 56.513 50.3213 57.358L49.2943 57.943C48.7353 56.773 47.6563 54.927 47.1233 54.186L48.1373 53.666ZM60.2455 54.095C60.6875 54.134 61.2465 54.173 61.6755 54.173H68.0715C68.3965 54.173 68.7735 54.16 69.0335 54.147C69.0205 54.433 69.0075 54.849 69.0075 55.148V61.869C69.0075 62.337 69.0465 62.922 69.0595 63.117H67.8895C67.8895 62.922 67.9155 62.441 67.9155 61.973V55.2H61.6755C61.1945 55.2 60.5575 55.226 60.2455 55.252V54.095ZM60.0895 61.271C60.4145 61.297 60.9865 61.336 61.5195 61.336H68.5005V62.402H61.5585C61.0255 62.402 60.4405 62.415 60.0895 62.454V61.271ZM73.4848 53.484C74.3948 54.095 76.0718 55.447 76.7868 56.162L75.9808 56.994C75.3178 56.318 73.7058 54.914 72.7308 54.277L73.4848 53.484ZM72.3668 62.194C74.6288 61.856 76.3188 61.063 77.5538 60.296C79.5688 59.035 81.1418 57.111 81.8958 55.499L82.5198 56.617C81.6358 58.229 80.1278 59.997 78.1648 61.232C76.8518 62.051 75.2138 62.857 73.0428 63.26L72.3668 62.194ZM85.801 53.159H86.75V64.014H85.801V53.159ZM83.604 55.746H88.674V56.669H83.604V55.746ZM85.853 56.097L86.464 56.357C85.944 58.19 84.904 60.465 83.903 61.674C83.812 61.401 83.578 60.998 83.409 60.777C84.345 59.737 85.385 57.709 85.853 56.097ZM87.881 52.262L88.479 53.055C87.283 53.523 85.489 53.874 84.007 54.082C83.955 53.861 83.825 53.536 83.721 53.315C85.19 53.081 86.893 52.704 87.881 52.262ZM86.698 56.838C87.036 57.189 88.284 58.762 88.57 59.152L87.959 59.919C87.647 59.295 86.633 57.748 86.243 57.241L86.698 56.838ZM92.951 52.08H93.913V64.027H92.951V52.08ZM88.518 60.543L95.434 59.425L95.59 60.335L88.661 61.466L88.518 60.543ZM89.571 53.562L90.195 52.99C90.975 53.484 91.898 54.225 92.34 54.771L91.664 55.408C91.248 54.862 90.338 54.082 89.571 53.562ZM89.051 56.942L89.662 56.37C90.507 56.877 91.534 57.657 92.015 58.216L91.365 58.866C90.884 58.294 89.896 57.475 89.051 56.942ZM96.5703 54.446C97.0643 54.433 97.4803 54.407 97.7403 54.381C98.5723 54.29 101.029 54.056 103.421 53.848C104.851 53.731 106.06 53.653 106.931 53.627L106.944 54.667C106.19 54.654 105.059 54.68 104.396 54.862C102.537 55.46 101.406 57.449 101.406 58.983C101.406 61.518 103.785 62.337 105.891 62.415L105.514 63.481C103.109 63.39 100.379 62.116 100.379 59.204C100.379 57.189 101.614 55.525 102.797 54.823C101.406 54.966 98.0913 55.291 96.6873 55.59L96.5703 54.446ZM105.059 56.253C105.358 56.682 105.852 57.488 106.138 58.073L105.462 58.372C105.163 57.748 104.799 57.085 104.409 56.539L105.059 56.253ZM106.476 55.707C106.801 56.136 107.308 56.929 107.607 57.501L106.944 57.826C106.632 57.202 106.242 56.552 105.839 56.006L106.476 55.707ZM113.814 52.782C113.736 53.068 113.645 53.562 113.593 53.809C113.398 54.745 113.125 56.214 112.761 57.514C112.293 59.36 111.422 62.051 110.733 63.468L109.602 63.091C110.382 61.739 111.292 59.1 111.786 57.267C112.098 56.071 112.436 54.433 112.527 53.757C112.579 53.393 112.605 52.951 112.579 52.678L113.814 52.782ZM110.941 54.953C112.371 54.953 114.282 54.719 115.894 54.316V55.33C114.282 55.694 112.319 55.915 110.915 55.915C110.343 55.915 109.888 55.902 109.407 55.863L109.381 54.849C109.992 54.927 110.46 54.953 110.941 54.953ZM115.049 56.734C115.725 56.669 116.596 56.63 117.428 56.63C118.182 56.63 118.975 56.656 119.677 56.734L119.651 57.722C118.975 57.644 118.221 57.566 117.454 57.566C116.648 57.566 115.842 57.618 115.049 57.709V56.734ZM115.309 59.893C115.205 60.322 115.127 60.725 115.127 61.063C115.127 61.674 115.478 62.272 117.324 62.272C118.182 62.272 119.066 62.181 119.872 62.025L119.833 63.065C119.131 63.169 118.26 63.247 117.311 63.247C115.27 63.247 114.152 62.623 114.152 61.336C114.152 60.842 114.23 60.348 114.347 59.802L115.309 59.893ZM123.478 53.939C123.413 54.238 123.374 54.862 123.361 55.2C123.348 56.006 123.361 57.202 123.452 58.268C123.673 60.439 124.297 61.882 125.233 61.882C125.896 61.882 126.507 60.543 126.845 59.243L127.664 60.166C126.871 62.363 126.091 63.117 125.207 63.117C123.972 63.117 122.802 61.895 122.438 58.528C122.321 57.41 122.295 55.824 122.295 55.07C122.295 54.771 122.295 54.212 122.217 53.913L123.478 53.939ZM130.238 54.29C131.408 55.798 132.344 58.567 132.539 60.764L131.486 61.18C131.265 58.84 130.472 56.162 129.237 54.641L130.238 54.29ZM133.805 59.438C134.13 59.191 134.403 58.931 134.741 58.58C135.443 57.878 136.522 56.396 137.302 55.486C138.056 54.589 138.732 54.459 139.59 55.343C140.37 56.136 141.371 57.423 142.203 58.32C142.983 59.178 144.283 60.543 145.453 61.583L144.621 62.532C143.633 61.596 142.45 60.27 141.566 59.256C140.721 58.307 139.72 57.046 139.122 56.383C138.563 55.772 138.316 55.876 137.874 56.422C137.263 57.176 136.197 58.606 135.534 59.412C135.274 59.763 134.975 60.153 134.767 60.426L133.805 59.438ZM152.712 53.354C152.595 53.51 152.439 53.744 152.296 53.991C151.711 54.888 150.515 57.046 149.852 58.307C150.476 57.748 151.152 57.501 151.776 57.501C152.647 57.501 153.271 58.06 153.31 59.087C153.336 59.854 153.31 60.842 153.362 61.479C153.401 62.129 153.843 62.415 154.402 62.415C155.858 62.415 156.716 60.621 157.041 59.23L157.912 59.932C157.223 62.025 156.131 63.481 154.246 63.481C152.855 63.481 152.4 62.61 152.361 61.843C152.322 61.076 152.335 60.075 152.296 59.36C152.27 58.801 151.932 58.45 151.347 58.45C150.307 58.45 149.319 59.516 148.825 60.543C148.422 61.31 147.876 62.857 147.694 63.494L146.576 63.104C147.525 60.478 150.372 55.148 151.087 53.9C151.23 53.588 151.399 53.276 151.555 52.886L152.712 53.354ZM163.443 52.626C163.404 52.86 163.378 53.211 163.365 53.523C163.326 54.29 163.261 56.279 163.261 57.631C163.261 58.983 163.326 61.011 163.326 61.83C163.326 63.026 162.884 63.416 162.169 63.416C161.155 63.416 159.465 62.428 159.465 61.258C159.465 60.114 161.012 58.905 162.624 58.294C163.781 57.839 165.081 57.605 166.108 57.605C168.019 57.605 169.384 58.632 169.384 60.192C169.384 61.765 168.396 62.766 166.602 63.182C166.03 63.312 165.445 63.338 164.99 63.364L164.626 62.324C165.12 62.324 165.666 62.337 166.16 62.233C167.291 62.012 168.331 61.401 168.331 60.192C168.331 59.087 167.33 58.502 166.108 58.502C164.938 58.502 163.872 58.749 162.767 59.191C161.493 59.685 160.492 60.556 160.492 61.219C160.492 61.804 161.402 62.324 161.909 62.324C162.208 62.324 162.377 62.116 162.377 61.687C162.377 60.933 162.312 59.126 162.312 57.683C162.312 56.188 162.364 54.069 162.364 53.536C162.364 53.289 162.338 52.834 162.299 52.626H163.443ZM167.486 54.069C168.409 54.55 169.826 55.434 170.45 55.954L169.93 56.786C169.293 56.188 167.837 55.291 167.005 54.849L167.486 54.069ZM159.686 54.953C160.401 55.044 160.869 55.057 161.337 55.057C162.624 55.057 164.691 54.784 165.978 54.394L166.004 55.408C164.665 55.733 162.533 56.019 161.363 56.019C160.635 56.019 160.141 55.993 159.712 55.954L159.686 54.953ZM171.235 55.343H183.039V56.292H171.235V55.343ZM173.692 62.142H182.597V63.078H173.692V62.142ZM177.033 59.009H180.465V59.932H177.033V59.009ZM173.185 52.431H174.186V64.053H173.185V52.431ZM176.604 52.158H177.592V60.569H176.604V52.158ZM180.036 52.301H181.011V60.504H180.036V52.301ZM189.323 58.996H195.069V63.975H194.094V59.893H190.259V64.053H189.323V58.996ZM194.497 52.288L195.199 53.107C193.613 53.575 191.195 53.887 189.167 54.043C189.128 53.822 188.998 53.458 188.881 53.224C190.844 53.042 193.184 52.717 194.497 52.288ZM191.624 53.289H192.612V59.451H191.624V53.289ZM188.556 55.876H195.667V56.799H188.556V55.876ZM189.934 62.506H194.575V63.39H189.934V62.506ZM184.24 56.097H188.049V56.864H184.24V56.097ZM184.318 52.548H188.036V53.328H184.318V52.548ZM184.24 57.865H188.049V58.645H184.24V57.865ZM183.629 54.29H188.478V55.096H183.629V54.29ZM184.734 59.646H188.088V63.442H184.734V62.636H187.23V60.465H184.734V59.646ZM184.227 59.646H185.072V64.04H184.227V59.646ZM201.561 54.225C202.978 54.472 205.617 54.42 206.904 54.225V55.278C205.513 55.434 202.991 55.434 201.574 55.278L201.561 54.225ZM202.068 59.529C201.951 59.997 201.886 60.361 201.886 60.712C201.886 61.31 202.302 61.895 204.083 61.895C205.24 61.895 206.254 61.791 207.294 61.544L207.32 62.636C206.514 62.805 205.422 62.909 204.07 62.909C201.899 62.909 200.924 62.181 200.924 60.959C200.924 60.53 200.989 60.062 201.132 59.438L202.068 59.529ZM199.091 53.224C199.013 53.445 198.909 53.861 198.857 54.095C198.61 55.304 198.207 57.618 198.207 59.087C198.207 59.711 198.246 60.257 198.324 60.894C198.545 60.309 198.844 59.529 199.065 58.996L199.611 59.425C199.286 60.348 198.805 61.713 198.688 62.337C198.649 62.519 198.623 62.766 198.623 62.922C198.636 63.052 198.649 63.234 198.662 63.377L197.739 63.442C197.479 62.519 197.258 61.024 197.258 59.256C197.258 57.345 197.687 55.122 197.843 54.043C197.882 53.744 197.921 53.419 197.934 53.133L199.091 53.224ZM209.406 54.81C209.887 54.862 210.446 54.888 211.005 54.888C212.409 54.888 214.047 54.719 215.542 54.225L215.568 55.187C214.294 55.538 212.591 55.824 211.005 55.811C210.524 55.811 209.965 55.798 209.484 55.785L209.406 54.81ZM214.021 52.691C213.852 53.328 213.579 54.55 213.267 55.473C212.643 57.345 211.447 59.711 210.368 61.167L209.367 60.647C210.524 59.295 211.733 56.981 212.266 55.447C212.552 54.628 212.838 53.484 212.877 52.574L214.021 52.691ZM217.089 56.708C217.05 57.241 217.05 57.631 217.063 58.099C217.089 58.944 217.206 60.92 217.206 61.778C217.206 62.818 216.543 63.663 214.931 63.663C213.501 63.663 212.344 63.091 212.344 61.791C212.344 60.595 213.475 59.841 214.931 59.841C217.115 59.841 218.792 60.933 219.858 61.856L219.312 62.74C218.311 61.83 216.816 60.673 214.905 60.673C213.943 60.673 213.293 61.115 213.293 61.713C213.293 62.311 213.8 62.727 214.814 62.727C215.893 62.727 216.257 62.155 216.257 61.453C216.257 60.465 216.114 58.138 216.062 56.708H217.089ZM219.689 57.046C218.987 56.448 217.57 55.655 216.712 55.252L217.232 54.472C218.181 54.875 219.65 55.72 220.274 56.188L219.689 57.046ZM37.394 71.743C37.121 72.705 36.874 74.46 36.796 75.37C37.329 74.031 38.681 72.406 40.332 72.406C42.048 72.406 43.296 74.148 43.296 76.878C43.296 80.479 41.021 82.078 37.81 82.663L37.186 81.727C40.02 81.298 42.217 80.154 42.217 76.891C42.217 74.837 41.528 73.355 40.163 73.355C38.538 73.355 37.03 75.721 36.874 77.424C36.809 77.918 36.809 78.373 36.9 79.023L35.886 79.101C35.821 78.607 35.756 77.879 35.756 77.034C35.756 75.799 36.003 73.888 36.159 72.822C36.211 72.432 36.237 72.068 36.263 71.704L37.394 71.743ZM52.916 71.691C52.89 71.912 52.864 72.172 52.851 72.562C52.825 73.082 52.825 74.824 52.825 75.916C52.825 77.632 53.02 79.907 53.02 80.778C53.02 81.688 52.422 82.611 50.732 82.611C48.86 82.611 47.833 81.948 47.833 80.687C47.833 79.504 48.964 78.711 50.836 78.711C53.579 78.711 55.724 80.193 56.725 81.012L56.127 81.935C54.957 80.856 53.033 79.556 50.719 79.556C49.471 79.556 48.808 80.037 48.808 80.635C48.808 81.246 49.315 81.688 50.602 81.688C51.356 81.688 51.993 81.467 51.993 80.557C51.993 79.556 51.863 77.06 51.863 75.916C51.863 74.746 51.863 73.381 51.863 72.471C51.863 72.25 51.85 71.86 51.811 71.691H52.916ZM47.95 73.095C48.782 73.251 50.407 73.381 51.265 73.381C52.916 73.381 54.658 73.264 56.348 72.991V73.94C54.879 74.109 53.02 74.278 51.278 74.278C50.381 74.278 48.782 74.161 47.963 74.057L47.95 73.095ZM47.885 75.864C48.808 76.007 50.29 76.098 51.148 76.098C53.033 76.098 54.762 75.968 56.452 75.721V76.696C54.684 76.917 53.098 77.008 51.148 77.008C50.251 77.008 48.821 76.943 47.898 76.839L47.885 75.864ZM62.38 71.873C62.315 72.302 62.276 72.757 62.25 73.186C62.198 74.655 62.094 77.736 62.094 79.673C62.094 81.103 62.991 81.597 64.226 81.597C66.605 81.597 67.957 80.271 68.893 78.919L69.621 79.803C68.737 81.038 67.047 82.663 64.2 82.663C62.328 82.663 61.041 81.896 61.041 79.764C61.041 77.84 61.171 74.551 61.171 73.186C61.171 72.705 61.132 72.25 61.054 71.873H62.38ZM76.186 71.782C76.108 72.068 76.017 72.562 75.965 72.809C75.77 73.745 75.497 75.214 75.133 76.514C74.665 78.36 73.794 81.051 73.105 82.468L71.974 82.091C72.754 80.739 73.664 78.1 74.158 76.267C74.47 75.071 74.808 73.433 74.899 72.757C74.951 72.393 74.977 71.951 74.951 71.678L76.186 71.782ZM73.313 73.953C74.743 73.953 76.654 73.719 78.266 73.316V74.33C76.654 74.694 74.691 74.915 73.287 74.915C72.715 74.915 72.26 74.902 71.779 74.863L71.753 73.849C72.364 73.927 72.832 73.953 73.313 73.953ZM77.421 75.734C78.097 75.669 78.968 75.63 79.8 75.63C80.554 75.63 81.347 75.656 82.049 75.734L82.023 76.722C81.347 76.644 80.593 76.566 79.826 76.566C79.02 76.566 78.214 76.618 77.421 76.709V75.734ZM77.681 78.893C77.577 79.322 77.499 79.725 77.499 80.063C77.499 80.674 77.85 81.272 79.696 81.272C80.554 81.272 81.438 81.181 82.244 81.025L82.205 82.065C81.503 82.169 80.632 82.247 79.683 82.247C77.642 82.247 76.524 81.623 76.524 80.336C76.524 79.842 76.602 79.348 76.719 78.802L77.681 78.893ZM85.442 78.841C86.534 78.841 87.418 79.725 87.418 80.817C87.418 81.909 86.534 82.793 85.442 82.793C84.35 82.793 83.453 81.909 83.453 80.817C83.453 79.725 84.35 78.841 85.442 78.841ZM85.442 82.13C86.17 82.13 86.755 81.545 86.755 80.817C86.755 80.089 86.17 79.504 85.442 79.504C84.714 79.504 84.116 80.089 84.116 80.817C84.116 81.545 84.714 82.13 85.442 82.13Z" fill="white"/>
<path d="M5 0.6L250 0.6C252.43 0.6 254.4 2.56995 254.4 5V93C254.4 95.4301 252.43 97.4 250 97.4H5C2.56995 97.4 0.6 95.4301 0.6 93L0.6 5C0.6 2.56995 2.56995 0.6 5 0.6Z" stroke="white" stroke-width="1.2"/>
</svg>
