<svg width="255" height="98" viewBox="0 0 255 98" fill="none" xmlns="http://www.w3.org/2000/svg">
<path d="M0.4 5C0.4 2.45949 2.45949 0.4 5 0.4L250 0.4C252.541 0.4 254.6 2.45949 254.6 5V93C254.6 95.5405 252.541 97.6 250 97.6H5C2.45949 97.6 0.4 95.5405 0.4 93L0.4 5Z" stroke="white" stroke-width="0.8"/>
<path d="M104.155 43.2401V57.1801H102.335V50.8601H95.235V57.1801H93.415V43.2401H95.235V49.3601H102.335V43.2401H104.155ZM113.583 57.3201C112.289 57.3201 111.109 57.0201 110.043 56.4201C108.976 55.8067 108.129 54.9601 107.503 53.8801C106.889 52.7867 106.583 51.5601 106.583 50.2001C106.583 48.8401 106.889 47.6201 107.503 46.5401C108.129 45.4467 108.976 44.6001 110.043 44.0001C111.109 43.3867 112.289 43.0801 113.583 43.0801C114.889 43.0801 116.076 43.3867 117.143 44.0001C118.209 44.6001 119.049 45.4401 119.663 46.5201C120.276 47.6001 120.583 48.8267 120.583 50.2001C120.583 51.5734 120.276 52.8001 119.663 53.8801C119.049 54.9601 118.209 55.8067 117.143 56.4201C116.076 57.0201 114.889 57.3201 113.583 57.3201ZM113.583 55.7401C114.556 55.7401 115.429 55.5134 116.203 55.0601C116.989 54.6067 117.603 53.9601 118.043 53.1201C118.496 52.2801 118.723 51.3067 118.723 50.2001C118.723 49.0801 118.496 48.1067 118.043 47.2801C117.603 46.4401 116.996 45.7934 116.223 45.3401C115.449 44.8867 114.569 44.6601 113.583 44.6601C112.596 44.6601 111.716 44.8867 110.943 45.3401C110.169 45.7934 109.556 46.4401 109.103 47.2801C108.663 48.1067 108.443 49.0801 108.443 50.2001C108.443 51.3067 108.663 52.2801 109.103 53.1201C109.556 53.9601 110.169 54.6067 110.943 55.0601C111.729 55.5134 112.609 55.7401 113.583 55.7401ZM133.945 57.1801H132.125L124.805 46.0801V57.1801H122.985V43.2201H124.805L132.125 54.3001V43.2201H133.945V57.1801ZM141.388 43.2401C142.908 43.2401 144.221 43.5267 145.328 44.1001C146.448 44.6601 147.301 45.4667 147.888 46.5201C148.488 47.5734 148.788 48.8134 148.788 50.2401C148.788 51.6667 148.488 52.9067 147.888 53.9601C147.301 55.0001 146.448 55.8001 145.328 56.3601C144.221 56.9067 142.908 57.1801 141.388 57.1801H137.048V43.2401H141.388ZM141.388 55.6801C143.188 55.6801 144.561 55.2067 145.508 54.2601C146.454 53.3001 146.928 51.9601 146.928 50.2401C146.928 48.5067 146.448 47.1534 145.488 46.1801C144.541 45.2067 143.174 44.7201 141.388 44.7201H138.868V55.6801H141.388ZM159.428 54.0801H153.348L152.228 57.1801H150.308L155.348 43.3201H157.448L162.468 57.1801H160.548L159.428 54.0801ZM158.908 52.6001L156.388 45.5601L153.868 52.6001H158.908Z" fill="white"/>
</svg>
