<svg width="255" height="98" viewBox="0 0 255 98" fill="none" xmlns="http://www.w3.org/2000/svg">
<path d="M33.611 21.891H45.415V22.866H33.611V21.891ZM39.019 19.798H40.033V26.792C40.033 27.442 39.851 27.741 39.357 27.897C38.876 28.053 38.031 28.079 36.783 28.079C36.705 27.793 36.523 27.351 36.354 27.065C37.407 27.104 38.369 27.104 38.655 27.091C38.928 27.078 39.019 27.013 39.019 26.779V19.798ZM34.95 16.99H43.439V17.952H34.95V16.99ZM43.101 16.99H43.361L43.582 16.938L44.323 17.484C43.14 18.68 41.294 19.967 39.773 20.747C39.63 20.526 39.331 20.214 39.136 20.045C40.553 19.369 42.282 18.134 43.101 17.211V16.99ZM49.0134 16.119L49.9364 16.405C49.0914 18.602 47.7524 20.812 46.3484 22.268C46.2444 22.047 45.9714 21.527 45.7894 21.306C47.0634 20.045 48.2854 18.095 49.0134 16.119ZM47.6354 19.486L48.5844 18.537L48.5974 18.55V28.027H47.6354V19.486ZM49.8714 18.862H57.8534V19.798H49.8714V18.862ZM49.5464 23.009H58.0094V23.971H49.5464V23.009ZM51.5484 16.223H52.5104V23.529H51.5484V16.223ZM55.0454 16.21H55.9944V23.542H55.0454V16.21ZM51.8214 24.699L52.7444 24.985C52.1074 26.116 51.1194 27.273 50.2484 28.014C50.0664 27.845 49.6894 27.533 49.4684 27.403C50.3654 26.727 51.2624 25.7 51.8214 24.699ZM54.7724 25.167L55.5394 24.725C56.4364 25.583 57.3984 26.74 57.8664 27.533L57.0474 28.053C56.6054 27.247 55.6434 26.038 54.7724 25.167ZM63.5708 16.912C63.5188 17.146 63.4668 17.432 63.4148 17.679C63.3238 18.147 63.1548 19.213 62.9728 20.019C62.5308 21.852 61.6078 25.089 60.1388 27.455L59.0728 27.039C60.5548 25.05 61.5948 21.579 61.9458 19.993C62.1928 18.953 62.3618 17.783 62.3618 16.782L63.5708 16.912ZM68.0428 18.407C68.8488 19.46 69.9798 21.826 70.4218 23.022L69.4078 23.503C69.0308 22.177 68.0038 19.915 67.0938 18.836L68.0428 18.407ZM58.8908 19.759C59.2938 19.785 59.6318 19.772 60.0478 19.759C61.0228 19.733 63.6618 19.447 64.5458 19.447C65.7028 19.447 66.6518 19.889 66.6518 21.644C66.6518 23.191 66.4438 25.258 65.8978 26.337C65.4948 27.208 64.8448 27.429 63.9998 27.429C63.5058 27.429 62.8818 27.338 62.4788 27.234L62.2968 26.155C62.8428 26.324 63.5318 26.415 63.8958 26.415C64.3768 26.415 64.7668 26.311 65.0268 25.752C65.4428 24.868 65.6508 23.178 65.6508 21.774C65.6508 20.578 65.1048 20.357 64.2728 20.357C63.4018 20.357 60.9578 20.656 60.1648 20.734C59.8658 20.773 59.3328 20.838 58.9948 20.89L58.8908 19.759ZM68.1858 16.522C68.5108 16.99 68.9788 17.783 69.2518 18.316L68.5498 18.628C68.2898 18.095 67.8478 17.315 67.4838 16.821L68.1858 16.522ZM69.6158 16.002C69.9668 16.483 70.4608 17.302 70.7208 17.783L70.0058 18.095C69.7328 17.523 69.3038 16.782 68.9268 16.301L69.6158 16.002ZM76.6072 16.275H77.6602V26.688C77.6602 27.416 77.4652 27.702 76.9972 27.858C76.5292 28.027 75.7232 28.053 74.4882 28.053C74.4362 27.767 74.2542 27.312 74.0852 27.026C75.0472 27.065 75.9832 27.052 76.2432 27.039C76.5162 27.039 76.6072 26.948 76.6072 26.688V16.275ZM79.7532 19.59L80.6892 19.226C81.8202 21.059 82.9252 23.438 83.2632 25.011L82.2232 25.427C81.9112 23.893 80.8582 21.449 79.7532 19.59ZM73.2012 19.317L74.2932 19.499C73.8642 21.41 73.1102 23.763 71.9272 25.219C71.6932 25.037 71.2642 24.803 71.0042 24.699C72.1612 23.321 72.8762 21.072 73.2012 19.317ZM89.9166 17.796C89.8386 17.51 89.7216 17.12 89.5916 16.769L90.7096 16.639C90.8266 17.393 91.1646 18.511 91.4636 19.356C91.8666 20.474 92.5296 21.683 93.0886 22.437C93.2576 22.697 93.4526 22.918 93.6476 23.126L93.1276 23.867C92.5036 23.711 90.9176 23.568 89.9816 23.503L90.0596 22.645C90.7876 22.71 91.7496 22.788 92.2176 22.84C91.6716 22.008 90.9566 20.721 90.5276 19.538C90.2416 18.797 90.0596 18.199 89.9166 17.796ZM85.1586 18.81C87.3296 19.057 89.3836 19.07 90.8656 18.914C91.8926 18.797 93.1796 18.563 94.1936 18.212L94.3106 19.239C93.3876 19.499 92.1526 19.707 91.2036 19.824C89.5526 20.019 87.4856 20.032 85.1846 19.837L85.1586 18.81ZM87.1736 22.944C86.7836 23.581 86.5496 24.14 86.5496 24.751C86.5496 25.999 87.6806 26.532 89.6176 26.558C90.9306 26.558 92.0616 26.428 92.9586 26.233L92.9196 27.273C92.1006 27.416 91.0086 27.559 89.5526 27.546C87.0826 27.533 85.5226 26.649 85.5226 24.881C85.5226 24.153 85.7826 23.477 86.1596 22.71L87.1736 22.944ZM98.546 17.939C98.481 18.238 98.442 18.862 98.429 19.2C98.416 20.006 98.429 21.202 98.52 22.268C98.741 24.439 99.365 25.882 100.301 25.882C100.964 25.882 101.575 24.543 101.913 23.243L102.732 24.166C101.939 26.363 101.159 27.117 100.275 27.117C99.04 27.117 97.87 25.895 97.506 22.528C97.389 21.41 97.363 19.824 97.363 19.07C97.363 18.771 97.363 18.212 97.285 17.913L98.546 17.939ZM105.306 18.29C106.476 19.798 107.412 22.567 107.607 24.764L106.554 25.18C106.333 22.84 105.54 20.162 104.305 18.641L105.306 18.29ZM115.495 18.134C115.326 19.486 115.066 21.007 114.663 22.398C113.87 25.063 112.83 26.441 111.634 26.441C110.464 26.441 109.307 25.115 109.307 22.957C109.307 20.136 111.816 17.679 115.001 17.679C118.043 17.679 119.98 19.824 119.98 22.463C119.98 25.18 118.186 27 115.092 27.403L114.494 26.441C114.91 26.402 115.3 26.35 115.612 26.285C117.276 25.908 118.914 24.66 118.914 22.411C118.914 20.331 117.471 18.615 114.975 18.615C112.115 18.615 110.334 20.968 110.334 22.879C110.334 24.517 111.075 25.245 111.66 25.245C112.271 25.245 112.973 24.361 113.636 22.164C114.013 20.929 114.286 19.46 114.416 18.108L115.495 18.134ZM121.72 18.446C122.214 18.433 122.63 18.407 122.89 18.381C123.722 18.29 126.179 18.056 128.571 17.848C130.001 17.731 131.21 17.653 132.081 17.627L132.094 18.667C131.34 18.654 130.209 18.68 129.546 18.862C127.687 19.46 126.556 21.449 126.556 22.983C126.556 25.518 128.935 26.337 131.041 26.415L130.664 27.481C128.259 27.39 125.529 26.116 125.529 23.204C125.529 21.189 126.764 19.525 127.947 18.823C126.556 18.966 123.241 19.291 121.837 19.59L121.72 18.446ZM130.209 20.253C130.508 20.682 131.002 21.488 131.288 22.073L130.612 22.372C130.313 21.748 129.949 21.085 129.559 20.539L130.209 20.253ZM131.626 19.707C131.951 20.136 132.458 20.929 132.757 21.501L132.094 21.826C131.782 21.202 131.392 20.552 130.989 20.006L131.626 19.707ZM140.671 16.691C140.645 16.912 140.619 17.172 140.606 17.562C140.58 18.082 140.58 19.824 140.58 20.916C140.58 22.632 140.775 24.907 140.775 25.778C140.775 26.688 140.177 27.611 138.487 27.611C136.615 27.611 135.588 26.948 135.588 25.687C135.588 24.504 136.719 23.711 138.591 23.711C141.334 23.711 143.479 25.193 144.48 26.012L143.882 26.935C142.712 25.856 140.788 24.556 138.474 24.556C137.226 24.556 136.563 25.037 136.563 25.635C136.563 26.246 137.07 26.688 138.357 26.688C139.111 26.688 139.748 26.467 139.748 25.557C139.748 24.556 139.618 22.06 139.618 20.916C139.618 19.746 139.618 18.381 139.618 17.471C139.618 17.25 139.605 16.86 139.566 16.691H140.671ZM135.705 18.095C136.537 18.251 138.162 18.381 139.02 18.381C140.671 18.381 142.413 18.264 144.103 17.991V18.94C142.634 19.109 140.775 19.278 139.033 19.278C138.136 19.278 136.537 19.161 135.718 19.057L135.705 18.095ZM135.64 20.864C136.563 21.007 138.045 21.098 138.903 21.098C140.788 21.098 142.517 20.968 144.207 20.721V21.696C142.439 21.917 140.853 22.008 138.903 22.008C138.006 22.008 136.576 21.943 135.653 21.839L135.64 20.864ZM151.121 16.964C151.043 17.25 150.939 17.744 150.887 17.991C150.705 18.927 150.432 20.409 150.068 21.696C149.6 23.542 148.729 26.233 148.04 27.65L146.896 27.273C147.689 25.934 148.599 23.282 149.08 21.449C149.405 20.253 149.743 18.628 149.834 17.939C149.886 17.575 149.912 17.133 149.886 16.86L151.121 16.964ZM148.248 19.135C149.678 19.135 151.589 18.914 153.201 18.498V19.525C151.589 19.889 149.626 20.097 148.222 20.097C147.65 20.097 147.195 20.084 146.714 20.045L146.688 19.044C147.299 19.122 147.767 19.135 148.248 19.135ZM152.356 20.929C153.032 20.864 153.89 20.812 154.735 20.812C155.489 20.812 156.282 20.838 156.984 20.916L156.958 21.904C156.282 21.826 155.528 21.761 154.761 21.761C153.942 21.761 153.149 21.8 152.356 21.891V20.929ZM152.616 24.088C152.512 24.504 152.434 24.92 152.434 25.258C152.434 25.869 152.785 26.467 154.631 26.467C155.476 26.467 156.373 26.363 157.179 26.207L157.14 27.26C156.438 27.351 155.567 27.442 154.618 27.442C152.577 27.442 151.459 26.805 151.459 25.518C151.459 25.024 151.537 24.543 151.654 23.984L152.616 24.088ZM155.567 17.367C155.905 17.822 156.373 18.628 156.646 19.148L155.944 19.46C155.684 18.94 155.229 18.147 154.878 17.653L155.567 17.367ZM157.01 16.834C157.361 17.315 157.855 18.121 158.102 18.615L157.4 18.927C157.127 18.355 156.685 17.627 156.321 17.133L157.01 16.834ZM165.476 16.691C165.45 16.912 165.424 17.172 165.411 17.562C165.385 18.082 165.385 19.824 165.385 20.916C165.385 22.632 165.58 24.907 165.58 25.778C165.58 26.688 164.982 27.611 163.292 27.611C161.42 27.611 160.393 26.948 160.393 25.687C160.393 24.504 161.524 23.711 163.396 23.711C166.139 23.711 168.284 25.193 169.285 26.012L168.687 26.935C167.517 25.856 165.593 24.556 163.279 24.556C162.031 24.556 161.368 25.037 161.368 25.635C161.368 26.246 161.875 26.688 163.162 26.688C163.916 26.688 164.553 26.467 164.553 25.557C164.553 24.556 164.423 22.06 164.423 20.916C164.423 19.746 164.423 18.381 164.423 17.471C164.423 17.25 164.41 16.86 164.371 16.691H165.476ZM160.51 18.095C161.342 18.251 162.967 18.381 163.825 18.381C165.476 18.381 167.218 18.264 168.908 17.991V18.94C167.439 19.109 165.58 19.278 163.838 19.278C162.941 19.278 161.342 19.161 160.523 19.057L160.51 18.095ZM160.445 20.864C161.368 21.007 162.85 21.098 163.708 21.098C165.593 21.098 167.322 20.968 169.012 20.721V21.696C167.244 21.917 165.658 22.008 163.708 22.008C162.811 22.008 161.381 21.943 160.458 21.839L160.445 20.864ZM175.925 16.964C175.847 17.25 175.743 17.744 175.691 17.991C175.509 18.927 175.236 20.409 174.872 21.696C174.404 23.542 173.533 26.233 172.844 27.65L171.7 27.273C172.493 25.934 173.403 23.282 173.884 21.449C174.209 20.253 174.547 18.628 174.638 17.939C174.69 17.575 174.716 17.133 174.69 16.86L175.925 16.964ZM173.052 19.135C174.482 19.135 176.393 18.914 178.005 18.498V19.525C176.393 19.889 174.43 20.097 173.026 20.097C172.454 20.097 171.999 20.084 171.518 20.045L171.492 19.044C172.103 19.122 172.571 19.135 173.052 19.135ZM177.16 20.929C177.836 20.864 178.694 20.812 179.539 20.812C180.293 20.812 181.086 20.838 181.788 20.916L181.762 21.904C181.086 21.826 180.332 21.761 179.565 21.761C178.746 21.761 177.953 21.8 177.16 21.891V20.929ZM177.42 24.088C177.316 24.504 177.238 24.92 177.238 25.258C177.238 25.869 177.589 26.467 179.435 26.467C180.28 26.467 181.177 26.363 181.983 26.207L181.944 27.26C181.242 27.351 180.371 27.442 179.422 27.442C177.381 27.442 176.263 26.805 176.263 25.518C176.263 25.024 176.341 24.543 176.458 23.984L177.42 24.088ZM180.371 17.367C180.709 17.822 181.177 18.628 181.45 19.148L180.748 19.46C180.488 18.94 180.033 18.147 179.682 17.653L180.371 17.367ZM181.814 16.834C182.165 17.315 182.659 18.121 182.906 18.615L182.204 18.927C181.931 18.355 181.489 17.627 181.125 17.133L181.814 16.834ZM188.429 16.626C188.39 16.86 188.364 17.211 188.351 17.523C188.312 18.29 188.247 20.279 188.247 21.631C188.247 22.983 188.312 25.011 188.312 25.83C188.312 27.026 187.87 27.416 187.155 27.416C186.141 27.416 184.451 26.428 184.451 25.258C184.451 24.114 185.998 22.905 187.61 22.294C188.767 21.839 190.067 21.605 191.094 21.605C193.005 21.605 194.37 22.632 194.37 24.192C194.37 25.765 193.382 26.766 191.588 27.182C191.016 27.312 190.431 27.338 189.976 27.364L189.612 26.324C190.106 26.324 190.652 26.337 191.146 26.233C192.277 26.012 193.317 25.401 193.317 24.192C193.317 23.087 192.316 22.502 191.094 22.502C189.924 22.502 188.858 22.749 187.753 23.191C186.479 23.685 185.478 24.556 185.478 25.219C185.478 25.804 186.388 26.324 186.895 26.324C187.194 26.324 187.363 26.116 187.363 25.687C187.363 24.933 187.298 23.126 187.298 21.683C187.298 20.188 187.35 18.069 187.35 17.536C187.35 17.289 187.324 16.834 187.285 16.626H188.429ZM192.472 18.069C193.395 18.55 194.812 19.434 195.436 19.954L194.916 20.786C194.279 20.188 192.823 19.291 191.991 18.849L192.472 18.069ZM184.672 18.953C185.387 19.044 185.855 19.057 186.323 19.057C187.61 19.057 189.677 18.784 190.964 18.394L190.99 19.408C189.651 19.733 187.519 20.019 186.349 20.019C185.621 20.019 185.127 19.993 184.698 19.954L184.672 18.953ZM196.239 19.343H208.043V20.292H196.239V19.343ZM198.696 26.142H207.601V27.078H198.696V26.142ZM202.037 23.009H205.469V23.932H202.037V23.009ZM198.189 16.431H199.19V28.053H198.189V16.431ZM201.608 16.158H202.596V24.569H201.608V16.158ZM205.04 16.301H206.015V24.504H205.04V16.301ZM214.346 22.996H220.092V27.975H219.117V23.893H215.282V28.053H214.346V22.996ZM219.52 16.288L220.222 17.107C218.636 17.575 216.218 17.887 214.19 18.043C214.151 17.822 214.021 17.458 213.904 17.224C215.867 17.042 218.207 16.717 219.52 16.288ZM216.647 17.289H217.635V23.451H216.647V17.289ZM213.579 19.876H220.69V20.799H213.579V19.876ZM214.957 26.506H219.598V27.39H214.957V26.506ZM209.263 20.097H213.072V20.864H209.263V20.097ZM209.341 16.548H213.059V17.328H209.341V16.548ZM209.263 21.865H213.072V22.645H209.263V21.865ZM208.652 18.29H213.501V19.096H208.652V18.29ZM209.757 23.646H213.111V27.442H209.757V26.636H212.253V24.465H209.757V23.646ZM209.25 23.646H210.095V28.04H209.25V23.646ZM38.915 36.225C40.332 36.472 42.971 36.42 44.258 36.225V37.278C42.867 37.434 40.345 37.434 38.928 37.278L38.915 36.225ZM39.422 41.529C39.305 41.997 39.24 42.361 39.24 42.712C39.24 43.31 39.656 43.895 41.437 43.895C42.594 43.895 43.608 43.791 44.648 43.544L44.674 44.636C43.868 44.805 42.776 44.909 41.424 44.909C39.253 44.909 38.278 44.181 38.278 42.959C38.278 42.53 38.343 42.062 38.486 41.438L39.422 41.529ZM36.445 35.224C36.367 35.445 36.263 35.861 36.211 36.095C35.964 37.304 35.561 39.618 35.561 41.087C35.561 41.711 35.6 42.257 35.678 42.894C35.899 42.309 36.198 41.529 36.419 40.996L36.965 41.425C36.64 42.348 36.159 43.713 36.042 44.337C36.003 44.519 35.977 44.766 35.977 44.922C35.99 45.052 36.003 45.234 36.016 45.377L35.093 45.442C34.833 44.519 34.612 43.024 34.612 41.256C34.612 39.345 35.041 37.122 35.197 36.043C35.236 35.744 35.275 35.419 35.288 35.133L36.445 35.224ZM46.8518 36.81C47.3328 36.862 47.8918 36.888 48.4508 36.888C49.8548 36.888 51.4928 36.719 52.9878 36.225L53.0138 37.187C51.7398 37.538 50.0368 37.824 48.4508 37.811C47.9698 37.811 47.4108 37.798 46.9298 37.785L46.8518 36.81ZM51.4668 34.691C51.2978 35.328 51.0248 36.55 50.7128 37.473C50.0888 39.345 48.8928 41.711 47.8138 43.167L46.8128 42.647C47.9698 41.295 49.1788 38.981 49.7118 37.447C49.9978 36.628 50.2838 35.484 50.3228 34.574L51.4668 34.691ZM54.5348 38.708C54.4958 39.241 54.4958 39.631 54.5088 40.099C54.5348 40.944 54.6518 42.92 54.6518 43.778C54.6518 44.818 53.9888 45.663 52.3768 45.663C50.9468 45.663 49.7898 45.091 49.7898 43.791C49.7898 42.595 50.9208 41.841 52.3768 41.841C54.5608 41.841 56.2378 42.933 57.3038 43.856L56.7578 44.74C55.7568 43.83 54.2618 42.673 52.3508 42.673C51.3888 42.673 50.7388 43.115 50.7388 43.713C50.7388 44.311 51.2458 44.727 52.2598 44.727C53.3388 44.727 53.7028 44.155 53.7028 43.453C53.7028 42.465 53.5598 40.138 53.5078 38.708H54.5348ZM57.1348 39.046C56.4328 38.448 55.0158 37.655 54.1578 37.252L54.6778 36.472C55.6268 36.875 57.0958 37.72 57.7198 38.188L57.1348 39.046ZM62.6015 34.743C62.3285 35.705 62.0815 37.46 62.0035 38.37C62.5365 37.031 63.8885 35.406 65.5395 35.406C67.2555 35.406 68.5035 37.148 68.5035 39.878C68.5035 43.479 66.2285 45.078 63.0175 45.663L62.3935 44.727C65.2275 44.298 67.4245 43.154 67.4245 39.891C67.4245 37.837 66.7355 36.355 65.3705 36.355C63.7455 36.355 62.2375 38.721 62.0815 40.424C62.0165 40.918 62.0165 41.373 62.1075 42.023L61.0935 42.101C61.0285 41.607 60.9635 40.879 60.9635 40.034C60.9635 38.799 61.2105 36.888 61.3665 35.822C61.4185 35.432 61.4445 35.068 61.4705 34.704L62.6015 34.743ZM78.2473 34.691C78.2213 34.912 78.1953 35.172 78.1823 35.562C78.1563 36.082 78.1563 37.824 78.1563 38.916C78.1563 40.632 78.3513 42.907 78.3513 43.778C78.3513 44.688 77.7533 45.611 76.0633 45.611C74.1913 45.611 73.1643 44.948 73.1643 43.687C73.1643 42.504 74.2953 41.711 76.1673 41.711C78.9103 41.711 81.0553 43.193 82.0563 44.012L81.4583 44.935C80.2883 43.856 78.3643 42.556 76.0503 42.556C74.8023 42.556 74.1393 43.037 74.1393 43.635C74.1393 44.246 74.6463 44.688 75.9333 44.688C76.6873 44.688 77.3243 44.467 77.3243 43.557C77.3243 42.556 77.1943 40.06 77.1943 38.916C77.1943 37.746 77.1943 36.381 77.1943 35.471C77.1943 35.25 77.1813 34.86 77.1423 34.691H78.2473ZM73.2813 36.095C74.1133 36.251 75.7383 36.381 76.5963 36.381C78.2473 36.381 79.9893 36.264 81.6793 35.991V36.94C80.2103 37.109 78.3513 37.278 76.6093 37.278C75.7123 37.278 74.1133 37.161 73.2943 37.057L73.2813 36.095ZM73.2163 38.864C74.1393 39.007 75.6213 39.098 76.4793 39.098C78.3643 39.098 80.0933 38.968 81.7833 38.721V39.696C80.0153 39.917 78.4293 40.008 76.4793 40.008C75.5823 40.008 74.1523 39.943 73.2293 39.839L73.2163 38.864ZM91.566 34.704C91.54 34.86 91.501 35.367 91.501 35.523C91.462 36.368 91.488 38.877 91.501 39.917L90.513 39.41C90.513 38.838 90.5 36.251 90.461 35.536C90.435 35.185 90.396 34.821 90.37 34.704H91.566ZM84.65 36.524C86.418 36.498 89.668 36.381 91.67 36.381C93.256 36.381 94.868 36.381 95.479 36.394L95.466 37.356C94.738 37.317 93.568 37.291 91.657 37.291C89.421 37.291 86.639 37.382 84.676 37.525L84.65 36.524ZM91.475 40.294C91.475 42.036 90.669 42.907 89.486 42.907C88.394 42.907 87.341 42.14 87.341 40.723C87.341 39.436 88.407 38.474 89.642 38.474C91.15 38.474 91.917 39.592 91.917 41.087C91.917 42.855 91.059 44.805 88.043 45.702L87.172 44.857C89.538 44.298 90.916 43.141 90.916 40.996C90.916 39.826 90.344 39.332 89.642 39.332C88.953 39.332 88.316 39.865 88.316 40.71C88.316 41.529 88.927 41.997 89.642 41.997C90.448 41.997 90.968 41.321 90.76 39.93L91.475 40.294ZM97.2458 41.841C98.3378 41.841 99.2218 42.725 99.2218 43.817C99.2218 44.909 98.3378 45.793 97.2458 45.793C96.1538 45.793 95.2568 44.909 95.2568 43.817C95.2568 42.725 96.1538 41.841 97.2458 41.841ZM97.2458 45.13C97.9738 45.13 98.5588 44.545 98.5588 43.817C98.5588 43.089 97.9738 42.504 97.2458 42.504C96.5178 42.504 95.9198 43.089 95.9198 43.817C95.9198 44.545 96.5178 45.13 97.2458 45.13ZM108.108 36.134H119.548V37.083H108.108V36.134ZM108.745 44.935C110.344 44.649 112.918 44.142 115.323 43.635L115.414 44.571C113.165 45.065 110.734 45.559 109.044 45.923L108.745 44.935ZM118.56 38.097L119.379 38.695C118.339 39.657 116.909 40.723 115.804 41.412L115.089 40.827C116.181 40.151 117.676 38.994 118.56 38.097ZM113.282 34.08H114.296V36.732H113.282V34.08ZM114.647 36.68C115.245 40.567 116.415 43.076 119.912 45.13C119.652 45.325 119.34 45.689 119.197 45.988C115.531 43.648 114.348 40.931 113.711 36.849L114.647 36.68ZM113.36 36.446L114.348 36.836C112.996 38.838 110.734 40.697 108.29 41.802C108.173 41.568 107.913 41.165 107.744 40.97C110.045 39.969 112.294 38.214 113.36 36.446ZM110.708 39.93L111.527 39.124L111.696 39.189V44.922H110.708V39.93ZM120.62 41.334H126.158V42.205H120.62V41.334ZM120.62 36.407H126.08V37.2H120.62V36.407ZM125.118 34.353L125.95 34.613C125.638 35.198 125.313 35.796 125.027 36.199L124.377 35.952C124.637 35.51 124.949 34.821 125.118 34.353ZM122.908 34.223H123.766V39.969H122.908V34.223ZM120.841 34.652L121.53 34.392C121.868 34.86 122.193 35.484 122.297 35.887L121.569 36.199C121.465 35.77 121.166 35.133 120.841 34.652ZM122.921 43.219L123.532 42.647C124.351 43.193 125.443 44.012 126.002 44.506L125.365 45.169C124.832 44.662 123.753 43.804 122.921 43.219ZM123.727 37.343C124.195 37.59 125.794 38.63 126.158 38.903L125.638 39.618C125.17 39.176 123.792 38.149 123.233 37.798L123.727 37.343ZM122.83 36.823L123.493 37.083C122.947 38.188 121.907 39.358 120.971 39.943C120.841 39.748 120.568 39.449 120.386 39.306C121.309 38.812 122.31 37.785 122.83 36.823ZM126.158 34.691H132.333V35.549H126.158V34.691ZM127.484 39.514V40.762H131.007V39.514H127.484ZM127.484 41.49V42.777H131.007V41.49H127.484ZM127.484 37.538V38.786H131.007V37.538H127.484ZM126.6 36.771H131.93V43.544H126.6V36.771ZM128.732 35.107L129.798 35.237C129.564 35.991 129.291 36.797 129.057 37.343L128.225 37.161C128.42 36.589 128.628 35.705 128.732 35.107ZM127.796 43.778L128.641 44.285C127.978 44.948 126.873 45.65 125.911 46.04C125.755 45.858 125.482 45.559 125.261 45.39C126.21 45.013 127.276 44.35 127.796 43.778ZM129.681 44.337L130.396 43.843C131.163 44.324 132.138 45.026 132.632 45.507L131.878 46.04C131.423 45.572 130.448 44.831 129.681 44.337ZM122.882 40.255H123.779V41.594C123.779 43.037 123.454 44.688 120.906 45.819C120.802 45.598 120.542 45.26 120.373 45.078C122.648 44.09 122.882 42.725 122.882 41.581V40.255ZM133.783 36.81C134.264 36.862 134.823 36.888 135.382 36.888C136.786 36.888 138.424 36.719 139.919 36.225L139.945 37.187C138.671 37.538 136.968 37.824 135.382 37.811C134.901 37.811 134.342 37.798 133.861 37.785L133.783 36.81ZM138.398 34.691C138.229 35.328 137.956 36.55 137.644 37.473C137.02 39.345 135.824 41.711 134.745 43.167L133.744 42.647C134.901 41.295 136.11 38.981 136.643 37.447C136.929 36.628 137.215 35.484 137.254 34.574L138.398 34.691ZM141.466 38.708C141.427 39.241 141.427 39.631 141.44 40.099C141.466 40.944 141.583 42.92 141.583 43.778C141.583 44.818 140.92 45.663 139.308 45.663C137.878 45.663 136.721 45.091 136.721 43.791C136.721 42.595 137.852 41.841 139.308 41.841C141.492 41.841 143.169 42.933 144.235 43.856L143.689 44.74C142.688 43.83 141.193 42.673 139.282 42.673C138.32 42.673 137.67 43.115 137.67 43.713C137.67 44.311 138.177 44.727 139.191 44.727C140.27 44.727 140.634 44.155 140.634 43.453C140.634 42.465 140.491 40.138 140.439 38.708H141.466ZM144.066 39.046C143.364 38.448 141.947 37.655 141.089 37.252L141.609 36.472C142.558 36.875 144.027 37.72 144.651 38.188L144.066 39.046ZM155.019 37.59C154.72 37.772 154.395 37.941 154.018 38.136C153.134 38.591 151.691 39.267 150.417 40.112C149.208 40.905 148.48 41.763 148.48 42.738C148.48 43.817 149.507 44.493 151.561 44.493C152.978 44.493 154.72 44.311 155.734 44.051L155.721 45.221C154.746 45.39 153.238 45.533 151.613 45.533C149.169 45.533 147.401 44.805 147.401 42.855C147.401 41.451 148.35 40.346 149.871 39.332C151.197 38.448 152.718 37.733 153.563 37.265C153.94 37.044 154.226 36.875 154.499 36.641L155.019 37.59ZM148.792 35.055C149.39 36.719 150.183 38.344 150.794 39.384L149.897 39.93C149.247 38.864 148.467 37.109 147.765 35.497L148.792 35.055ZM155.24 34.925C155.565 35.406 156.033 36.186 156.293 36.719L155.591 37.044C155.331 36.511 154.902 35.718 154.538 35.224L155.24 34.925ZM156.67 34.405C157.008 34.886 157.515 35.705 157.762 36.186L157.06 36.498C156.774 35.939 156.358 35.185 155.981 34.704L156.67 34.405ZM163.255 34.912C163.203 35.146 163.151 35.432 163.099 35.679C163.008 36.147 162.839 37.213 162.657 38.019C162.215 39.852 161.292 43.089 159.823 45.455L158.757 45.039C160.239 43.05 161.279 39.579 161.63 37.993C161.877 36.953 162.046 35.783 162.046 34.782L163.255 34.912ZM167.727 36.407C168.533 37.46 169.664 39.826 170.106 41.022L169.092 41.503C168.715 40.177 167.688 37.915 166.778 36.836L167.727 36.407ZM158.575 37.759C158.978 37.785 159.316 37.772 159.732 37.759C160.707 37.733 163.346 37.447 164.23 37.447C165.387 37.447 166.336 37.889 166.336 39.644C166.336 41.191 166.128 43.258 165.582 44.337C165.179 45.208 164.529 45.429 163.684 45.429C163.19 45.429 162.566 45.338 162.163 45.234L161.981 44.155C162.527 44.324 163.216 44.415 163.58 44.415C164.061 44.415 164.451 44.311 164.711 43.752C165.127 42.868 165.335 41.178 165.335 39.774C165.335 38.578 164.789 38.357 163.957 38.357C163.086 38.357 160.642 38.656 159.849 38.734C159.55 38.773 159.017 38.838 158.679 38.89L158.575 37.759ZM167.87 34.522C168.195 34.99 168.663 35.783 168.936 36.316L168.234 36.628C167.974 36.095 167.532 35.315 167.168 34.821L167.87 34.522ZM169.3 34.002C169.651 34.483 170.145 35.302 170.405 35.783L169.69 36.095C169.417 35.523 168.988 34.782 168.611 34.301L169.3 34.002ZM176.3 34.08H177.327V36.173H176.3V34.08ZM171.451 35.458H182.306V38.266H181.279V36.381H172.439V38.266H171.451V35.458ZM175.78 36.966L176.794 37.187C175.832 39.163 174.467 41.789 173.544 43.362L172.543 43.089C173.492 41.529 174.896 38.877 175.78 36.966ZM179.225 39.657L180.304 39.813C179.238 43.843 176.456 45.351 171.971 46.066C171.867 45.832 171.568 45.403 171.386 45.182C175.793 44.636 178.38 43.271 179.225 39.657ZM171.074 39.072H182.618V39.995H171.074V39.072ZM173.297 42.634L173.96 41.945C176.69 42.699 180.174 44.103 181.994 45.26L181.266 46.066C179.537 44.909 176.092 43.44 173.297 42.634ZM185.849 35.939C185.784 36.238 185.745 36.862 185.732 37.2C185.719 38.006 185.732 39.202 185.823 40.268C186.044 42.439 186.668 43.882 187.604 43.882C188.267 43.882 188.878 42.543 189.216 41.243L190.035 42.166C189.242 44.363 188.462 45.117 187.578 45.117C186.343 45.117 185.173 43.895 184.809 40.528C184.692 39.41 184.666 37.824 184.666 37.07C184.666 36.771 184.666 36.212 184.588 35.913L185.849 35.939ZM192.609 36.29C193.779 37.798 194.715 40.567 194.91 42.764L193.857 43.18C193.636 40.84 192.843 38.162 191.608 36.641L192.609 36.29ZM202.873 36.134C202.704 37.486 202.444 39.007 202.041 40.398C201.248 43.063 200.208 44.441 199.012 44.441C197.842 44.441 196.685 43.115 196.685 40.957C196.685 38.136 199.194 35.679 202.379 35.679C205.421 35.679 207.358 37.824 207.358 40.463C207.358 43.18 205.564 45 202.47 45.403L201.872 44.441C202.288 44.402 202.678 44.35 202.99 44.285C204.654 43.908 206.292 42.66 206.292 40.411C206.292 38.331 204.849 36.615 202.353 36.615C199.493 36.615 197.712 38.968 197.712 40.879C197.712 42.517 198.453 43.245 199.038 43.245C199.649 43.245 200.351 42.361 201.014 40.164C201.391 38.929 201.664 37.46 201.794 36.108L202.873 36.134ZM209.172 36.446C209.666 36.433 210.082 36.407 210.342 36.381C211.174 36.29 213.631 36.056 216.023 35.848C217.453 35.731 218.662 35.653 219.533 35.627L219.546 36.667C218.792 36.654 217.661 36.68 216.998 36.862C215.139 37.46 214.008 39.449 214.008 40.983C214.008 43.518 216.387 44.337 218.493 44.415L218.116 45.481C215.711 45.39 212.981 44.116 212.981 41.204C212.981 39.189 214.216 37.525 215.399 36.823C214.008 36.966 210.693 37.291 209.289 37.59L209.172 36.446ZM217.661 38.253C217.96 38.682 218.454 39.488 218.74 40.073L218.064 40.372C217.765 39.748 217.401 39.085 217.011 38.539L217.661 38.253ZM219.078 37.707C219.403 38.136 219.91 38.929 220.209 39.501L219.546 39.826C219.234 39.202 218.844 38.552 218.441 38.006L219.078 37.707ZM43.569 55.252C43.283 55.421 42.958 55.603 42.568 55.798C41.697 56.253 39.89 57.111 38.616 57.943C37.407 58.736 36.679 59.594 36.679 60.569C36.679 61.648 37.719 62.324 39.773 62.324C41.177 62.324 42.919 62.142 43.933 61.882L43.92 63.052C42.945 63.221 41.437 63.364 39.812 63.364C37.368 63.364 35.6 62.636 35.6 60.686C35.6 59.282 36.549 58.177 38.083 57.163C39.409 56.279 41.229 55.408 42.074 54.927C42.451 54.706 42.737 54.537 43.01 54.316L43.569 55.252ZM36.991 52.886C37.589 54.55 38.395 56.175 38.993 57.228L38.109 57.761C37.446 56.695 36.666 54.94 35.964 53.328L36.991 52.886ZM46.4328 54.368C46.9268 54.355 47.3428 54.329 47.6028 54.303C48.4478 54.212 50.8918 53.978 53.2968 53.77C54.7138 53.653 55.9228 53.575 56.7938 53.549L56.8068 54.589C56.0528 54.576 54.9218 54.602 54.2588 54.784C52.3998 55.382 51.2688 57.371 51.2688 58.905C51.2688 61.44 53.6478 62.246 55.7538 62.337L55.3898 63.403C52.9718 63.312 50.2418 62.038 50.2418 59.126C50.2418 57.098 51.4768 55.447 52.6728 54.745C51.2688 54.888 47.9668 55.213 46.5498 55.512L46.4328 54.368ZM63.1737 52.782C63.0957 53.133 63.0567 53.406 63.0047 53.692C62.8357 55.148 62.2507 59.152 62.2507 60.556C62.2507 61.817 62.9657 62.584 64.4477 62.584C66.4237 62.584 67.6847 61.726 67.6847 60.374C67.6847 59.503 67.2167 58.541 66.2547 57.735L67.3987 57.488C68.2957 58.476 68.7377 59.386 68.7377 60.491C68.7377 62.428 67.0087 63.611 64.4347 63.611C62.6797 63.611 61.2497 62.831 61.2497 60.712C61.2497 59.321 61.8607 55.434 62.0037 53.64C62.0427 53.185 62.0427 52.951 62.0167 52.717L63.1737 52.782ZM59.0137 54.511C60.1057 54.862 61.6657 55.031 62.8227 55.031C63.8107 55.031 64.7077 54.979 65.4747 54.862L65.4487 55.85C64.6167 55.928 63.8497 55.967 62.7967 55.967C61.6527 55.967 60.0927 55.772 58.9487 55.46L59.0137 54.511ZM58.6887 57.748C59.9497 58.19 61.4707 58.307 62.6667 58.307C63.5637 58.307 64.4607 58.281 65.3707 58.151L65.3577 59.139C64.4867 59.23 63.6807 59.256 62.8097 59.256C61.3927 59.256 59.8197 59.1 58.6367 58.736L58.6887 57.748ZM76.285 52.717C76.233 52.873 76.181 53.107 76.142 53.289C75.921 54.381 75.7 56.435 75.7 58.216C75.7 59.906 76.064 61.466 76.467 62.688L75.518 62.974C75.141 61.817 74.79 59.971 74.79 58.32C74.79 56.539 75.05 54.433 75.167 53.315C75.193 53.081 75.206 52.847 75.206 52.678L76.285 52.717ZM74.192 54.316C76.48 54.316 78.742 54.134 80.536 53.731L80.549 54.693C78.677 55.018 76.116 55.213 74.179 55.213C73.62 55.213 72.606 55.161 72.073 55.135L72.047 54.16C72.502 54.238 73.633 54.316 74.192 54.316ZM79.613 55.85C79.535 56.019 79.418 56.37 79.34 56.578C78.573 58.983 77.273 60.79 75.908 61.843C75.076 62.48 74.036 62.961 73.113 62.961C72.255 62.961 71.579 62.441 71.579 61.336C71.579 59.555 73.23 57.722 75.154 56.981C76.025 56.643 77.078 56.448 77.923 56.448C80.38 56.448 81.927 57.878 81.927 59.698C81.927 61.557 80.692 63.182 77.676 63.663L77.117 62.792C79.457 62.532 80.913 61.323 80.913 59.646C80.913 58.385 79.847 57.28 77.91 57.28C76.818 57.28 75.856 57.592 75.193 57.891C73.724 58.541 72.554 59.971 72.554 61.167C72.554 61.7 72.814 61.96 73.295 61.96C73.945 61.96 74.79 61.596 75.622 60.868C76.779 59.854 77.845 58.45 78.443 56.344C78.495 56.149 78.56 55.798 78.573 55.59L79.613 55.85ZM87.2903 52.743C87.0173 53.705 86.7703 55.46 86.6923 56.37C87.2253 55.031 88.5773 53.406 90.2283 53.406C91.9443 53.406 93.1923 55.148 93.1923 57.878C93.1923 61.479 90.9173 63.078 87.7063 63.663L87.0823 62.727C89.9163 62.298 92.1133 61.154 92.1133 57.891C92.1133 55.837 91.4243 54.355 90.0593 54.355C88.4343 54.355 86.9263 56.721 86.7703 58.424C86.7053 58.918 86.7053 59.373 86.7963 60.023L85.7823 60.101C85.7173 59.607 85.6523 58.879 85.6523 58.034C85.6523 56.799 85.8993 54.888 86.0553 53.822C86.1073 53.432 86.1333 53.068 86.1593 52.704L87.2903 52.743ZM101.143 52.912C101.091 53.146 101.039 53.432 100.987 53.679C100.896 54.147 100.727 55.213 100.545 56.019C100.103 57.852 99.1797 61.089 97.7107 63.455L96.6447 63.039C98.1267 61.05 99.1667 57.579 99.5177 55.993C99.7647 54.953 99.9337 53.783 99.9337 52.782L101.143 52.912ZM105.615 54.407C106.421 55.46 107.552 57.826 107.994 59.022L106.98 59.503C106.603 58.177 105.576 55.915 104.666 54.836L105.615 54.407ZM96.4627 55.759C96.8657 55.785 97.2037 55.772 97.6197 55.759C98.5947 55.733 101.234 55.447 102.118 55.447C103.275 55.447 104.224 55.889 104.224 57.644C104.224 59.191 104.016 61.258 103.47 62.337C103.067 63.208 102.417 63.429 101.572 63.429C101.078 63.429 100.454 63.338 100.051 63.234L99.8687 62.155C100.415 62.324 101.104 62.415 101.468 62.415C101.949 62.415 102.339 62.311 102.599 61.752C103.015 60.868 103.223 59.178 103.223 57.774C103.223 56.578 102.677 56.357 101.845 56.357C100.974 56.357 98.5297 56.656 97.7367 56.734C97.4377 56.773 96.9047 56.838 96.5667 56.89L96.4627 55.759ZM105.758 52.522C106.083 52.99 106.551 53.783 106.824 54.316L106.122 54.628C105.862 54.095 105.42 53.315 105.056 52.821L105.758 52.522ZM107.188 52.002C107.539 52.483 108.033 53.302 108.293 53.783L107.578 54.095C107.305 53.523 106.876 52.782 106.499 52.301L107.188 52.002ZM114.111 52.782C114.033 53.068 113.942 53.562 113.89 53.809C113.695 54.745 113.422 56.214 113.058 57.514C112.59 59.36 111.719 62.051 111.03 63.468L109.899 63.091C110.679 61.739 111.589 59.1 112.083 57.267C112.395 56.071 112.733 54.433 112.824 53.757C112.876 53.393 112.902 52.951 112.876 52.678L114.111 52.782ZM111.238 54.953C112.668 54.953 114.579 54.719 116.191 54.316V55.33C114.579 55.694 112.616 55.915 111.212 55.915C110.64 55.915 110.185 55.902 109.704 55.863L109.678 54.849C110.289 54.927 110.757 54.953 111.238 54.953ZM115.346 56.734C116.022 56.669 116.893 56.63 117.725 56.63C118.479 56.63 119.272 56.656 119.974 56.734L119.948 57.722C119.272 57.644 118.518 57.566 117.751 57.566C116.945 57.566 116.139 57.618 115.346 57.709V56.734ZM115.606 59.893C115.502 60.322 115.424 60.725 115.424 61.063C115.424 61.674 115.775 62.272 117.621 62.272C118.479 62.272 119.363 62.181 120.169 62.025L120.13 63.065C119.428 63.169 118.557 63.247 117.608 63.247C115.567 63.247 114.449 62.623 114.449 61.336C114.449 60.842 114.527 60.348 114.644 59.802L115.606 59.893ZM123.998 53.939C123.933 54.238 123.894 54.862 123.881 55.2C123.868 56.006 123.881 57.202 123.972 58.268C124.193 60.439 124.817 61.882 125.753 61.882C126.416 61.882 127.027 60.543 127.365 59.243L128.184 60.166C127.391 62.363 126.611 63.117 125.727 63.117C124.492 63.117 123.322 61.895 122.958 58.528C122.841 57.41 122.815 55.824 122.815 55.07C122.815 54.771 122.815 54.212 122.737 53.913L123.998 53.939ZM130.758 54.29C131.928 55.798 132.864 58.567 133.059 60.764L132.006 61.18C131.785 58.84 130.992 56.162 129.757 54.641L130.758 54.29ZM134.454 54.446C134.948 54.433 135.364 54.407 135.624 54.381C136.456 54.29 138.913 54.056 141.305 53.848C142.735 53.731 143.944 53.653 144.815 53.627L144.828 54.667C144.074 54.654 142.943 54.68 142.28 54.862C140.421 55.46 139.29 57.449 139.29 58.983C139.29 61.518 141.669 62.337 143.775 62.415L143.398 63.481C140.993 63.39 138.263 62.116 138.263 59.204C138.263 57.189 139.498 55.525 140.681 54.823C139.29 54.966 135.975 55.291 134.571 55.59L134.454 54.446ZM142.943 56.253C143.242 56.682 143.736 57.488 144.022 58.073L143.346 58.372C143.047 57.748 142.683 57.085 142.293 56.539L142.943 56.253ZM144.36 55.707C144.685 56.136 145.192 56.929 145.491 57.501L144.828 57.826C144.516 57.202 144.126 56.552 143.723 56.006L144.36 55.707ZM154.325 52.704C154.299 52.86 154.26 53.367 154.26 53.523C154.221 54.368 154.247 56.877 154.26 57.917L153.272 57.41C153.272 56.838 153.259 54.251 153.22 53.536C153.194 53.185 153.155 52.821 153.129 52.704H154.325ZM147.409 54.524C149.177 54.498 152.427 54.381 154.429 54.381C156.015 54.381 157.627 54.381 158.238 54.394L158.225 55.356C157.497 55.317 156.327 55.291 154.416 55.291C152.18 55.291 149.398 55.382 147.435 55.525L147.409 54.524ZM154.234 58.294C154.234 60.036 153.428 60.907 152.245 60.907C151.153 60.907 150.1 60.14 150.1 58.723C150.1 57.436 151.166 56.474 152.401 56.474C153.909 56.474 154.676 57.592 154.676 59.087C154.676 60.855 153.818 62.805 150.802 63.702L149.931 62.857C152.297 62.298 153.675 61.141 153.675 58.996C153.675 57.826 153.103 57.332 152.401 57.332C151.712 57.332 151.075 57.865 151.075 58.71C151.075 59.529 151.686 59.997 152.401 59.997C153.207 59.997 153.727 59.321 153.519 57.93L154.234 58.294ZM160.136 59.841C161.228 59.841 162.112 60.725 162.112 61.817C162.112 62.909 161.228 63.793 160.136 63.793C159.044 63.793 158.147 62.909 158.147 61.817C158.147 60.725 159.044 59.841 160.136 59.841ZM160.136 63.13C160.864 63.13 161.449 62.545 161.449 61.817C161.449 61.089 160.864 60.504 160.136 60.504C159.408 60.504 158.81 61.089 158.81 61.817C158.81 62.545 159.408 63.13 160.136 63.13ZM176.367 57.033H177.342V60.127C177.342 60.634 177.238 60.894 176.822 61.037C176.419 61.18 175.782 61.193 174.781 61.193C174.729 60.92 174.586 60.556 174.456 60.296C175.223 60.322 175.912 60.322 176.12 60.309C176.302 60.309 176.367 60.257 176.367 60.101V57.033ZM173.741 57.527L174.742 57.839C174.053 58.957 172.987 60.101 172.038 60.816C171.843 60.647 171.414 60.335 171.167 60.192C172.142 59.542 173.13 58.541 173.741 57.527ZM179.214 58.021L179.994 57.527C180.969 58.307 182.1 59.438 182.607 60.244L181.775 60.803C181.294 60.01 180.176 58.84 179.214 58.021ZM179.526 59.373L180.514 59.672C179.422 62.454 176.848 63.65 172.623 64.144C172.545 63.845 172.35 63.455 172.142 63.208C176.146 62.844 178.525 61.83 179.526 59.373ZM171.063 56.188H182.646V57.124H171.063V56.188ZM176.939 53.614H181.385V54.498H176.939V53.614ZM176.354 52.093H177.355V56.682H176.354V52.093ZM172.987 53.12H173.975V56.539H172.987V53.12ZM185.982 53.939C185.917 54.238 185.878 54.862 185.865 55.2C185.852 56.006 185.865 57.202 185.956 58.268C186.177 60.439 186.801 61.882 187.737 61.882C188.4 61.882 189.011 60.543 189.349 59.243L190.168 60.166C189.375 62.363 188.595 63.117 187.711 63.117C186.476 63.117 185.306 61.895 184.942 58.528C184.825 57.41 184.799 55.824 184.799 55.07C184.799 54.771 184.799 54.212 184.721 53.913L185.982 53.939ZM192.742 54.29C193.912 55.798 194.848 58.567 195.043 60.764L193.99 61.18C193.769 58.84 192.976 56.162 191.741 54.641L192.742 54.29ZM196.515 54.368C197.009 54.355 197.425 54.329 197.685 54.303C198.53 54.212 200.974 53.978 203.379 53.77C204.796 53.653 206.005 53.575 206.876 53.549L206.889 54.589C206.135 54.576 205.004 54.602 204.341 54.784C202.482 55.382 201.351 57.371 201.351 58.905C201.351 61.44 203.73 62.246 205.836 62.337L205.472 63.403C203.054 63.312 200.324 62.038 200.324 59.126C200.324 57.098 201.559 55.447 202.755 54.745C201.351 54.888 198.049 55.213 196.632 55.512L196.515 54.368ZM211.057 53.939C210.992 54.238 210.953 54.862 210.94 55.2C210.927 56.006 210.94 57.202 211.031 58.268C211.252 60.439 211.876 61.882 212.812 61.882C213.475 61.882 214.086 60.543 214.424 59.243L215.243 60.166C214.45 62.363 213.67 63.117 212.786 63.117C211.551 63.117 210.381 61.895 210.017 58.528C209.9 57.41 209.874 55.824 209.874 55.07C209.874 54.771 209.874 54.212 209.796 53.913L211.057 53.939ZM217.817 54.29C218.987 55.798 219.923 58.567 220.118 60.764L219.065 61.18C218.844 58.84 218.051 56.162 216.816 54.641L217.817 54.29ZM42.893 71.873C42.854 72.081 42.841 72.341 42.841 72.64C42.828 73.121 42.88 75.318 42.88 76.046C42.88 79.023 42.88 81.155 40.124 82.767L39.175 82.039C39.578 81.87 40.111 81.545 40.436 81.22C41.827 80.011 41.892 78.529 41.892 76.033C41.892 75.201 41.84 73.186 41.801 72.64C41.775 72.354 41.723 72.068 41.671 71.873H42.893ZM38.135 74.564C38.707 74.655 39.526 74.707 40.241 74.707C41.84 74.707 43.686 74.603 44.986 74.304V75.357C43.725 75.565 41.905 75.682 40.254 75.682C39.617 75.682 38.707 75.643 38.135 75.591V74.564ZM36.315 72.068C36.237 72.302 36.146 72.666 36.094 72.913C35.678 74.798 35.223 77.645 35.73 79.777C35.899 79.218 36.185 78.425 36.419 77.788L36.978 78.126C36.666 79.023 36.276 80.349 36.133 80.999C36.094 81.181 36.068 81.428 36.081 81.584C36.081 81.714 36.107 81.883 36.12 82.026L35.223 82.13C34.963 81.324 34.547 79.634 34.547 78.009C34.547 75.89 34.885 73.901 35.041 72.809C35.08 72.523 35.093 72.172 35.106 71.938L36.315 72.068ZM48.574 72.432C48.86 72.458 49.224 72.471 49.484 72.471C50.173 72.471 53.254 72.38 53.943 72.315C54.333 72.276 54.515 72.25 54.658 72.198L55.256 72.965C55.022 73.121 54.762 73.29 54.515 73.485C53.878 73.979 52.11 75.5 51.096 76.332C51.694 76.137 52.318 76.072 52.903 76.072C55.061 76.072 56.608 77.359 56.608 79.114C56.608 81.207 54.879 82.572 52.123 82.572C50.355 82.572 49.276 81.805 49.276 80.713C49.276 79.829 50.082 79.023 51.278 79.023C53.007 79.023 53.878 80.245 53.969 81.558L53.033 81.714C52.955 80.609 52.318 79.816 51.278 79.816C50.68 79.816 50.225 80.18 50.225 80.635C50.225 81.272 50.94 81.649 51.967 81.649C54.177 81.649 55.568 80.739 55.568 79.114C55.568 77.827 54.346 76.878 52.643 76.878C50.485 76.878 49.315 77.788 47.677 79.465L46.923 78.711C48.002 77.827 49.679 76.423 50.42 75.786C51.148 75.188 52.786 73.823 53.436 73.238C52.747 73.277 50.147 73.381 49.471 73.42C49.172 73.446 48.886 73.459 48.6 73.498L48.574 72.432ZM64.785 81.493H70.466V82.416H64.785V81.493ZM64.369 71.6H70.297V72.523H65.318V83.04H64.369V71.6ZM59.117 76.852H59.936V81.571H59.117V76.852ZM59.988 72.484V74.772H62.523V72.484H59.988ZM59.117 71.626H63.433V75.63H59.117V71.626ZM60.898 75.201H61.782V81.142H60.898V75.201ZM58.389 81.467C59.741 81.194 61.834 80.7 63.81 80.232L63.914 81.116C62.029 81.584 60.027 82.052 58.584 82.403L58.389 81.467ZM61.327 77.515H63.693V78.386H61.327V77.515ZM64.798 74.694H69.738V79.296H64.798V78.386H68.789V75.604H64.798V74.694ZM70.986 72.211H77.291V73.004H70.986V72.211ZM73.651 71.08H74.6V72.588H73.651V71.08ZM72.39 80.531C73.209 80.492 74.288 80.427 75.458 80.349L75.471 81.012C74.379 81.09 73.339 81.168 72.468 81.233L72.39 80.531ZM76.173 78.035H77.005V82.104C77.005 82.533 76.927 82.767 76.602 82.897C76.29 83.027 75.796 83.027 75.003 83.027C74.964 82.819 74.847 82.481 74.73 82.273C75.302 82.299 75.822 82.286 75.965 82.286C76.121 82.273 76.173 82.234 76.173 82.091V78.035ZM74.561 79.465L75.133 79.296C75.497 79.985 75.861 80.882 75.965 81.441L75.354 81.636C75.25 81.064 74.925 80.154 74.561 79.465ZM72.676 74.213L73.092 73.771C74.015 74.252 75.12 75.006 75.653 75.539L75.224 76.072C74.691 75.513 73.599 74.733 72.676 74.213ZM73.703 76.826L74.548 76.969C74.288 78.282 73.937 79.985 73.638 80.973L72.962 80.843C73.248 79.816 73.56 78.035 73.703 76.826ZM71.259 78.035H76.524V78.776H72.078V83.053H71.259V78.035ZM71.61 73.55H72.338V76.436H75.9V73.55H76.654V77.151H71.61V73.55ZM74.691 73.342L75.38 73.524C74.873 74.655 73.989 75.695 73.092 76.371C72.988 76.254 72.702 76.033 72.533 75.929C73.43 75.305 74.249 74.382 74.691 73.342ZM78.253 76.202H82.686V77.047H78.253V76.202ZM78.253 78.815H82.686V79.673H78.253V78.815ZM78.279 81.467H82.946V82.377H78.279V81.467ZM78.734 71.093L79.618 71.288C79.072 73.29 78.24 75.305 77.304 76.618C77.148 76.475 76.784 76.176 76.563 76.02C77.499 74.811 78.266 72.939 78.734 71.093ZM80.996 71.223L81.932 71.444C81.607 72.354 81.23 73.42 80.892 74.096L80.125 73.888C80.437 73.173 80.827 72.016 80.996 71.223ZM78.76 73.563H82.803V74.447H78.76V83.066H77.863V74.369L78.617 73.563H78.76ZM80.281 73.966H81.126V81.935H80.281V73.966ZM88.835 73.225C90.252 73.472 92.891 73.42 94.178 73.225V74.278C92.787 74.434 90.265 74.434 88.848 74.278L88.835 73.225ZM89.342 78.529C89.225 78.997 89.16 79.361 89.16 79.712C89.16 80.31 89.576 80.895 91.357 80.895C92.514 80.895 93.528 80.791 94.568 80.544L94.594 81.636C93.788 81.805 92.696 81.909 91.344 81.909C89.173 81.909 88.198 81.181 88.198 79.959C88.198 79.53 88.263 79.062 88.406 78.438L89.342 78.529ZM86.365 72.224C86.287 72.445 86.183 72.861 86.131 73.095C85.884 74.304 85.481 76.618 85.481 78.087C85.481 78.711 85.52 79.257 85.598 79.894C85.819 79.309 86.118 78.529 86.339 77.996L86.885 78.425C86.56 79.348 86.079 80.713 85.962 81.337C85.923 81.519 85.897 81.766 85.897 81.922C85.91 82.052 85.923 82.234 85.936 82.377L85.013 82.442C84.753 81.519 84.532 80.024 84.532 78.256C84.532 76.345 84.961 74.122 85.117 73.043C85.156 72.744 85.195 72.419 85.208 72.133L86.365 72.224ZM96.414 73.446C96.908 73.433 97.324 73.407 97.584 73.381C98.416 73.29 100.873 73.056 103.265 72.848C104.695 72.731 105.904 72.653 106.775 72.627L106.788 73.667C106.034 73.654 104.903 73.68 104.24 73.862C102.381 74.46 101.25 76.449 101.25 77.983C101.25 80.518 103.629 81.337 105.735 81.415L105.358 82.481C102.953 82.39 100.223 81.116 100.223 78.204C100.223 76.189 101.458 74.525 102.641 73.823C101.25 73.966 97.935 74.291 96.531 74.59L96.414 73.446ZM104.903 75.253C105.202 75.682 105.696 76.488 105.982 77.073L105.306 77.372C105.007 76.748 104.643 76.085 104.253 75.539L104.903 75.253ZM106.32 74.707C106.645 75.136 107.152 75.929 107.451 76.501L106.788 76.826C106.476 76.202 106.086 75.552 105.683 75.006L106.32 74.707ZM110.207 73.095C112.014 73.316 113.717 73.342 115.043 73.212C116.109 73.121 117.175 72.9 118.111 72.588L118.254 73.537C117.409 73.784 116.304 74.005 115.264 74.096C113.951 74.226 112.131 74.226 110.272 74.044L110.207 73.095ZM109.947 75.76C112.17 75.994 114.38 75.955 115.901 75.773C117.136 75.643 118.189 75.383 118.878 75.175L119.047 76.137C118.332 76.332 117.344 76.527 116.252 76.657C114.653 76.865 112.248 76.904 110.012 76.735L109.947 75.76ZM114.393 72.926C114.289 72.549 114.172 72.146 114.029 71.769L115.134 71.626C115.264 72.718 115.667 74.031 115.992 74.954C116.343 75.968 116.915 77.216 117.591 78.217C117.734 78.425 117.89 78.607 118.085 78.776L117.539 79.569C116.811 79.387 115.602 79.257 114.705 79.166L114.783 78.373C115.485 78.438 116.33 78.529 116.733 78.581C116.018 77.463 115.472 76.215 115.095 75.162C114.77 74.265 114.575 73.576 114.393 72.926ZM111.845 78.568C111.533 79.01 111.299 79.452 111.299 80.037C111.299 81.103 112.248 81.649 114.289 81.649C115.498 81.649 116.447 81.558 117.396 81.376L117.344 82.403C116.434 82.559 115.42 82.637 114.302 82.637C111.767 82.637 110.337 81.883 110.311 80.206C110.311 79.465 110.532 78.919 110.831 78.347L111.845 78.568ZM121.452 73.368C121.946 73.355 122.362 73.329 122.622 73.303C123.467 73.212 125.911 72.978 128.316 72.77C129.733 72.653 130.942 72.575 131.813 72.549L131.826 73.589C131.072 73.576 129.941 73.602 129.278 73.784C127.419 74.382 126.288 76.371 126.288 77.905C126.288 80.44 128.667 81.246 130.773 81.337L130.409 82.403C127.991 82.312 125.261 81.038 125.261 78.126C125.261 76.098 126.496 74.447 127.692 73.745C126.288 73.888 122.986 74.213 121.569 74.512L121.452 73.368ZM142.252 73.16C142.252 74.109 142.252 75.357 142.252 76.163C142.252 77.801 142.421 79.621 142.421 80.648C142.421 81.714 141.68 82.325 140.289 82.325C138.846 82.325 137.793 81.727 137.793 80.505C137.793 79.595 138.547 78.724 140.276 78.724C142.577 78.724 144.15 79.855 145.125 80.726L144.579 81.636C143.344 80.362 141.784 79.504 140.25 79.504C139.314 79.504 138.703 79.881 138.703 80.453C138.703 81.09 139.288 81.428 140.198 81.428C141.212 81.428 141.472 80.908 141.472 80.206C141.472 79.478 141.316 77.554 141.316 76.202C141.316 75.279 141.316 73.875 141.316 73.16H142.252ZM138.17 75.695C140.51 75.877 142.902 75.721 144.67 75.513V76.462C143.006 76.644 140.497 76.774 138.183 76.644L138.17 75.695ZM138.378 72.679C140.471 72.848 142.863 72.718 144.384 72.497V73.42C142.889 73.576 140.484 73.706 138.378 73.602V72.679ZM136.142 72.146C136.064 72.367 135.96 72.783 135.921 73.017C135.661 74.226 135.284 76.735 135.284 78.191C135.284 78.828 135.323 79.387 135.414 80.024C135.609 79.439 135.934 78.607 136.168 78.087L136.688 78.516C136.363 79.413 135.908 80.752 135.765 81.389C135.726 81.571 135.7 81.818 135.713 81.961C135.713 82.091 135.739 82.286 135.752 82.416L134.816 82.494C134.556 81.558 134.322 80.128 134.322 78.373C134.322 76.462 134.751 74.044 134.907 72.965C134.959 72.666 134.998 72.315 134.998 72.042L136.142 72.146ZM149.74 71.873C149.675 72.302 149.636 72.757 149.61 73.186C149.558 74.655 149.454 77.736 149.454 79.673C149.454 81.103 150.351 81.597 151.586 81.597C153.965 81.597 155.317 80.271 156.253 78.919L156.981 79.803C156.097 81.038 154.407 82.663 151.56 82.663C149.688 82.663 148.401 81.896 148.401 79.764C148.401 77.84 148.531 74.551 148.531 73.186C148.531 72.705 148.492 72.25 148.414 71.873H149.74ZM160.699 72.939C160.634 73.238 160.595 73.862 160.582 74.2C160.569 75.006 160.582 76.202 160.673 77.268C160.894 79.439 161.518 80.882 162.454 80.882C163.117 80.882 163.728 79.543 164.066 78.243L164.885 79.166C164.092 81.363 163.312 82.117 162.428 82.117C161.193 82.117 160.023 80.895 159.659 77.528C159.542 76.41 159.516 74.824 159.516 74.07C159.516 73.771 159.516 73.212 159.438 72.913L160.699 72.939ZM167.459 73.29C168.629 74.798 169.565 77.567 169.76 79.764L168.707 80.18C168.486 77.84 167.693 75.162 166.458 73.641L167.459 73.29ZM172.802 78.841C173.894 78.841 174.778 79.725 174.778 80.817C174.778 81.909 173.894 82.793 172.802 82.793C171.71 82.793 170.813 81.909 170.813 80.817C170.813 79.725 171.71 78.841 172.802 78.841ZM172.802 82.13C173.53 82.13 174.115 81.545 174.115 80.817C174.115 80.089 173.53 79.504 172.802 79.504C172.074 79.504 171.476 80.089 171.476 80.817C171.476 81.545 172.074 82.13 172.802 82.13Z" fill="white"/>
<path d="M5 0.4L250 0.4C252.541 0.4 254.6 2.45949 254.6 5V93C254.6 95.5405 252.541 97.6 250 97.6H5C2.45949 97.6 0.4 95.5405 0.4 93L0.4 5C0.4 2.45949 2.45949 0.4 5 0.4Z" stroke="white" stroke-width="0.8"/>
</svg>
