<svg width="255" height="98" viewBox="0 0 255 98" fill="none" xmlns="http://www.w3.org/2000/svg">
<path d="M0.4 5C0.4 2.45949 2.45949 0.4 5 0.4L250 0.4C252.541 0.4 254.6 2.45949 254.6 5V93C254.6 95.5405 252.541 97.6 250 97.6H5C2.45949 97.6 0.4 95.5405 0.4 93L0.4 5Z" stroke="white" stroke-width="0.8"/>
<path d="M103.218 55.1722H115.962V56.4322H103.218V55.1722ZM102.336 46.1542H116.736V57.4942H115.368V47.4142H103.65V57.5482H102.336V46.1542ZM110.616 46.7302H111.93V50.5462C111.93 50.9422 112.002 50.9962 112.452 50.9962C112.65 50.9962 113.64 50.9962 113.892 50.9962C114.288 50.9962 114.378 50.8342 114.414 49.6282C114.666 49.8262 115.206 50.0242 115.566 50.1142C115.422 51.7882 115.062 52.2022 114.054 52.2022C113.766 52.2022 112.542 52.2022 112.272 52.2022C110.94 52.2022 110.616 51.8422 110.616 50.5462V46.7302ZM101.562 42.2482H117.384V43.5622H101.562V42.2482ZM106.656 43.1302H107.97V46.8742H106.656V43.1302ZM110.634 43.1302H111.984V46.8742H110.634V43.1302ZM106.71 46.5142H107.97V48.2782C107.97 49.9702 107.376 51.9682 104.748 53.2822C104.568 53.0122 104.064 52.5622 103.794 52.3822C106.26 51.1942 106.71 49.6102 106.71 48.2422V46.5142ZM129.606 48.0622L131.154 48.4402C130.326 50.9782 129.156 54.2002 128.202 56.1982L127.014 55.8202C127.95 53.7682 129.048 50.4382 129.606 48.0622ZM125.34 55.5502C127.59 55.4422 131.172 55.2442 134.628 55.0462L134.61 56.2882C131.37 56.5222 127.932 56.7742 125.574 56.9182L125.34 55.5502ZM131.748 51.9322L132.9 51.3742C134.106 53.1562 135.438 55.5142 135.978 57.0082L134.718 57.6562C134.214 56.1622 132.936 53.7502 131.748 51.9322ZM128.31 41.4202L129.714 41.6902C129.03 44.5702 127.914 47.2882 126.51 49.0522C126.258 48.8182 125.682 48.3862 125.34 48.1882C126.744 46.5862 127.752 44.0662 128.31 41.4202ZM132.918 41.3662C133.584 43.7422 134.862 46.4602 135.978 47.9002C135.636 48.1522 135.132 48.6382 134.88 48.9982C133.692 47.3242 132.45 44.3542 131.712 41.7622L132.918 41.3662ZM119.418 44.9302H125.754V46.2082H119.418V44.9302ZM122.136 41.0602H123.414V57.6022H122.136V41.0602ZM122.064 45.7222L122.928 46.0282C122.334 48.9082 121.038 52.4362 119.688 54.2542C119.544 53.8942 119.22 53.3542 118.986 53.0482C120.264 51.4282 121.524 48.3142 122.064 45.7222ZM123.324 47.6662C123.792 48.1702 125.52 50.3662 125.88 50.9062L125.052 51.9682C124.602 51.0682 123.198 49.0162 122.658 48.2962L123.324 47.6662ZM139.11 41.9782H140.46V47.0182C140.46 50.1142 140.208 54.6142 138.336 57.6382C138.084 57.4042 137.49 57.0802 137.148 56.9362C138.948 54.0382 139.11 49.9342 139.11 47.0182V41.9782ZM139.83 41.9782H152.466V46.1362H139.83V45.0022H151.116V43.1122H139.83V41.9782ZM140.496 47.3242H152.988V48.4222H140.496V47.3242ZM141.306 52.9222H152.142V54.0562H141.306V52.9222ZM139.938 56.0002H153.546V57.1162H139.938V56.0002ZM145.968 51.2302H147.3V56.7202H145.968V51.2302ZM140.892 50.4922C143.394 50.4382 147.372 50.3122 151.206 50.1502L151.152 51.1942C147.48 51.3742 143.574 51.5182 140.982 51.6082L140.892 50.4922ZM144.582 47.5402L145.932 48.0082C145.23 49.1242 144.384 50.4382 143.7 51.2842L142.638 50.8522C143.304 49.9702 144.132 48.5302 144.582 47.5402ZM148.056 49.1062L149.064 48.4402C150.432 49.2682 152.088 50.5282 152.88 51.4282L151.818 52.1842C151.044 51.2662 149.424 49.9702 148.056 49.1062Z" fill="white"/>
</svg>
