<svg width="50" height="60" viewBox="0 0 50 60" fill="none" xmlns="http://www.w3.org/2000/svg">
<rect x="1" y="1" width="48" height="58" rx="3" stroke="white" stroke-width="2"/>
<rect x="10.7721" y="7.31616" width="27.3806" height="21.7461" rx="1.06137" fill="#FFAF37" stroke="white" stroke-width="2"/>
<rect x="17.1996" y="32.8892" width="15.4448" height="11.6997" fill="#FFAF37" stroke="white" stroke-width="2"/>
<path d="M38.1955 42.9176L36.4189 32.3145" stroke="white" stroke-width="2"/>
<path d="M11.5475 42.9176L13.324 32.3145" stroke="white" stroke-width="2"/>
<path d="M19.8721 52.8956V45.5891" stroke="white" stroke-width="2"/>
<path d="M21.3184 52.9487H15.9888" stroke="white" stroke-width="2"/>
<path d="M33.7541 52.9485H28.4245" stroke="white" stroke-width="2"/>
<path d="M29.9718 52.8956V45.5891" stroke="white" stroke-width="2"/>
<path d="M9.53334 48.3136C7.7742 47.2398 7.23741 44.9735 8.33438 43.2516C9.43135 41.5297 11.7467 41.0043 13.5058 42.078C15.265 43.1518 15.8018 45.4181 14.7048 47.14C13.6078 48.8619 11.2925 49.3873 9.53334 48.3136ZM12.5741 43.5406C11.6402 42.9705 10.4109 43.2495 9.82857 44.1636C9.24619 45.0778 9.53117 46.281 10.4651 46.851C11.399 47.4211 12.6282 47.1421 13.2106 46.228C13.793 45.3138 13.508 44.1106 12.5741 43.5406Z" fill="white"/>
<path d="M36.4921 48.4429C34.7329 47.3692 34.1961 45.1029 35.2931 43.381C36.3901 41.6591 38.7054 41.1337 40.4646 42.2074C42.2237 43.2812 42.7605 45.5475 41.6635 47.2694C40.5666 48.9913 38.2512 49.5167 36.4921 48.4429ZM39.5328 43.67C38.5989 43.0999 37.3697 43.3789 36.7873 44.293C36.2049 45.2072 36.4899 46.4104 37.4238 46.9804C38.3578 47.5504 39.587 47.2715 40.1693 46.3573C40.7517 45.4432 40.4667 44.24 39.5328 43.67Z" fill="white"/>
</svg>
