<svg width="50" height="60" viewBox="0 0 50 60" fill="none" xmlns="http://www.w3.org/2000/svg">
<rect x="1" y="1" width="48" height="58" rx="3" stroke="white" stroke-width="2"/>
<rect x="10.7721" y="7.31616" width="27.3806" height="21.7461" rx="1.06137" stroke="white" stroke-width="2"/>
<rect x="17.1996" y="32.8892" width="15.4448" height="11.6997" stroke="white" stroke-width="2"/>
<path d="M38.1955 42.9176L36.4189 32.3145" stroke="white" stroke-width="2"/>
<path d="M11.5475 42.9176L13.324 32.3145" stroke="white" stroke-width="2"/>
<path d="M19.872 52.8956V45.5891" stroke="white" stroke-width="2"/>
<path d="M21.3184 52.9487H15.9888" stroke="white" stroke-width="2"/>
<path d="M33.7541 52.9485H28.4245" stroke="white" stroke-width="2"/>
<path d="M29.9718 52.8956V45.5891" stroke="white" stroke-width="2"/>
<path d="M9.53328 48.3136C8.82573 47.8817 8.28523 47.2315 7.99706 46.4656C7.70888 45.6997 7.68945 44.8617 7.94182 44.0838C8.19419 43.3058 8.70399 42.6323 9.39079 42.1695C10.0776 41.7066 10.9023 41.4808 11.7348 41.5276C12.5673 41.5744 13.3601 41.8912 13.9883 42.4279C14.6164 42.9647 15.0441 43.6909 15.2038 44.492C15.3635 45.2931 15.2462 46.1234 14.8703 46.852C14.4944 47.5806 13.8814 48.1659 13.128 48.5156L12.3735 46.9583C12.7735 46.7726 13.0989 46.4619 13.2984 46.0751C13.498 45.6883 13.5603 45.2475 13.4755 44.8222C13.3907 44.3969 13.1637 44.0113 12.8302 43.7263C12.4967 43.4414 12.0758 43.2732 11.6338 43.2483C11.1918 43.2235 10.754 43.3434 10.3894 43.5891C10.0248 43.8349 9.75411 44.1924 9.62013 44.6054C9.48615 45.0184 9.49647 45.4633 9.64946 45.8699C9.80245 46.2765 10.0894 46.6217 10.465 46.851L9.53328 48.3136Z" fill="white"/>
<path d="M36.4921 48.4429C35.7845 48.0111 35.244 47.3609 34.9559 46.595C34.6677 45.8291 34.6483 44.9911 34.9006 44.2132C35.153 43.4352 35.6628 42.7617 36.3496 42.2989C37.0364 41.836 37.8611 41.6102 38.6936 41.657C39.5261 41.7038 40.3189 42.0205 40.9471 42.5573C41.5752 43.0941 42.0029 43.8203 42.1626 44.6214C42.3223 45.4225 42.205 46.2528 41.8291 46.9814C41.4532 47.71 40.8402 48.2953 40.0868 48.645L39.3323 47.0877C39.7323 46.902 40.0577 46.5913 40.2572 46.2045C40.4568 45.8177 40.5191 45.3769 40.4343 44.9516C40.3495 44.5263 40.1225 44.1407 39.789 43.8557C39.4555 43.5708 39.0346 43.4026 38.5926 43.3777C38.1506 43.3529 37.7128 43.4728 37.3482 43.7185C36.9836 43.9642 36.7129 44.3218 36.5789 44.7348C36.4449 45.1478 36.4553 45.5927 36.6083 45.9993C36.7612 46.4059 37.0482 46.7511 37.4238 46.9804L36.4921 48.4429Z" fill="white"/>
</svg>
