<svg width="50" height="60" viewBox="0 0 50 60" fill="none" xmlns="http://www.w3.org/2000/svg">
<path d="M26.5352 27.9342V13.5658C26.5352 12.7105 27.0483 11 29.1009 11C31.1536 11 31.6667 12.7105 31.6667 13.5658V33.5789M31.6668 32.0395L35.2588 27.9342C35.772 27.421 37.1062 26.7026 38.3378 27.9342C39.8773 29.4737 39.3641 31.0131 37.8246 33.0658L34.934 36.92C34.8086 37.0871 34.6966 37.2638 34.5988 37.4484L30.5094 45.1729C30.2585 45.6469 30.1273 46.1751 30.1273 46.7115V46.7115C30.1273 48.5277 28.655 50 26.8388 50H17.4632C15.6717 50 14.2194 48.5477 14.2194 46.7562V46.7562C14.2194 46.1917 14.0677 45.6401 13.8223 45.1317C13.0763 43.586 11.996 40.766 11.6536 37.6842C11.1404 33.0658 10.6273 28.4474 11.6536 26.9079C12.6799 25.3684 13.7062 25.3684 14.2194 25.3684C14.7326 25.3684 16.272 25.8816 16.272 26.9079M16.272 29.9868V24.8552C16.272 24.171 16.5799 22.6999 17.8114 22.2894C19.3509 21.7763 21.4036 22.2894 21.4036 24.8552V27.9342M21.4036 25.3684V22.8026C21.4036 22.2894 21.9167 20.2368 23.9694 20.2368C26.022 20.2368 26.5351 21.7763 26.5351 24.8552" stroke="white" stroke-width="2" stroke-linecap="round" stroke-linejoin="round"/>
<rect x="1" y="1" width="48" height="58" rx="3" stroke="white" stroke-width="2"/>
</svg>
