<svg width="50" height="60" viewBox="0 0 50 60" fill="none" xmlns="http://www.w3.org/2000/svg">
<path d="M26.7925 50H17.682C15.9246 50 14.5 48.5754 14.5 46.818V45.9643C14.5 45.667 14.3819 45.3819 14.1717 45.1717C14.0585 45.0585 13.9709 44.9225 13.9147 44.7727L12.5 41L11.6111 37.8889C11.5372 37.6303 11.4896 37.3649 11.469 37.0968L11.0337 31.4378C11.0113 31.1468 11.0208 30.8542 11.0621 30.5653L11.4685 27.7208C11.4894 27.5739 11.5236 27.4292 11.5705 27.2884L11.6105 27.1684C11.8531 26.4407 12.4507 25.8873 13.1948 25.7013L13.5221 25.6195C13.8305 25.5424 14.1563 25.5781 14.4406 25.7203C15.226 26.113 16.1697 25.6514 16.3419 24.7904L16.4061 24.4696C16.4673 24.1634 16.6178 23.8822 16.8386 23.6614L17.1823 23.3177C17.7059 22.7941 18.4159 22.5 19.1563 22.5H19.2306C19.4095 22.5 19.5878 22.5219 19.7614 22.5653L19.9846 22.6212C20.866 22.8415 21.7804 22.4097 22.1702 21.5891C22.4862 20.9239 23.1568 20.5 23.8932 20.5H24.7153C24.9025 20.5 25.0872 20.5436 25.2546 20.6273C26.0565 21.0283 27 20.4452 27 19.5486V13.8874C27 13.6308 27.0414 13.3759 27.1225 13.1325L27.184 12.9479C27.3829 12.3512 27.8512 11.8829 28.4479 11.684C28.8085 11.5638 29.1958 11.549 29.5646 11.6411L29.8161 11.704C30.5535 11.8884 31.1456 12.4367 31.3859 13.1577C31.4615 13.3844 31.5 13.6218 31.5 13.8608V28.1006C31.5 29.5683 33.4035 30.1447 34.2177 28.9235C34.4007 28.649 34.6699 28.4434 34.9828 28.3391L35.5585 28.1472C35.8509 28.0497 36.1571 28 36.4653 28H36.8486C37.5679 28 38.2397 28.3595 38.6387 28.958C38.8743 29.3114 39 29.7267 39 30.1514V30.2232C39 30.7281 38.8401 31.2199 38.5431 31.6282L35.1701 36.2662C35.0568 36.4219 34.955 36.5855 34.8653 36.7559L30.3691 45.2987C30.1267 45.7593 30 46.272 30 46.7925C30 48.564 28.564 50 26.7925 50Z" fill="#FFAF37"/>
<path d="M26.5352 27.9342V13.5658C26.5352 12.7105 27.0483 11 29.1009 11C31.1536 11 31.6667 12.7105 31.6667 13.5658V33.5789M31.6668 32.0395L35.2588 27.9342C35.772 27.421 37.1062 26.7026 38.3378 27.9342C39.8773 29.4737 39.3641 31.0131 37.8246 33.0658L34.934 36.92C34.8086 37.0871 34.6966 37.2638 34.5988 37.4484L30.5094 45.1729C30.2585 45.6469 30.1273 46.1751 30.1273 46.7115V46.7115C30.1273 48.5277 28.655 50 26.8388 50H17.4632C15.6717 50 14.2194 48.5477 14.2194 46.7562V46.7562C14.2194 46.1917 14.0677 45.6401 13.8223 45.1317C13.0763 43.586 11.996 40.766 11.6536 37.6842C11.1404 33.0658 10.6273 28.4474 11.6536 26.9079C12.6799 25.3684 13.7062 25.3684 14.2194 25.3684C14.7306 25.3684 16.26 25.8776 16.272 26.8959M16.272 26.8959C16.272 26.8999 16.272 26.9039 16.272 26.9079M16.272 26.8959V29.9868M16.272 26.8959V24.8552C16.272 24.171 16.5799 22.6999 17.8114 22.2894C19.3509 21.7763 21.4036 22.2894 21.4036 24.8552V27.9342M21.4036 25.3684V22.8026C21.4036 22.2894 21.9167 20.2368 23.9694 20.2368C26.022 20.2368 26.5351 21.7763 26.5351 24.8552" stroke="white" stroke-width="2" stroke-linecap="round" stroke-linejoin="round"/>
<rect x="1" y="1" width="48" height="58" rx="3" stroke="white" stroke-width="2"/>
</svg>
