<svg width="50" height="60" viewBox="0 0 50 60" fill="none" xmlns="http://www.w3.org/2000/svg">
<path d="M40.5 1H45C47.2091 1 49 2.79086 49 5V55C49 57.2091 47.2091 59 45 59H29.8968C27.6877 59 25.8968 57.2091 25.8968 55V44.5M9 59H5C2.79086 59 1 57.2091 1 55V5C1 2.79086 2.79086 1 5 1H22C24.2091 1 26 2.79086 26 5V16" stroke="white" stroke-width="2" stroke-linecap="round" stroke-linejoin="round"/>
<path d="M38 16H13V33H19.25V26.9286H31.75V33H38V16Z" fill="#FFAF37" stroke="white" stroke-width="2"/>
<path d="M38 44H13V33.0092H19.25V27H31.75V33.0092H38V44Z" fill="#FFAF37" stroke="white" stroke-width="2"/>
</svg>
