<svg width="50" height="61" viewBox="0 0 50 61" fill="none" xmlns="http://www.w3.org/2000/svg">
<path d="M39.5 2.00005C49 2.00005 49 0.499598 49 22C49 37.1757 49 49.8599 49 56.0094C49 58.2185 47.2091 60.0001 45 60.0001H29.8968C27.6877 60.0001 25.8968 58.2092 25.8968 56.0001V52.0001M8.5 60.0001H5C2.79086 60.0001 1 58.2092 1 56.0001V38V6.00007C1 3.79093 2.79086 2.00006 5 2.00006H22C24.2091 2.00006 26 3.79092 26 6.00006V10.0001" stroke="white" stroke-width="2" stroke-linecap="round" stroke-linejoin="round"/>
<path d="M38 10H13V27H19.25V20.9286H31.75V27H38V10Z" stroke="white" stroke-width="2"/>
<path d="M38 52H13V41.0092H19.25V35H31.75V41.0092H38V52Z" stroke="white" stroke-width="2"/>
</svg>
