<svg width="50" height="61" viewBox="0 0 50 61" fill="none" xmlns="http://www.w3.org/2000/svg">
<rect x="1" y="1" width="48" height="58.3448" rx="3" stroke="white" stroke-width="2"/>
<path d="M24.0218 34.2085C23.1218 29.1985 30.1718 27.8785 30.1718 24.4585C30.1718 22.3885 28.7018 20.8885 25.6418 20.8885C23.5718 20.8885 21.6818 21.7885 19.9418 23.5885L18.3518 22.1185C20.3318 20.0185 22.6718 18.6085 25.9118 18.6085C30.1418 18.6085 32.8718 20.7985 32.8718 24.2485C32.8718 28.7785 25.7018 29.7085 26.4818 34.2085H24.0218ZM25.3118 41.5885C24.2318 41.5885 23.3918 40.8385 23.3918 39.6385C23.3918 38.4385 24.2618 37.6285 25.3118 37.6285C26.3618 37.6285 27.2318 38.4385 27.2318 39.6385C27.2318 40.8385 26.3618 41.5885 25.3118 41.5885Z" fill="white"/>
</svg>
