<svg width="50" height="61" viewBox="0 0 50 61" fill="none" xmlns="http://www.w3.org/2000/svg">
<rect x="1" y="1" width="48" height="58.3448" rx="3" stroke="white" stroke-width="2"/>
<path d="M27.4225 19.5885L27.0325 34.1385H24.1825L23.7925 19.5885H27.4225ZM25.7125 40.6485C25.0925 40.6485 24.5725 40.4385 24.1525 40.0185C23.7325 39.5985 23.5225 39.0785 23.5225 38.4585C23.5225 37.8385 23.7325 37.3185 24.1525 36.8985C24.5725 36.4785 25.0925 36.2685 25.7125 36.2685C26.3125 36.2685 26.8225 36.4785 27.2425 36.8985C27.6625 37.3185 27.8725 37.8385 27.8725 38.4585C27.8725 39.0785 27.6625 39.5985 27.2425 40.0185C26.8225 40.4385 26.3125 40.6485 25.7125 40.6485Z" fill="#FFAF37"/>
</svg>
